G04 (created by PCBNEW (2013-05-31 BZR 4019)-stable) date 14/03/2014 22:41:48*
%MOIN*%
G04 Gerber Fmt 3.4, Leading zero omitted, Abs format*
%FSLAX34Y34*%
G01*
G70*
G90*
G04 APERTURE LIST*
%ADD10C,0.00590551*%
%ADD11C,0.118425*%
%ADD12C,0.12*%
%ADD13C,0.09*%
%ADD14R,0.055X0.075*%
%ADD15R,0.075X0.075*%
%ADD16C,0.075*%
%ADD17R,0.0514961X0.0908661*%
G04 APERTURE END LIST*
G54D10*
G54D11*
X45150Y-36200D03*
X44150Y-37200D03*
X46150Y-37200D03*
X46150Y-35200D03*
X44150Y-35200D03*
G54D12*
X69120Y-35213D03*
X69090Y-46233D03*
G54D13*
X55100Y-48263D03*
X56100Y-48263D03*
X57100Y-48263D03*
X58100Y-48263D03*
X59100Y-48263D03*
X60100Y-48263D03*
X61100Y-48263D03*
X54100Y-48263D03*
X67120Y-29183D03*
X66120Y-29183D03*
X65120Y-29183D03*
X64120Y-29183D03*
X63120Y-29183D03*
X62120Y-29183D03*
X61120Y-29183D03*
X68120Y-29183D03*
X64090Y-48263D03*
X65090Y-48263D03*
X66090Y-48263D03*
X67090Y-48263D03*
X68090Y-48263D03*
X63090Y-48263D03*
X58610Y-29173D03*
X57610Y-29173D03*
X56610Y-29173D03*
X55610Y-29173D03*
X54610Y-29173D03*
X53610Y-29173D03*
X52610Y-29173D03*
X51610Y-29173D03*
X50610Y-29173D03*
X59610Y-29173D03*
G54D11*
X45050Y-31050D03*
X44050Y-32050D03*
X46050Y-32050D03*
X46050Y-30050D03*
X44050Y-30050D03*
X45200Y-44450D03*
X44200Y-45450D03*
X46200Y-45450D03*
X46200Y-43450D03*
X44200Y-43450D03*
G54D14*
X58682Y-39488D03*
X57932Y-39488D03*
X58682Y-40590D03*
X57932Y-40590D03*
G54D15*
X50496Y-48267D03*
G54D16*
X51496Y-48267D03*
X52496Y-48267D03*
G54D15*
X67100Y-31750D03*
G54D16*
X66100Y-31750D03*
X65100Y-31750D03*
X64100Y-31750D03*
X63100Y-31750D03*
X62100Y-31750D03*
X61100Y-31750D03*
X60100Y-31750D03*
X59100Y-31750D03*
X58100Y-31750D03*
G54D17*
X48905Y-40079D03*
X49338Y-40079D03*
X49772Y-40079D03*
X50205Y-40079D03*
X50638Y-40079D03*
X51071Y-40079D03*
X51504Y-40079D03*
X51937Y-40079D03*
X52370Y-40079D03*
X48905Y-36339D03*
X49338Y-36339D03*
X49772Y-36339D03*
X50205Y-36339D03*
X50638Y-36339D03*
X51071Y-36339D03*
X51504Y-36339D03*
X51937Y-36339D03*
X52370Y-36339D03*
X48922Y-35228D03*
X49355Y-35228D03*
X49788Y-35228D03*
X50221Y-35228D03*
X50654Y-35228D03*
X51087Y-35228D03*
X52583Y-35228D03*
X53016Y-35228D03*
X53449Y-35228D03*
X53882Y-35228D03*
X54315Y-35228D03*
X54748Y-35228D03*
X55181Y-35228D03*
X55614Y-35228D03*
X55614Y-41842D03*
X48922Y-41842D03*
X55181Y-41842D03*
X54748Y-41842D03*
X54315Y-41842D03*
X53882Y-41842D03*
X53449Y-41842D03*
X53016Y-41842D03*
X52583Y-41842D03*
X51087Y-41842D03*
X50654Y-41842D03*
X50221Y-41842D03*
X49788Y-41842D03*
X49355Y-41842D03*
G54D15*
X63114Y-30492D03*
G54D16*
X62114Y-30492D03*
X61114Y-30492D03*
X60114Y-30492D03*
G54D12*
X49120Y-29303D03*
X48620Y-48193D03*
M02*
