G04 (created by PCBNEW (2013-05-31 BZR 4019)-stable) date 20/03/2014 22:02:18*
%MOIN*%
G04 Gerber Fmt 3.4, Leading zero omitted, Abs format*
%FSLAX34Y34*%
G01*
G70*
G90*
G04 APERTURE LIST*
%ADD10C,0.00590551*%
%ADD11C,0.00984252*%
%ADD12C,0.0984252*%
%ADD13C,0.1*%
%ADD14C,0.07*%
%ADD15R,0.06X0.08*%
%ADD16R,0.08X0.06*%
%ADD17R,0.035X0.055*%
%ADD18R,0.055X0.035*%
%ADD19R,0.055X0.055*%
%ADD20C,0.055*%
%ADD21R,0.0787X0.0551*%
%ADD22R,0.141732X0.0350394*%
%ADD23C,0.035*%
%ADD24C,0.02*%
%ADD25C,0.008*%
%ADD26C,0.0354331*%
G04 APERTURE END LIST*
G54D10*
G54D11*
X68922Y-38597D02*
X68894Y-38653D01*
X68894Y-38747D01*
X68922Y-38785D01*
X68951Y-38803D01*
X69007Y-38822D01*
X69063Y-38822D01*
X69119Y-38803D01*
X69147Y-38785D01*
X69176Y-38747D01*
X69204Y-38672D01*
X69232Y-38635D01*
X69260Y-38616D01*
X69316Y-38597D01*
X69372Y-38597D01*
X69429Y-38616D01*
X69457Y-38635D01*
X69485Y-38672D01*
X69485Y-38766D01*
X69457Y-38822D01*
X68894Y-38991D02*
X69485Y-38991D01*
X69457Y-39385D02*
X69485Y-39347D01*
X69485Y-39291D01*
X69457Y-39235D01*
X69401Y-39197D01*
X69344Y-39178D01*
X69232Y-39160D01*
X69147Y-39160D01*
X69035Y-39178D01*
X68979Y-39197D01*
X68922Y-39235D01*
X68894Y-39291D01*
X68894Y-39328D01*
X68922Y-39385D01*
X68951Y-39403D01*
X69147Y-39403D01*
X69147Y-39328D01*
X69204Y-39703D02*
X69204Y-39572D01*
X68894Y-39572D02*
X69485Y-39572D01*
X69485Y-39760D01*
X69485Y-39985D02*
X69485Y-40059D01*
X69457Y-40097D01*
X69401Y-40134D01*
X69288Y-40153D01*
X69091Y-40153D01*
X68979Y-40134D01*
X68922Y-40097D01*
X68894Y-40059D01*
X68894Y-39985D01*
X68922Y-39947D01*
X68979Y-39910D01*
X69091Y-39891D01*
X69288Y-39891D01*
X69401Y-39910D01*
X69457Y-39947D01*
X69485Y-39985D01*
X69485Y-40284D02*
X68894Y-40547D01*
X69485Y-40547D02*
X68894Y-40284D01*
X69485Y-40697D02*
X69007Y-40697D01*
X68951Y-40716D01*
X68922Y-40734D01*
X68894Y-40772D01*
X68894Y-40847D01*
X68922Y-40884D01*
X68951Y-40903D01*
X69007Y-40922D01*
X69485Y-40922D01*
X68894Y-41109D02*
X69485Y-41109D01*
X68894Y-41297D02*
X69485Y-41297D01*
X68894Y-41522D01*
X69485Y-41522D01*
X69485Y-41784D02*
X69485Y-41859D01*
X69457Y-41897D01*
X69401Y-41934D01*
X69288Y-41953D01*
X69091Y-41953D01*
X68979Y-41934D01*
X68922Y-41897D01*
X68894Y-41859D01*
X68894Y-41784D01*
X68922Y-41747D01*
X68979Y-41709D01*
X69091Y-41691D01*
X69288Y-41691D01*
X69401Y-41709D01*
X69457Y-41747D01*
X69485Y-41784D01*
X44398Y-48411D02*
X44379Y-48439D01*
X44323Y-48467D01*
X44285Y-48467D01*
X44229Y-48439D01*
X44191Y-48383D01*
X44173Y-48326D01*
X44154Y-48214D01*
X44154Y-48129D01*
X44173Y-48017D01*
X44191Y-47961D01*
X44229Y-47904D01*
X44285Y-47876D01*
X44323Y-47876D01*
X44379Y-47904D01*
X44398Y-47933D01*
X44566Y-48467D02*
X44566Y-47876D01*
X44960Y-48467D02*
X44735Y-48467D01*
X44848Y-48467D02*
X44848Y-47876D01*
X44810Y-47961D01*
X44773Y-48017D01*
X44735Y-48045D01*
X45298Y-48073D02*
X45298Y-48467D01*
X45204Y-47848D02*
X45110Y-48270D01*
X45354Y-48270D01*
X45504Y-48242D02*
X45804Y-48242D01*
X46066Y-47876D02*
X46104Y-47876D01*
X46141Y-47904D01*
X46160Y-47933D01*
X46179Y-47989D01*
X46197Y-48101D01*
X46197Y-48242D01*
X46179Y-48354D01*
X46160Y-48411D01*
X46141Y-48439D01*
X46104Y-48467D01*
X46066Y-48467D01*
X46029Y-48439D01*
X46010Y-48411D01*
X45991Y-48354D01*
X45973Y-48242D01*
X45973Y-48101D01*
X45991Y-47989D01*
X46010Y-47933D01*
X46029Y-47904D01*
X46066Y-47876D01*
X46441Y-47876D02*
X46479Y-47876D01*
X46516Y-47904D01*
X46535Y-47933D01*
X46554Y-47989D01*
X46572Y-48101D01*
X46572Y-48242D01*
X46554Y-48354D01*
X46535Y-48411D01*
X46516Y-48439D01*
X46479Y-48467D01*
X46441Y-48467D01*
X46404Y-48439D01*
X46385Y-48411D01*
X46366Y-48354D01*
X46347Y-48242D01*
X46347Y-48101D01*
X46366Y-47989D01*
X46385Y-47933D01*
X46404Y-47904D01*
X46441Y-47876D01*
X46947Y-48467D02*
X46722Y-48467D01*
X46835Y-48467D02*
X46835Y-47876D01*
X46797Y-47961D01*
X46760Y-48017D01*
X46722Y-48045D01*
G54D12*
X45150Y-36200D03*
X44150Y-37200D03*
X46150Y-37200D03*
X46150Y-35200D03*
X44150Y-35200D03*
G54D13*
X69120Y-35213D03*
X69090Y-46233D03*
G54D14*
X55100Y-48263D03*
X56100Y-48263D03*
X57100Y-48263D03*
X58100Y-48263D03*
X59100Y-48263D03*
X60100Y-48263D03*
X61100Y-48263D03*
X54100Y-48263D03*
X67120Y-29183D03*
X66120Y-29183D03*
X65120Y-29183D03*
X64120Y-29183D03*
X63120Y-29183D03*
X62120Y-29183D03*
X61120Y-29183D03*
X68120Y-29183D03*
X64090Y-48263D03*
X65090Y-48263D03*
X66090Y-48263D03*
X67090Y-48263D03*
X68090Y-48263D03*
X63090Y-48263D03*
X58610Y-29173D03*
X57610Y-29173D03*
X56610Y-29173D03*
X55610Y-29173D03*
X54610Y-29173D03*
X53610Y-29173D03*
X52610Y-29173D03*
X51610Y-29173D03*
X50610Y-29173D03*
X59610Y-29173D03*
G54D12*
X45050Y-31050D03*
X44050Y-32050D03*
X46050Y-32050D03*
X46050Y-30050D03*
X44050Y-30050D03*
X45200Y-44450D03*
X44200Y-45450D03*
X46200Y-45450D03*
X46200Y-43450D03*
X44200Y-43450D03*
G54D15*
X46457Y-33248D03*
X45157Y-33248D03*
X61940Y-33350D03*
X63240Y-33350D03*
G54D16*
X58110Y-45688D03*
X58110Y-46988D03*
X55472Y-39390D03*
X55472Y-38090D03*
G54D17*
X45075Y-39085D03*
X44325Y-39085D03*
X46575Y-39085D03*
X45825Y-39085D03*
G54D18*
X54212Y-38721D03*
X54212Y-37971D03*
G54D17*
X62184Y-34488D03*
X62934Y-34488D03*
G54D18*
X63300Y-45725D03*
X63300Y-46475D03*
X67100Y-33675D03*
X67100Y-32925D03*
X66100Y-33675D03*
X66100Y-32925D03*
G54D17*
X46575Y-41418D03*
X45825Y-41418D03*
X45125Y-40267D03*
X44375Y-40267D03*
X46575Y-40267D03*
X45825Y-40267D03*
G54D18*
X59370Y-45806D03*
X59370Y-46556D03*
X60527Y-45802D03*
X60527Y-46552D03*
X65500Y-46475D03*
X65500Y-45725D03*
X66550Y-46475D03*
X66550Y-45725D03*
X64400Y-46475D03*
X64400Y-45725D03*
X67600Y-46475D03*
X67600Y-45725D03*
G54D17*
X45125Y-41418D03*
X44375Y-41418D03*
G54D19*
X50496Y-48267D03*
G54D20*
X51496Y-48267D03*
X52496Y-48267D03*
G54D19*
X67100Y-31750D03*
G54D20*
X66100Y-31750D03*
X65100Y-31750D03*
X64100Y-31750D03*
X63100Y-31750D03*
X62100Y-31750D03*
X61100Y-31750D03*
X60100Y-31750D03*
X59100Y-31750D03*
X58100Y-31750D03*
G54D21*
X53980Y-35743D03*
X53991Y-34955D03*
X53991Y-34168D03*
X53991Y-33400D03*
X53991Y-32632D03*
X53991Y-31845D03*
X53991Y-31057D03*
X47731Y-31057D03*
X47731Y-31845D03*
X47731Y-32632D03*
X47731Y-33400D03*
X47731Y-34168D03*
X47731Y-34955D03*
X47731Y-35743D03*
G54D18*
X61456Y-42813D03*
X61456Y-43563D03*
X63385Y-43563D03*
X63385Y-42813D03*
X62401Y-42813D03*
X62401Y-43563D03*
G54D19*
X63114Y-30492D03*
G54D20*
X62114Y-30492D03*
X61114Y-30492D03*
X60114Y-30492D03*
G54D13*
X49120Y-29303D03*
X48620Y-48193D03*
G54D22*
X48531Y-37960D03*
X48531Y-38460D03*
X48531Y-38960D03*
X48531Y-39460D03*
X48531Y-39960D03*
X48531Y-40460D03*
X48531Y-40960D03*
X48531Y-41460D03*
X48531Y-41960D03*
X48531Y-42460D03*
X48531Y-42960D03*
X48531Y-45460D03*
X48531Y-45960D03*
X48531Y-46460D03*
X52925Y-42960D03*
X52925Y-42460D03*
X52925Y-41960D03*
X52925Y-41460D03*
X52925Y-40960D03*
X52925Y-40460D03*
X52925Y-39960D03*
X52925Y-39460D03*
X52925Y-38960D03*
X52925Y-38460D03*
X52925Y-37960D03*
G54D23*
X56417Y-37874D03*
X54100Y-40950D03*
X58500Y-37850D03*
X48300Y-36750D03*
X47400Y-37850D03*
X47350Y-46500D03*
X47900Y-44900D03*
X56800Y-42000D03*
X61200Y-39800D03*
X58800Y-36200D03*
X56400Y-36200D03*
X57800Y-34200D03*
X58800Y-33000D03*
X60600Y-35000D03*
X64800Y-33400D03*
X64000Y-35200D03*
X64000Y-38400D03*
X66000Y-40600D03*
X66000Y-38400D03*
X67800Y-36600D03*
X67800Y-38400D03*
X67800Y-40400D03*
X67800Y-42600D03*
X69400Y-37200D03*
X69400Y-42600D03*
X69400Y-44400D03*
X65400Y-44200D03*
X63600Y-44400D03*
X62200Y-41600D03*
X60400Y-44600D03*
X60400Y-43400D03*
X59000Y-43400D03*
X57400Y-43400D03*
X55800Y-43400D03*
X54200Y-43400D03*
X55800Y-46200D03*
X54200Y-46200D03*
X52600Y-46200D03*
X50400Y-43800D03*
X52600Y-33000D03*
X51200Y-33000D03*
X49800Y-33000D03*
X52600Y-32000D03*
X51200Y-32000D03*
X49800Y-32000D03*
X52600Y-30800D03*
X51200Y-30800D03*
X49800Y-30800D03*
X46800Y-28800D03*
X45600Y-28800D03*
X44000Y-28800D03*
X62000Y-48400D03*
X47600Y-48600D03*
X43600Y-47000D03*
X43600Y-48600D03*
X46900Y-46100D03*
X47650Y-44300D03*
X47200Y-43850D03*
X47800Y-36500D03*
X49750Y-37400D03*
X47000Y-37500D03*
X47000Y-30500D03*
X51102Y-39251D03*
X57244Y-37874D03*
X60905Y-33307D03*
X63250Y-45100D03*
X65450Y-45100D03*
X55472Y-32283D03*
X46900Y-34250D03*
X54000Y-30200D03*
X55450Y-31400D03*
X48800Y-34150D03*
X53000Y-34100D03*
X60629Y-42834D03*
X62125Y-45551D03*
X52165Y-44094D03*
X52165Y-45078D03*
X62566Y-46448D03*
X47322Y-40275D03*
X47244Y-39055D03*
X58188Y-41456D03*
X60354Y-41456D03*
X60354Y-39606D03*
X60354Y-37874D03*
X60354Y-36574D03*
X59803Y-39606D03*
X59803Y-37913D03*
X59803Y-36141D03*
X64173Y-43582D03*
X61417Y-46023D03*
G54D24*
X54030Y-38721D02*
X53791Y-38960D01*
X53791Y-38960D02*
X52728Y-38960D01*
X54212Y-38721D02*
X54030Y-38721D01*
X51102Y-39251D02*
X51393Y-38960D01*
X51393Y-38960D02*
X52728Y-38960D01*
X56161Y-39390D02*
X57244Y-38307D01*
X57244Y-38307D02*
X57244Y-37874D01*
X55472Y-39390D02*
X56161Y-39390D01*
X60948Y-33350D02*
X61940Y-33350D01*
X60905Y-33307D02*
X60948Y-33350D01*
X61940Y-33350D02*
X61940Y-34244D01*
X61940Y-34244D02*
X62184Y-34488D01*
X57100Y-48263D02*
X57100Y-46088D01*
X57100Y-46088D02*
X57500Y-45688D01*
X57500Y-45688D02*
X58110Y-45688D01*
X55472Y-39390D02*
X54881Y-39390D01*
X54881Y-39390D02*
X54212Y-38721D01*
X60527Y-45802D02*
X59374Y-45802D01*
X59374Y-45802D02*
X59260Y-45688D01*
X59260Y-45688D02*
X58110Y-45688D01*
X47731Y-31845D02*
X48666Y-31845D01*
X61491Y-31141D02*
X62100Y-31750D01*
X59606Y-31141D02*
X61491Y-31141D01*
X59271Y-30807D02*
X59606Y-31141D01*
X59271Y-30472D02*
X59271Y-30807D01*
X60334Y-29409D02*
X59271Y-30472D01*
X60334Y-28779D02*
X60334Y-29409D01*
X60039Y-28484D02*
X60334Y-28779D01*
X48267Y-28484D02*
X60039Y-28484D01*
X47913Y-28838D02*
X48267Y-28484D01*
X47913Y-29724D02*
X47913Y-28838D01*
X48897Y-30708D02*
X47913Y-29724D01*
X48897Y-31614D02*
X48897Y-30708D01*
X48666Y-31845D02*
X48897Y-31614D01*
X46457Y-33248D02*
X46457Y-32873D01*
X46968Y-32362D02*
X46968Y-32066D01*
X46457Y-32873D02*
X46968Y-32362D01*
X46968Y-32066D02*
X47190Y-31845D01*
X47190Y-31845D02*
X47731Y-31845D01*
G54D25*
X47190Y-31845D02*
X47731Y-31845D01*
X46968Y-32066D02*
X47190Y-31845D01*
G54D24*
X60527Y-45802D02*
X60527Y-45531D01*
X60959Y-45100D02*
X63250Y-45100D01*
X60527Y-45531D02*
X60959Y-45100D01*
X62100Y-33190D02*
X61940Y-33350D01*
X62100Y-31750D02*
X62100Y-33190D01*
X63300Y-45725D02*
X63250Y-45675D01*
X63250Y-45675D02*
X63250Y-45100D01*
X66500Y-45675D02*
X66550Y-45725D01*
X65450Y-45100D02*
X65450Y-45675D01*
X65450Y-45675D02*
X66500Y-45675D01*
X63300Y-45725D02*
X63225Y-45650D01*
X48728Y-38960D02*
X49307Y-38960D01*
X58822Y-29960D02*
X59610Y-29173D01*
X58622Y-29960D02*
X58822Y-29960D01*
X57086Y-31496D02*
X58622Y-29960D01*
X57086Y-34527D02*
X57086Y-31496D01*
X54960Y-36653D02*
X57086Y-34527D01*
X51614Y-36653D02*
X54960Y-36653D01*
X49307Y-38960D02*
X51614Y-36653D01*
X53991Y-34955D02*
X54493Y-34955D01*
X55472Y-33976D02*
X55472Y-32283D01*
X54493Y-34955D02*
X55472Y-33976D01*
X47193Y-35743D02*
X47731Y-35743D01*
X47000Y-35550D02*
X47193Y-35743D01*
X47000Y-34350D02*
X47000Y-35550D01*
X46900Y-34250D02*
X47000Y-34350D01*
X55200Y-30200D02*
X54000Y-30200D01*
X55450Y-30450D02*
X55200Y-30200D01*
X55450Y-31400D02*
X55450Y-30450D01*
X48782Y-34168D02*
X47731Y-34168D01*
X48800Y-34150D02*
X48782Y-34168D01*
X55610Y-29173D02*
X55610Y-29487D01*
X55005Y-35743D02*
X53980Y-35743D01*
X56259Y-34488D02*
X55005Y-35743D01*
X56259Y-30137D02*
X56259Y-34488D01*
X55610Y-29487D02*
X56259Y-30137D01*
X47736Y-34950D02*
X47731Y-34955D01*
X48727Y-34950D02*
X47736Y-34950D01*
X49577Y-34100D02*
X48727Y-34950D01*
X53000Y-34100D02*
X49577Y-34100D01*
X63090Y-48263D02*
X63090Y-48011D01*
X60650Y-42813D02*
X61456Y-42813D01*
X60629Y-42834D02*
X60650Y-42813D01*
X62125Y-47047D02*
X62125Y-45551D01*
X63090Y-48011D02*
X62125Y-47047D01*
X63385Y-42813D02*
X62401Y-42813D01*
X61456Y-42813D02*
X62401Y-42813D01*
G54D25*
X63120Y-48233D02*
X63090Y-48263D01*
G54D24*
X52165Y-45078D02*
X52165Y-44094D01*
X63300Y-46475D02*
X63275Y-46450D01*
X63275Y-46450D02*
X62566Y-46448D01*
X63300Y-46475D02*
X63300Y-47000D01*
X64090Y-47790D02*
X64090Y-48263D01*
X63300Y-47000D02*
X64090Y-47790D01*
G54D25*
X64120Y-48233D02*
X64090Y-48263D01*
G54D24*
X46575Y-40267D02*
X47314Y-40267D01*
X47314Y-40267D02*
X47322Y-40275D01*
G54D25*
X65120Y-48233D02*
X65090Y-48263D01*
G54D24*
X46575Y-39085D02*
X47213Y-39085D01*
X47213Y-39085D02*
X47244Y-39055D01*
G54D25*
X66120Y-48233D02*
X66090Y-48263D01*
G54D24*
X48728Y-41460D02*
X49602Y-41460D01*
X68149Y-31212D02*
X66120Y-29183D01*
X68149Y-34763D02*
X68149Y-31212D01*
X65551Y-37362D02*
X68149Y-34763D01*
X51889Y-37362D02*
X65551Y-37362D01*
X50157Y-39094D02*
X51889Y-37362D01*
X50157Y-40905D02*
X50157Y-39094D01*
X49602Y-41460D02*
X50157Y-40905D01*
X48728Y-40960D02*
X49590Y-40960D01*
X65120Y-29765D02*
X65120Y-29183D01*
X65433Y-30078D02*
X65120Y-29765D01*
X66338Y-30078D02*
X65433Y-30078D01*
X67795Y-31535D02*
X66338Y-30078D01*
X67795Y-34606D02*
X67795Y-31535D01*
X65393Y-37007D02*
X67795Y-34606D01*
X51732Y-37007D02*
X65393Y-37007D01*
X49803Y-38937D02*
X51732Y-37007D01*
X49803Y-40748D02*
X49803Y-38937D01*
X49590Y-40960D02*
X49803Y-40748D01*
X64120Y-29183D02*
X64120Y-29592D01*
X65944Y-30433D02*
X67062Y-31550D01*
X64960Y-30433D02*
X65944Y-30433D01*
X64120Y-29592D02*
X64960Y-30433D01*
X67100Y-31750D02*
X67100Y-32925D01*
X66100Y-31750D02*
X66100Y-31729D01*
X63120Y-29458D02*
X63120Y-29183D01*
X64606Y-30944D02*
X63120Y-29458D01*
X65354Y-30944D02*
X64606Y-30944D01*
X66139Y-31729D02*
X65354Y-30944D01*
X66100Y-31750D02*
X66100Y-32925D01*
X62120Y-29183D02*
X62120Y-30486D01*
X62120Y-30486D02*
X62114Y-30492D01*
X61120Y-29183D02*
X61120Y-30486D01*
X61120Y-30486D02*
X61114Y-30492D01*
G54D26*
X45050Y-31050D02*
X47724Y-31050D01*
X47724Y-31050D02*
X47731Y-31057D01*
X45200Y-44450D02*
X46934Y-44450D01*
X47657Y-45960D02*
X48728Y-45960D01*
X47291Y-45594D02*
X47657Y-45960D01*
X47291Y-44807D02*
X47291Y-45594D01*
X46934Y-44450D02*
X47291Y-44807D01*
G54D24*
X67100Y-33675D02*
X67100Y-34829D01*
X60354Y-41456D02*
X58188Y-41456D01*
X60354Y-37874D02*
X60354Y-39606D01*
X65354Y-36574D02*
X60354Y-36574D01*
X67100Y-34829D02*
X65354Y-36574D01*
X67600Y-46475D02*
X66550Y-46475D01*
X68090Y-48263D02*
X68090Y-46965D01*
X68090Y-46965D02*
X67600Y-46475D01*
X65500Y-46475D02*
X64400Y-46475D01*
X67090Y-48263D02*
X67090Y-47790D01*
X65500Y-46950D02*
X65500Y-46475D01*
X65850Y-47300D02*
X65500Y-46950D01*
X66600Y-47300D02*
X65850Y-47300D01*
X67090Y-47790D02*
X66600Y-47300D01*
G54D25*
X67120Y-48233D02*
X67090Y-48263D01*
G54D24*
X46575Y-41418D02*
X46575Y-41437D01*
X47598Y-42460D02*
X48728Y-42460D01*
X46575Y-41437D02*
X47598Y-42460D01*
X66100Y-33675D02*
X66100Y-35317D01*
X59803Y-37913D02*
X59803Y-39606D01*
X65275Y-36141D02*
X59803Y-36141D01*
X66100Y-35317D02*
X65275Y-36141D01*
X61100Y-48263D02*
X61100Y-47679D01*
X64154Y-43563D02*
X63385Y-43563D01*
X64173Y-43582D02*
X64154Y-43563D01*
X61417Y-47362D02*
X61417Y-46023D01*
X61100Y-47679D02*
X61417Y-47362D01*
X62934Y-34488D02*
X63070Y-34488D01*
X63240Y-34318D02*
X63240Y-33350D01*
X63070Y-34488D02*
X63240Y-34318D01*
X61456Y-43563D02*
X62401Y-43563D01*
X63100Y-33209D02*
X63240Y-33350D01*
X63100Y-31750D02*
X63100Y-33209D01*
X45125Y-41418D02*
X45825Y-41418D01*
X67600Y-45725D02*
X67600Y-44725D01*
X53909Y-39460D02*
X52728Y-39460D01*
X54881Y-40433D02*
X53909Y-39460D01*
X63307Y-40433D02*
X54881Y-40433D01*
X67600Y-44725D02*
X63307Y-40433D01*
X64400Y-45725D02*
X64400Y-44615D01*
X53937Y-39960D02*
X52728Y-39960D01*
X54763Y-40787D02*
X53937Y-39960D01*
X63188Y-40787D02*
X54763Y-40787D01*
X64724Y-42322D02*
X63188Y-40787D01*
X64724Y-44291D02*
X64724Y-42322D01*
X64400Y-44615D02*
X64724Y-44291D01*
X45125Y-40267D02*
X45825Y-40267D01*
X45075Y-39085D02*
X45825Y-39085D01*
X51496Y-48267D02*
X51496Y-41456D01*
X51992Y-40960D02*
X52728Y-40960D01*
X51496Y-41456D02*
X51992Y-40960D01*
X52019Y-40460D02*
X52728Y-40460D01*
X51181Y-41299D02*
X52019Y-40460D01*
X51181Y-47574D02*
X51181Y-41299D01*
X50496Y-48259D02*
X51181Y-47574D01*
X50496Y-48267D02*
X50496Y-48259D01*
G54D10*
G36*
X70055Y-47023D02*
X69834Y-47244D01*
X69834Y-42217D01*
X69834Y-38333D01*
X69760Y-38333D01*
X69760Y-35086D01*
X69662Y-34850D01*
X69483Y-34670D01*
X69247Y-34573D01*
X68993Y-34572D01*
X68757Y-34670D01*
X68610Y-34817D01*
X68610Y-29085D01*
X68535Y-28905D01*
X68397Y-28767D01*
X68217Y-28693D01*
X68022Y-28692D01*
X67842Y-28767D01*
X67704Y-28905D01*
X67630Y-29085D01*
X67629Y-29280D01*
X67704Y-29460D01*
X67842Y-29598D01*
X68022Y-29672D01*
X68217Y-29673D01*
X68397Y-29598D01*
X68535Y-29460D01*
X68609Y-29280D01*
X68610Y-29085D01*
X68610Y-34817D01*
X68577Y-34849D01*
X68480Y-35085D01*
X68479Y-35339D01*
X68577Y-35575D01*
X68756Y-35755D01*
X68992Y-35852D01*
X69246Y-35853D01*
X69482Y-35755D01*
X69662Y-35576D01*
X69759Y-35340D01*
X69760Y-35086D01*
X69760Y-38333D01*
X68531Y-38333D01*
X68531Y-42217D01*
X69834Y-42217D01*
X69834Y-47244D01*
X69730Y-47348D01*
X69730Y-46106D01*
X69632Y-45870D01*
X69453Y-45690D01*
X69217Y-45593D01*
X68963Y-45592D01*
X68727Y-45690D01*
X68547Y-45869D01*
X68450Y-46105D01*
X68449Y-46359D01*
X68547Y-46595D01*
X68726Y-46775D01*
X68962Y-46872D01*
X69216Y-46873D01*
X69452Y-46775D01*
X69632Y-46596D01*
X69729Y-46360D01*
X69730Y-46106D01*
X69730Y-47348D01*
X68932Y-48145D01*
X68886Y-48215D01*
X68870Y-48298D01*
X68870Y-49018D01*
X68580Y-49018D01*
X68580Y-48165D01*
X68505Y-47985D01*
X68367Y-47847D01*
X68330Y-47832D01*
X68330Y-46965D01*
X68311Y-46873D01*
X68259Y-46795D01*
X68015Y-46550D01*
X68015Y-46272D01*
X67993Y-46220D01*
X67954Y-46181D01*
X67902Y-46160D01*
X67847Y-46159D01*
X67297Y-46159D01*
X67245Y-46181D01*
X67206Y-46220D01*
X67200Y-46235D01*
X66965Y-46235D01*
X66965Y-45872D01*
X66965Y-45522D01*
X66943Y-45470D01*
X66904Y-45431D01*
X66852Y-45410D01*
X66797Y-45409D01*
X66247Y-45409D01*
X66195Y-45431D01*
X66192Y-45435D01*
X65858Y-45435D01*
X65854Y-45431D01*
X65802Y-45410D01*
X65747Y-45409D01*
X65690Y-45409D01*
X65690Y-45305D01*
X65716Y-45278D01*
X65764Y-45162D01*
X65765Y-45037D01*
X65717Y-44921D01*
X65628Y-44833D01*
X65512Y-44785D01*
X65387Y-44784D01*
X65271Y-44832D01*
X65183Y-44921D01*
X65135Y-45037D01*
X65134Y-45162D01*
X65182Y-45278D01*
X65210Y-45305D01*
X65210Y-45409D01*
X65197Y-45409D01*
X65145Y-45431D01*
X65106Y-45470D01*
X65085Y-45522D01*
X65084Y-45577D01*
X65084Y-45927D01*
X65106Y-45979D01*
X65145Y-46018D01*
X65197Y-46039D01*
X65252Y-46040D01*
X65802Y-46040D01*
X65854Y-46018D01*
X65893Y-45979D01*
X65914Y-45927D01*
X65914Y-45915D01*
X66134Y-45915D01*
X66134Y-45927D01*
X66156Y-45979D01*
X66195Y-46018D01*
X66247Y-46039D01*
X66302Y-46040D01*
X66852Y-46040D01*
X66904Y-46018D01*
X66943Y-45979D01*
X66964Y-45927D01*
X66965Y-45872D01*
X66965Y-46235D01*
X66949Y-46235D01*
X66943Y-46220D01*
X66904Y-46181D01*
X66852Y-46160D01*
X66797Y-46159D01*
X66247Y-46159D01*
X66195Y-46181D01*
X66156Y-46220D01*
X66135Y-46272D01*
X66134Y-46327D01*
X66134Y-46677D01*
X66156Y-46729D01*
X66195Y-46768D01*
X66247Y-46789D01*
X66302Y-46790D01*
X66852Y-46790D01*
X66904Y-46768D01*
X66943Y-46729D01*
X66949Y-46715D01*
X67200Y-46715D01*
X67206Y-46729D01*
X67245Y-46768D01*
X67297Y-46789D01*
X67352Y-46790D01*
X67575Y-46790D01*
X67850Y-47064D01*
X67850Y-47831D01*
X67812Y-47847D01*
X67674Y-47985D01*
X67600Y-48165D01*
X67599Y-48360D01*
X67674Y-48540D01*
X67812Y-48678D01*
X67992Y-48752D01*
X68187Y-48753D01*
X68367Y-48678D01*
X68505Y-48540D01*
X68579Y-48360D01*
X68580Y-48165D01*
X68580Y-49018D01*
X67580Y-49018D01*
X67580Y-48165D01*
X67505Y-47985D01*
X67367Y-47847D01*
X67330Y-47832D01*
X67330Y-47790D01*
X67311Y-47698D01*
X67259Y-47620D01*
X66769Y-47130D01*
X66691Y-47078D01*
X66600Y-47060D01*
X65949Y-47060D01*
X65740Y-46850D01*
X65740Y-46790D01*
X65802Y-46790D01*
X65854Y-46768D01*
X65893Y-46729D01*
X65914Y-46677D01*
X65915Y-46622D01*
X65915Y-46272D01*
X65893Y-46220D01*
X65854Y-46181D01*
X65802Y-46160D01*
X65747Y-46159D01*
X65197Y-46159D01*
X65145Y-46181D01*
X65106Y-46220D01*
X65100Y-46235D01*
X64799Y-46235D01*
X64793Y-46220D01*
X64754Y-46181D01*
X64702Y-46160D01*
X64647Y-46159D01*
X64097Y-46159D01*
X64045Y-46181D01*
X64006Y-46220D01*
X63985Y-46272D01*
X63984Y-46327D01*
X63984Y-46677D01*
X64006Y-46729D01*
X64045Y-46768D01*
X64097Y-46789D01*
X64152Y-46790D01*
X64702Y-46790D01*
X64754Y-46768D01*
X64793Y-46729D01*
X64799Y-46715D01*
X65100Y-46715D01*
X65106Y-46729D01*
X65145Y-46768D01*
X65197Y-46789D01*
X65252Y-46790D01*
X65260Y-46790D01*
X65260Y-46950D01*
X65278Y-47041D01*
X65330Y-47119D01*
X65680Y-47469D01*
X65680Y-47469D01*
X65758Y-47521D01*
X65849Y-47539D01*
X65850Y-47540D01*
X66500Y-47540D01*
X66810Y-47849D01*
X66674Y-47985D01*
X66600Y-48165D01*
X66599Y-48360D01*
X66674Y-48540D01*
X66812Y-48678D01*
X66992Y-48752D01*
X67187Y-48753D01*
X67367Y-48678D01*
X67505Y-48540D01*
X67579Y-48360D01*
X67580Y-48165D01*
X67580Y-49018D01*
X66580Y-49018D01*
X66580Y-48165D01*
X66505Y-47985D01*
X66367Y-47847D01*
X66187Y-47773D01*
X65992Y-47772D01*
X65812Y-47847D01*
X65674Y-47985D01*
X65600Y-48165D01*
X65599Y-48360D01*
X65674Y-48540D01*
X65812Y-48678D01*
X65992Y-48752D01*
X66187Y-48753D01*
X66367Y-48678D01*
X66505Y-48540D01*
X66579Y-48360D01*
X66580Y-48165D01*
X66580Y-49018D01*
X65580Y-49018D01*
X65580Y-48165D01*
X65505Y-47985D01*
X65367Y-47847D01*
X65187Y-47773D01*
X64992Y-47772D01*
X64812Y-47847D01*
X64674Y-47985D01*
X64600Y-48165D01*
X64599Y-48360D01*
X64674Y-48540D01*
X64812Y-48678D01*
X64992Y-48752D01*
X65187Y-48753D01*
X65367Y-48678D01*
X65505Y-48540D01*
X65579Y-48360D01*
X65580Y-48165D01*
X65580Y-49018D01*
X64580Y-49018D01*
X64580Y-48165D01*
X64505Y-47985D01*
X64367Y-47847D01*
X64330Y-47832D01*
X64330Y-47790D01*
X64329Y-47789D01*
X64311Y-47698D01*
X64280Y-47651D01*
X64259Y-47620D01*
X64259Y-47620D01*
X63540Y-46900D01*
X63540Y-46790D01*
X63602Y-46790D01*
X63654Y-46768D01*
X63693Y-46729D01*
X63714Y-46677D01*
X63715Y-46622D01*
X63715Y-46272D01*
X63693Y-46220D01*
X63654Y-46181D01*
X63602Y-46160D01*
X63547Y-46159D01*
X62997Y-46159D01*
X62945Y-46181D01*
X62917Y-46209D01*
X62772Y-46209D01*
X62745Y-46181D01*
X62629Y-46133D01*
X62504Y-46133D01*
X62388Y-46181D01*
X62365Y-46204D01*
X62365Y-45756D01*
X62392Y-45729D01*
X62440Y-45614D01*
X62441Y-45488D01*
X62393Y-45372D01*
X62360Y-45340D01*
X63010Y-45340D01*
X63010Y-45409D01*
X62997Y-45409D01*
X62945Y-45431D01*
X62906Y-45470D01*
X62885Y-45522D01*
X62884Y-45577D01*
X62884Y-45927D01*
X62906Y-45979D01*
X62945Y-46018D01*
X62997Y-46039D01*
X63052Y-46040D01*
X63602Y-46040D01*
X63654Y-46018D01*
X63693Y-45979D01*
X63714Y-45927D01*
X63715Y-45872D01*
X63715Y-45522D01*
X63693Y-45470D01*
X63654Y-45431D01*
X63602Y-45410D01*
X63547Y-45409D01*
X63490Y-45409D01*
X63490Y-45305D01*
X63516Y-45278D01*
X63564Y-45162D01*
X63565Y-45037D01*
X63517Y-44921D01*
X63428Y-44833D01*
X63312Y-44785D01*
X63187Y-44784D01*
X63071Y-44832D01*
X63044Y-44860D01*
X62816Y-44860D01*
X62816Y-43766D01*
X62816Y-43361D01*
X62795Y-43309D01*
X62755Y-43270D01*
X62704Y-43249D01*
X62648Y-43248D01*
X62496Y-43248D01*
X62461Y-43283D01*
X62461Y-43503D01*
X62781Y-43503D01*
X62816Y-43468D01*
X62816Y-43361D01*
X62816Y-43766D01*
X62816Y-43658D01*
X62781Y-43623D01*
X62461Y-43623D01*
X62461Y-43843D01*
X62496Y-43878D01*
X62648Y-43879D01*
X62704Y-43878D01*
X62755Y-43857D01*
X62795Y-43818D01*
X62816Y-43766D01*
X62816Y-44860D01*
X62341Y-44860D01*
X62341Y-43843D01*
X62341Y-43623D01*
X62341Y-43503D01*
X62341Y-43283D01*
X62306Y-43248D01*
X62154Y-43248D01*
X62098Y-43249D01*
X62047Y-43270D01*
X62007Y-43309D01*
X61986Y-43361D01*
X61986Y-43468D01*
X62021Y-43503D01*
X62341Y-43503D01*
X62341Y-43623D01*
X62021Y-43623D01*
X61986Y-43658D01*
X61986Y-43766D01*
X62007Y-43818D01*
X62047Y-43857D01*
X62098Y-43878D01*
X62154Y-43879D01*
X62306Y-43878D01*
X62341Y-43843D01*
X62341Y-44860D01*
X61871Y-44860D01*
X61871Y-43766D01*
X61871Y-43361D01*
X61850Y-43309D01*
X61811Y-43270D01*
X61759Y-43249D01*
X61703Y-43248D01*
X61551Y-43248D01*
X61516Y-43283D01*
X61516Y-43503D01*
X61836Y-43503D01*
X61871Y-43468D01*
X61871Y-43361D01*
X61871Y-43766D01*
X61871Y-43658D01*
X61836Y-43623D01*
X61516Y-43623D01*
X61516Y-43843D01*
X61551Y-43878D01*
X61703Y-43879D01*
X61759Y-43878D01*
X61811Y-43857D01*
X61850Y-43818D01*
X61871Y-43766D01*
X61871Y-44860D01*
X61396Y-44860D01*
X61396Y-43843D01*
X61396Y-43623D01*
X61396Y-43503D01*
X61396Y-43283D01*
X61361Y-43248D01*
X61209Y-43248D01*
X61153Y-43249D01*
X61102Y-43270D01*
X61062Y-43309D01*
X61041Y-43361D01*
X61041Y-43468D01*
X61076Y-43503D01*
X61396Y-43503D01*
X61396Y-43623D01*
X61076Y-43623D01*
X61041Y-43658D01*
X61041Y-43766D01*
X61062Y-43818D01*
X61102Y-43857D01*
X61153Y-43878D01*
X61209Y-43879D01*
X61361Y-43878D01*
X61396Y-43843D01*
X61396Y-44860D01*
X60959Y-44860D01*
X60867Y-44878D01*
X60789Y-44930D01*
X60357Y-45361D01*
X60305Y-45439D01*
X60296Y-45487D01*
X60224Y-45487D01*
X60173Y-45508D01*
X60133Y-45547D01*
X60127Y-45562D01*
X59768Y-45562D01*
X59763Y-45551D01*
X59724Y-45512D01*
X59673Y-45491D01*
X59617Y-45491D01*
X59388Y-45491D01*
X59352Y-45466D01*
X59260Y-45448D01*
X58650Y-45448D01*
X58650Y-45360D01*
X58628Y-45309D01*
X58589Y-45269D01*
X58538Y-45248D01*
X58482Y-45248D01*
X57682Y-45248D01*
X57631Y-45269D01*
X57591Y-45309D01*
X57570Y-45360D01*
X57570Y-45416D01*
X57570Y-45448D01*
X57500Y-45448D01*
X57408Y-45466D01*
X57330Y-45518D01*
X56930Y-45919D01*
X56878Y-45997D01*
X56860Y-46088D01*
X56860Y-47831D01*
X56822Y-47847D01*
X56684Y-47985D01*
X56610Y-48165D01*
X56609Y-48360D01*
X56684Y-48540D01*
X56822Y-48678D01*
X57002Y-48752D01*
X57197Y-48753D01*
X57377Y-48678D01*
X57515Y-48540D01*
X57589Y-48360D01*
X57590Y-48165D01*
X57515Y-47985D01*
X57377Y-47847D01*
X57340Y-47832D01*
X57340Y-46188D01*
X57570Y-45958D01*
X57570Y-46016D01*
X57591Y-46067D01*
X57630Y-46107D01*
X57682Y-46128D01*
X57737Y-46128D01*
X58537Y-46128D01*
X58589Y-46107D01*
X58628Y-46067D01*
X58650Y-46016D01*
X58650Y-45960D01*
X58650Y-45928D01*
X58955Y-45928D01*
X58955Y-46008D01*
X58976Y-46060D01*
X59015Y-46099D01*
X59067Y-46121D01*
X59122Y-46121D01*
X59672Y-46121D01*
X59724Y-46099D01*
X59763Y-46060D01*
X59771Y-46042D01*
X60127Y-46042D01*
X60133Y-46056D01*
X60173Y-46095D01*
X60224Y-46117D01*
X60280Y-46117D01*
X60830Y-46117D01*
X60881Y-46095D01*
X60921Y-46056D01*
X60942Y-46005D01*
X60942Y-45949D01*
X60942Y-45599D01*
X60921Y-45547D01*
X60885Y-45512D01*
X61058Y-45340D01*
X61891Y-45340D01*
X61859Y-45372D01*
X61811Y-45488D01*
X61810Y-45613D01*
X61858Y-45729D01*
X61885Y-45756D01*
X61885Y-47047D01*
X61904Y-47139D01*
X61956Y-47216D01*
X62699Y-47960D01*
X62674Y-47985D01*
X62600Y-48165D01*
X62599Y-48360D01*
X62674Y-48540D01*
X62812Y-48678D01*
X62992Y-48752D01*
X63187Y-48753D01*
X63367Y-48678D01*
X63505Y-48540D01*
X63579Y-48360D01*
X63580Y-48165D01*
X63505Y-47985D01*
X63367Y-47847D01*
X63193Y-47775D01*
X62365Y-46947D01*
X62365Y-46693D01*
X62388Y-46715D01*
X62503Y-46763D01*
X62629Y-46763D01*
X62745Y-46716D01*
X62772Y-46689D01*
X62889Y-46689D01*
X62906Y-46729D01*
X62945Y-46768D01*
X62997Y-46789D01*
X63052Y-46790D01*
X63060Y-46790D01*
X63060Y-47000D01*
X63078Y-47091D01*
X63130Y-47169D01*
X63810Y-47849D01*
X63674Y-47985D01*
X63600Y-48165D01*
X63599Y-48360D01*
X63674Y-48540D01*
X63812Y-48678D01*
X63992Y-48752D01*
X64187Y-48753D01*
X64367Y-48678D01*
X64505Y-48540D01*
X64579Y-48360D01*
X64580Y-48165D01*
X64580Y-49018D01*
X61732Y-49018D01*
X61732Y-45961D01*
X61684Y-45845D01*
X61595Y-45756D01*
X61480Y-45708D01*
X61354Y-45708D01*
X61239Y-45756D01*
X61150Y-45844D01*
X61102Y-45960D01*
X61102Y-46086D01*
X61150Y-46201D01*
X61177Y-46229D01*
X61177Y-47262D01*
X60942Y-47497D01*
X60942Y-46754D01*
X60942Y-46349D01*
X60921Y-46297D01*
X60881Y-46258D01*
X60830Y-46237D01*
X60774Y-46237D01*
X60622Y-46237D01*
X60587Y-46272D01*
X60587Y-46492D01*
X60907Y-46492D01*
X60942Y-46457D01*
X60942Y-46349D01*
X60942Y-46754D01*
X60942Y-46647D01*
X60907Y-46612D01*
X60587Y-46612D01*
X60587Y-46832D01*
X60622Y-46867D01*
X60774Y-46867D01*
X60830Y-46867D01*
X60881Y-46845D01*
X60921Y-46806D01*
X60942Y-46754D01*
X60942Y-47497D01*
X60930Y-47509D01*
X60878Y-47587D01*
X60860Y-47679D01*
X60860Y-47831D01*
X60822Y-47847D01*
X60684Y-47985D01*
X60610Y-48165D01*
X60609Y-48360D01*
X60684Y-48540D01*
X60822Y-48678D01*
X61002Y-48752D01*
X61197Y-48753D01*
X61377Y-48678D01*
X61515Y-48540D01*
X61589Y-48360D01*
X61590Y-48165D01*
X61515Y-47985D01*
X61377Y-47847D01*
X61340Y-47832D01*
X61340Y-47778D01*
X61587Y-47531D01*
X61639Y-47454D01*
X61657Y-47362D01*
X61657Y-47362D01*
X61657Y-46229D01*
X61684Y-46202D01*
X61732Y-46086D01*
X61732Y-45961D01*
X61732Y-49018D01*
X60596Y-49018D01*
X60596Y-48320D01*
X60580Y-48126D01*
X60536Y-48020D01*
X60468Y-47979D01*
X60467Y-47980D01*
X60467Y-46832D01*
X60467Y-46612D01*
X60467Y-46492D01*
X60467Y-46272D01*
X60432Y-46237D01*
X60280Y-46237D01*
X60224Y-46237D01*
X60173Y-46258D01*
X60133Y-46297D01*
X60112Y-46349D01*
X60112Y-46457D01*
X60147Y-46492D01*
X60467Y-46492D01*
X60467Y-46612D01*
X60147Y-46612D01*
X60112Y-46647D01*
X60112Y-46754D01*
X60133Y-46806D01*
X60173Y-46845D01*
X60224Y-46867D01*
X60280Y-46867D01*
X60432Y-46867D01*
X60467Y-46832D01*
X60467Y-47980D01*
X60383Y-48064D01*
X60383Y-47894D01*
X60342Y-47826D01*
X60157Y-47766D01*
X59963Y-47782D01*
X59857Y-47826D01*
X59816Y-47894D01*
X60100Y-48178D01*
X60383Y-47894D01*
X60383Y-48064D01*
X60184Y-48263D01*
X60468Y-48546D01*
X60536Y-48505D01*
X60596Y-48320D01*
X60596Y-49018D01*
X60383Y-49018D01*
X60383Y-48631D01*
X60100Y-48347D01*
X60015Y-48432D01*
X60015Y-48263D01*
X59785Y-48032D01*
X59785Y-46758D01*
X59785Y-46353D01*
X59763Y-46301D01*
X59724Y-46262D01*
X59673Y-46241D01*
X59617Y-46241D01*
X59465Y-46241D01*
X59430Y-46276D01*
X59430Y-46496D01*
X59750Y-46496D01*
X59785Y-46461D01*
X59785Y-46353D01*
X59785Y-46758D01*
X59785Y-46651D01*
X59750Y-46616D01*
X59430Y-46616D01*
X59430Y-46836D01*
X59465Y-46871D01*
X59617Y-46871D01*
X59673Y-46871D01*
X59724Y-46849D01*
X59763Y-46810D01*
X59785Y-46758D01*
X59785Y-48032D01*
X59731Y-47979D01*
X59663Y-48020D01*
X59603Y-48205D01*
X59619Y-48399D01*
X59663Y-48505D01*
X59731Y-48546D01*
X60015Y-48263D01*
X60015Y-48432D01*
X59816Y-48631D01*
X59857Y-48699D01*
X60042Y-48759D01*
X60236Y-48743D01*
X60342Y-48699D01*
X60383Y-48631D01*
X60383Y-49018D01*
X59596Y-49018D01*
X59596Y-48320D01*
X59580Y-48126D01*
X59536Y-48020D01*
X59468Y-47979D01*
X59383Y-48064D01*
X59383Y-47894D01*
X59342Y-47826D01*
X59310Y-47815D01*
X59310Y-46836D01*
X59310Y-46616D01*
X59310Y-46496D01*
X59310Y-46276D01*
X59275Y-46241D01*
X59122Y-46241D01*
X59067Y-46241D01*
X59015Y-46262D01*
X58976Y-46301D01*
X58955Y-46353D01*
X58955Y-46461D01*
X58990Y-46496D01*
X59310Y-46496D01*
X59310Y-46616D01*
X58990Y-46616D01*
X58955Y-46651D01*
X58955Y-46758D01*
X58976Y-46810D01*
X59015Y-46849D01*
X59067Y-46871D01*
X59122Y-46871D01*
X59275Y-46871D01*
X59310Y-46836D01*
X59310Y-47815D01*
X59157Y-47766D01*
X58963Y-47782D01*
X58857Y-47826D01*
X58816Y-47894D01*
X59100Y-48178D01*
X59383Y-47894D01*
X59383Y-48064D01*
X59184Y-48263D01*
X59468Y-48546D01*
X59536Y-48505D01*
X59596Y-48320D01*
X59596Y-49018D01*
X59383Y-49018D01*
X59383Y-48631D01*
X59100Y-48347D01*
X59015Y-48432D01*
X59015Y-48263D01*
X58731Y-47979D01*
X58663Y-48020D01*
X58650Y-48061D01*
X58650Y-47316D01*
X58650Y-46660D01*
X58628Y-46609D01*
X58589Y-46569D01*
X58538Y-46548D01*
X58482Y-46548D01*
X58205Y-46548D01*
X58170Y-46583D01*
X58170Y-46928D01*
X58615Y-46928D01*
X58650Y-46893D01*
X58650Y-46660D01*
X58650Y-47316D01*
X58650Y-47083D01*
X58615Y-47048D01*
X58170Y-47048D01*
X58170Y-47393D01*
X58205Y-47428D01*
X58482Y-47428D01*
X58538Y-47428D01*
X58589Y-47407D01*
X58628Y-47367D01*
X58650Y-47316D01*
X58650Y-48061D01*
X58603Y-48205D01*
X58619Y-48399D01*
X58663Y-48505D01*
X58731Y-48546D01*
X59015Y-48263D01*
X59015Y-48432D01*
X58816Y-48631D01*
X58857Y-48699D01*
X59042Y-48759D01*
X59236Y-48743D01*
X59342Y-48699D01*
X59383Y-48631D01*
X59383Y-49018D01*
X58590Y-49018D01*
X58590Y-48165D01*
X58515Y-47985D01*
X58377Y-47847D01*
X58197Y-47773D01*
X58050Y-47772D01*
X58050Y-47393D01*
X58050Y-47048D01*
X58050Y-46928D01*
X58050Y-46583D01*
X58015Y-46548D01*
X57737Y-46548D01*
X57682Y-46548D01*
X57630Y-46569D01*
X57591Y-46609D01*
X57570Y-46660D01*
X57570Y-46893D01*
X57605Y-46928D01*
X58050Y-46928D01*
X58050Y-47048D01*
X57605Y-47048D01*
X57570Y-47083D01*
X57570Y-47316D01*
X57591Y-47367D01*
X57630Y-47407D01*
X57682Y-47428D01*
X57737Y-47428D01*
X58015Y-47428D01*
X58050Y-47393D01*
X58050Y-47772D01*
X58002Y-47772D01*
X57822Y-47847D01*
X57684Y-47985D01*
X57610Y-48165D01*
X57609Y-48360D01*
X57684Y-48540D01*
X57822Y-48678D01*
X58002Y-48752D01*
X58197Y-48753D01*
X58377Y-48678D01*
X58515Y-48540D01*
X58589Y-48360D01*
X58590Y-48165D01*
X58590Y-49018D01*
X56590Y-49018D01*
X56590Y-48165D01*
X56515Y-47985D01*
X56377Y-47847D01*
X56197Y-47773D01*
X56002Y-47772D01*
X55822Y-47847D01*
X55684Y-47985D01*
X55610Y-48165D01*
X55609Y-48360D01*
X55684Y-48540D01*
X55822Y-48678D01*
X56002Y-48752D01*
X56197Y-48753D01*
X56377Y-48678D01*
X56515Y-48540D01*
X56589Y-48360D01*
X56590Y-48165D01*
X56590Y-49018D01*
X55590Y-49018D01*
X55590Y-48165D01*
X55515Y-47985D01*
X55377Y-47847D01*
X55197Y-47773D01*
X55002Y-47772D01*
X54822Y-47847D01*
X54684Y-47985D01*
X54610Y-48165D01*
X54609Y-48360D01*
X54684Y-48540D01*
X54822Y-48678D01*
X55002Y-48752D01*
X55197Y-48753D01*
X55377Y-48678D01*
X55515Y-48540D01*
X55589Y-48360D01*
X55590Y-48165D01*
X55590Y-49018D01*
X54590Y-49018D01*
X54590Y-48165D01*
X54515Y-47985D01*
X54377Y-47847D01*
X54197Y-47773D01*
X54002Y-47772D01*
X53822Y-47847D01*
X53773Y-47896D01*
X53773Y-43163D01*
X53773Y-42757D01*
X53754Y-42710D01*
X53773Y-42663D01*
X53773Y-42555D01*
X53738Y-42520D01*
X52985Y-42520D01*
X52985Y-42680D01*
X52985Y-42740D01*
X52985Y-42900D01*
X53738Y-42900D01*
X53773Y-42865D01*
X53773Y-42757D01*
X53773Y-43163D01*
X53773Y-43055D01*
X53738Y-43020D01*
X52985Y-43020D01*
X52985Y-43240D01*
X53020Y-43275D01*
X53606Y-43275D01*
X53661Y-43275D01*
X53713Y-43254D01*
X53752Y-43215D01*
X53773Y-43163D01*
X53773Y-47896D01*
X53684Y-47985D01*
X53610Y-48165D01*
X53609Y-48360D01*
X53684Y-48540D01*
X53822Y-48678D01*
X54002Y-48752D01*
X54197Y-48753D01*
X54377Y-48678D01*
X54515Y-48540D01*
X54589Y-48360D01*
X54590Y-48165D01*
X54590Y-49018D01*
X52917Y-49018D01*
X52917Y-48307D01*
X52900Y-48142D01*
X52870Y-48070D01*
X52865Y-48067D01*
X52865Y-43240D01*
X52865Y-43020D01*
X52865Y-42900D01*
X52865Y-42740D01*
X52865Y-42680D01*
X52865Y-42520D01*
X52111Y-42520D01*
X52076Y-42555D01*
X52076Y-42663D01*
X52095Y-42710D01*
X52076Y-42757D01*
X52076Y-42865D01*
X52111Y-42900D01*
X52865Y-42900D01*
X52865Y-43020D01*
X52111Y-43020D01*
X52076Y-43055D01*
X52076Y-43163D01*
X52097Y-43215D01*
X52137Y-43254D01*
X52188Y-43275D01*
X52244Y-43275D01*
X52830Y-43275D01*
X52865Y-43240D01*
X52865Y-48067D01*
X52809Y-48038D01*
X52724Y-48123D01*
X52724Y-47954D01*
X52693Y-47893D01*
X52535Y-47846D01*
X52480Y-47852D01*
X52480Y-45016D01*
X52432Y-44900D01*
X52405Y-44873D01*
X52405Y-44299D01*
X52432Y-44273D01*
X52480Y-44157D01*
X52480Y-44032D01*
X52432Y-43916D01*
X52344Y-43827D01*
X52228Y-43779D01*
X52102Y-43779D01*
X51987Y-43827D01*
X51898Y-43915D01*
X51850Y-44031D01*
X51850Y-44156D01*
X51898Y-44272D01*
X51925Y-44299D01*
X51925Y-44873D01*
X51898Y-44900D01*
X51850Y-45015D01*
X51850Y-45141D01*
X51898Y-45256D01*
X51986Y-45345D01*
X52102Y-45393D01*
X52227Y-45393D01*
X52343Y-45345D01*
X52432Y-45257D01*
X52480Y-45141D01*
X52480Y-45016D01*
X52480Y-47852D01*
X52371Y-47863D01*
X52298Y-47893D01*
X52267Y-47954D01*
X52496Y-48182D01*
X52724Y-47954D01*
X52724Y-48123D01*
X52580Y-48267D01*
X52809Y-48496D01*
X52870Y-48465D01*
X52917Y-48307D01*
X52917Y-49018D01*
X52724Y-49018D01*
X52724Y-48581D01*
X52496Y-48352D01*
X52411Y-48437D01*
X52411Y-48267D01*
X52182Y-48038D01*
X52121Y-48070D01*
X52074Y-48228D01*
X52091Y-48392D01*
X52121Y-48465D01*
X52182Y-48496D01*
X52411Y-48267D01*
X52411Y-48437D01*
X52267Y-48581D01*
X52298Y-48641D01*
X52456Y-48689D01*
X52620Y-48672D01*
X52693Y-48641D01*
X52724Y-48581D01*
X52724Y-49018D01*
X49380Y-49018D01*
X49380Y-46663D01*
X49380Y-46257D01*
X49360Y-46210D01*
X49380Y-46163D01*
X49380Y-46108D01*
X49380Y-45757D01*
X49360Y-45710D01*
X49380Y-45663D01*
X49380Y-45257D01*
X49380Y-43163D01*
X49380Y-43055D01*
X49345Y-43020D01*
X48591Y-43020D01*
X48591Y-43240D01*
X48626Y-43275D01*
X49212Y-43275D01*
X49268Y-43275D01*
X49319Y-43254D01*
X49358Y-43215D01*
X49380Y-43163D01*
X49380Y-45257D01*
X49358Y-45206D01*
X49319Y-45166D01*
X49268Y-45145D01*
X49212Y-45145D01*
X48626Y-45145D01*
X48591Y-45180D01*
X48591Y-45400D01*
X49345Y-45400D01*
X49380Y-45365D01*
X49380Y-45257D01*
X49380Y-45663D01*
X49380Y-45555D01*
X49345Y-45520D01*
X48591Y-45520D01*
X48591Y-45528D01*
X48471Y-45528D01*
X48471Y-45520D01*
X48471Y-45400D01*
X48471Y-45180D01*
X48471Y-43240D01*
X48471Y-43020D01*
X47717Y-43020D01*
X47682Y-43055D01*
X47682Y-43163D01*
X47704Y-43215D01*
X47743Y-43254D01*
X47794Y-43275D01*
X47850Y-43275D01*
X48436Y-43275D01*
X48471Y-43240D01*
X48471Y-45180D01*
X48436Y-45145D01*
X47850Y-45145D01*
X47794Y-45145D01*
X47743Y-45166D01*
X47704Y-45206D01*
X47682Y-45257D01*
X47682Y-45365D01*
X47717Y-45400D01*
X48471Y-45400D01*
X48471Y-45520D01*
X47717Y-45520D01*
X47691Y-45546D01*
X47608Y-45463D01*
X47608Y-44807D01*
X47584Y-44685D01*
X47515Y-44582D01*
X47515Y-44582D01*
X47158Y-44225D01*
X47055Y-44156D01*
X46934Y-44132D01*
X46837Y-44132D01*
X46837Y-43541D01*
X46824Y-43290D01*
X46754Y-43121D01*
X46671Y-43063D01*
X46586Y-43148D01*
X46586Y-42978D01*
X46528Y-42895D01*
X46291Y-42812D01*
X46140Y-42820D01*
X46140Y-41665D01*
X46140Y-41115D01*
X46140Y-40514D01*
X46140Y-39964D01*
X46140Y-39332D01*
X46140Y-38782D01*
X46118Y-38731D01*
X46079Y-38691D01*
X46027Y-38670D01*
X45972Y-38670D01*
X45622Y-38670D01*
X45570Y-38691D01*
X45531Y-38731D01*
X45510Y-38782D01*
X45509Y-38838D01*
X45509Y-38845D01*
X45390Y-38845D01*
X45390Y-38782D01*
X45368Y-38731D01*
X45329Y-38691D01*
X45277Y-38670D01*
X45222Y-38670D01*
X44872Y-38670D01*
X44820Y-38691D01*
X44787Y-38724D01*
X44787Y-37291D01*
X44774Y-37040D01*
X44704Y-36871D01*
X44621Y-36813D01*
X44536Y-36898D01*
X44536Y-36728D01*
X44478Y-36645D01*
X44241Y-36562D01*
X43990Y-36575D01*
X43821Y-36645D01*
X43763Y-36728D01*
X44150Y-37115D01*
X44536Y-36728D01*
X44536Y-36898D01*
X44234Y-37200D01*
X44621Y-37586D01*
X44704Y-37528D01*
X44787Y-37291D01*
X44787Y-38724D01*
X44781Y-38731D01*
X44760Y-38782D01*
X44759Y-38838D01*
X44759Y-39388D01*
X44781Y-39439D01*
X44820Y-39479D01*
X44872Y-39500D01*
X44927Y-39500D01*
X45277Y-39500D01*
X45329Y-39479D01*
X45368Y-39439D01*
X45389Y-39388D01*
X45390Y-39332D01*
X45390Y-39325D01*
X45509Y-39325D01*
X45509Y-39388D01*
X45531Y-39439D01*
X45570Y-39479D01*
X45622Y-39500D01*
X45677Y-39500D01*
X46027Y-39500D01*
X46079Y-39479D01*
X46118Y-39439D01*
X46139Y-39388D01*
X46140Y-39332D01*
X46140Y-39964D01*
X46118Y-39913D01*
X46079Y-39873D01*
X46027Y-39852D01*
X45972Y-39852D01*
X45622Y-39852D01*
X45570Y-39873D01*
X45531Y-39912D01*
X45510Y-39964D01*
X45509Y-40020D01*
X45509Y-40027D01*
X45440Y-40027D01*
X45440Y-39964D01*
X45418Y-39913D01*
X45379Y-39873D01*
X45327Y-39852D01*
X45272Y-39852D01*
X44922Y-39852D01*
X44870Y-39873D01*
X44831Y-39912D01*
X44810Y-39964D01*
X44809Y-40020D01*
X44809Y-40570D01*
X44831Y-40621D01*
X44870Y-40660D01*
X44922Y-40682D01*
X44977Y-40682D01*
X45327Y-40682D01*
X45379Y-40661D01*
X45418Y-40621D01*
X45439Y-40570D01*
X45440Y-40514D01*
X45440Y-40507D01*
X45509Y-40507D01*
X45509Y-40570D01*
X45531Y-40621D01*
X45570Y-40660D01*
X45622Y-40682D01*
X45677Y-40682D01*
X46027Y-40682D01*
X46079Y-40661D01*
X46118Y-40621D01*
X46139Y-40570D01*
X46140Y-40514D01*
X46140Y-41115D01*
X46118Y-41063D01*
X46079Y-41024D01*
X46027Y-41003D01*
X45972Y-41003D01*
X45622Y-41003D01*
X45570Y-41024D01*
X45531Y-41063D01*
X45510Y-41115D01*
X45509Y-41170D01*
X45509Y-41178D01*
X45440Y-41178D01*
X45440Y-41115D01*
X45418Y-41063D01*
X45379Y-41024D01*
X45327Y-41003D01*
X45272Y-41003D01*
X44922Y-41003D01*
X44870Y-41024D01*
X44831Y-41063D01*
X44810Y-41115D01*
X44809Y-41170D01*
X44809Y-41720D01*
X44831Y-41772D01*
X44870Y-41811D01*
X44922Y-41833D01*
X44977Y-41833D01*
X45327Y-41833D01*
X45379Y-41811D01*
X45418Y-41772D01*
X45439Y-41721D01*
X45440Y-41665D01*
X45440Y-41658D01*
X45509Y-41658D01*
X45509Y-41720D01*
X45531Y-41772D01*
X45570Y-41811D01*
X45622Y-41833D01*
X45677Y-41833D01*
X46027Y-41833D01*
X46079Y-41811D01*
X46118Y-41772D01*
X46139Y-41721D01*
X46140Y-41665D01*
X46140Y-42820D01*
X46040Y-42825D01*
X45871Y-42895D01*
X45813Y-42978D01*
X46200Y-43365D01*
X46586Y-42978D01*
X46586Y-43148D01*
X46284Y-43450D01*
X46671Y-43836D01*
X46754Y-43778D01*
X46837Y-43541D01*
X46837Y-44132D01*
X46586Y-44132D01*
X46586Y-43921D01*
X46200Y-43534D01*
X46115Y-43619D01*
X46115Y-43450D01*
X45728Y-43063D01*
X45645Y-43121D01*
X45562Y-43358D01*
X45575Y-43609D01*
X45645Y-43778D01*
X45728Y-43836D01*
X46115Y-43450D01*
X46115Y-43619D01*
X45813Y-43921D01*
X45871Y-44004D01*
X46108Y-44087D01*
X46359Y-44074D01*
X46528Y-44004D01*
X46586Y-43921D01*
X46586Y-44132D01*
X45752Y-44132D01*
X45736Y-44092D01*
X45558Y-43914D01*
X45326Y-43817D01*
X45074Y-43817D01*
X44842Y-43913D01*
X44837Y-43918D01*
X44837Y-43541D01*
X44824Y-43290D01*
X44754Y-43121D01*
X44690Y-43076D01*
X44690Y-41665D01*
X44690Y-41170D01*
X44690Y-40514D01*
X44690Y-40020D01*
X44689Y-39964D01*
X44668Y-39912D01*
X44640Y-39884D01*
X44640Y-39332D01*
X44640Y-38838D01*
X44639Y-38782D01*
X44618Y-38731D01*
X44579Y-38691D01*
X44536Y-38674D01*
X44536Y-37671D01*
X44150Y-37284D01*
X44065Y-37369D01*
X44065Y-37200D01*
X43678Y-36813D01*
X43595Y-36871D01*
X43512Y-37108D01*
X43525Y-37359D01*
X43595Y-37528D01*
X43678Y-37586D01*
X44065Y-37200D01*
X44065Y-37369D01*
X43763Y-37671D01*
X43821Y-37754D01*
X44058Y-37837D01*
X44309Y-37824D01*
X44478Y-37754D01*
X44536Y-37671D01*
X44536Y-38674D01*
X44527Y-38670D01*
X44420Y-38670D01*
X44385Y-38705D01*
X44385Y-39025D01*
X44605Y-39025D01*
X44640Y-38990D01*
X44640Y-38838D01*
X44640Y-39332D01*
X44640Y-39180D01*
X44605Y-39145D01*
X44385Y-39145D01*
X44385Y-39465D01*
X44420Y-39500D01*
X44527Y-39500D01*
X44579Y-39479D01*
X44618Y-39439D01*
X44639Y-39388D01*
X44640Y-39332D01*
X44640Y-39884D01*
X44629Y-39873D01*
X44577Y-39852D01*
X44470Y-39852D01*
X44435Y-39887D01*
X44435Y-40207D01*
X44655Y-40207D01*
X44690Y-40172D01*
X44690Y-40020D01*
X44690Y-40514D01*
X44690Y-40362D01*
X44655Y-40327D01*
X44435Y-40327D01*
X44435Y-40647D01*
X44470Y-40682D01*
X44577Y-40682D01*
X44629Y-40661D01*
X44668Y-40621D01*
X44689Y-40570D01*
X44690Y-40514D01*
X44690Y-41170D01*
X44689Y-41115D01*
X44668Y-41063D01*
X44629Y-41024D01*
X44577Y-41003D01*
X44470Y-41003D01*
X44435Y-41038D01*
X44435Y-41358D01*
X44655Y-41358D01*
X44690Y-41323D01*
X44690Y-41170D01*
X44690Y-41665D01*
X44690Y-41513D01*
X44655Y-41478D01*
X44435Y-41478D01*
X44435Y-41798D01*
X44470Y-41833D01*
X44577Y-41833D01*
X44629Y-41811D01*
X44668Y-41772D01*
X44689Y-41721D01*
X44690Y-41665D01*
X44690Y-43076D01*
X44671Y-43063D01*
X44586Y-43148D01*
X44586Y-42978D01*
X44528Y-42895D01*
X44315Y-42820D01*
X44315Y-41798D01*
X44315Y-41478D01*
X44315Y-41358D01*
X44315Y-41038D01*
X44315Y-40647D01*
X44315Y-40327D01*
X44315Y-40207D01*
X44315Y-39887D01*
X44280Y-39852D01*
X44265Y-39852D01*
X44265Y-39465D01*
X44265Y-39145D01*
X44265Y-39025D01*
X44265Y-38705D01*
X44230Y-38670D01*
X44122Y-38670D01*
X44070Y-38691D01*
X44031Y-38731D01*
X44010Y-38782D01*
X44009Y-38838D01*
X44010Y-38990D01*
X44045Y-39025D01*
X44265Y-39025D01*
X44265Y-39145D01*
X44045Y-39145D01*
X44010Y-39180D01*
X44009Y-39332D01*
X44010Y-39388D01*
X44031Y-39439D01*
X44070Y-39479D01*
X44122Y-39500D01*
X44230Y-39500D01*
X44265Y-39465D01*
X44265Y-39852D01*
X44172Y-39852D01*
X44120Y-39873D01*
X44081Y-39912D01*
X44060Y-39964D01*
X44059Y-40020D01*
X44060Y-40172D01*
X44095Y-40207D01*
X44315Y-40207D01*
X44315Y-40327D01*
X44095Y-40327D01*
X44060Y-40362D01*
X44059Y-40514D01*
X44060Y-40570D01*
X44081Y-40621D01*
X44120Y-40661D01*
X44172Y-40682D01*
X44280Y-40682D01*
X44315Y-40647D01*
X44315Y-41038D01*
X44280Y-41003D01*
X44172Y-41003D01*
X44120Y-41024D01*
X44081Y-41063D01*
X44060Y-41115D01*
X44059Y-41170D01*
X44060Y-41323D01*
X44095Y-41358D01*
X44315Y-41358D01*
X44315Y-41478D01*
X44095Y-41478D01*
X44060Y-41513D01*
X44059Y-41665D01*
X44060Y-41721D01*
X44081Y-41772D01*
X44120Y-41811D01*
X44172Y-41833D01*
X44280Y-41833D01*
X44315Y-41798D01*
X44315Y-42820D01*
X44291Y-42812D01*
X44040Y-42825D01*
X43871Y-42895D01*
X43813Y-42978D01*
X44200Y-43365D01*
X44586Y-42978D01*
X44586Y-43148D01*
X44284Y-43450D01*
X44671Y-43836D01*
X44754Y-43778D01*
X44837Y-43541D01*
X44837Y-43918D01*
X44664Y-44091D01*
X44586Y-44279D01*
X44586Y-43921D01*
X44200Y-43534D01*
X44115Y-43619D01*
X44115Y-43450D01*
X43728Y-43063D01*
X43645Y-43121D01*
X43562Y-43358D01*
X43575Y-43609D01*
X43645Y-43778D01*
X43728Y-43836D01*
X44115Y-43450D01*
X44115Y-43619D01*
X43813Y-43921D01*
X43871Y-44004D01*
X44108Y-44087D01*
X44359Y-44074D01*
X44528Y-44004D01*
X44586Y-43921D01*
X44586Y-44279D01*
X44567Y-44323D01*
X44567Y-44575D01*
X44663Y-44807D01*
X44841Y-44985D01*
X45073Y-45082D01*
X45325Y-45082D01*
X45557Y-44986D01*
X45735Y-44808D01*
X45752Y-44767D01*
X46802Y-44767D01*
X46974Y-44938D01*
X46974Y-45594D01*
X46998Y-45715D01*
X47067Y-45818D01*
X47433Y-46184D01*
X47433Y-46184D01*
X47536Y-46253D01*
X47657Y-46277D01*
X47682Y-46277D01*
X47682Y-46365D01*
X47717Y-46400D01*
X48471Y-46400D01*
X48471Y-46392D01*
X48591Y-46392D01*
X48591Y-46400D01*
X49345Y-46400D01*
X49380Y-46365D01*
X49380Y-46257D01*
X49380Y-46663D01*
X49380Y-46555D01*
X49345Y-46520D01*
X48591Y-46520D01*
X48591Y-46740D01*
X48626Y-46775D01*
X49212Y-46775D01*
X49268Y-46775D01*
X49319Y-46754D01*
X49358Y-46715D01*
X49380Y-46663D01*
X49380Y-49018D01*
X49260Y-49018D01*
X49260Y-48066D01*
X49162Y-47830D01*
X48983Y-47650D01*
X48747Y-47553D01*
X48493Y-47552D01*
X48471Y-47561D01*
X48471Y-46740D01*
X48471Y-46520D01*
X47717Y-46520D01*
X47682Y-46555D01*
X47682Y-46663D01*
X47704Y-46715D01*
X47743Y-46754D01*
X47794Y-46775D01*
X47850Y-46775D01*
X48436Y-46775D01*
X48471Y-46740D01*
X48471Y-47561D01*
X48257Y-47650D01*
X48077Y-47829D01*
X47980Y-48065D01*
X47979Y-48319D01*
X48077Y-48555D01*
X48256Y-48735D01*
X48492Y-48832D01*
X48746Y-48833D01*
X48982Y-48735D01*
X49162Y-48556D01*
X49259Y-48320D01*
X49260Y-48066D01*
X49260Y-49018D01*
X47212Y-49018D01*
X47212Y-48830D01*
X47212Y-47527D01*
X46837Y-47527D01*
X46837Y-45541D01*
X46824Y-45290D01*
X46754Y-45121D01*
X46671Y-45063D01*
X46586Y-45148D01*
X46586Y-44978D01*
X46528Y-44895D01*
X46291Y-44812D01*
X46040Y-44825D01*
X45871Y-44895D01*
X45813Y-44978D01*
X46200Y-45365D01*
X46586Y-44978D01*
X46586Y-45148D01*
X46284Y-45450D01*
X46671Y-45836D01*
X46754Y-45778D01*
X46837Y-45541D01*
X46837Y-47527D01*
X46586Y-47527D01*
X46586Y-45921D01*
X46200Y-45534D01*
X46115Y-45619D01*
X46115Y-45450D01*
X45728Y-45063D01*
X45645Y-45121D01*
X45562Y-45358D01*
X45575Y-45609D01*
X45645Y-45778D01*
X45728Y-45836D01*
X46115Y-45450D01*
X46115Y-45619D01*
X45813Y-45921D01*
X45871Y-46004D01*
X46108Y-46087D01*
X46359Y-46074D01*
X46528Y-46004D01*
X46586Y-45921D01*
X46586Y-47527D01*
X44837Y-47527D01*
X44837Y-45541D01*
X44824Y-45290D01*
X44754Y-45121D01*
X44671Y-45063D01*
X44586Y-45148D01*
X44586Y-44978D01*
X44528Y-44895D01*
X44291Y-44812D01*
X44040Y-44825D01*
X43871Y-44895D01*
X43813Y-44978D01*
X44200Y-45365D01*
X44586Y-44978D01*
X44586Y-45148D01*
X44284Y-45450D01*
X44671Y-45836D01*
X44754Y-45778D01*
X44837Y-45541D01*
X44837Y-47527D01*
X44586Y-47527D01*
X44586Y-45921D01*
X44200Y-45534D01*
X44115Y-45619D01*
X44115Y-45450D01*
X43728Y-45063D01*
X43645Y-45121D01*
X43562Y-45358D01*
X43575Y-45609D01*
X43645Y-45778D01*
X43728Y-45836D01*
X44115Y-45450D01*
X44115Y-45619D01*
X43813Y-45921D01*
X43871Y-46004D01*
X44108Y-46087D01*
X44359Y-46074D01*
X44528Y-46004D01*
X44586Y-45921D01*
X44586Y-47527D01*
X43890Y-47527D01*
X43890Y-48830D01*
X47212Y-48830D01*
X47212Y-49018D01*
X43325Y-49018D01*
X43325Y-28378D01*
X48034Y-28378D01*
X47743Y-28668D01*
X47691Y-28746D01*
X47673Y-28838D01*
X47673Y-29724D01*
X47691Y-29816D01*
X47743Y-29894D01*
X48657Y-30808D01*
X48657Y-31514D01*
X48567Y-31605D01*
X48264Y-31605D01*
X48264Y-31541D01*
X48243Y-31490D01*
X48203Y-31450D01*
X48243Y-31411D01*
X48264Y-31360D01*
X48264Y-31304D01*
X48264Y-30753D01*
X48243Y-30702D01*
X48203Y-30662D01*
X48152Y-30641D01*
X48096Y-30641D01*
X47309Y-30641D01*
X47258Y-30662D01*
X47218Y-30702D01*
X47206Y-30732D01*
X46687Y-30732D01*
X46687Y-30141D01*
X46674Y-29890D01*
X46604Y-29721D01*
X46521Y-29663D01*
X46436Y-29748D01*
X46436Y-29578D01*
X46378Y-29495D01*
X46141Y-29412D01*
X45890Y-29425D01*
X45721Y-29495D01*
X45663Y-29578D01*
X46050Y-29965D01*
X46436Y-29578D01*
X46436Y-29748D01*
X46134Y-30050D01*
X46521Y-30436D01*
X46604Y-30378D01*
X46687Y-30141D01*
X46687Y-30732D01*
X46436Y-30732D01*
X46436Y-30521D01*
X46050Y-30134D01*
X45965Y-30219D01*
X45965Y-30050D01*
X45578Y-29663D01*
X45495Y-29721D01*
X45412Y-29958D01*
X45425Y-30209D01*
X45495Y-30378D01*
X45578Y-30436D01*
X45965Y-30050D01*
X45965Y-30219D01*
X45663Y-30521D01*
X45721Y-30604D01*
X45958Y-30687D01*
X46209Y-30674D01*
X46378Y-30604D01*
X46436Y-30521D01*
X46436Y-30732D01*
X45602Y-30732D01*
X45586Y-30692D01*
X45408Y-30514D01*
X45176Y-30417D01*
X44924Y-30417D01*
X44692Y-30513D01*
X44687Y-30518D01*
X44687Y-30141D01*
X44674Y-29890D01*
X44604Y-29721D01*
X44521Y-29663D01*
X44436Y-29748D01*
X44436Y-29578D01*
X44378Y-29495D01*
X44141Y-29412D01*
X43890Y-29425D01*
X43721Y-29495D01*
X43663Y-29578D01*
X44050Y-29965D01*
X44436Y-29578D01*
X44436Y-29748D01*
X44134Y-30050D01*
X44521Y-30436D01*
X44604Y-30378D01*
X44687Y-30141D01*
X44687Y-30518D01*
X44514Y-30691D01*
X44436Y-30879D01*
X44436Y-30521D01*
X44050Y-30134D01*
X43965Y-30219D01*
X43965Y-30050D01*
X43578Y-29663D01*
X43495Y-29721D01*
X43412Y-29958D01*
X43425Y-30209D01*
X43495Y-30378D01*
X43578Y-30436D01*
X43965Y-30050D01*
X43965Y-30219D01*
X43663Y-30521D01*
X43721Y-30604D01*
X43958Y-30687D01*
X44209Y-30674D01*
X44378Y-30604D01*
X44436Y-30521D01*
X44436Y-30879D01*
X44417Y-30923D01*
X44417Y-31175D01*
X44513Y-31407D01*
X44691Y-31585D01*
X44923Y-31682D01*
X45175Y-31682D01*
X45407Y-31586D01*
X45585Y-31408D01*
X45602Y-31367D01*
X47200Y-31367D01*
X47218Y-31411D01*
X47258Y-31451D01*
X47218Y-31490D01*
X47197Y-31541D01*
X47197Y-31597D01*
X47197Y-31605D01*
X47190Y-31605D01*
X47098Y-31623D01*
X47020Y-31675D01*
X46798Y-31897D01*
X46746Y-31975D01*
X46728Y-32066D01*
X46728Y-32262D01*
X46687Y-32303D01*
X46538Y-32453D01*
X46521Y-32436D01*
X46604Y-32378D01*
X46687Y-32141D01*
X46674Y-31890D01*
X46604Y-31721D01*
X46521Y-31663D01*
X46436Y-31748D01*
X46436Y-31578D01*
X46378Y-31495D01*
X46141Y-31412D01*
X45890Y-31425D01*
X45721Y-31495D01*
X45663Y-31578D01*
X46050Y-31965D01*
X46436Y-31578D01*
X46436Y-31748D01*
X46134Y-32050D01*
X46140Y-32055D01*
X46055Y-32140D01*
X46050Y-32134D01*
X45965Y-32219D01*
X45965Y-32050D01*
X45578Y-31663D01*
X45495Y-31721D01*
X45412Y-31958D01*
X45425Y-32209D01*
X45495Y-32378D01*
X45578Y-32436D01*
X45965Y-32050D01*
X45965Y-32219D01*
X45663Y-32521D01*
X45721Y-32604D01*
X45958Y-32687D01*
X46209Y-32674D01*
X46378Y-32604D01*
X46436Y-32521D01*
X46436Y-32521D01*
X46453Y-32538D01*
X46436Y-32554D01*
X46287Y-32703D01*
X46284Y-32708D01*
X46129Y-32708D01*
X46077Y-32729D01*
X46038Y-32768D01*
X46017Y-32820D01*
X46017Y-32875D01*
X46017Y-33675D01*
X46038Y-33727D01*
X46077Y-33766D01*
X46129Y-33788D01*
X46184Y-33788D01*
X46784Y-33788D01*
X46836Y-33766D01*
X46875Y-33727D01*
X46897Y-33676D01*
X46897Y-33620D01*
X46897Y-32820D01*
X46883Y-32786D01*
X47138Y-32531D01*
X47138Y-32531D01*
X47190Y-32454D01*
X47197Y-32417D01*
X47197Y-32537D01*
X47232Y-32572D01*
X47671Y-32572D01*
X47671Y-32564D01*
X47791Y-32564D01*
X47791Y-32572D01*
X48229Y-32572D01*
X48264Y-32537D01*
X48264Y-32384D01*
X48264Y-32328D01*
X48243Y-32277D01*
X48204Y-32238D01*
X48243Y-32199D01*
X48264Y-32148D01*
X48264Y-32092D01*
X48264Y-32085D01*
X48666Y-32085D01*
X48758Y-32066D01*
X48836Y-32014D01*
X49067Y-31783D01*
X49067Y-31783D01*
X49119Y-31706D01*
X49137Y-31614D01*
X49137Y-31614D01*
X49137Y-30708D01*
X49137Y-30708D01*
X49119Y-30616D01*
X49088Y-30570D01*
X49067Y-30538D01*
X49067Y-30538D01*
X48153Y-29624D01*
X48153Y-28937D01*
X48367Y-28724D01*
X48844Y-28724D01*
X48757Y-28760D01*
X48577Y-28939D01*
X48480Y-29175D01*
X48479Y-29429D01*
X48577Y-29665D01*
X48756Y-29845D01*
X48992Y-29942D01*
X49246Y-29943D01*
X49482Y-29845D01*
X49662Y-29666D01*
X49759Y-29430D01*
X49760Y-29176D01*
X49662Y-28940D01*
X49483Y-28760D01*
X49395Y-28724D01*
X50412Y-28724D01*
X50332Y-28757D01*
X50194Y-28895D01*
X50120Y-29075D01*
X50119Y-29270D01*
X50194Y-29450D01*
X50332Y-29588D01*
X50512Y-29662D01*
X50707Y-29663D01*
X50887Y-29588D01*
X51025Y-29450D01*
X51099Y-29270D01*
X51100Y-29075D01*
X51025Y-28895D01*
X50887Y-28757D01*
X50807Y-28724D01*
X51412Y-28724D01*
X51332Y-28757D01*
X51194Y-28895D01*
X51120Y-29075D01*
X51119Y-29270D01*
X51194Y-29450D01*
X51332Y-29588D01*
X51512Y-29662D01*
X51707Y-29663D01*
X51887Y-29588D01*
X52025Y-29450D01*
X52099Y-29270D01*
X52100Y-29075D01*
X52025Y-28895D01*
X51887Y-28757D01*
X51807Y-28724D01*
X52412Y-28724D01*
X52332Y-28757D01*
X52194Y-28895D01*
X52120Y-29075D01*
X52119Y-29270D01*
X52194Y-29450D01*
X52332Y-29588D01*
X52512Y-29662D01*
X52707Y-29663D01*
X52887Y-29588D01*
X53025Y-29450D01*
X53099Y-29270D01*
X53100Y-29075D01*
X53025Y-28895D01*
X52887Y-28757D01*
X52807Y-28724D01*
X53396Y-28724D01*
X53367Y-28736D01*
X53326Y-28804D01*
X53610Y-29088D01*
X53893Y-28804D01*
X53852Y-28736D01*
X53815Y-28724D01*
X54412Y-28724D01*
X54332Y-28757D01*
X54194Y-28895D01*
X54120Y-29075D01*
X54119Y-29270D01*
X54194Y-29450D01*
X54332Y-29588D01*
X54512Y-29662D01*
X54707Y-29663D01*
X54887Y-29588D01*
X55025Y-29450D01*
X55099Y-29270D01*
X55100Y-29075D01*
X55025Y-28895D01*
X54887Y-28757D01*
X54807Y-28724D01*
X55412Y-28724D01*
X55332Y-28757D01*
X55194Y-28895D01*
X55120Y-29075D01*
X55119Y-29270D01*
X55194Y-29450D01*
X55332Y-29588D01*
X55417Y-29623D01*
X55440Y-29657D01*
X56019Y-30237D01*
X56019Y-34388D01*
X54905Y-35503D01*
X54513Y-35503D01*
X54513Y-35439D01*
X54492Y-35388D01*
X54456Y-35352D01*
X54463Y-35349D01*
X54503Y-35309D01*
X54524Y-35258D01*
X54524Y-35202D01*
X54524Y-35188D01*
X54585Y-35176D01*
X54663Y-35124D01*
X55642Y-34146D01*
X55642Y-34146D01*
X55694Y-34068D01*
X55712Y-33976D01*
X55712Y-33976D01*
X55712Y-32488D01*
X55739Y-32462D01*
X55787Y-32346D01*
X55787Y-32221D01*
X55765Y-32166D01*
X55765Y-31337D01*
X55717Y-31221D01*
X55690Y-31194D01*
X55690Y-30450D01*
X55671Y-30358D01*
X55619Y-30280D01*
X55619Y-30280D01*
X55369Y-30030D01*
X55291Y-29978D01*
X55200Y-29960D01*
X54205Y-29960D01*
X54178Y-29933D01*
X54106Y-29903D01*
X54106Y-29230D01*
X54090Y-29036D01*
X54046Y-28930D01*
X53978Y-28889D01*
X53694Y-29173D01*
X53978Y-29456D01*
X54046Y-29415D01*
X54106Y-29230D01*
X54106Y-29903D01*
X54062Y-29885D01*
X53937Y-29884D01*
X53893Y-29903D01*
X53893Y-29541D01*
X53610Y-29257D01*
X53525Y-29342D01*
X53525Y-29173D01*
X53241Y-28889D01*
X53173Y-28930D01*
X53113Y-29115D01*
X53129Y-29309D01*
X53173Y-29415D01*
X53241Y-29456D01*
X53525Y-29173D01*
X53525Y-29342D01*
X53326Y-29541D01*
X53367Y-29609D01*
X53552Y-29669D01*
X53746Y-29653D01*
X53852Y-29609D01*
X53893Y-29541D01*
X53893Y-29903D01*
X53821Y-29932D01*
X53733Y-30021D01*
X53685Y-30137D01*
X53684Y-30262D01*
X53732Y-30378D01*
X53821Y-30466D01*
X53937Y-30514D01*
X54062Y-30515D01*
X54178Y-30467D01*
X54205Y-30440D01*
X55100Y-30440D01*
X55210Y-30549D01*
X55210Y-31194D01*
X55183Y-31221D01*
X55135Y-31337D01*
X55134Y-31462D01*
X55182Y-31578D01*
X55271Y-31666D01*
X55387Y-31714D01*
X55512Y-31715D01*
X55628Y-31667D01*
X55716Y-31578D01*
X55764Y-31462D01*
X55765Y-31337D01*
X55765Y-32166D01*
X55739Y-32105D01*
X55651Y-32016D01*
X55535Y-31968D01*
X55410Y-31968D01*
X55294Y-32016D01*
X55205Y-32104D01*
X55157Y-32220D01*
X55157Y-32345D01*
X55205Y-32461D01*
X55232Y-32488D01*
X55232Y-33876D01*
X54504Y-34604D01*
X54503Y-34600D01*
X54464Y-34561D01*
X54503Y-34522D01*
X54524Y-34471D01*
X54524Y-34415D01*
X54524Y-33864D01*
X54503Y-33813D01*
X54473Y-33783D01*
X54503Y-33754D01*
X54524Y-33703D01*
X54524Y-33647D01*
X54524Y-33096D01*
X54503Y-33045D01*
X54473Y-33015D01*
X54503Y-32986D01*
X54524Y-32935D01*
X54524Y-32879D01*
X54524Y-32328D01*
X54503Y-32277D01*
X54464Y-32238D01*
X54503Y-32199D01*
X54524Y-32148D01*
X54524Y-32092D01*
X54524Y-31541D01*
X54503Y-31490D01*
X54463Y-31450D01*
X54503Y-31411D01*
X54524Y-31360D01*
X54524Y-31304D01*
X54524Y-30809D01*
X54524Y-30753D01*
X54503Y-30702D01*
X54463Y-30662D01*
X54412Y-30641D01*
X54086Y-30641D01*
X54051Y-30676D01*
X54051Y-30997D01*
X54489Y-30997D01*
X54524Y-30962D01*
X54524Y-30809D01*
X54524Y-31304D01*
X54524Y-31152D01*
X54489Y-31117D01*
X54051Y-31117D01*
X54051Y-31124D01*
X53931Y-31124D01*
X53931Y-31117D01*
X53931Y-30997D01*
X53931Y-30676D01*
X53896Y-30641D01*
X53569Y-30641D01*
X53518Y-30662D01*
X53478Y-30702D01*
X53457Y-30753D01*
X53457Y-30809D01*
X53457Y-30962D01*
X53492Y-30997D01*
X53931Y-30997D01*
X53931Y-31117D01*
X53492Y-31117D01*
X53457Y-31152D01*
X53457Y-31304D01*
X53457Y-31360D01*
X53478Y-31411D01*
X53518Y-31451D01*
X53478Y-31490D01*
X53457Y-31541D01*
X53457Y-31597D01*
X53457Y-32148D01*
X53478Y-32199D01*
X53517Y-32238D01*
X53478Y-32277D01*
X53457Y-32328D01*
X53457Y-32384D01*
X53457Y-32935D01*
X53478Y-32986D01*
X53508Y-33016D01*
X53478Y-33045D01*
X53457Y-33096D01*
X53457Y-33152D01*
X53457Y-33703D01*
X53478Y-33754D01*
X53508Y-33784D01*
X53478Y-33813D01*
X53457Y-33864D01*
X53457Y-33920D01*
X53457Y-34471D01*
X53478Y-34522D01*
X53517Y-34561D01*
X53478Y-34600D01*
X53457Y-34651D01*
X53457Y-34707D01*
X53457Y-35258D01*
X53478Y-35309D01*
X53514Y-35345D01*
X53507Y-35348D01*
X53467Y-35388D01*
X53446Y-35439D01*
X53446Y-35495D01*
X53446Y-36046D01*
X53467Y-36097D01*
X53507Y-36137D01*
X53558Y-36158D01*
X53614Y-36158D01*
X54401Y-36158D01*
X54452Y-36137D01*
X54492Y-36097D01*
X54513Y-36046D01*
X54513Y-35990D01*
X54513Y-35983D01*
X55005Y-35983D01*
X55096Y-35964D01*
X55174Y-35912D01*
X56429Y-34657D01*
X56429Y-34657D01*
X56481Y-34580D01*
X56499Y-34488D01*
X56499Y-34488D01*
X56499Y-30137D01*
X56499Y-30137D01*
X56481Y-30045D01*
X56450Y-29999D01*
X56429Y-29968D01*
X56429Y-29968D01*
X55968Y-29507D01*
X56025Y-29450D01*
X56099Y-29270D01*
X56100Y-29075D01*
X56025Y-28895D01*
X55887Y-28757D01*
X55807Y-28724D01*
X56412Y-28724D01*
X56332Y-28757D01*
X56194Y-28895D01*
X56120Y-29075D01*
X56119Y-29270D01*
X56194Y-29450D01*
X56332Y-29588D01*
X56512Y-29662D01*
X56707Y-29663D01*
X56887Y-29588D01*
X57025Y-29450D01*
X57099Y-29270D01*
X57100Y-29075D01*
X57025Y-28895D01*
X56887Y-28757D01*
X56807Y-28724D01*
X57412Y-28724D01*
X57332Y-28757D01*
X57194Y-28895D01*
X57120Y-29075D01*
X57119Y-29270D01*
X57194Y-29450D01*
X57332Y-29588D01*
X57512Y-29662D01*
X57707Y-29663D01*
X57887Y-29588D01*
X58025Y-29450D01*
X58099Y-29270D01*
X58100Y-29075D01*
X58025Y-28895D01*
X57887Y-28757D01*
X57807Y-28724D01*
X58412Y-28724D01*
X58332Y-28757D01*
X58194Y-28895D01*
X58120Y-29075D01*
X58119Y-29270D01*
X58194Y-29450D01*
X58332Y-29588D01*
X58512Y-29662D01*
X58707Y-29663D01*
X58832Y-29611D01*
X58722Y-29720D01*
X58622Y-29720D01*
X58530Y-29738D01*
X58483Y-29770D01*
X58452Y-29790D01*
X56916Y-31326D01*
X56864Y-31404D01*
X56846Y-31496D01*
X56846Y-34428D01*
X54861Y-36413D01*
X53315Y-36413D01*
X53315Y-34037D01*
X53267Y-33921D01*
X53178Y-33833D01*
X53062Y-33785D01*
X52937Y-33784D01*
X52821Y-33832D01*
X52794Y-33860D01*
X49577Y-33860D01*
X49485Y-33878D01*
X49407Y-33930D01*
X49107Y-34230D01*
X49114Y-34212D01*
X49115Y-34087D01*
X49067Y-33971D01*
X48978Y-33883D01*
X48862Y-33835D01*
X48737Y-33834D01*
X48621Y-33882D01*
X48576Y-33928D01*
X48264Y-33928D01*
X48264Y-33864D01*
X48243Y-33813D01*
X48213Y-33783D01*
X48243Y-33754D01*
X48264Y-33703D01*
X48264Y-33647D01*
X48264Y-33096D01*
X48243Y-33045D01*
X48213Y-33015D01*
X48243Y-32986D01*
X48264Y-32935D01*
X48264Y-32879D01*
X48264Y-32727D01*
X48229Y-32692D01*
X47791Y-32692D01*
X47791Y-32699D01*
X47671Y-32699D01*
X47671Y-32692D01*
X47232Y-32692D01*
X47197Y-32727D01*
X47197Y-32879D01*
X47197Y-32935D01*
X47218Y-32986D01*
X47248Y-33016D01*
X47218Y-33045D01*
X47197Y-33096D01*
X47197Y-33152D01*
X47197Y-33703D01*
X47218Y-33754D01*
X47248Y-33784D01*
X47218Y-33813D01*
X47197Y-33864D01*
X47197Y-33920D01*
X47197Y-34145D01*
X47167Y-34071D01*
X47078Y-33983D01*
X46962Y-33935D01*
X46837Y-33934D01*
X46721Y-33982D01*
X46633Y-34071D01*
X46585Y-34187D01*
X46584Y-34312D01*
X46632Y-34428D01*
X46721Y-34516D01*
X46760Y-34532D01*
X46760Y-35005D01*
X46704Y-34871D01*
X46621Y-34813D01*
X46536Y-34898D01*
X46536Y-34728D01*
X46478Y-34645D01*
X46241Y-34562D01*
X45990Y-34575D01*
X45821Y-34645D01*
X45763Y-34728D01*
X46150Y-35115D01*
X46536Y-34728D01*
X46536Y-34898D01*
X46234Y-35200D01*
X46621Y-35586D01*
X46704Y-35528D01*
X46760Y-35370D01*
X46760Y-35550D01*
X46778Y-35641D01*
X46830Y-35719D01*
X47023Y-35912D01*
X47023Y-35912D01*
X47101Y-35964D01*
X47192Y-35982D01*
X47193Y-35983D01*
X47197Y-35983D01*
X47197Y-36046D01*
X47218Y-36097D01*
X47258Y-36137D01*
X47309Y-36158D01*
X47365Y-36158D01*
X48152Y-36158D01*
X48203Y-36137D01*
X48243Y-36097D01*
X48264Y-36046D01*
X48264Y-35990D01*
X48264Y-35439D01*
X48243Y-35388D01*
X48203Y-35348D01*
X48243Y-35309D01*
X48264Y-35258D01*
X48264Y-35202D01*
X48264Y-35190D01*
X48727Y-35190D01*
X48819Y-35171D01*
X48897Y-35119D01*
X49676Y-34340D01*
X52794Y-34340D01*
X52821Y-34366D01*
X52937Y-34414D01*
X53062Y-34415D01*
X53178Y-34367D01*
X53266Y-34278D01*
X53314Y-34162D01*
X53315Y-34037D01*
X53315Y-36413D01*
X51614Y-36413D01*
X51522Y-36431D01*
X51444Y-36483D01*
X49380Y-38548D01*
X49380Y-38257D01*
X49360Y-38210D01*
X49380Y-38163D01*
X49380Y-37757D01*
X49358Y-37706D01*
X49319Y-37666D01*
X49268Y-37645D01*
X49212Y-37645D01*
X48626Y-37645D01*
X48591Y-37680D01*
X48591Y-37900D01*
X49345Y-37900D01*
X49380Y-37865D01*
X49380Y-37757D01*
X49380Y-38163D01*
X49380Y-38055D01*
X49345Y-38020D01*
X48591Y-38020D01*
X48591Y-38028D01*
X48471Y-38028D01*
X48471Y-38020D01*
X48471Y-37900D01*
X48471Y-37680D01*
X48436Y-37645D01*
X47850Y-37645D01*
X47794Y-37645D01*
X47743Y-37666D01*
X47704Y-37706D01*
X47682Y-37757D01*
X47682Y-37865D01*
X47717Y-37900D01*
X48471Y-37900D01*
X48471Y-38020D01*
X47717Y-38020D01*
X47682Y-38055D01*
X47682Y-38163D01*
X47702Y-38210D01*
X47682Y-38257D01*
X47682Y-38313D01*
X47682Y-38663D01*
X47702Y-38710D01*
X47682Y-38757D01*
X47682Y-38813D01*
X47682Y-39163D01*
X47702Y-39210D01*
X47682Y-39257D01*
X47682Y-39313D01*
X47682Y-39663D01*
X47702Y-39710D01*
X47682Y-39757D01*
X47682Y-39813D01*
X47682Y-40163D01*
X47702Y-40210D01*
X47682Y-40257D01*
X47682Y-40313D01*
X47682Y-40663D01*
X47702Y-40710D01*
X47682Y-40757D01*
X47682Y-40813D01*
X47682Y-41163D01*
X47702Y-41210D01*
X47682Y-41257D01*
X47682Y-41313D01*
X47682Y-41663D01*
X47702Y-41710D01*
X47682Y-41757D01*
X47682Y-41813D01*
X47682Y-42163D01*
X47702Y-42210D01*
X47698Y-42220D01*
X47697Y-42220D01*
X47637Y-42160D01*
X47637Y-40213D01*
X47590Y-40097D01*
X47559Y-40066D01*
X47559Y-38992D01*
X47511Y-38876D01*
X47422Y-38788D01*
X47307Y-38740D01*
X47181Y-38740D01*
X47065Y-38787D01*
X47008Y-38845D01*
X46890Y-38845D01*
X46890Y-38782D01*
X46868Y-38731D01*
X46829Y-38691D01*
X46787Y-38674D01*
X46787Y-37291D01*
X46774Y-37040D01*
X46704Y-36871D01*
X46621Y-36813D01*
X46536Y-36898D01*
X46536Y-36728D01*
X46536Y-35671D01*
X46150Y-35284D01*
X46065Y-35369D01*
X46065Y-35200D01*
X45678Y-34813D01*
X45597Y-34870D01*
X45597Y-33620D01*
X45597Y-32875D01*
X45597Y-32820D01*
X45575Y-32768D01*
X45536Y-32729D01*
X45484Y-32708D01*
X45252Y-32708D01*
X45217Y-32743D01*
X45217Y-33188D01*
X45562Y-33188D01*
X45597Y-33153D01*
X45597Y-32875D01*
X45597Y-33620D01*
X45597Y-33343D01*
X45562Y-33308D01*
X45217Y-33308D01*
X45217Y-33753D01*
X45252Y-33788D01*
X45484Y-33788D01*
X45536Y-33766D01*
X45575Y-33727D01*
X45597Y-33676D01*
X45597Y-33620D01*
X45597Y-34870D01*
X45595Y-34871D01*
X45512Y-35108D01*
X45525Y-35359D01*
X45595Y-35528D01*
X45678Y-35586D01*
X46065Y-35200D01*
X46065Y-35369D01*
X45763Y-35671D01*
X45821Y-35754D01*
X46058Y-35837D01*
X46309Y-35824D01*
X46478Y-35754D01*
X46536Y-35671D01*
X46536Y-36728D01*
X46478Y-36645D01*
X46241Y-36562D01*
X45990Y-36575D01*
X45821Y-36645D01*
X45782Y-36701D01*
X45782Y-36074D01*
X45686Y-35842D01*
X45508Y-35664D01*
X45276Y-35567D01*
X45097Y-35567D01*
X45097Y-33753D01*
X45097Y-33308D01*
X45097Y-33188D01*
X45097Y-32743D01*
X45062Y-32708D01*
X44829Y-32708D01*
X44777Y-32729D01*
X44738Y-32768D01*
X44717Y-32820D01*
X44717Y-32875D01*
X44717Y-33153D01*
X44752Y-33188D01*
X45097Y-33188D01*
X45097Y-33308D01*
X44752Y-33308D01*
X44717Y-33343D01*
X44717Y-33620D01*
X44717Y-33676D01*
X44738Y-33727D01*
X44777Y-33766D01*
X44829Y-33788D01*
X45062Y-33788D01*
X45097Y-33753D01*
X45097Y-35567D01*
X45024Y-35567D01*
X44792Y-35663D01*
X44787Y-35668D01*
X44787Y-35291D01*
X44774Y-35040D01*
X44704Y-34871D01*
X44687Y-34859D01*
X44687Y-32141D01*
X44674Y-31890D01*
X44604Y-31721D01*
X44521Y-31663D01*
X44436Y-31748D01*
X44436Y-31578D01*
X44378Y-31495D01*
X44141Y-31412D01*
X43890Y-31425D01*
X43721Y-31495D01*
X43663Y-31578D01*
X44050Y-31965D01*
X44436Y-31578D01*
X44436Y-31748D01*
X44134Y-32050D01*
X44521Y-32436D01*
X44604Y-32378D01*
X44687Y-32141D01*
X44687Y-34859D01*
X44621Y-34813D01*
X44536Y-34898D01*
X44536Y-34728D01*
X44478Y-34645D01*
X44436Y-34630D01*
X44436Y-32521D01*
X44050Y-32134D01*
X43965Y-32219D01*
X43965Y-32050D01*
X43578Y-31663D01*
X43495Y-31721D01*
X43412Y-31958D01*
X43425Y-32209D01*
X43495Y-32378D01*
X43578Y-32436D01*
X43965Y-32050D01*
X43965Y-32219D01*
X43663Y-32521D01*
X43721Y-32604D01*
X43958Y-32687D01*
X44209Y-32674D01*
X44378Y-32604D01*
X44436Y-32521D01*
X44436Y-34630D01*
X44241Y-34562D01*
X43990Y-34575D01*
X43821Y-34645D01*
X43763Y-34728D01*
X44150Y-35115D01*
X44536Y-34728D01*
X44536Y-34898D01*
X44234Y-35200D01*
X44621Y-35586D01*
X44704Y-35528D01*
X44787Y-35291D01*
X44787Y-35668D01*
X44614Y-35841D01*
X44536Y-36029D01*
X44536Y-35671D01*
X44150Y-35284D01*
X44065Y-35369D01*
X44065Y-35200D01*
X43678Y-34813D01*
X43595Y-34871D01*
X43512Y-35108D01*
X43525Y-35359D01*
X43595Y-35528D01*
X43678Y-35586D01*
X44065Y-35200D01*
X44065Y-35369D01*
X43763Y-35671D01*
X43821Y-35754D01*
X44058Y-35837D01*
X44309Y-35824D01*
X44478Y-35754D01*
X44536Y-35671D01*
X44536Y-36029D01*
X44517Y-36073D01*
X44517Y-36325D01*
X44613Y-36557D01*
X44791Y-36735D01*
X45023Y-36832D01*
X45275Y-36832D01*
X45507Y-36736D01*
X45685Y-36558D01*
X45782Y-36326D01*
X45782Y-36074D01*
X45782Y-36701D01*
X45763Y-36728D01*
X46150Y-37115D01*
X46536Y-36728D01*
X46536Y-36898D01*
X46234Y-37200D01*
X46621Y-37586D01*
X46704Y-37528D01*
X46787Y-37291D01*
X46787Y-38674D01*
X46777Y-38670D01*
X46722Y-38670D01*
X46536Y-38670D01*
X46536Y-37671D01*
X46150Y-37284D01*
X46065Y-37369D01*
X46065Y-37200D01*
X45678Y-36813D01*
X45595Y-36871D01*
X45512Y-37108D01*
X45525Y-37359D01*
X45595Y-37528D01*
X45678Y-37586D01*
X46065Y-37200D01*
X46065Y-37369D01*
X45763Y-37671D01*
X45821Y-37754D01*
X46058Y-37837D01*
X46309Y-37824D01*
X46478Y-37754D01*
X46536Y-37671D01*
X46536Y-38670D01*
X46372Y-38670D01*
X46320Y-38691D01*
X46281Y-38731D01*
X46260Y-38782D01*
X46259Y-38838D01*
X46259Y-39388D01*
X46281Y-39439D01*
X46320Y-39479D01*
X46372Y-39500D01*
X46427Y-39500D01*
X46777Y-39500D01*
X46829Y-39479D01*
X46868Y-39439D01*
X46889Y-39388D01*
X46890Y-39332D01*
X46890Y-39325D01*
X47073Y-39325D01*
X47181Y-39370D01*
X47306Y-39370D01*
X47422Y-39322D01*
X47510Y-39233D01*
X47559Y-39118D01*
X47559Y-38992D01*
X47559Y-40066D01*
X47501Y-40008D01*
X47385Y-39960D01*
X47260Y-39960D01*
X47144Y-40008D01*
X47125Y-40027D01*
X46890Y-40027D01*
X46890Y-39964D01*
X46868Y-39913D01*
X46829Y-39873D01*
X46777Y-39852D01*
X46722Y-39852D01*
X46372Y-39852D01*
X46320Y-39873D01*
X46281Y-39912D01*
X46260Y-39964D01*
X46259Y-40020D01*
X46259Y-40570D01*
X46281Y-40621D01*
X46320Y-40660D01*
X46372Y-40682D01*
X46427Y-40682D01*
X46777Y-40682D01*
X46829Y-40661D01*
X46868Y-40621D01*
X46889Y-40570D01*
X46890Y-40514D01*
X46890Y-40507D01*
X47109Y-40507D01*
X47144Y-40542D01*
X47259Y-40590D01*
X47385Y-40590D01*
X47501Y-40542D01*
X47589Y-40454D01*
X47637Y-40338D01*
X47637Y-40213D01*
X47637Y-42160D01*
X46890Y-41412D01*
X46890Y-41115D01*
X46868Y-41063D01*
X46829Y-41024D01*
X46777Y-41003D01*
X46722Y-41003D01*
X46372Y-41003D01*
X46320Y-41024D01*
X46281Y-41063D01*
X46260Y-41115D01*
X46259Y-41170D01*
X46259Y-41720D01*
X46281Y-41772D01*
X46320Y-41811D01*
X46372Y-41833D01*
X46427Y-41833D01*
X46631Y-41833D01*
X47428Y-42630D01*
X47506Y-42682D01*
X47598Y-42700D01*
X47698Y-42700D01*
X47702Y-42710D01*
X47682Y-42757D01*
X47682Y-42865D01*
X47717Y-42900D01*
X48471Y-42900D01*
X48471Y-42892D01*
X48591Y-42892D01*
X48591Y-42900D01*
X49345Y-42900D01*
X49380Y-42865D01*
X49380Y-42757D01*
X49360Y-42710D01*
X49380Y-42663D01*
X49380Y-42608D01*
X49380Y-42257D01*
X49360Y-42210D01*
X49380Y-42163D01*
X49380Y-42108D01*
X49380Y-41757D01*
X49360Y-41710D01*
X49364Y-41700D01*
X49602Y-41700D01*
X49694Y-41682D01*
X49772Y-41630D01*
X50327Y-41075D01*
X50379Y-40997D01*
X50397Y-40905D01*
X50397Y-40905D01*
X50397Y-39193D01*
X51989Y-37602D01*
X56250Y-37602D01*
X56239Y-37606D01*
X56150Y-37695D01*
X56102Y-37811D01*
X56102Y-37936D01*
X56150Y-38052D01*
X56238Y-38140D01*
X56354Y-38188D01*
X56479Y-38189D01*
X56595Y-38141D01*
X56684Y-38052D01*
X56732Y-37936D01*
X56732Y-37811D01*
X56684Y-37695D01*
X56595Y-37607D01*
X56584Y-37602D01*
X57077Y-37602D01*
X57065Y-37606D01*
X56977Y-37695D01*
X56929Y-37811D01*
X56929Y-37936D01*
X56976Y-38052D01*
X57004Y-38079D01*
X57004Y-38207D01*
X56061Y-39150D01*
X56012Y-39150D01*
X56012Y-39062D01*
X56012Y-38417D01*
X56012Y-37762D01*
X55991Y-37710D01*
X55951Y-37671D01*
X55900Y-37650D01*
X55844Y-37650D01*
X55567Y-37650D01*
X55532Y-37685D01*
X55532Y-38030D01*
X55977Y-38030D01*
X56012Y-37995D01*
X56012Y-37762D01*
X56012Y-38417D01*
X56012Y-38185D01*
X55977Y-38150D01*
X55532Y-38150D01*
X55532Y-38495D01*
X55567Y-38530D01*
X55844Y-38530D01*
X55900Y-38530D01*
X55951Y-38508D01*
X55991Y-38469D01*
X56012Y-38417D01*
X56012Y-39062D01*
X55991Y-39010D01*
X55951Y-38971D01*
X55900Y-38950D01*
X55844Y-38950D01*
X55412Y-38950D01*
X55412Y-38495D01*
X55412Y-38150D01*
X55412Y-38030D01*
X55412Y-37685D01*
X55377Y-37650D01*
X55100Y-37650D01*
X55044Y-37650D01*
X54993Y-37671D01*
X54953Y-37710D01*
X54932Y-37762D01*
X54932Y-37995D01*
X54967Y-38030D01*
X55412Y-38030D01*
X55412Y-38150D01*
X54967Y-38150D01*
X54932Y-38185D01*
X54932Y-38417D01*
X54953Y-38469D01*
X54993Y-38508D01*
X55044Y-38530D01*
X55100Y-38530D01*
X55377Y-38530D01*
X55412Y-38495D01*
X55412Y-38950D01*
X55044Y-38950D01*
X54993Y-38971D01*
X54953Y-39010D01*
X54932Y-39062D01*
X54932Y-39101D01*
X54627Y-38797D01*
X54627Y-38518D01*
X54627Y-38174D01*
X54627Y-37768D01*
X54606Y-37717D01*
X54567Y-37677D01*
X54515Y-37656D01*
X54459Y-37656D01*
X54307Y-37656D01*
X54272Y-37691D01*
X54272Y-37911D01*
X54592Y-37911D01*
X54627Y-37876D01*
X54627Y-37768D01*
X54627Y-38174D01*
X54627Y-38066D01*
X54592Y-38031D01*
X54272Y-38031D01*
X54272Y-38251D01*
X54307Y-38286D01*
X54459Y-38286D01*
X54515Y-38286D01*
X54567Y-38265D01*
X54606Y-38225D01*
X54627Y-38174D01*
X54627Y-38518D01*
X54606Y-38467D01*
X54567Y-38427D01*
X54515Y-38406D01*
X54459Y-38406D01*
X54152Y-38406D01*
X54152Y-38251D01*
X54152Y-38031D01*
X54152Y-37911D01*
X54152Y-37691D01*
X54117Y-37656D01*
X53965Y-37656D01*
X53909Y-37656D01*
X53858Y-37677D01*
X53818Y-37717D01*
X53797Y-37768D01*
X53797Y-37876D01*
X53832Y-37911D01*
X54152Y-37911D01*
X54152Y-38031D01*
X53832Y-38031D01*
X53797Y-38066D01*
X53797Y-38174D01*
X53818Y-38225D01*
X53858Y-38265D01*
X53909Y-38286D01*
X53965Y-38286D01*
X54117Y-38286D01*
X54152Y-38251D01*
X54152Y-38406D01*
X53909Y-38406D01*
X53858Y-38427D01*
X53818Y-38467D01*
X53797Y-38518D01*
X53797Y-38574D01*
X53797Y-38614D01*
X53773Y-38638D01*
X53773Y-38608D01*
X53773Y-38257D01*
X53754Y-38210D01*
X53773Y-38163D01*
X53773Y-37757D01*
X53752Y-37706D01*
X53713Y-37666D01*
X53661Y-37645D01*
X53606Y-37645D01*
X53020Y-37645D01*
X52985Y-37680D01*
X52985Y-37900D01*
X53738Y-37900D01*
X53773Y-37865D01*
X53773Y-37757D01*
X53773Y-38163D01*
X53773Y-38055D01*
X53738Y-38020D01*
X52985Y-38020D01*
X52985Y-38028D01*
X52865Y-38028D01*
X52865Y-38020D01*
X52865Y-37900D01*
X52865Y-37680D01*
X52830Y-37645D01*
X52244Y-37645D01*
X52188Y-37645D01*
X52137Y-37666D01*
X52097Y-37706D01*
X52076Y-37757D01*
X52076Y-37865D01*
X52111Y-37900D01*
X52865Y-37900D01*
X52865Y-38020D01*
X52111Y-38020D01*
X52076Y-38055D01*
X52076Y-38163D01*
X52095Y-38210D01*
X52076Y-38257D01*
X52076Y-38313D01*
X52076Y-38663D01*
X52095Y-38710D01*
X52091Y-38720D01*
X51393Y-38720D01*
X51301Y-38738D01*
X51223Y-38790D01*
X51077Y-38936D01*
X51039Y-38936D01*
X50924Y-38984D01*
X50835Y-39073D01*
X50787Y-39189D01*
X50787Y-39314D01*
X50835Y-39430D01*
X50923Y-39518D01*
X51039Y-39566D01*
X51164Y-39567D01*
X51280Y-39519D01*
X51369Y-39430D01*
X51417Y-39314D01*
X51417Y-39276D01*
X51493Y-39200D01*
X52091Y-39200D01*
X52095Y-39210D01*
X52076Y-39257D01*
X52076Y-39313D01*
X52076Y-39663D01*
X52095Y-39710D01*
X52076Y-39757D01*
X52076Y-39813D01*
X52076Y-40163D01*
X52095Y-40210D01*
X52091Y-40220D01*
X52019Y-40220D01*
X51927Y-40238D01*
X51881Y-40270D01*
X51849Y-40290D01*
X51011Y-41129D01*
X50959Y-41207D01*
X50941Y-41299D01*
X50941Y-47474D01*
X50563Y-47852D01*
X50193Y-47852D01*
X50141Y-47873D01*
X50102Y-47913D01*
X50081Y-47964D01*
X50081Y-48020D01*
X50081Y-48570D01*
X50102Y-48621D01*
X50141Y-48661D01*
X50193Y-48682D01*
X50248Y-48682D01*
X50798Y-48682D01*
X50850Y-48661D01*
X50889Y-48622D01*
X50911Y-48570D01*
X50911Y-48514D01*
X50911Y-48183D01*
X51256Y-47838D01*
X51256Y-47920D01*
X51144Y-48032D01*
X51081Y-48184D01*
X51080Y-48349D01*
X51144Y-48502D01*
X51260Y-48619D01*
X51413Y-48682D01*
X51578Y-48682D01*
X51730Y-48619D01*
X51847Y-48503D01*
X51910Y-48350D01*
X51911Y-48185D01*
X51848Y-48032D01*
X51736Y-47920D01*
X51736Y-41556D01*
X52091Y-41200D01*
X52091Y-41200D01*
X52095Y-41210D01*
X52076Y-41257D01*
X52076Y-41313D01*
X52076Y-41663D01*
X52095Y-41710D01*
X52076Y-41757D01*
X52076Y-41813D01*
X52076Y-42163D01*
X52095Y-42210D01*
X52076Y-42257D01*
X52076Y-42365D01*
X52111Y-42400D01*
X52865Y-42400D01*
X52865Y-42392D01*
X52985Y-42392D01*
X52985Y-42400D01*
X53738Y-42400D01*
X53773Y-42365D01*
X53773Y-42257D01*
X53754Y-42210D01*
X53773Y-42163D01*
X53773Y-42108D01*
X53773Y-41757D01*
X53754Y-41710D01*
X53773Y-41663D01*
X53773Y-41608D01*
X53773Y-41257D01*
X53754Y-41210D01*
X53773Y-41163D01*
X53773Y-41108D01*
X53773Y-40757D01*
X53754Y-40710D01*
X53773Y-40663D01*
X53773Y-40608D01*
X53773Y-40257D01*
X53754Y-40210D01*
X53758Y-40200D01*
X53837Y-40200D01*
X54594Y-40957D01*
X54594Y-40957D01*
X54671Y-41009D01*
X54763Y-41027D01*
X63089Y-41027D01*
X64484Y-42422D01*
X64484Y-43510D01*
X64440Y-43404D01*
X64351Y-43315D01*
X64236Y-43267D01*
X64110Y-43267D01*
X63995Y-43315D01*
X63986Y-43323D01*
X63800Y-43323D01*
X63800Y-42961D01*
X63800Y-42611D01*
X63779Y-42559D01*
X63740Y-42520D01*
X63688Y-42499D01*
X63633Y-42498D01*
X63083Y-42498D01*
X63031Y-42520D01*
X62992Y-42559D01*
X62986Y-42573D01*
X62801Y-42573D01*
X62795Y-42559D01*
X62755Y-42520D01*
X62704Y-42499D01*
X62648Y-42498D01*
X62098Y-42498D01*
X62047Y-42520D01*
X62007Y-42559D01*
X62001Y-42573D01*
X61856Y-42573D01*
X61850Y-42559D01*
X61811Y-42520D01*
X61759Y-42499D01*
X61703Y-42498D01*
X61153Y-42498D01*
X61102Y-42520D01*
X61063Y-42559D01*
X61057Y-42573D01*
X60814Y-42573D01*
X60808Y-42567D01*
X60692Y-42519D01*
X60669Y-42519D01*
X60669Y-41394D01*
X60621Y-41278D01*
X60532Y-41189D01*
X60417Y-41141D01*
X60291Y-41141D01*
X60176Y-41189D01*
X60148Y-41216D01*
X58394Y-41216D01*
X58367Y-41189D01*
X58251Y-41141D01*
X58126Y-41141D01*
X58010Y-41189D01*
X57922Y-41278D01*
X57874Y-41393D01*
X57873Y-41519D01*
X57921Y-41634D01*
X58010Y-41723D01*
X58126Y-41771D01*
X58251Y-41771D01*
X58367Y-41723D01*
X58394Y-41696D01*
X60148Y-41696D01*
X60175Y-41723D01*
X60291Y-41771D01*
X60416Y-41771D01*
X60532Y-41723D01*
X60621Y-41635D01*
X60669Y-41519D01*
X60669Y-41394D01*
X60669Y-42519D01*
X60567Y-42519D01*
X60451Y-42567D01*
X60363Y-42655D01*
X60314Y-42771D01*
X60314Y-42897D01*
X60362Y-43012D01*
X60451Y-43101D01*
X60566Y-43149D01*
X60692Y-43149D01*
X60808Y-43101D01*
X60856Y-43053D01*
X61057Y-43053D01*
X61062Y-43068D01*
X61102Y-43107D01*
X61153Y-43128D01*
X61209Y-43129D01*
X61759Y-43129D01*
X61810Y-43107D01*
X61850Y-43068D01*
X61856Y-43053D01*
X62001Y-43053D01*
X62007Y-43068D01*
X62047Y-43107D01*
X62098Y-43128D01*
X62154Y-43129D01*
X62704Y-43129D01*
X62755Y-43107D01*
X62795Y-43068D01*
X62801Y-43053D01*
X62986Y-43053D01*
X62992Y-43068D01*
X63031Y-43107D01*
X63082Y-43128D01*
X63138Y-43129D01*
X63688Y-43129D01*
X63740Y-43107D01*
X63779Y-43068D01*
X63800Y-43016D01*
X63800Y-42961D01*
X63800Y-43323D01*
X63785Y-43323D01*
X63779Y-43309D01*
X63740Y-43270D01*
X63688Y-43249D01*
X63633Y-43248D01*
X63083Y-43248D01*
X63031Y-43270D01*
X62992Y-43309D01*
X62970Y-43361D01*
X62970Y-43416D01*
X62970Y-43766D01*
X62992Y-43818D01*
X63031Y-43857D01*
X63082Y-43878D01*
X63138Y-43879D01*
X63688Y-43879D01*
X63740Y-43857D01*
X63779Y-43818D01*
X63785Y-43803D01*
X63949Y-43803D01*
X63994Y-43849D01*
X64110Y-43897D01*
X64235Y-43897D01*
X64351Y-43849D01*
X64440Y-43761D01*
X64484Y-43654D01*
X64484Y-44191D01*
X64230Y-44446D01*
X64178Y-44523D01*
X64160Y-44615D01*
X64160Y-45409D01*
X64097Y-45409D01*
X64045Y-45431D01*
X64006Y-45470D01*
X63985Y-45522D01*
X63984Y-45577D01*
X63984Y-45927D01*
X64006Y-45979D01*
X64045Y-46018D01*
X64097Y-46039D01*
X64152Y-46040D01*
X64702Y-46040D01*
X64754Y-46018D01*
X64793Y-45979D01*
X64814Y-45927D01*
X64815Y-45872D01*
X64815Y-45522D01*
X64793Y-45470D01*
X64754Y-45431D01*
X64702Y-45410D01*
X64647Y-45409D01*
X64640Y-45409D01*
X64640Y-44715D01*
X64894Y-44461D01*
X64894Y-44461D01*
X64914Y-44429D01*
X64946Y-44383D01*
X64946Y-44383D01*
X64964Y-44291D01*
X64964Y-44291D01*
X64964Y-42429D01*
X67360Y-44825D01*
X67360Y-45409D01*
X67297Y-45409D01*
X67245Y-45431D01*
X67206Y-45470D01*
X67185Y-45522D01*
X67184Y-45577D01*
X67184Y-45927D01*
X67206Y-45979D01*
X67245Y-46018D01*
X67297Y-46039D01*
X67352Y-46040D01*
X67902Y-46040D01*
X67954Y-46018D01*
X67993Y-45979D01*
X68014Y-45927D01*
X68015Y-45872D01*
X68015Y-45522D01*
X67993Y-45470D01*
X67954Y-45431D01*
X67902Y-45410D01*
X67847Y-45409D01*
X67840Y-45409D01*
X67840Y-44725D01*
X67821Y-44634D01*
X67769Y-44556D01*
X67769Y-44556D01*
X63476Y-40263D01*
X63398Y-40211D01*
X63307Y-40193D01*
X54981Y-40193D01*
X54079Y-39290D01*
X54001Y-39238D01*
X53909Y-39220D01*
X53758Y-39220D01*
X53754Y-39210D01*
X53758Y-39200D01*
X53791Y-39200D01*
X53883Y-39182D01*
X53961Y-39130D01*
X54054Y-39036D01*
X54188Y-39036D01*
X54711Y-39559D01*
X54711Y-39559D01*
X54789Y-39611D01*
X54881Y-39630D01*
X54881Y-39630D01*
X54932Y-39630D01*
X54932Y-39717D01*
X54953Y-39769D01*
X54993Y-39808D01*
X55044Y-39830D01*
X55100Y-39830D01*
X55900Y-39830D01*
X55951Y-39808D01*
X55991Y-39769D01*
X56012Y-39718D01*
X56012Y-39662D01*
X56012Y-39630D01*
X56161Y-39630D01*
X56252Y-39611D01*
X56330Y-39559D01*
X57413Y-38476D01*
X57413Y-38476D01*
X57465Y-38398D01*
X57484Y-38307D01*
X57484Y-38307D01*
X57484Y-38079D01*
X57510Y-38052D01*
X57559Y-37936D01*
X57559Y-37811D01*
X57511Y-37695D01*
X57422Y-37607D01*
X57410Y-37602D01*
X59731Y-37602D01*
X59624Y-37646D01*
X59536Y-37734D01*
X59488Y-37850D01*
X59488Y-37975D01*
X59535Y-38091D01*
X59563Y-38118D01*
X59563Y-39400D01*
X59536Y-39427D01*
X59488Y-39543D01*
X59488Y-39668D01*
X59535Y-39784D01*
X59624Y-39873D01*
X59740Y-39921D01*
X59865Y-39921D01*
X59981Y-39873D01*
X60070Y-39784D01*
X60078Y-39764D01*
X60087Y-39784D01*
X60175Y-39873D01*
X60291Y-39921D01*
X60416Y-39921D01*
X60532Y-39873D01*
X60621Y-39784D01*
X60669Y-39669D01*
X60669Y-39543D01*
X60621Y-39428D01*
X60594Y-39400D01*
X60594Y-38079D01*
X60621Y-38052D01*
X60669Y-37936D01*
X60669Y-37811D01*
X60621Y-37695D01*
X60532Y-37607D01*
X60521Y-37602D01*
X65551Y-37602D01*
X65643Y-37583D01*
X65720Y-37531D01*
X68319Y-34933D01*
X68319Y-34933D01*
X68371Y-34855D01*
X68389Y-34763D01*
X68389Y-34763D01*
X68389Y-31212D01*
X68389Y-31212D01*
X68371Y-31120D01*
X68319Y-31042D01*
X68319Y-31042D01*
X66897Y-29621D01*
X67022Y-29672D01*
X67217Y-29673D01*
X67397Y-29598D01*
X67535Y-29460D01*
X67609Y-29280D01*
X67610Y-29085D01*
X67535Y-28905D01*
X67397Y-28767D01*
X67217Y-28693D01*
X67022Y-28692D01*
X66842Y-28767D01*
X66704Y-28905D01*
X66630Y-29085D01*
X66629Y-29280D01*
X66681Y-29405D01*
X66594Y-29318D01*
X66609Y-29280D01*
X66610Y-29085D01*
X66535Y-28905D01*
X66397Y-28767D01*
X66217Y-28693D01*
X66022Y-28692D01*
X65842Y-28767D01*
X65704Y-28905D01*
X65630Y-29085D01*
X65629Y-29280D01*
X65704Y-29460D01*
X65842Y-29598D01*
X66022Y-29672D01*
X66217Y-29673D01*
X66254Y-29657D01*
X66503Y-29905D01*
X66430Y-29857D01*
X66338Y-29838D01*
X65532Y-29838D01*
X65360Y-29666D01*
X65360Y-29614D01*
X65397Y-29598D01*
X65535Y-29460D01*
X65609Y-29280D01*
X65610Y-29085D01*
X65535Y-28905D01*
X65397Y-28767D01*
X65217Y-28693D01*
X65022Y-28692D01*
X64842Y-28767D01*
X64704Y-28905D01*
X64630Y-29085D01*
X64629Y-29280D01*
X64704Y-29460D01*
X64842Y-29598D01*
X64880Y-29613D01*
X64880Y-29765D01*
X64898Y-29857D01*
X64950Y-29935D01*
X65207Y-30193D01*
X65060Y-30193D01*
X64431Y-29564D01*
X64535Y-29460D01*
X64609Y-29280D01*
X64610Y-29085D01*
X64535Y-28905D01*
X64397Y-28767D01*
X64217Y-28693D01*
X64022Y-28692D01*
X63842Y-28767D01*
X63704Y-28905D01*
X63630Y-29085D01*
X63629Y-29280D01*
X63704Y-29460D01*
X63842Y-29598D01*
X63884Y-29615D01*
X63898Y-29684D01*
X63950Y-29762D01*
X64790Y-30602D01*
X64790Y-30602D01*
X64868Y-30654D01*
X64960Y-30673D01*
X64960Y-30673D01*
X65845Y-30673D01*
X66684Y-31512D01*
X66684Y-32052D01*
X66706Y-32104D01*
X66745Y-32143D01*
X66797Y-32164D01*
X66852Y-32165D01*
X66860Y-32165D01*
X66860Y-32609D01*
X66797Y-32609D01*
X66745Y-32631D01*
X66706Y-32670D01*
X66685Y-32722D01*
X66684Y-32777D01*
X66684Y-33127D01*
X66706Y-33179D01*
X66745Y-33218D01*
X66797Y-33239D01*
X66852Y-33240D01*
X67402Y-33240D01*
X67454Y-33218D01*
X67493Y-33179D01*
X67514Y-33127D01*
X67515Y-33072D01*
X67515Y-32722D01*
X67493Y-32670D01*
X67454Y-32631D01*
X67402Y-32610D01*
X67347Y-32609D01*
X67340Y-32609D01*
X67340Y-32165D01*
X67402Y-32165D01*
X67454Y-32143D01*
X67493Y-32104D01*
X67514Y-32052D01*
X67515Y-31997D01*
X67515Y-31594D01*
X67555Y-31634D01*
X67555Y-34506D01*
X67340Y-34722D01*
X67340Y-33990D01*
X67402Y-33990D01*
X67454Y-33968D01*
X67493Y-33929D01*
X67514Y-33877D01*
X67515Y-33822D01*
X67515Y-33472D01*
X67493Y-33420D01*
X67454Y-33381D01*
X67402Y-33360D01*
X67347Y-33359D01*
X66797Y-33359D01*
X66745Y-33381D01*
X66706Y-33420D01*
X66685Y-33472D01*
X66684Y-33527D01*
X66684Y-33877D01*
X66706Y-33929D01*
X66745Y-33968D01*
X66797Y-33989D01*
X66852Y-33990D01*
X66860Y-33990D01*
X66860Y-34729D01*
X66515Y-35074D01*
X66515Y-31667D01*
X66452Y-31515D01*
X66335Y-31398D01*
X66182Y-31335D01*
X66083Y-31334D01*
X65524Y-30775D01*
X65446Y-30723D01*
X65354Y-30704D01*
X64705Y-30704D01*
X63498Y-29497D01*
X63535Y-29460D01*
X63609Y-29280D01*
X63610Y-29085D01*
X63535Y-28905D01*
X63397Y-28767D01*
X63217Y-28693D01*
X63022Y-28692D01*
X62842Y-28767D01*
X62704Y-28905D01*
X62630Y-29085D01*
X62629Y-29280D01*
X62704Y-29460D01*
X62842Y-29598D01*
X62975Y-29653D01*
X63399Y-30077D01*
X63361Y-30077D01*
X62811Y-30077D01*
X62759Y-30098D01*
X62720Y-30137D01*
X62699Y-30189D01*
X62699Y-30244D01*
X62699Y-30794D01*
X62720Y-30846D01*
X62759Y-30885D01*
X62811Y-30907D01*
X62866Y-30907D01*
X63416Y-30907D01*
X63468Y-30885D01*
X63507Y-30846D01*
X63529Y-30795D01*
X63529Y-30739D01*
X63529Y-30207D01*
X64436Y-31114D01*
X64514Y-31166D01*
X64606Y-31184D01*
X65254Y-31184D01*
X65700Y-31630D01*
X65685Y-31667D01*
X65684Y-31832D01*
X65747Y-31984D01*
X65860Y-32096D01*
X65860Y-32609D01*
X65797Y-32609D01*
X65745Y-32631D01*
X65706Y-32670D01*
X65685Y-32722D01*
X65684Y-32777D01*
X65684Y-33127D01*
X65706Y-33179D01*
X65745Y-33218D01*
X65797Y-33239D01*
X65852Y-33240D01*
X66402Y-33240D01*
X66454Y-33218D01*
X66493Y-33179D01*
X66514Y-33127D01*
X66515Y-33072D01*
X66515Y-32722D01*
X66493Y-32670D01*
X66454Y-32631D01*
X66402Y-32610D01*
X66347Y-32609D01*
X66340Y-32609D01*
X66340Y-32096D01*
X66451Y-31985D01*
X66514Y-31832D01*
X66515Y-31667D01*
X66515Y-35074D01*
X66340Y-35249D01*
X66340Y-33990D01*
X66402Y-33990D01*
X66454Y-33968D01*
X66493Y-33929D01*
X66514Y-33877D01*
X66515Y-33822D01*
X66515Y-33472D01*
X66493Y-33420D01*
X66454Y-33381D01*
X66402Y-33360D01*
X66347Y-33359D01*
X65797Y-33359D01*
X65745Y-33381D01*
X65706Y-33420D01*
X65685Y-33472D01*
X65684Y-33527D01*
X65684Y-33877D01*
X65706Y-33929D01*
X65745Y-33968D01*
X65797Y-33989D01*
X65852Y-33990D01*
X65860Y-33990D01*
X65860Y-35217D01*
X65515Y-35562D01*
X65515Y-31667D01*
X65452Y-31515D01*
X65335Y-31398D01*
X65182Y-31335D01*
X65017Y-31334D01*
X64865Y-31397D01*
X64748Y-31514D01*
X64685Y-31667D01*
X64684Y-31832D01*
X64747Y-31984D01*
X64864Y-32101D01*
X65017Y-32164D01*
X65182Y-32165D01*
X65334Y-32102D01*
X65451Y-31985D01*
X65514Y-31832D01*
X65515Y-31667D01*
X65515Y-35562D01*
X65176Y-35901D01*
X64521Y-35901D01*
X64521Y-31789D01*
X64504Y-31625D01*
X64474Y-31552D01*
X64413Y-31521D01*
X64328Y-31606D01*
X64328Y-31436D01*
X64297Y-31375D01*
X64139Y-31328D01*
X63975Y-31345D01*
X63902Y-31375D01*
X63871Y-31436D01*
X64100Y-31665D01*
X64328Y-31436D01*
X64328Y-31606D01*
X64184Y-31750D01*
X64413Y-31978D01*
X64474Y-31947D01*
X64521Y-31789D01*
X64521Y-35901D01*
X64328Y-35901D01*
X64328Y-32063D01*
X64100Y-31834D01*
X64015Y-31919D01*
X64015Y-31750D01*
X63786Y-31521D01*
X63725Y-31552D01*
X63678Y-31710D01*
X63695Y-31874D01*
X63725Y-31947D01*
X63786Y-31978D01*
X64015Y-31750D01*
X64015Y-31919D01*
X63871Y-32063D01*
X63902Y-32124D01*
X64060Y-32171D01*
X64224Y-32154D01*
X64297Y-32124D01*
X64328Y-32063D01*
X64328Y-35901D01*
X63680Y-35901D01*
X63680Y-33722D01*
X63680Y-32978D01*
X63680Y-32922D01*
X63659Y-32870D01*
X63619Y-32831D01*
X63568Y-32810D01*
X63521Y-32810D01*
X63521Y-31789D01*
X63504Y-31625D01*
X63474Y-31552D01*
X63413Y-31521D01*
X63328Y-31606D01*
X63328Y-31436D01*
X63297Y-31375D01*
X63139Y-31328D01*
X62975Y-31345D01*
X62902Y-31375D01*
X62871Y-31436D01*
X63100Y-31665D01*
X63328Y-31436D01*
X63328Y-31606D01*
X63184Y-31750D01*
X63413Y-31978D01*
X63474Y-31947D01*
X63521Y-31789D01*
X63521Y-32810D01*
X63335Y-32810D01*
X63328Y-32817D01*
X63328Y-32063D01*
X63100Y-31834D01*
X63015Y-31919D01*
X63015Y-31750D01*
X62786Y-31521D01*
X62725Y-31552D01*
X62678Y-31710D01*
X62695Y-31874D01*
X62725Y-31947D01*
X62786Y-31978D01*
X63015Y-31750D01*
X63015Y-31919D01*
X62871Y-32063D01*
X62902Y-32124D01*
X63060Y-32171D01*
X63224Y-32154D01*
X63297Y-32124D01*
X63328Y-32063D01*
X63328Y-32817D01*
X63300Y-32845D01*
X63300Y-33290D01*
X63645Y-33290D01*
X63680Y-33255D01*
X63680Y-32978D01*
X63680Y-33722D01*
X63680Y-33445D01*
X63645Y-33410D01*
X63300Y-33410D01*
X63300Y-33855D01*
X63335Y-33890D01*
X63568Y-33890D01*
X63619Y-33869D01*
X63659Y-33829D01*
X63680Y-33778D01*
X63680Y-33722D01*
X63680Y-35901D01*
X63249Y-35901D01*
X63249Y-34735D01*
X63249Y-34240D01*
X63249Y-34185D01*
X63227Y-34133D01*
X63188Y-34094D01*
X63180Y-34091D01*
X63180Y-33855D01*
X63180Y-33410D01*
X63180Y-33290D01*
X63180Y-32845D01*
X63145Y-32810D01*
X62912Y-32810D01*
X62861Y-32831D01*
X62821Y-32870D01*
X62800Y-32922D01*
X62800Y-32978D01*
X62800Y-33255D01*
X62835Y-33290D01*
X63180Y-33290D01*
X63180Y-33410D01*
X62835Y-33410D01*
X62800Y-33445D01*
X62800Y-33722D01*
X62800Y-33778D01*
X62821Y-33829D01*
X62861Y-33869D01*
X62912Y-33890D01*
X63145Y-33890D01*
X63180Y-33855D01*
X63180Y-34091D01*
X63136Y-34073D01*
X63029Y-34073D01*
X62994Y-34108D01*
X62994Y-34428D01*
X63214Y-34428D01*
X63249Y-34393D01*
X63249Y-34240D01*
X63249Y-34735D01*
X63249Y-34583D01*
X63214Y-34548D01*
X62994Y-34548D01*
X62994Y-34868D01*
X63029Y-34903D01*
X63136Y-34903D01*
X63188Y-34881D01*
X63227Y-34842D01*
X63249Y-34791D01*
X63249Y-34735D01*
X63249Y-35901D01*
X62874Y-35901D01*
X62874Y-34868D01*
X62874Y-34548D01*
X62874Y-34428D01*
X62874Y-34108D01*
X62839Y-34073D01*
X62731Y-34073D01*
X62679Y-34094D01*
X62640Y-34133D01*
X62619Y-34185D01*
X62619Y-34240D01*
X62619Y-34393D01*
X62654Y-34428D01*
X62874Y-34428D01*
X62874Y-34548D01*
X62654Y-34548D01*
X62619Y-34583D01*
X62619Y-34735D01*
X62619Y-34791D01*
X62640Y-34842D01*
X62679Y-34881D01*
X62731Y-34903D01*
X62839Y-34903D01*
X62874Y-34868D01*
X62874Y-35901D01*
X62610Y-35901D01*
X62610Y-29085D01*
X62535Y-28905D01*
X62397Y-28767D01*
X62217Y-28693D01*
X62022Y-28692D01*
X61842Y-28767D01*
X61704Y-28905D01*
X61630Y-29085D01*
X61629Y-29280D01*
X61704Y-29460D01*
X61842Y-29598D01*
X61880Y-29613D01*
X61880Y-30139D01*
X61879Y-30140D01*
X61762Y-30256D01*
X61699Y-30409D01*
X61699Y-30574D01*
X61762Y-30726D01*
X61878Y-30843D01*
X62031Y-30907D01*
X62196Y-30907D01*
X62348Y-30844D01*
X62465Y-30727D01*
X62529Y-30575D01*
X62529Y-30409D01*
X62466Y-30257D01*
X62360Y-30150D01*
X62360Y-29614D01*
X62397Y-29598D01*
X62535Y-29460D01*
X62609Y-29280D01*
X62610Y-29085D01*
X62610Y-35901D01*
X60008Y-35901D01*
X59981Y-35874D01*
X59866Y-35826D01*
X59740Y-35826D01*
X59624Y-35874D01*
X59536Y-35963D01*
X59515Y-36014D01*
X59515Y-31667D01*
X59452Y-31515D01*
X59335Y-31398D01*
X59182Y-31335D01*
X59017Y-31334D01*
X58865Y-31397D01*
X58748Y-31514D01*
X58685Y-31667D01*
X58684Y-31832D01*
X58747Y-31984D01*
X58864Y-32101D01*
X59017Y-32164D01*
X59182Y-32165D01*
X59334Y-32102D01*
X59451Y-31985D01*
X59514Y-31832D01*
X59515Y-31667D01*
X59515Y-36014D01*
X59488Y-36078D01*
X59488Y-36204D01*
X59535Y-36319D01*
X59624Y-36408D01*
X59740Y-36456D01*
X59865Y-36456D01*
X59981Y-36408D01*
X60008Y-36381D01*
X60101Y-36381D01*
X60087Y-36396D01*
X60039Y-36511D01*
X60039Y-36637D01*
X60087Y-36753D01*
X60101Y-36767D01*
X58521Y-36767D01*
X58521Y-31789D01*
X58504Y-31625D01*
X58474Y-31552D01*
X58413Y-31521D01*
X58328Y-31606D01*
X58328Y-31436D01*
X58297Y-31375D01*
X58139Y-31328D01*
X57975Y-31345D01*
X57902Y-31375D01*
X57871Y-31436D01*
X58100Y-31665D01*
X58328Y-31436D01*
X58328Y-31606D01*
X58184Y-31750D01*
X58413Y-31978D01*
X58474Y-31947D01*
X58521Y-31789D01*
X58521Y-36767D01*
X58328Y-36767D01*
X58328Y-32063D01*
X58100Y-31834D01*
X58015Y-31919D01*
X58015Y-31750D01*
X57786Y-31521D01*
X57725Y-31552D01*
X57678Y-31710D01*
X57695Y-31874D01*
X57725Y-31947D01*
X57786Y-31978D01*
X58015Y-31750D01*
X58015Y-31919D01*
X57871Y-32063D01*
X57902Y-32124D01*
X58060Y-32171D01*
X58224Y-32154D01*
X58297Y-32124D01*
X58328Y-32063D01*
X58328Y-36767D01*
X55185Y-36767D01*
X57256Y-34697D01*
X57308Y-34619D01*
X57326Y-34527D01*
X57326Y-34527D01*
X57326Y-31595D01*
X58721Y-30200D01*
X58822Y-30200D01*
X58914Y-30182D01*
X58992Y-30130D01*
X59474Y-29647D01*
X59512Y-29662D01*
X59707Y-29663D01*
X59765Y-29638D01*
X59101Y-30302D01*
X59049Y-30380D01*
X59031Y-30472D01*
X59031Y-30807D01*
X59049Y-30898D01*
X59101Y-30976D01*
X59436Y-31311D01*
X59436Y-31311D01*
X59514Y-31363D01*
X59606Y-31381D01*
X59904Y-31381D01*
X59865Y-31397D01*
X59748Y-31514D01*
X59685Y-31667D01*
X59684Y-31832D01*
X59747Y-31984D01*
X59864Y-32101D01*
X60017Y-32164D01*
X60182Y-32165D01*
X60334Y-32102D01*
X60451Y-31985D01*
X60514Y-31832D01*
X60515Y-31667D01*
X60452Y-31515D01*
X60335Y-31398D01*
X60295Y-31381D01*
X60904Y-31381D01*
X60865Y-31397D01*
X60748Y-31514D01*
X60685Y-31667D01*
X60684Y-31832D01*
X60747Y-31984D01*
X60864Y-32101D01*
X61017Y-32164D01*
X61182Y-32165D01*
X61334Y-32102D01*
X61451Y-31985D01*
X61514Y-31832D01*
X61515Y-31667D01*
X61452Y-31515D01*
X61335Y-31398D01*
X61295Y-31381D01*
X61392Y-31381D01*
X61685Y-31674D01*
X61684Y-31832D01*
X61747Y-31984D01*
X61860Y-32096D01*
X61860Y-32810D01*
X61612Y-32810D01*
X61561Y-32831D01*
X61521Y-32870D01*
X61500Y-32922D01*
X61500Y-32978D01*
X61500Y-33110D01*
X61154Y-33110D01*
X61084Y-33040D01*
X60968Y-32992D01*
X60843Y-32992D01*
X60727Y-33039D01*
X60638Y-33128D01*
X60590Y-33244D01*
X60590Y-33369D01*
X60638Y-33485D01*
X60726Y-33573D01*
X60842Y-33622D01*
X60967Y-33622D01*
X61044Y-33590D01*
X61500Y-33590D01*
X61500Y-33778D01*
X61521Y-33829D01*
X61561Y-33869D01*
X61612Y-33890D01*
X61668Y-33890D01*
X61700Y-33890D01*
X61700Y-34244D01*
X61718Y-34336D01*
X61770Y-34414D01*
X61869Y-34512D01*
X61869Y-34790D01*
X61890Y-34842D01*
X61929Y-34881D01*
X61981Y-34903D01*
X62036Y-34903D01*
X62386Y-34903D01*
X62438Y-34881D01*
X62477Y-34842D01*
X62499Y-34791D01*
X62499Y-34735D01*
X62499Y-34185D01*
X62477Y-34133D01*
X62438Y-34094D01*
X62387Y-34073D01*
X62331Y-34073D01*
X62180Y-34073D01*
X62180Y-33890D01*
X62268Y-33890D01*
X62319Y-33869D01*
X62359Y-33829D01*
X62380Y-33778D01*
X62380Y-33722D01*
X62380Y-32922D01*
X62359Y-32871D01*
X62340Y-32851D01*
X62340Y-32096D01*
X62451Y-31985D01*
X62514Y-31832D01*
X62515Y-31667D01*
X62452Y-31515D01*
X62335Y-31398D01*
X62182Y-31335D01*
X62024Y-31334D01*
X61661Y-30972D01*
X61583Y-30920D01*
X61491Y-30901D01*
X61209Y-30901D01*
X61348Y-30844D01*
X61465Y-30727D01*
X61529Y-30575D01*
X61529Y-30409D01*
X61466Y-30257D01*
X61360Y-30150D01*
X61360Y-29614D01*
X61397Y-29598D01*
X61535Y-29460D01*
X61609Y-29280D01*
X61610Y-29085D01*
X61535Y-28905D01*
X61397Y-28767D01*
X61217Y-28693D01*
X61022Y-28692D01*
X60842Y-28767D01*
X60704Y-28905D01*
X60630Y-29085D01*
X60629Y-29280D01*
X60704Y-29460D01*
X60842Y-29598D01*
X60880Y-29613D01*
X60880Y-30139D01*
X60879Y-30140D01*
X60762Y-30256D01*
X60699Y-30409D01*
X60699Y-30574D01*
X60762Y-30726D01*
X60878Y-30843D01*
X61018Y-30901D01*
X60535Y-30901D01*
X60535Y-30531D01*
X60518Y-30367D01*
X60488Y-30294D01*
X60427Y-30263D01*
X60199Y-30492D01*
X60427Y-30720D01*
X60488Y-30689D01*
X60535Y-30531D01*
X60535Y-30901D01*
X60187Y-30901D01*
X60238Y-30896D01*
X60311Y-30866D01*
X60342Y-30805D01*
X60114Y-30576D01*
X59885Y-30805D01*
X59916Y-30866D01*
X60035Y-30901D01*
X59705Y-30901D01*
X59511Y-30707D01*
X59511Y-30571D01*
X59719Y-30364D01*
X59692Y-30452D01*
X59709Y-30616D01*
X59740Y-30689D01*
X59800Y-30720D01*
X60029Y-30492D01*
X60023Y-30486D01*
X60108Y-30401D01*
X60114Y-30407D01*
X60342Y-30178D01*
X60311Y-30117D01*
X60153Y-30070D01*
X59996Y-30087D01*
X60504Y-29579D01*
X60504Y-29579D01*
X60556Y-29501D01*
X60574Y-29409D01*
X60574Y-29409D01*
X60574Y-28779D01*
X60556Y-28687D01*
X60504Y-28609D01*
X60272Y-28378D01*
X68590Y-28378D01*
X68938Y-28725D01*
X68938Y-33002D01*
X68954Y-33084D01*
X69000Y-33154D01*
X70055Y-34208D01*
X70055Y-47023D01*
X70055Y-47023D01*
G37*
G54D25*
X70055Y-47023D02*
X69834Y-47244D01*
X69834Y-42217D01*
X69834Y-38333D01*
X69760Y-38333D01*
X69760Y-35086D01*
X69662Y-34850D01*
X69483Y-34670D01*
X69247Y-34573D01*
X68993Y-34572D01*
X68757Y-34670D01*
X68610Y-34817D01*
X68610Y-29085D01*
X68535Y-28905D01*
X68397Y-28767D01*
X68217Y-28693D01*
X68022Y-28692D01*
X67842Y-28767D01*
X67704Y-28905D01*
X67630Y-29085D01*
X67629Y-29280D01*
X67704Y-29460D01*
X67842Y-29598D01*
X68022Y-29672D01*
X68217Y-29673D01*
X68397Y-29598D01*
X68535Y-29460D01*
X68609Y-29280D01*
X68610Y-29085D01*
X68610Y-34817D01*
X68577Y-34849D01*
X68480Y-35085D01*
X68479Y-35339D01*
X68577Y-35575D01*
X68756Y-35755D01*
X68992Y-35852D01*
X69246Y-35853D01*
X69482Y-35755D01*
X69662Y-35576D01*
X69759Y-35340D01*
X69760Y-35086D01*
X69760Y-38333D01*
X68531Y-38333D01*
X68531Y-42217D01*
X69834Y-42217D01*
X69834Y-47244D01*
X69730Y-47348D01*
X69730Y-46106D01*
X69632Y-45870D01*
X69453Y-45690D01*
X69217Y-45593D01*
X68963Y-45592D01*
X68727Y-45690D01*
X68547Y-45869D01*
X68450Y-46105D01*
X68449Y-46359D01*
X68547Y-46595D01*
X68726Y-46775D01*
X68962Y-46872D01*
X69216Y-46873D01*
X69452Y-46775D01*
X69632Y-46596D01*
X69729Y-46360D01*
X69730Y-46106D01*
X69730Y-47348D01*
X68932Y-48145D01*
X68886Y-48215D01*
X68870Y-48298D01*
X68870Y-49018D01*
X68580Y-49018D01*
X68580Y-48165D01*
X68505Y-47985D01*
X68367Y-47847D01*
X68330Y-47832D01*
X68330Y-46965D01*
X68311Y-46873D01*
X68259Y-46795D01*
X68015Y-46550D01*
X68015Y-46272D01*
X67993Y-46220D01*
X67954Y-46181D01*
X67902Y-46160D01*
X67847Y-46159D01*
X67297Y-46159D01*
X67245Y-46181D01*
X67206Y-46220D01*
X67200Y-46235D01*
X66965Y-46235D01*
X66965Y-45872D01*
X66965Y-45522D01*
X66943Y-45470D01*
X66904Y-45431D01*
X66852Y-45410D01*
X66797Y-45409D01*
X66247Y-45409D01*
X66195Y-45431D01*
X66192Y-45435D01*
X65858Y-45435D01*
X65854Y-45431D01*
X65802Y-45410D01*
X65747Y-45409D01*
X65690Y-45409D01*
X65690Y-45305D01*
X65716Y-45278D01*
X65764Y-45162D01*
X65765Y-45037D01*
X65717Y-44921D01*
X65628Y-44833D01*
X65512Y-44785D01*
X65387Y-44784D01*
X65271Y-44832D01*
X65183Y-44921D01*
X65135Y-45037D01*
X65134Y-45162D01*
X65182Y-45278D01*
X65210Y-45305D01*
X65210Y-45409D01*
X65197Y-45409D01*
X65145Y-45431D01*
X65106Y-45470D01*
X65085Y-45522D01*
X65084Y-45577D01*
X65084Y-45927D01*
X65106Y-45979D01*
X65145Y-46018D01*
X65197Y-46039D01*
X65252Y-46040D01*
X65802Y-46040D01*
X65854Y-46018D01*
X65893Y-45979D01*
X65914Y-45927D01*
X65914Y-45915D01*
X66134Y-45915D01*
X66134Y-45927D01*
X66156Y-45979D01*
X66195Y-46018D01*
X66247Y-46039D01*
X66302Y-46040D01*
X66852Y-46040D01*
X66904Y-46018D01*
X66943Y-45979D01*
X66964Y-45927D01*
X66965Y-45872D01*
X66965Y-46235D01*
X66949Y-46235D01*
X66943Y-46220D01*
X66904Y-46181D01*
X66852Y-46160D01*
X66797Y-46159D01*
X66247Y-46159D01*
X66195Y-46181D01*
X66156Y-46220D01*
X66135Y-46272D01*
X66134Y-46327D01*
X66134Y-46677D01*
X66156Y-46729D01*
X66195Y-46768D01*
X66247Y-46789D01*
X66302Y-46790D01*
X66852Y-46790D01*
X66904Y-46768D01*
X66943Y-46729D01*
X66949Y-46715D01*
X67200Y-46715D01*
X67206Y-46729D01*
X67245Y-46768D01*
X67297Y-46789D01*
X67352Y-46790D01*
X67575Y-46790D01*
X67850Y-47064D01*
X67850Y-47831D01*
X67812Y-47847D01*
X67674Y-47985D01*
X67600Y-48165D01*
X67599Y-48360D01*
X67674Y-48540D01*
X67812Y-48678D01*
X67992Y-48752D01*
X68187Y-48753D01*
X68367Y-48678D01*
X68505Y-48540D01*
X68579Y-48360D01*
X68580Y-48165D01*
X68580Y-49018D01*
X67580Y-49018D01*
X67580Y-48165D01*
X67505Y-47985D01*
X67367Y-47847D01*
X67330Y-47832D01*
X67330Y-47790D01*
X67311Y-47698D01*
X67259Y-47620D01*
X66769Y-47130D01*
X66691Y-47078D01*
X66600Y-47060D01*
X65949Y-47060D01*
X65740Y-46850D01*
X65740Y-46790D01*
X65802Y-46790D01*
X65854Y-46768D01*
X65893Y-46729D01*
X65914Y-46677D01*
X65915Y-46622D01*
X65915Y-46272D01*
X65893Y-46220D01*
X65854Y-46181D01*
X65802Y-46160D01*
X65747Y-46159D01*
X65197Y-46159D01*
X65145Y-46181D01*
X65106Y-46220D01*
X65100Y-46235D01*
X64799Y-46235D01*
X64793Y-46220D01*
X64754Y-46181D01*
X64702Y-46160D01*
X64647Y-46159D01*
X64097Y-46159D01*
X64045Y-46181D01*
X64006Y-46220D01*
X63985Y-46272D01*
X63984Y-46327D01*
X63984Y-46677D01*
X64006Y-46729D01*
X64045Y-46768D01*
X64097Y-46789D01*
X64152Y-46790D01*
X64702Y-46790D01*
X64754Y-46768D01*
X64793Y-46729D01*
X64799Y-46715D01*
X65100Y-46715D01*
X65106Y-46729D01*
X65145Y-46768D01*
X65197Y-46789D01*
X65252Y-46790D01*
X65260Y-46790D01*
X65260Y-46950D01*
X65278Y-47041D01*
X65330Y-47119D01*
X65680Y-47469D01*
X65680Y-47469D01*
X65758Y-47521D01*
X65849Y-47539D01*
X65850Y-47540D01*
X66500Y-47540D01*
X66810Y-47849D01*
X66674Y-47985D01*
X66600Y-48165D01*
X66599Y-48360D01*
X66674Y-48540D01*
X66812Y-48678D01*
X66992Y-48752D01*
X67187Y-48753D01*
X67367Y-48678D01*
X67505Y-48540D01*
X67579Y-48360D01*
X67580Y-48165D01*
X67580Y-49018D01*
X66580Y-49018D01*
X66580Y-48165D01*
X66505Y-47985D01*
X66367Y-47847D01*
X66187Y-47773D01*
X65992Y-47772D01*
X65812Y-47847D01*
X65674Y-47985D01*
X65600Y-48165D01*
X65599Y-48360D01*
X65674Y-48540D01*
X65812Y-48678D01*
X65992Y-48752D01*
X66187Y-48753D01*
X66367Y-48678D01*
X66505Y-48540D01*
X66579Y-48360D01*
X66580Y-48165D01*
X66580Y-49018D01*
X65580Y-49018D01*
X65580Y-48165D01*
X65505Y-47985D01*
X65367Y-47847D01*
X65187Y-47773D01*
X64992Y-47772D01*
X64812Y-47847D01*
X64674Y-47985D01*
X64600Y-48165D01*
X64599Y-48360D01*
X64674Y-48540D01*
X64812Y-48678D01*
X64992Y-48752D01*
X65187Y-48753D01*
X65367Y-48678D01*
X65505Y-48540D01*
X65579Y-48360D01*
X65580Y-48165D01*
X65580Y-49018D01*
X64580Y-49018D01*
X64580Y-48165D01*
X64505Y-47985D01*
X64367Y-47847D01*
X64330Y-47832D01*
X64330Y-47790D01*
X64329Y-47789D01*
X64311Y-47698D01*
X64280Y-47651D01*
X64259Y-47620D01*
X64259Y-47620D01*
X63540Y-46900D01*
X63540Y-46790D01*
X63602Y-46790D01*
X63654Y-46768D01*
X63693Y-46729D01*
X63714Y-46677D01*
X63715Y-46622D01*
X63715Y-46272D01*
X63693Y-46220D01*
X63654Y-46181D01*
X63602Y-46160D01*
X63547Y-46159D01*
X62997Y-46159D01*
X62945Y-46181D01*
X62917Y-46209D01*
X62772Y-46209D01*
X62745Y-46181D01*
X62629Y-46133D01*
X62504Y-46133D01*
X62388Y-46181D01*
X62365Y-46204D01*
X62365Y-45756D01*
X62392Y-45729D01*
X62440Y-45614D01*
X62441Y-45488D01*
X62393Y-45372D01*
X62360Y-45340D01*
X63010Y-45340D01*
X63010Y-45409D01*
X62997Y-45409D01*
X62945Y-45431D01*
X62906Y-45470D01*
X62885Y-45522D01*
X62884Y-45577D01*
X62884Y-45927D01*
X62906Y-45979D01*
X62945Y-46018D01*
X62997Y-46039D01*
X63052Y-46040D01*
X63602Y-46040D01*
X63654Y-46018D01*
X63693Y-45979D01*
X63714Y-45927D01*
X63715Y-45872D01*
X63715Y-45522D01*
X63693Y-45470D01*
X63654Y-45431D01*
X63602Y-45410D01*
X63547Y-45409D01*
X63490Y-45409D01*
X63490Y-45305D01*
X63516Y-45278D01*
X63564Y-45162D01*
X63565Y-45037D01*
X63517Y-44921D01*
X63428Y-44833D01*
X63312Y-44785D01*
X63187Y-44784D01*
X63071Y-44832D01*
X63044Y-44860D01*
X62816Y-44860D01*
X62816Y-43766D01*
X62816Y-43361D01*
X62795Y-43309D01*
X62755Y-43270D01*
X62704Y-43249D01*
X62648Y-43248D01*
X62496Y-43248D01*
X62461Y-43283D01*
X62461Y-43503D01*
X62781Y-43503D01*
X62816Y-43468D01*
X62816Y-43361D01*
X62816Y-43766D01*
X62816Y-43658D01*
X62781Y-43623D01*
X62461Y-43623D01*
X62461Y-43843D01*
X62496Y-43878D01*
X62648Y-43879D01*
X62704Y-43878D01*
X62755Y-43857D01*
X62795Y-43818D01*
X62816Y-43766D01*
X62816Y-44860D01*
X62341Y-44860D01*
X62341Y-43843D01*
X62341Y-43623D01*
X62341Y-43503D01*
X62341Y-43283D01*
X62306Y-43248D01*
X62154Y-43248D01*
X62098Y-43249D01*
X62047Y-43270D01*
X62007Y-43309D01*
X61986Y-43361D01*
X61986Y-43468D01*
X62021Y-43503D01*
X62341Y-43503D01*
X62341Y-43623D01*
X62021Y-43623D01*
X61986Y-43658D01*
X61986Y-43766D01*
X62007Y-43818D01*
X62047Y-43857D01*
X62098Y-43878D01*
X62154Y-43879D01*
X62306Y-43878D01*
X62341Y-43843D01*
X62341Y-44860D01*
X61871Y-44860D01*
X61871Y-43766D01*
X61871Y-43361D01*
X61850Y-43309D01*
X61811Y-43270D01*
X61759Y-43249D01*
X61703Y-43248D01*
X61551Y-43248D01*
X61516Y-43283D01*
X61516Y-43503D01*
X61836Y-43503D01*
X61871Y-43468D01*
X61871Y-43361D01*
X61871Y-43766D01*
X61871Y-43658D01*
X61836Y-43623D01*
X61516Y-43623D01*
X61516Y-43843D01*
X61551Y-43878D01*
X61703Y-43879D01*
X61759Y-43878D01*
X61811Y-43857D01*
X61850Y-43818D01*
X61871Y-43766D01*
X61871Y-44860D01*
X61396Y-44860D01*
X61396Y-43843D01*
X61396Y-43623D01*
X61396Y-43503D01*
X61396Y-43283D01*
X61361Y-43248D01*
X61209Y-43248D01*
X61153Y-43249D01*
X61102Y-43270D01*
X61062Y-43309D01*
X61041Y-43361D01*
X61041Y-43468D01*
X61076Y-43503D01*
X61396Y-43503D01*
X61396Y-43623D01*
X61076Y-43623D01*
X61041Y-43658D01*
X61041Y-43766D01*
X61062Y-43818D01*
X61102Y-43857D01*
X61153Y-43878D01*
X61209Y-43879D01*
X61361Y-43878D01*
X61396Y-43843D01*
X61396Y-44860D01*
X60959Y-44860D01*
X60867Y-44878D01*
X60789Y-44930D01*
X60357Y-45361D01*
X60305Y-45439D01*
X60296Y-45487D01*
X60224Y-45487D01*
X60173Y-45508D01*
X60133Y-45547D01*
X60127Y-45562D01*
X59768Y-45562D01*
X59763Y-45551D01*
X59724Y-45512D01*
X59673Y-45491D01*
X59617Y-45491D01*
X59388Y-45491D01*
X59352Y-45466D01*
X59260Y-45448D01*
X58650Y-45448D01*
X58650Y-45360D01*
X58628Y-45309D01*
X58589Y-45269D01*
X58538Y-45248D01*
X58482Y-45248D01*
X57682Y-45248D01*
X57631Y-45269D01*
X57591Y-45309D01*
X57570Y-45360D01*
X57570Y-45416D01*
X57570Y-45448D01*
X57500Y-45448D01*
X57408Y-45466D01*
X57330Y-45518D01*
X56930Y-45919D01*
X56878Y-45997D01*
X56860Y-46088D01*
X56860Y-47831D01*
X56822Y-47847D01*
X56684Y-47985D01*
X56610Y-48165D01*
X56609Y-48360D01*
X56684Y-48540D01*
X56822Y-48678D01*
X57002Y-48752D01*
X57197Y-48753D01*
X57377Y-48678D01*
X57515Y-48540D01*
X57589Y-48360D01*
X57590Y-48165D01*
X57515Y-47985D01*
X57377Y-47847D01*
X57340Y-47832D01*
X57340Y-46188D01*
X57570Y-45958D01*
X57570Y-46016D01*
X57591Y-46067D01*
X57630Y-46107D01*
X57682Y-46128D01*
X57737Y-46128D01*
X58537Y-46128D01*
X58589Y-46107D01*
X58628Y-46067D01*
X58650Y-46016D01*
X58650Y-45960D01*
X58650Y-45928D01*
X58955Y-45928D01*
X58955Y-46008D01*
X58976Y-46060D01*
X59015Y-46099D01*
X59067Y-46121D01*
X59122Y-46121D01*
X59672Y-46121D01*
X59724Y-46099D01*
X59763Y-46060D01*
X59771Y-46042D01*
X60127Y-46042D01*
X60133Y-46056D01*
X60173Y-46095D01*
X60224Y-46117D01*
X60280Y-46117D01*
X60830Y-46117D01*
X60881Y-46095D01*
X60921Y-46056D01*
X60942Y-46005D01*
X60942Y-45949D01*
X60942Y-45599D01*
X60921Y-45547D01*
X60885Y-45512D01*
X61058Y-45340D01*
X61891Y-45340D01*
X61859Y-45372D01*
X61811Y-45488D01*
X61810Y-45613D01*
X61858Y-45729D01*
X61885Y-45756D01*
X61885Y-47047D01*
X61904Y-47139D01*
X61956Y-47216D01*
X62699Y-47960D01*
X62674Y-47985D01*
X62600Y-48165D01*
X62599Y-48360D01*
X62674Y-48540D01*
X62812Y-48678D01*
X62992Y-48752D01*
X63187Y-48753D01*
X63367Y-48678D01*
X63505Y-48540D01*
X63579Y-48360D01*
X63580Y-48165D01*
X63505Y-47985D01*
X63367Y-47847D01*
X63193Y-47775D01*
X62365Y-46947D01*
X62365Y-46693D01*
X62388Y-46715D01*
X62503Y-46763D01*
X62629Y-46763D01*
X62745Y-46716D01*
X62772Y-46689D01*
X62889Y-46689D01*
X62906Y-46729D01*
X62945Y-46768D01*
X62997Y-46789D01*
X63052Y-46790D01*
X63060Y-46790D01*
X63060Y-47000D01*
X63078Y-47091D01*
X63130Y-47169D01*
X63810Y-47849D01*
X63674Y-47985D01*
X63600Y-48165D01*
X63599Y-48360D01*
X63674Y-48540D01*
X63812Y-48678D01*
X63992Y-48752D01*
X64187Y-48753D01*
X64367Y-48678D01*
X64505Y-48540D01*
X64579Y-48360D01*
X64580Y-48165D01*
X64580Y-49018D01*
X61732Y-49018D01*
X61732Y-45961D01*
X61684Y-45845D01*
X61595Y-45756D01*
X61480Y-45708D01*
X61354Y-45708D01*
X61239Y-45756D01*
X61150Y-45844D01*
X61102Y-45960D01*
X61102Y-46086D01*
X61150Y-46201D01*
X61177Y-46229D01*
X61177Y-47262D01*
X60942Y-47497D01*
X60942Y-46754D01*
X60942Y-46349D01*
X60921Y-46297D01*
X60881Y-46258D01*
X60830Y-46237D01*
X60774Y-46237D01*
X60622Y-46237D01*
X60587Y-46272D01*
X60587Y-46492D01*
X60907Y-46492D01*
X60942Y-46457D01*
X60942Y-46349D01*
X60942Y-46754D01*
X60942Y-46647D01*
X60907Y-46612D01*
X60587Y-46612D01*
X60587Y-46832D01*
X60622Y-46867D01*
X60774Y-46867D01*
X60830Y-46867D01*
X60881Y-46845D01*
X60921Y-46806D01*
X60942Y-46754D01*
X60942Y-47497D01*
X60930Y-47509D01*
X60878Y-47587D01*
X60860Y-47679D01*
X60860Y-47831D01*
X60822Y-47847D01*
X60684Y-47985D01*
X60610Y-48165D01*
X60609Y-48360D01*
X60684Y-48540D01*
X60822Y-48678D01*
X61002Y-48752D01*
X61197Y-48753D01*
X61377Y-48678D01*
X61515Y-48540D01*
X61589Y-48360D01*
X61590Y-48165D01*
X61515Y-47985D01*
X61377Y-47847D01*
X61340Y-47832D01*
X61340Y-47778D01*
X61587Y-47531D01*
X61639Y-47454D01*
X61657Y-47362D01*
X61657Y-47362D01*
X61657Y-46229D01*
X61684Y-46202D01*
X61732Y-46086D01*
X61732Y-45961D01*
X61732Y-49018D01*
X60596Y-49018D01*
X60596Y-48320D01*
X60580Y-48126D01*
X60536Y-48020D01*
X60468Y-47979D01*
X60467Y-47980D01*
X60467Y-46832D01*
X60467Y-46612D01*
X60467Y-46492D01*
X60467Y-46272D01*
X60432Y-46237D01*
X60280Y-46237D01*
X60224Y-46237D01*
X60173Y-46258D01*
X60133Y-46297D01*
X60112Y-46349D01*
X60112Y-46457D01*
X60147Y-46492D01*
X60467Y-46492D01*
X60467Y-46612D01*
X60147Y-46612D01*
X60112Y-46647D01*
X60112Y-46754D01*
X60133Y-46806D01*
X60173Y-46845D01*
X60224Y-46867D01*
X60280Y-46867D01*
X60432Y-46867D01*
X60467Y-46832D01*
X60467Y-47980D01*
X60383Y-48064D01*
X60383Y-47894D01*
X60342Y-47826D01*
X60157Y-47766D01*
X59963Y-47782D01*
X59857Y-47826D01*
X59816Y-47894D01*
X60100Y-48178D01*
X60383Y-47894D01*
X60383Y-48064D01*
X60184Y-48263D01*
X60468Y-48546D01*
X60536Y-48505D01*
X60596Y-48320D01*
X60596Y-49018D01*
X60383Y-49018D01*
X60383Y-48631D01*
X60100Y-48347D01*
X60015Y-48432D01*
X60015Y-48263D01*
X59785Y-48032D01*
X59785Y-46758D01*
X59785Y-46353D01*
X59763Y-46301D01*
X59724Y-46262D01*
X59673Y-46241D01*
X59617Y-46241D01*
X59465Y-46241D01*
X59430Y-46276D01*
X59430Y-46496D01*
X59750Y-46496D01*
X59785Y-46461D01*
X59785Y-46353D01*
X59785Y-46758D01*
X59785Y-46651D01*
X59750Y-46616D01*
X59430Y-46616D01*
X59430Y-46836D01*
X59465Y-46871D01*
X59617Y-46871D01*
X59673Y-46871D01*
X59724Y-46849D01*
X59763Y-46810D01*
X59785Y-46758D01*
X59785Y-48032D01*
X59731Y-47979D01*
X59663Y-48020D01*
X59603Y-48205D01*
X59619Y-48399D01*
X59663Y-48505D01*
X59731Y-48546D01*
X60015Y-48263D01*
X60015Y-48432D01*
X59816Y-48631D01*
X59857Y-48699D01*
X60042Y-48759D01*
X60236Y-48743D01*
X60342Y-48699D01*
X60383Y-48631D01*
X60383Y-49018D01*
X59596Y-49018D01*
X59596Y-48320D01*
X59580Y-48126D01*
X59536Y-48020D01*
X59468Y-47979D01*
X59383Y-48064D01*
X59383Y-47894D01*
X59342Y-47826D01*
X59310Y-47815D01*
X59310Y-46836D01*
X59310Y-46616D01*
X59310Y-46496D01*
X59310Y-46276D01*
X59275Y-46241D01*
X59122Y-46241D01*
X59067Y-46241D01*
X59015Y-46262D01*
X58976Y-46301D01*
X58955Y-46353D01*
X58955Y-46461D01*
X58990Y-46496D01*
X59310Y-46496D01*
X59310Y-46616D01*
X58990Y-46616D01*
X58955Y-46651D01*
X58955Y-46758D01*
X58976Y-46810D01*
X59015Y-46849D01*
X59067Y-46871D01*
X59122Y-46871D01*
X59275Y-46871D01*
X59310Y-46836D01*
X59310Y-47815D01*
X59157Y-47766D01*
X58963Y-47782D01*
X58857Y-47826D01*
X58816Y-47894D01*
X59100Y-48178D01*
X59383Y-47894D01*
X59383Y-48064D01*
X59184Y-48263D01*
X59468Y-48546D01*
X59536Y-48505D01*
X59596Y-48320D01*
X59596Y-49018D01*
X59383Y-49018D01*
X59383Y-48631D01*
X59100Y-48347D01*
X59015Y-48432D01*
X59015Y-48263D01*
X58731Y-47979D01*
X58663Y-48020D01*
X58650Y-48061D01*
X58650Y-47316D01*
X58650Y-46660D01*
X58628Y-46609D01*
X58589Y-46569D01*
X58538Y-46548D01*
X58482Y-46548D01*
X58205Y-46548D01*
X58170Y-46583D01*
X58170Y-46928D01*
X58615Y-46928D01*
X58650Y-46893D01*
X58650Y-46660D01*
X58650Y-47316D01*
X58650Y-47083D01*
X58615Y-47048D01*
X58170Y-47048D01*
X58170Y-47393D01*
X58205Y-47428D01*
X58482Y-47428D01*
X58538Y-47428D01*
X58589Y-47407D01*
X58628Y-47367D01*
X58650Y-47316D01*
X58650Y-48061D01*
X58603Y-48205D01*
X58619Y-48399D01*
X58663Y-48505D01*
X58731Y-48546D01*
X59015Y-48263D01*
X59015Y-48432D01*
X58816Y-48631D01*
X58857Y-48699D01*
X59042Y-48759D01*
X59236Y-48743D01*
X59342Y-48699D01*
X59383Y-48631D01*
X59383Y-49018D01*
X58590Y-49018D01*
X58590Y-48165D01*
X58515Y-47985D01*
X58377Y-47847D01*
X58197Y-47773D01*
X58050Y-47772D01*
X58050Y-47393D01*
X58050Y-47048D01*
X58050Y-46928D01*
X58050Y-46583D01*
X58015Y-46548D01*
X57737Y-46548D01*
X57682Y-46548D01*
X57630Y-46569D01*
X57591Y-46609D01*
X57570Y-46660D01*
X57570Y-46893D01*
X57605Y-46928D01*
X58050Y-46928D01*
X58050Y-47048D01*
X57605Y-47048D01*
X57570Y-47083D01*
X57570Y-47316D01*
X57591Y-47367D01*
X57630Y-47407D01*
X57682Y-47428D01*
X57737Y-47428D01*
X58015Y-47428D01*
X58050Y-47393D01*
X58050Y-47772D01*
X58002Y-47772D01*
X57822Y-47847D01*
X57684Y-47985D01*
X57610Y-48165D01*
X57609Y-48360D01*
X57684Y-48540D01*
X57822Y-48678D01*
X58002Y-48752D01*
X58197Y-48753D01*
X58377Y-48678D01*
X58515Y-48540D01*
X58589Y-48360D01*
X58590Y-48165D01*
X58590Y-49018D01*
X56590Y-49018D01*
X56590Y-48165D01*
X56515Y-47985D01*
X56377Y-47847D01*
X56197Y-47773D01*
X56002Y-47772D01*
X55822Y-47847D01*
X55684Y-47985D01*
X55610Y-48165D01*
X55609Y-48360D01*
X55684Y-48540D01*
X55822Y-48678D01*
X56002Y-48752D01*
X56197Y-48753D01*
X56377Y-48678D01*
X56515Y-48540D01*
X56589Y-48360D01*
X56590Y-48165D01*
X56590Y-49018D01*
X55590Y-49018D01*
X55590Y-48165D01*
X55515Y-47985D01*
X55377Y-47847D01*
X55197Y-47773D01*
X55002Y-47772D01*
X54822Y-47847D01*
X54684Y-47985D01*
X54610Y-48165D01*
X54609Y-48360D01*
X54684Y-48540D01*
X54822Y-48678D01*
X55002Y-48752D01*
X55197Y-48753D01*
X55377Y-48678D01*
X55515Y-48540D01*
X55589Y-48360D01*
X55590Y-48165D01*
X55590Y-49018D01*
X54590Y-49018D01*
X54590Y-48165D01*
X54515Y-47985D01*
X54377Y-47847D01*
X54197Y-47773D01*
X54002Y-47772D01*
X53822Y-47847D01*
X53773Y-47896D01*
X53773Y-43163D01*
X53773Y-42757D01*
X53754Y-42710D01*
X53773Y-42663D01*
X53773Y-42555D01*
X53738Y-42520D01*
X52985Y-42520D01*
X52985Y-42680D01*
X52985Y-42740D01*
X52985Y-42900D01*
X53738Y-42900D01*
X53773Y-42865D01*
X53773Y-42757D01*
X53773Y-43163D01*
X53773Y-43055D01*
X53738Y-43020D01*
X52985Y-43020D01*
X52985Y-43240D01*
X53020Y-43275D01*
X53606Y-43275D01*
X53661Y-43275D01*
X53713Y-43254D01*
X53752Y-43215D01*
X53773Y-43163D01*
X53773Y-47896D01*
X53684Y-47985D01*
X53610Y-48165D01*
X53609Y-48360D01*
X53684Y-48540D01*
X53822Y-48678D01*
X54002Y-48752D01*
X54197Y-48753D01*
X54377Y-48678D01*
X54515Y-48540D01*
X54589Y-48360D01*
X54590Y-48165D01*
X54590Y-49018D01*
X52917Y-49018D01*
X52917Y-48307D01*
X52900Y-48142D01*
X52870Y-48070D01*
X52865Y-48067D01*
X52865Y-43240D01*
X52865Y-43020D01*
X52865Y-42900D01*
X52865Y-42740D01*
X52865Y-42680D01*
X52865Y-42520D01*
X52111Y-42520D01*
X52076Y-42555D01*
X52076Y-42663D01*
X52095Y-42710D01*
X52076Y-42757D01*
X52076Y-42865D01*
X52111Y-42900D01*
X52865Y-42900D01*
X52865Y-43020D01*
X52111Y-43020D01*
X52076Y-43055D01*
X52076Y-43163D01*
X52097Y-43215D01*
X52137Y-43254D01*
X52188Y-43275D01*
X52244Y-43275D01*
X52830Y-43275D01*
X52865Y-43240D01*
X52865Y-48067D01*
X52809Y-48038D01*
X52724Y-48123D01*
X52724Y-47954D01*
X52693Y-47893D01*
X52535Y-47846D01*
X52480Y-47852D01*
X52480Y-45016D01*
X52432Y-44900D01*
X52405Y-44873D01*
X52405Y-44299D01*
X52432Y-44273D01*
X52480Y-44157D01*
X52480Y-44032D01*
X52432Y-43916D01*
X52344Y-43827D01*
X52228Y-43779D01*
X52102Y-43779D01*
X51987Y-43827D01*
X51898Y-43915D01*
X51850Y-44031D01*
X51850Y-44156D01*
X51898Y-44272D01*
X51925Y-44299D01*
X51925Y-44873D01*
X51898Y-44900D01*
X51850Y-45015D01*
X51850Y-45141D01*
X51898Y-45256D01*
X51986Y-45345D01*
X52102Y-45393D01*
X52227Y-45393D01*
X52343Y-45345D01*
X52432Y-45257D01*
X52480Y-45141D01*
X52480Y-45016D01*
X52480Y-47852D01*
X52371Y-47863D01*
X52298Y-47893D01*
X52267Y-47954D01*
X52496Y-48182D01*
X52724Y-47954D01*
X52724Y-48123D01*
X52580Y-48267D01*
X52809Y-48496D01*
X52870Y-48465D01*
X52917Y-48307D01*
X52917Y-49018D01*
X52724Y-49018D01*
X52724Y-48581D01*
X52496Y-48352D01*
X52411Y-48437D01*
X52411Y-48267D01*
X52182Y-48038D01*
X52121Y-48070D01*
X52074Y-48228D01*
X52091Y-48392D01*
X52121Y-48465D01*
X52182Y-48496D01*
X52411Y-48267D01*
X52411Y-48437D01*
X52267Y-48581D01*
X52298Y-48641D01*
X52456Y-48689D01*
X52620Y-48672D01*
X52693Y-48641D01*
X52724Y-48581D01*
X52724Y-49018D01*
X49380Y-49018D01*
X49380Y-46663D01*
X49380Y-46257D01*
X49360Y-46210D01*
X49380Y-46163D01*
X49380Y-46108D01*
X49380Y-45757D01*
X49360Y-45710D01*
X49380Y-45663D01*
X49380Y-45257D01*
X49380Y-43163D01*
X49380Y-43055D01*
X49345Y-43020D01*
X48591Y-43020D01*
X48591Y-43240D01*
X48626Y-43275D01*
X49212Y-43275D01*
X49268Y-43275D01*
X49319Y-43254D01*
X49358Y-43215D01*
X49380Y-43163D01*
X49380Y-45257D01*
X49358Y-45206D01*
X49319Y-45166D01*
X49268Y-45145D01*
X49212Y-45145D01*
X48626Y-45145D01*
X48591Y-45180D01*
X48591Y-45400D01*
X49345Y-45400D01*
X49380Y-45365D01*
X49380Y-45257D01*
X49380Y-45663D01*
X49380Y-45555D01*
X49345Y-45520D01*
X48591Y-45520D01*
X48591Y-45528D01*
X48471Y-45528D01*
X48471Y-45520D01*
X48471Y-45400D01*
X48471Y-45180D01*
X48471Y-43240D01*
X48471Y-43020D01*
X47717Y-43020D01*
X47682Y-43055D01*
X47682Y-43163D01*
X47704Y-43215D01*
X47743Y-43254D01*
X47794Y-43275D01*
X47850Y-43275D01*
X48436Y-43275D01*
X48471Y-43240D01*
X48471Y-45180D01*
X48436Y-45145D01*
X47850Y-45145D01*
X47794Y-45145D01*
X47743Y-45166D01*
X47704Y-45206D01*
X47682Y-45257D01*
X47682Y-45365D01*
X47717Y-45400D01*
X48471Y-45400D01*
X48471Y-45520D01*
X47717Y-45520D01*
X47691Y-45546D01*
X47608Y-45463D01*
X47608Y-44807D01*
X47584Y-44685D01*
X47515Y-44582D01*
X47515Y-44582D01*
X47158Y-44225D01*
X47055Y-44156D01*
X46934Y-44132D01*
X46837Y-44132D01*
X46837Y-43541D01*
X46824Y-43290D01*
X46754Y-43121D01*
X46671Y-43063D01*
X46586Y-43148D01*
X46586Y-42978D01*
X46528Y-42895D01*
X46291Y-42812D01*
X46140Y-42820D01*
X46140Y-41665D01*
X46140Y-41115D01*
X46140Y-40514D01*
X46140Y-39964D01*
X46140Y-39332D01*
X46140Y-38782D01*
X46118Y-38731D01*
X46079Y-38691D01*
X46027Y-38670D01*
X45972Y-38670D01*
X45622Y-38670D01*
X45570Y-38691D01*
X45531Y-38731D01*
X45510Y-38782D01*
X45509Y-38838D01*
X45509Y-38845D01*
X45390Y-38845D01*
X45390Y-38782D01*
X45368Y-38731D01*
X45329Y-38691D01*
X45277Y-38670D01*
X45222Y-38670D01*
X44872Y-38670D01*
X44820Y-38691D01*
X44787Y-38724D01*
X44787Y-37291D01*
X44774Y-37040D01*
X44704Y-36871D01*
X44621Y-36813D01*
X44536Y-36898D01*
X44536Y-36728D01*
X44478Y-36645D01*
X44241Y-36562D01*
X43990Y-36575D01*
X43821Y-36645D01*
X43763Y-36728D01*
X44150Y-37115D01*
X44536Y-36728D01*
X44536Y-36898D01*
X44234Y-37200D01*
X44621Y-37586D01*
X44704Y-37528D01*
X44787Y-37291D01*
X44787Y-38724D01*
X44781Y-38731D01*
X44760Y-38782D01*
X44759Y-38838D01*
X44759Y-39388D01*
X44781Y-39439D01*
X44820Y-39479D01*
X44872Y-39500D01*
X44927Y-39500D01*
X45277Y-39500D01*
X45329Y-39479D01*
X45368Y-39439D01*
X45389Y-39388D01*
X45390Y-39332D01*
X45390Y-39325D01*
X45509Y-39325D01*
X45509Y-39388D01*
X45531Y-39439D01*
X45570Y-39479D01*
X45622Y-39500D01*
X45677Y-39500D01*
X46027Y-39500D01*
X46079Y-39479D01*
X46118Y-39439D01*
X46139Y-39388D01*
X46140Y-39332D01*
X46140Y-39964D01*
X46118Y-39913D01*
X46079Y-39873D01*
X46027Y-39852D01*
X45972Y-39852D01*
X45622Y-39852D01*
X45570Y-39873D01*
X45531Y-39912D01*
X45510Y-39964D01*
X45509Y-40020D01*
X45509Y-40027D01*
X45440Y-40027D01*
X45440Y-39964D01*
X45418Y-39913D01*
X45379Y-39873D01*
X45327Y-39852D01*
X45272Y-39852D01*
X44922Y-39852D01*
X44870Y-39873D01*
X44831Y-39912D01*
X44810Y-39964D01*
X44809Y-40020D01*
X44809Y-40570D01*
X44831Y-40621D01*
X44870Y-40660D01*
X44922Y-40682D01*
X44977Y-40682D01*
X45327Y-40682D01*
X45379Y-40661D01*
X45418Y-40621D01*
X45439Y-40570D01*
X45440Y-40514D01*
X45440Y-40507D01*
X45509Y-40507D01*
X45509Y-40570D01*
X45531Y-40621D01*
X45570Y-40660D01*
X45622Y-40682D01*
X45677Y-40682D01*
X46027Y-40682D01*
X46079Y-40661D01*
X46118Y-40621D01*
X46139Y-40570D01*
X46140Y-40514D01*
X46140Y-41115D01*
X46118Y-41063D01*
X46079Y-41024D01*
X46027Y-41003D01*
X45972Y-41003D01*
X45622Y-41003D01*
X45570Y-41024D01*
X45531Y-41063D01*
X45510Y-41115D01*
X45509Y-41170D01*
X45509Y-41178D01*
X45440Y-41178D01*
X45440Y-41115D01*
X45418Y-41063D01*
X45379Y-41024D01*
X45327Y-41003D01*
X45272Y-41003D01*
X44922Y-41003D01*
X44870Y-41024D01*
X44831Y-41063D01*
X44810Y-41115D01*
X44809Y-41170D01*
X44809Y-41720D01*
X44831Y-41772D01*
X44870Y-41811D01*
X44922Y-41833D01*
X44977Y-41833D01*
X45327Y-41833D01*
X45379Y-41811D01*
X45418Y-41772D01*
X45439Y-41721D01*
X45440Y-41665D01*
X45440Y-41658D01*
X45509Y-41658D01*
X45509Y-41720D01*
X45531Y-41772D01*
X45570Y-41811D01*
X45622Y-41833D01*
X45677Y-41833D01*
X46027Y-41833D01*
X46079Y-41811D01*
X46118Y-41772D01*
X46139Y-41721D01*
X46140Y-41665D01*
X46140Y-42820D01*
X46040Y-42825D01*
X45871Y-42895D01*
X45813Y-42978D01*
X46200Y-43365D01*
X46586Y-42978D01*
X46586Y-43148D01*
X46284Y-43450D01*
X46671Y-43836D01*
X46754Y-43778D01*
X46837Y-43541D01*
X46837Y-44132D01*
X46586Y-44132D01*
X46586Y-43921D01*
X46200Y-43534D01*
X46115Y-43619D01*
X46115Y-43450D01*
X45728Y-43063D01*
X45645Y-43121D01*
X45562Y-43358D01*
X45575Y-43609D01*
X45645Y-43778D01*
X45728Y-43836D01*
X46115Y-43450D01*
X46115Y-43619D01*
X45813Y-43921D01*
X45871Y-44004D01*
X46108Y-44087D01*
X46359Y-44074D01*
X46528Y-44004D01*
X46586Y-43921D01*
X46586Y-44132D01*
X45752Y-44132D01*
X45736Y-44092D01*
X45558Y-43914D01*
X45326Y-43817D01*
X45074Y-43817D01*
X44842Y-43913D01*
X44837Y-43918D01*
X44837Y-43541D01*
X44824Y-43290D01*
X44754Y-43121D01*
X44690Y-43076D01*
X44690Y-41665D01*
X44690Y-41170D01*
X44690Y-40514D01*
X44690Y-40020D01*
X44689Y-39964D01*
X44668Y-39912D01*
X44640Y-39884D01*
X44640Y-39332D01*
X44640Y-38838D01*
X44639Y-38782D01*
X44618Y-38731D01*
X44579Y-38691D01*
X44536Y-38674D01*
X44536Y-37671D01*
X44150Y-37284D01*
X44065Y-37369D01*
X44065Y-37200D01*
X43678Y-36813D01*
X43595Y-36871D01*
X43512Y-37108D01*
X43525Y-37359D01*
X43595Y-37528D01*
X43678Y-37586D01*
X44065Y-37200D01*
X44065Y-37369D01*
X43763Y-37671D01*
X43821Y-37754D01*
X44058Y-37837D01*
X44309Y-37824D01*
X44478Y-37754D01*
X44536Y-37671D01*
X44536Y-38674D01*
X44527Y-38670D01*
X44420Y-38670D01*
X44385Y-38705D01*
X44385Y-39025D01*
X44605Y-39025D01*
X44640Y-38990D01*
X44640Y-38838D01*
X44640Y-39332D01*
X44640Y-39180D01*
X44605Y-39145D01*
X44385Y-39145D01*
X44385Y-39465D01*
X44420Y-39500D01*
X44527Y-39500D01*
X44579Y-39479D01*
X44618Y-39439D01*
X44639Y-39388D01*
X44640Y-39332D01*
X44640Y-39884D01*
X44629Y-39873D01*
X44577Y-39852D01*
X44470Y-39852D01*
X44435Y-39887D01*
X44435Y-40207D01*
X44655Y-40207D01*
X44690Y-40172D01*
X44690Y-40020D01*
X44690Y-40514D01*
X44690Y-40362D01*
X44655Y-40327D01*
X44435Y-40327D01*
X44435Y-40647D01*
X44470Y-40682D01*
X44577Y-40682D01*
X44629Y-40661D01*
X44668Y-40621D01*
X44689Y-40570D01*
X44690Y-40514D01*
X44690Y-41170D01*
X44689Y-41115D01*
X44668Y-41063D01*
X44629Y-41024D01*
X44577Y-41003D01*
X44470Y-41003D01*
X44435Y-41038D01*
X44435Y-41358D01*
X44655Y-41358D01*
X44690Y-41323D01*
X44690Y-41170D01*
X44690Y-41665D01*
X44690Y-41513D01*
X44655Y-41478D01*
X44435Y-41478D01*
X44435Y-41798D01*
X44470Y-41833D01*
X44577Y-41833D01*
X44629Y-41811D01*
X44668Y-41772D01*
X44689Y-41721D01*
X44690Y-41665D01*
X44690Y-43076D01*
X44671Y-43063D01*
X44586Y-43148D01*
X44586Y-42978D01*
X44528Y-42895D01*
X44315Y-42820D01*
X44315Y-41798D01*
X44315Y-41478D01*
X44315Y-41358D01*
X44315Y-41038D01*
X44315Y-40647D01*
X44315Y-40327D01*
X44315Y-40207D01*
X44315Y-39887D01*
X44280Y-39852D01*
X44265Y-39852D01*
X44265Y-39465D01*
X44265Y-39145D01*
X44265Y-39025D01*
X44265Y-38705D01*
X44230Y-38670D01*
X44122Y-38670D01*
X44070Y-38691D01*
X44031Y-38731D01*
X44010Y-38782D01*
X44009Y-38838D01*
X44010Y-38990D01*
X44045Y-39025D01*
X44265Y-39025D01*
X44265Y-39145D01*
X44045Y-39145D01*
X44010Y-39180D01*
X44009Y-39332D01*
X44010Y-39388D01*
X44031Y-39439D01*
X44070Y-39479D01*
X44122Y-39500D01*
X44230Y-39500D01*
X44265Y-39465D01*
X44265Y-39852D01*
X44172Y-39852D01*
X44120Y-39873D01*
X44081Y-39912D01*
X44060Y-39964D01*
X44059Y-40020D01*
X44060Y-40172D01*
X44095Y-40207D01*
X44315Y-40207D01*
X44315Y-40327D01*
X44095Y-40327D01*
X44060Y-40362D01*
X44059Y-40514D01*
X44060Y-40570D01*
X44081Y-40621D01*
X44120Y-40661D01*
X44172Y-40682D01*
X44280Y-40682D01*
X44315Y-40647D01*
X44315Y-41038D01*
X44280Y-41003D01*
X44172Y-41003D01*
X44120Y-41024D01*
X44081Y-41063D01*
X44060Y-41115D01*
X44059Y-41170D01*
X44060Y-41323D01*
X44095Y-41358D01*
X44315Y-41358D01*
X44315Y-41478D01*
X44095Y-41478D01*
X44060Y-41513D01*
X44059Y-41665D01*
X44060Y-41721D01*
X44081Y-41772D01*
X44120Y-41811D01*
X44172Y-41833D01*
X44280Y-41833D01*
X44315Y-41798D01*
X44315Y-42820D01*
X44291Y-42812D01*
X44040Y-42825D01*
X43871Y-42895D01*
X43813Y-42978D01*
X44200Y-43365D01*
X44586Y-42978D01*
X44586Y-43148D01*
X44284Y-43450D01*
X44671Y-43836D01*
X44754Y-43778D01*
X44837Y-43541D01*
X44837Y-43918D01*
X44664Y-44091D01*
X44586Y-44279D01*
X44586Y-43921D01*
X44200Y-43534D01*
X44115Y-43619D01*
X44115Y-43450D01*
X43728Y-43063D01*
X43645Y-43121D01*
X43562Y-43358D01*
X43575Y-43609D01*
X43645Y-43778D01*
X43728Y-43836D01*
X44115Y-43450D01*
X44115Y-43619D01*
X43813Y-43921D01*
X43871Y-44004D01*
X44108Y-44087D01*
X44359Y-44074D01*
X44528Y-44004D01*
X44586Y-43921D01*
X44586Y-44279D01*
X44567Y-44323D01*
X44567Y-44575D01*
X44663Y-44807D01*
X44841Y-44985D01*
X45073Y-45082D01*
X45325Y-45082D01*
X45557Y-44986D01*
X45735Y-44808D01*
X45752Y-44767D01*
X46802Y-44767D01*
X46974Y-44938D01*
X46974Y-45594D01*
X46998Y-45715D01*
X47067Y-45818D01*
X47433Y-46184D01*
X47433Y-46184D01*
X47536Y-46253D01*
X47657Y-46277D01*
X47682Y-46277D01*
X47682Y-46365D01*
X47717Y-46400D01*
X48471Y-46400D01*
X48471Y-46392D01*
X48591Y-46392D01*
X48591Y-46400D01*
X49345Y-46400D01*
X49380Y-46365D01*
X49380Y-46257D01*
X49380Y-46663D01*
X49380Y-46555D01*
X49345Y-46520D01*
X48591Y-46520D01*
X48591Y-46740D01*
X48626Y-46775D01*
X49212Y-46775D01*
X49268Y-46775D01*
X49319Y-46754D01*
X49358Y-46715D01*
X49380Y-46663D01*
X49380Y-49018D01*
X49260Y-49018D01*
X49260Y-48066D01*
X49162Y-47830D01*
X48983Y-47650D01*
X48747Y-47553D01*
X48493Y-47552D01*
X48471Y-47561D01*
X48471Y-46740D01*
X48471Y-46520D01*
X47717Y-46520D01*
X47682Y-46555D01*
X47682Y-46663D01*
X47704Y-46715D01*
X47743Y-46754D01*
X47794Y-46775D01*
X47850Y-46775D01*
X48436Y-46775D01*
X48471Y-46740D01*
X48471Y-47561D01*
X48257Y-47650D01*
X48077Y-47829D01*
X47980Y-48065D01*
X47979Y-48319D01*
X48077Y-48555D01*
X48256Y-48735D01*
X48492Y-48832D01*
X48746Y-48833D01*
X48982Y-48735D01*
X49162Y-48556D01*
X49259Y-48320D01*
X49260Y-48066D01*
X49260Y-49018D01*
X47212Y-49018D01*
X47212Y-48830D01*
X47212Y-47527D01*
X46837Y-47527D01*
X46837Y-45541D01*
X46824Y-45290D01*
X46754Y-45121D01*
X46671Y-45063D01*
X46586Y-45148D01*
X46586Y-44978D01*
X46528Y-44895D01*
X46291Y-44812D01*
X46040Y-44825D01*
X45871Y-44895D01*
X45813Y-44978D01*
X46200Y-45365D01*
X46586Y-44978D01*
X46586Y-45148D01*
X46284Y-45450D01*
X46671Y-45836D01*
X46754Y-45778D01*
X46837Y-45541D01*
X46837Y-47527D01*
X46586Y-47527D01*
X46586Y-45921D01*
X46200Y-45534D01*
X46115Y-45619D01*
X46115Y-45450D01*
X45728Y-45063D01*
X45645Y-45121D01*
X45562Y-45358D01*
X45575Y-45609D01*
X45645Y-45778D01*
X45728Y-45836D01*
X46115Y-45450D01*
X46115Y-45619D01*
X45813Y-45921D01*
X45871Y-46004D01*
X46108Y-46087D01*
X46359Y-46074D01*
X46528Y-46004D01*
X46586Y-45921D01*
X46586Y-47527D01*
X44837Y-47527D01*
X44837Y-45541D01*
X44824Y-45290D01*
X44754Y-45121D01*
X44671Y-45063D01*
X44586Y-45148D01*
X44586Y-44978D01*
X44528Y-44895D01*
X44291Y-44812D01*
X44040Y-44825D01*
X43871Y-44895D01*
X43813Y-44978D01*
X44200Y-45365D01*
X44586Y-44978D01*
X44586Y-45148D01*
X44284Y-45450D01*
X44671Y-45836D01*
X44754Y-45778D01*
X44837Y-45541D01*
X44837Y-47527D01*
X44586Y-47527D01*
X44586Y-45921D01*
X44200Y-45534D01*
X44115Y-45619D01*
X44115Y-45450D01*
X43728Y-45063D01*
X43645Y-45121D01*
X43562Y-45358D01*
X43575Y-45609D01*
X43645Y-45778D01*
X43728Y-45836D01*
X44115Y-45450D01*
X44115Y-45619D01*
X43813Y-45921D01*
X43871Y-46004D01*
X44108Y-46087D01*
X44359Y-46074D01*
X44528Y-46004D01*
X44586Y-45921D01*
X44586Y-47527D01*
X43890Y-47527D01*
X43890Y-48830D01*
X47212Y-48830D01*
X47212Y-49018D01*
X43325Y-49018D01*
X43325Y-28378D01*
X48034Y-28378D01*
X47743Y-28668D01*
X47691Y-28746D01*
X47673Y-28838D01*
X47673Y-29724D01*
X47691Y-29816D01*
X47743Y-29894D01*
X48657Y-30808D01*
X48657Y-31514D01*
X48567Y-31605D01*
X48264Y-31605D01*
X48264Y-31541D01*
X48243Y-31490D01*
X48203Y-31450D01*
X48243Y-31411D01*
X48264Y-31360D01*
X48264Y-31304D01*
X48264Y-30753D01*
X48243Y-30702D01*
X48203Y-30662D01*
X48152Y-30641D01*
X48096Y-30641D01*
X47309Y-30641D01*
X47258Y-30662D01*
X47218Y-30702D01*
X47206Y-30732D01*
X46687Y-30732D01*
X46687Y-30141D01*
X46674Y-29890D01*
X46604Y-29721D01*
X46521Y-29663D01*
X46436Y-29748D01*
X46436Y-29578D01*
X46378Y-29495D01*
X46141Y-29412D01*
X45890Y-29425D01*
X45721Y-29495D01*
X45663Y-29578D01*
X46050Y-29965D01*
X46436Y-29578D01*
X46436Y-29748D01*
X46134Y-30050D01*
X46521Y-30436D01*
X46604Y-30378D01*
X46687Y-30141D01*
X46687Y-30732D01*
X46436Y-30732D01*
X46436Y-30521D01*
X46050Y-30134D01*
X45965Y-30219D01*
X45965Y-30050D01*
X45578Y-29663D01*
X45495Y-29721D01*
X45412Y-29958D01*
X45425Y-30209D01*
X45495Y-30378D01*
X45578Y-30436D01*
X45965Y-30050D01*
X45965Y-30219D01*
X45663Y-30521D01*
X45721Y-30604D01*
X45958Y-30687D01*
X46209Y-30674D01*
X46378Y-30604D01*
X46436Y-30521D01*
X46436Y-30732D01*
X45602Y-30732D01*
X45586Y-30692D01*
X45408Y-30514D01*
X45176Y-30417D01*
X44924Y-30417D01*
X44692Y-30513D01*
X44687Y-30518D01*
X44687Y-30141D01*
X44674Y-29890D01*
X44604Y-29721D01*
X44521Y-29663D01*
X44436Y-29748D01*
X44436Y-29578D01*
X44378Y-29495D01*
X44141Y-29412D01*
X43890Y-29425D01*
X43721Y-29495D01*
X43663Y-29578D01*
X44050Y-29965D01*
X44436Y-29578D01*
X44436Y-29748D01*
X44134Y-30050D01*
X44521Y-30436D01*
X44604Y-30378D01*
X44687Y-30141D01*
X44687Y-30518D01*
X44514Y-30691D01*
X44436Y-30879D01*
X44436Y-30521D01*
X44050Y-30134D01*
X43965Y-30219D01*
X43965Y-30050D01*
X43578Y-29663D01*
X43495Y-29721D01*
X43412Y-29958D01*
X43425Y-30209D01*
X43495Y-30378D01*
X43578Y-30436D01*
X43965Y-30050D01*
X43965Y-30219D01*
X43663Y-30521D01*
X43721Y-30604D01*
X43958Y-30687D01*
X44209Y-30674D01*
X44378Y-30604D01*
X44436Y-30521D01*
X44436Y-30879D01*
X44417Y-30923D01*
X44417Y-31175D01*
X44513Y-31407D01*
X44691Y-31585D01*
X44923Y-31682D01*
X45175Y-31682D01*
X45407Y-31586D01*
X45585Y-31408D01*
X45602Y-31367D01*
X47200Y-31367D01*
X47218Y-31411D01*
X47258Y-31451D01*
X47218Y-31490D01*
X47197Y-31541D01*
X47197Y-31597D01*
X47197Y-31605D01*
X47190Y-31605D01*
X47098Y-31623D01*
X47020Y-31675D01*
X46798Y-31897D01*
X46746Y-31975D01*
X46728Y-32066D01*
X46728Y-32262D01*
X46687Y-32303D01*
X46538Y-32453D01*
X46521Y-32436D01*
X46604Y-32378D01*
X46687Y-32141D01*
X46674Y-31890D01*
X46604Y-31721D01*
X46521Y-31663D01*
X46436Y-31748D01*
X46436Y-31578D01*
X46378Y-31495D01*
X46141Y-31412D01*
X45890Y-31425D01*
X45721Y-31495D01*
X45663Y-31578D01*
X46050Y-31965D01*
X46436Y-31578D01*
X46436Y-31748D01*
X46134Y-32050D01*
X46140Y-32055D01*
X46055Y-32140D01*
X46050Y-32134D01*
X45965Y-32219D01*
X45965Y-32050D01*
X45578Y-31663D01*
X45495Y-31721D01*
X45412Y-31958D01*
X45425Y-32209D01*
X45495Y-32378D01*
X45578Y-32436D01*
X45965Y-32050D01*
X45965Y-32219D01*
X45663Y-32521D01*
X45721Y-32604D01*
X45958Y-32687D01*
X46209Y-32674D01*
X46378Y-32604D01*
X46436Y-32521D01*
X46436Y-32521D01*
X46453Y-32538D01*
X46436Y-32554D01*
X46287Y-32703D01*
X46284Y-32708D01*
X46129Y-32708D01*
X46077Y-32729D01*
X46038Y-32768D01*
X46017Y-32820D01*
X46017Y-32875D01*
X46017Y-33675D01*
X46038Y-33727D01*
X46077Y-33766D01*
X46129Y-33788D01*
X46184Y-33788D01*
X46784Y-33788D01*
X46836Y-33766D01*
X46875Y-33727D01*
X46897Y-33676D01*
X46897Y-33620D01*
X46897Y-32820D01*
X46883Y-32786D01*
X47138Y-32531D01*
X47138Y-32531D01*
X47190Y-32454D01*
X47197Y-32417D01*
X47197Y-32537D01*
X47232Y-32572D01*
X47671Y-32572D01*
X47671Y-32564D01*
X47791Y-32564D01*
X47791Y-32572D01*
X48229Y-32572D01*
X48264Y-32537D01*
X48264Y-32384D01*
X48264Y-32328D01*
X48243Y-32277D01*
X48204Y-32238D01*
X48243Y-32199D01*
X48264Y-32148D01*
X48264Y-32092D01*
X48264Y-32085D01*
X48666Y-32085D01*
X48758Y-32066D01*
X48836Y-32014D01*
X49067Y-31783D01*
X49067Y-31783D01*
X49119Y-31706D01*
X49137Y-31614D01*
X49137Y-31614D01*
X49137Y-30708D01*
X49137Y-30708D01*
X49119Y-30616D01*
X49088Y-30570D01*
X49067Y-30538D01*
X49067Y-30538D01*
X48153Y-29624D01*
X48153Y-28937D01*
X48367Y-28724D01*
X48844Y-28724D01*
X48757Y-28760D01*
X48577Y-28939D01*
X48480Y-29175D01*
X48479Y-29429D01*
X48577Y-29665D01*
X48756Y-29845D01*
X48992Y-29942D01*
X49246Y-29943D01*
X49482Y-29845D01*
X49662Y-29666D01*
X49759Y-29430D01*
X49760Y-29176D01*
X49662Y-28940D01*
X49483Y-28760D01*
X49395Y-28724D01*
X50412Y-28724D01*
X50332Y-28757D01*
X50194Y-28895D01*
X50120Y-29075D01*
X50119Y-29270D01*
X50194Y-29450D01*
X50332Y-29588D01*
X50512Y-29662D01*
X50707Y-29663D01*
X50887Y-29588D01*
X51025Y-29450D01*
X51099Y-29270D01*
X51100Y-29075D01*
X51025Y-28895D01*
X50887Y-28757D01*
X50807Y-28724D01*
X51412Y-28724D01*
X51332Y-28757D01*
X51194Y-28895D01*
X51120Y-29075D01*
X51119Y-29270D01*
X51194Y-29450D01*
X51332Y-29588D01*
X51512Y-29662D01*
X51707Y-29663D01*
X51887Y-29588D01*
X52025Y-29450D01*
X52099Y-29270D01*
X52100Y-29075D01*
X52025Y-28895D01*
X51887Y-28757D01*
X51807Y-28724D01*
X52412Y-28724D01*
X52332Y-28757D01*
X52194Y-28895D01*
X52120Y-29075D01*
X52119Y-29270D01*
X52194Y-29450D01*
X52332Y-29588D01*
X52512Y-29662D01*
X52707Y-29663D01*
X52887Y-29588D01*
X53025Y-29450D01*
X53099Y-29270D01*
X53100Y-29075D01*
X53025Y-28895D01*
X52887Y-28757D01*
X52807Y-28724D01*
X53396Y-28724D01*
X53367Y-28736D01*
X53326Y-28804D01*
X53610Y-29088D01*
X53893Y-28804D01*
X53852Y-28736D01*
X53815Y-28724D01*
X54412Y-28724D01*
X54332Y-28757D01*
X54194Y-28895D01*
X54120Y-29075D01*
X54119Y-29270D01*
X54194Y-29450D01*
X54332Y-29588D01*
X54512Y-29662D01*
X54707Y-29663D01*
X54887Y-29588D01*
X55025Y-29450D01*
X55099Y-29270D01*
X55100Y-29075D01*
X55025Y-28895D01*
X54887Y-28757D01*
X54807Y-28724D01*
X55412Y-28724D01*
X55332Y-28757D01*
X55194Y-28895D01*
X55120Y-29075D01*
X55119Y-29270D01*
X55194Y-29450D01*
X55332Y-29588D01*
X55417Y-29623D01*
X55440Y-29657D01*
X56019Y-30237D01*
X56019Y-34388D01*
X54905Y-35503D01*
X54513Y-35503D01*
X54513Y-35439D01*
X54492Y-35388D01*
X54456Y-35352D01*
X54463Y-35349D01*
X54503Y-35309D01*
X54524Y-35258D01*
X54524Y-35202D01*
X54524Y-35188D01*
X54585Y-35176D01*
X54663Y-35124D01*
X55642Y-34146D01*
X55642Y-34146D01*
X55694Y-34068D01*
X55712Y-33976D01*
X55712Y-33976D01*
X55712Y-32488D01*
X55739Y-32462D01*
X55787Y-32346D01*
X55787Y-32221D01*
X55765Y-32166D01*
X55765Y-31337D01*
X55717Y-31221D01*
X55690Y-31194D01*
X55690Y-30450D01*
X55671Y-30358D01*
X55619Y-30280D01*
X55619Y-30280D01*
X55369Y-30030D01*
X55291Y-29978D01*
X55200Y-29960D01*
X54205Y-29960D01*
X54178Y-29933D01*
X54106Y-29903D01*
X54106Y-29230D01*
X54090Y-29036D01*
X54046Y-28930D01*
X53978Y-28889D01*
X53694Y-29173D01*
X53978Y-29456D01*
X54046Y-29415D01*
X54106Y-29230D01*
X54106Y-29903D01*
X54062Y-29885D01*
X53937Y-29884D01*
X53893Y-29903D01*
X53893Y-29541D01*
X53610Y-29257D01*
X53525Y-29342D01*
X53525Y-29173D01*
X53241Y-28889D01*
X53173Y-28930D01*
X53113Y-29115D01*
X53129Y-29309D01*
X53173Y-29415D01*
X53241Y-29456D01*
X53525Y-29173D01*
X53525Y-29342D01*
X53326Y-29541D01*
X53367Y-29609D01*
X53552Y-29669D01*
X53746Y-29653D01*
X53852Y-29609D01*
X53893Y-29541D01*
X53893Y-29903D01*
X53821Y-29932D01*
X53733Y-30021D01*
X53685Y-30137D01*
X53684Y-30262D01*
X53732Y-30378D01*
X53821Y-30466D01*
X53937Y-30514D01*
X54062Y-30515D01*
X54178Y-30467D01*
X54205Y-30440D01*
X55100Y-30440D01*
X55210Y-30549D01*
X55210Y-31194D01*
X55183Y-31221D01*
X55135Y-31337D01*
X55134Y-31462D01*
X55182Y-31578D01*
X55271Y-31666D01*
X55387Y-31714D01*
X55512Y-31715D01*
X55628Y-31667D01*
X55716Y-31578D01*
X55764Y-31462D01*
X55765Y-31337D01*
X55765Y-32166D01*
X55739Y-32105D01*
X55651Y-32016D01*
X55535Y-31968D01*
X55410Y-31968D01*
X55294Y-32016D01*
X55205Y-32104D01*
X55157Y-32220D01*
X55157Y-32345D01*
X55205Y-32461D01*
X55232Y-32488D01*
X55232Y-33876D01*
X54504Y-34604D01*
X54503Y-34600D01*
X54464Y-34561D01*
X54503Y-34522D01*
X54524Y-34471D01*
X54524Y-34415D01*
X54524Y-33864D01*
X54503Y-33813D01*
X54473Y-33783D01*
X54503Y-33754D01*
X54524Y-33703D01*
X54524Y-33647D01*
X54524Y-33096D01*
X54503Y-33045D01*
X54473Y-33015D01*
X54503Y-32986D01*
X54524Y-32935D01*
X54524Y-32879D01*
X54524Y-32328D01*
X54503Y-32277D01*
X54464Y-32238D01*
X54503Y-32199D01*
X54524Y-32148D01*
X54524Y-32092D01*
X54524Y-31541D01*
X54503Y-31490D01*
X54463Y-31450D01*
X54503Y-31411D01*
X54524Y-31360D01*
X54524Y-31304D01*
X54524Y-30809D01*
X54524Y-30753D01*
X54503Y-30702D01*
X54463Y-30662D01*
X54412Y-30641D01*
X54086Y-30641D01*
X54051Y-30676D01*
X54051Y-30997D01*
X54489Y-30997D01*
X54524Y-30962D01*
X54524Y-30809D01*
X54524Y-31304D01*
X54524Y-31152D01*
X54489Y-31117D01*
X54051Y-31117D01*
X54051Y-31124D01*
X53931Y-31124D01*
X53931Y-31117D01*
X53931Y-30997D01*
X53931Y-30676D01*
X53896Y-30641D01*
X53569Y-30641D01*
X53518Y-30662D01*
X53478Y-30702D01*
X53457Y-30753D01*
X53457Y-30809D01*
X53457Y-30962D01*
X53492Y-30997D01*
X53931Y-30997D01*
X53931Y-31117D01*
X53492Y-31117D01*
X53457Y-31152D01*
X53457Y-31304D01*
X53457Y-31360D01*
X53478Y-31411D01*
X53518Y-31451D01*
X53478Y-31490D01*
X53457Y-31541D01*
X53457Y-31597D01*
X53457Y-32148D01*
X53478Y-32199D01*
X53517Y-32238D01*
X53478Y-32277D01*
X53457Y-32328D01*
X53457Y-32384D01*
X53457Y-32935D01*
X53478Y-32986D01*
X53508Y-33016D01*
X53478Y-33045D01*
X53457Y-33096D01*
X53457Y-33152D01*
X53457Y-33703D01*
X53478Y-33754D01*
X53508Y-33784D01*
X53478Y-33813D01*
X53457Y-33864D01*
X53457Y-33920D01*
X53457Y-34471D01*
X53478Y-34522D01*
X53517Y-34561D01*
X53478Y-34600D01*
X53457Y-34651D01*
X53457Y-34707D01*
X53457Y-35258D01*
X53478Y-35309D01*
X53514Y-35345D01*
X53507Y-35348D01*
X53467Y-35388D01*
X53446Y-35439D01*
X53446Y-35495D01*
X53446Y-36046D01*
X53467Y-36097D01*
X53507Y-36137D01*
X53558Y-36158D01*
X53614Y-36158D01*
X54401Y-36158D01*
X54452Y-36137D01*
X54492Y-36097D01*
X54513Y-36046D01*
X54513Y-35990D01*
X54513Y-35983D01*
X55005Y-35983D01*
X55096Y-35964D01*
X55174Y-35912D01*
X56429Y-34657D01*
X56429Y-34657D01*
X56481Y-34580D01*
X56499Y-34488D01*
X56499Y-34488D01*
X56499Y-30137D01*
X56499Y-30137D01*
X56481Y-30045D01*
X56450Y-29999D01*
X56429Y-29968D01*
X56429Y-29968D01*
X55968Y-29507D01*
X56025Y-29450D01*
X56099Y-29270D01*
X56100Y-29075D01*
X56025Y-28895D01*
X55887Y-28757D01*
X55807Y-28724D01*
X56412Y-28724D01*
X56332Y-28757D01*
X56194Y-28895D01*
X56120Y-29075D01*
X56119Y-29270D01*
X56194Y-29450D01*
X56332Y-29588D01*
X56512Y-29662D01*
X56707Y-29663D01*
X56887Y-29588D01*
X57025Y-29450D01*
X57099Y-29270D01*
X57100Y-29075D01*
X57025Y-28895D01*
X56887Y-28757D01*
X56807Y-28724D01*
X57412Y-28724D01*
X57332Y-28757D01*
X57194Y-28895D01*
X57120Y-29075D01*
X57119Y-29270D01*
X57194Y-29450D01*
X57332Y-29588D01*
X57512Y-29662D01*
X57707Y-29663D01*
X57887Y-29588D01*
X58025Y-29450D01*
X58099Y-29270D01*
X58100Y-29075D01*
X58025Y-28895D01*
X57887Y-28757D01*
X57807Y-28724D01*
X58412Y-28724D01*
X58332Y-28757D01*
X58194Y-28895D01*
X58120Y-29075D01*
X58119Y-29270D01*
X58194Y-29450D01*
X58332Y-29588D01*
X58512Y-29662D01*
X58707Y-29663D01*
X58832Y-29611D01*
X58722Y-29720D01*
X58622Y-29720D01*
X58530Y-29738D01*
X58483Y-29770D01*
X58452Y-29790D01*
X56916Y-31326D01*
X56864Y-31404D01*
X56846Y-31496D01*
X56846Y-34428D01*
X54861Y-36413D01*
X53315Y-36413D01*
X53315Y-34037D01*
X53267Y-33921D01*
X53178Y-33833D01*
X53062Y-33785D01*
X52937Y-33784D01*
X52821Y-33832D01*
X52794Y-33860D01*
X49577Y-33860D01*
X49485Y-33878D01*
X49407Y-33930D01*
X49107Y-34230D01*
X49114Y-34212D01*
X49115Y-34087D01*
X49067Y-33971D01*
X48978Y-33883D01*
X48862Y-33835D01*
X48737Y-33834D01*
X48621Y-33882D01*
X48576Y-33928D01*
X48264Y-33928D01*
X48264Y-33864D01*
X48243Y-33813D01*
X48213Y-33783D01*
X48243Y-33754D01*
X48264Y-33703D01*
X48264Y-33647D01*
X48264Y-33096D01*
X48243Y-33045D01*
X48213Y-33015D01*
X48243Y-32986D01*
X48264Y-32935D01*
X48264Y-32879D01*
X48264Y-32727D01*
X48229Y-32692D01*
X47791Y-32692D01*
X47791Y-32699D01*
X47671Y-32699D01*
X47671Y-32692D01*
X47232Y-32692D01*
X47197Y-32727D01*
X47197Y-32879D01*
X47197Y-32935D01*
X47218Y-32986D01*
X47248Y-33016D01*
X47218Y-33045D01*
X47197Y-33096D01*
X47197Y-33152D01*
X47197Y-33703D01*
X47218Y-33754D01*
X47248Y-33784D01*
X47218Y-33813D01*
X47197Y-33864D01*
X47197Y-33920D01*
X47197Y-34145D01*
X47167Y-34071D01*
X47078Y-33983D01*
X46962Y-33935D01*
X46837Y-33934D01*
X46721Y-33982D01*
X46633Y-34071D01*
X46585Y-34187D01*
X46584Y-34312D01*
X46632Y-34428D01*
X46721Y-34516D01*
X46760Y-34532D01*
X46760Y-35005D01*
X46704Y-34871D01*
X46621Y-34813D01*
X46536Y-34898D01*
X46536Y-34728D01*
X46478Y-34645D01*
X46241Y-34562D01*
X45990Y-34575D01*
X45821Y-34645D01*
X45763Y-34728D01*
X46150Y-35115D01*
X46536Y-34728D01*
X46536Y-34898D01*
X46234Y-35200D01*
X46621Y-35586D01*
X46704Y-35528D01*
X46760Y-35370D01*
X46760Y-35550D01*
X46778Y-35641D01*
X46830Y-35719D01*
X47023Y-35912D01*
X47023Y-35912D01*
X47101Y-35964D01*
X47192Y-35982D01*
X47193Y-35983D01*
X47197Y-35983D01*
X47197Y-36046D01*
X47218Y-36097D01*
X47258Y-36137D01*
X47309Y-36158D01*
X47365Y-36158D01*
X48152Y-36158D01*
X48203Y-36137D01*
X48243Y-36097D01*
X48264Y-36046D01*
X48264Y-35990D01*
X48264Y-35439D01*
X48243Y-35388D01*
X48203Y-35348D01*
X48243Y-35309D01*
X48264Y-35258D01*
X48264Y-35202D01*
X48264Y-35190D01*
X48727Y-35190D01*
X48819Y-35171D01*
X48897Y-35119D01*
X49676Y-34340D01*
X52794Y-34340D01*
X52821Y-34366D01*
X52937Y-34414D01*
X53062Y-34415D01*
X53178Y-34367D01*
X53266Y-34278D01*
X53314Y-34162D01*
X53315Y-34037D01*
X53315Y-36413D01*
X51614Y-36413D01*
X51522Y-36431D01*
X51444Y-36483D01*
X49380Y-38548D01*
X49380Y-38257D01*
X49360Y-38210D01*
X49380Y-38163D01*
X49380Y-37757D01*
X49358Y-37706D01*
X49319Y-37666D01*
X49268Y-37645D01*
X49212Y-37645D01*
X48626Y-37645D01*
X48591Y-37680D01*
X48591Y-37900D01*
X49345Y-37900D01*
X49380Y-37865D01*
X49380Y-37757D01*
X49380Y-38163D01*
X49380Y-38055D01*
X49345Y-38020D01*
X48591Y-38020D01*
X48591Y-38028D01*
X48471Y-38028D01*
X48471Y-38020D01*
X48471Y-37900D01*
X48471Y-37680D01*
X48436Y-37645D01*
X47850Y-37645D01*
X47794Y-37645D01*
X47743Y-37666D01*
X47704Y-37706D01*
X47682Y-37757D01*
X47682Y-37865D01*
X47717Y-37900D01*
X48471Y-37900D01*
X48471Y-38020D01*
X47717Y-38020D01*
X47682Y-38055D01*
X47682Y-38163D01*
X47702Y-38210D01*
X47682Y-38257D01*
X47682Y-38313D01*
X47682Y-38663D01*
X47702Y-38710D01*
X47682Y-38757D01*
X47682Y-38813D01*
X47682Y-39163D01*
X47702Y-39210D01*
X47682Y-39257D01*
X47682Y-39313D01*
X47682Y-39663D01*
X47702Y-39710D01*
X47682Y-39757D01*
X47682Y-39813D01*
X47682Y-40163D01*
X47702Y-40210D01*
X47682Y-40257D01*
X47682Y-40313D01*
X47682Y-40663D01*
X47702Y-40710D01*
X47682Y-40757D01*
X47682Y-40813D01*
X47682Y-41163D01*
X47702Y-41210D01*
X47682Y-41257D01*
X47682Y-41313D01*
X47682Y-41663D01*
X47702Y-41710D01*
X47682Y-41757D01*
X47682Y-41813D01*
X47682Y-42163D01*
X47702Y-42210D01*
X47698Y-42220D01*
X47697Y-42220D01*
X47637Y-42160D01*
X47637Y-40213D01*
X47590Y-40097D01*
X47559Y-40066D01*
X47559Y-38992D01*
X47511Y-38876D01*
X47422Y-38788D01*
X47307Y-38740D01*
X47181Y-38740D01*
X47065Y-38787D01*
X47008Y-38845D01*
X46890Y-38845D01*
X46890Y-38782D01*
X46868Y-38731D01*
X46829Y-38691D01*
X46787Y-38674D01*
X46787Y-37291D01*
X46774Y-37040D01*
X46704Y-36871D01*
X46621Y-36813D01*
X46536Y-36898D01*
X46536Y-36728D01*
X46536Y-35671D01*
X46150Y-35284D01*
X46065Y-35369D01*
X46065Y-35200D01*
X45678Y-34813D01*
X45597Y-34870D01*
X45597Y-33620D01*
X45597Y-32875D01*
X45597Y-32820D01*
X45575Y-32768D01*
X45536Y-32729D01*
X45484Y-32708D01*
X45252Y-32708D01*
X45217Y-32743D01*
X45217Y-33188D01*
X45562Y-33188D01*
X45597Y-33153D01*
X45597Y-32875D01*
X45597Y-33620D01*
X45597Y-33343D01*
X45562Y-33308D01*
X45217Y-33308D01*
X45217Y-33753D01*
X45252Y-33788D01*
X45484Y-33788D01*
X45536Y-33766D01*
X45575Y-33727D01*
X45597Y-33676D01*
X45597Y-33620D01*
X45597Y-34870D01*
X45595Y-34871D01*
X45512Y-35108D01*
X45525Y-35359D01*
X45595Y-35528D01*
X45678Y-35586D01*
X46065Y-35200D01*
X46065Y-35369D01*
X45763Y-35671D01*
X45821Y-35754D01*
X46058Y-35837D01*
X46309Y-35824D01*
X46478Y-35754D01*
X46536Y-35671D01*
X46536Y-36728D01*
X46478Y-36645D01*
X46241Y-36562D01*
X45990Y-36575D01*
X45821Y-36645D01*
X45782Y-36701D01*
X45782Y-36074D01*
X45686Y-35842D01*
X45508Y-35664D01*
X45276Y-35567D01*
X45097Y-35567D01*
X45097Y-33753D01*
X45097Y-33308D01*
X45097Y-33188D01*
X45097Y-32743D01*
X45062Y-32708D01*
X44829Y-32708D01*
X44777Y-32729D01*
X44738Y-32768D01*
X44717Y-32820D01*
X44717Y-32875D01*
X44717Y-33153D01*
X44752Y-33188D01*
X45097Y-33188D01*
X45097Y-33308D01*
X44752Y-33308D01*
X44717Y-33343D01*
X44717Y-33620D01*
X44717Y-33676D01*
X44738Y-33727D01*
X44777Y-33766D01*
X44829Y-33788D01*
X45062Y-33788D01*
X45097Y-33753D01*
X45097Y-35567D01*
X45024Y-35567D01*
X44792Y-35663D01*
X44787Y-35668D01*
X44787Y-35291D01*
X44774Y-35040D01*
X44704Y-34871D01*
X44687Y-34859D01*
X44687Y-32141D01*
X44674Y-31890D01*
X44604Y-31721D01*
X44521Y-31663D01*
X44436Y-31748D01*
X44436Y-31578D01*
X44378Y-31495D01*
X44141Y-31412D01*
X43890Y-31425D01*
X43721Y-31495D01*
X43663Y-31578D01*
X44050Y-31965D01*
X44436Y-31578D01*
X44436Y-31748D01*
X44134Y-32050D01*
X44521Y-32436D01*
X44604Y-32378D01*
X44687Y-32141D01*
X44687Y-34859D01*
X44621Y-34813D01*
X44536Y-34898D01*
X44536Y-34728D01*
X44478Y-34645D01*
X44436Y-34630D01*
X44436Y-32521D01*
X44050Y-32134D01*
X43965Y-32219D01*
X43965Y-32050D01*
X43578Y-31663D01*
X43495Y-31721D01*
X43412Y-31958D01*
X43425Y-32209D01*
X43495Y-32378D01*
X43578Y-32436D01*
X43965Y-32050D01*
X43965Y-32219D01*
X43663Y-32521D01*
X43721Y-32604D01*
X43958Y-32687D01*
X44209Y-32674D01*
X44378Y-32604D01*
X44436Y-32521D01*
X44436Y-34630D01*
X44241Y-34562D01*
X43990Y-34575D01*
X43821Y-34645D01*
X43763Y-34728D01*
X44150Y-35115D01*
X44536Y-34728D01*
X44536Y-34898D01*
X44234Y-35200D01*
X44621Y-35586D01*
X44704Y-35528D01*
X44787Y-35291D01*
X44787Y-35668D01*
X44614Y-35841D01*
X44536Y-36029D01*
X44536Y-35671D01*
X44150Y-35284D01*
X44065Y-35369D01*
X44065Y-35200D01*
X43678Y-34813D01*
X43595Y-34871D01*
X43512Y-35108D01*
X43525Y-35359D01*
X43595Y-35528D01*
X43678Y-35586D01*
X44065Y-35200D01*
X44065Y-35369D01*
X43763Y-35671D01*
X43821Y-35754D01*
X44058Y-35837D01*
X44309Y-35824D01*
X44478Y-35754D01*
X44536Y-35671D01*
X44536Y-36029D01*
X44517Y-36073D01*
X44517Y-36325D01*
X44613Y-36557D01*
X44791Y-36735D01*
X45023Y-36832D01*
X45275Y-36832D01*
X45507Y-36736D01*
X45685Y-36558D01*
X45782Y-36326D01*
X45782Y-36074D01*
X45782Y-36701D01*
X45763Y-36728D01*
X46150Y-37115D01*
X46536Y-36728D01*
X46536Y-36898D01*
X46234Y-37200D01*
X46621Y-37586D01*
X46704Y-37528D01*
X46787Y-37291D01*
X46787Y-38674D01*
X46777Y-38670D01*
X46722Y-38670D01*
X46536Y-38670D01*
X46536Y-37671D01*
X46150Y-37284D01*
X46065Y-37369D01*
X46065Y-37200D01*
X45678Y-36813D01*
X45595Y-36871D01*
X45512Y-37108D01*
X45525Y-37359D01*
X45595Y-37528D01*
X45678Y-37586D01*
X46065Y-37200D01*
X46065Y-37369D01*
X45763Y-37671D01*
X45821Y-37754D01*
X46058Y-37837D01*
X46309Y-37824D01*
X46478Y-37754D01*
X46536Y-37671D01*
X46536Y-38670D01*
X46372Y-38670D01*
X46320Y-38691D01*
X46281Y-38731D01*
X46260Y-38782D01*
X46259Y-38838D01*
X46259Y-39388D01*
X46281Y-39439D01*
X46320Y-39479D01*
X46372Y-39500D01*
X46427Y-39500D01*
X46777Y-39500D01*
X46829Y-39479D01*
X46868Y-39439D01*
X46889Y-39388D01*
X46890Y-39332D01*
X46890Y-39325D01*
X47073Y-39325D01*
X47181Y-39370D01*
X47306Y-39370D01*
X47422Y-39322D01*
X47510Y-39233D01*
X47559Y-39118D01*
X47559Y-38992D01*
X47559Y-40066D01*
X47501Y-40008D01*
X47385Y-39960D01*
X47260Y-39960D01*
X47144Y-40008D01*
X47125Y-40027D01*
X46890Y-40027D01*
X46890Y-39964D01*
X46868Y-39913D01*
X46829Y-39873D01*
X46777Y-39852D01*
X46722Y-39852D01*
X46372Y-39852D01*
X46320Y-39873D01*
X46281Y-39912D01*
X46260Y-39964D01*
X46259Y-40020D01*
X46259Y-40570D01*
X46281Y-40621D01*
X46320Y-40660D01*
X46372Y-40682D01*
X46427Y-40682D01*
X46777Y-40682D01*
X46829Y-40661D01*
X46868Y-40621D01*
X46889Y-40570D01*
X46890Y-40514D01*
X46890Y-40507D01*
X47109Y-40507D01*
X47144Y-40542D01*
X47259Y-40590D01*
X47385Y-40590D01*
X47501Y-40542D01*
X47589Y-40454D01*
X47637Y-40338D01*
X47637Y-40213D01*
X47637Y-42160D01*
X46890Y-41412D01*
X46890Y-41115D01*
X46868Y-41063D01*
X46829Y-41024D01*
X46777Y-41003D01*
X46722Y-41003D01*
X46372Y-41003D01*
X46320Y-41024D01*
X46281Y-41063D01*
X46260Y-41115D01*
X46259Y-41170D01*
X46259Y-41720D01*
X46281Y-41772D01*
X46320Y-41811D01*
X46372Y-41833D01*
X46427Y-41833D01*
X46631Y-41833D01*
X47428Y-42630D01*
X47506Y-42682D01*
X47598Y-42700D01*
X47698Y-42700D01*
X47702Y-42710D01*
X47682Y-42757D01*
X47682Y-42865D01*
X47717Y-42900D01*
X48471Y-42900D01*
X48471Y-42892D01*
X48591Y-42892D01*
X48591Y-42900D01*
X49345Y-42900D01*
X49380Y-42865D01*
X49380Y-42757D01*
X49360Y-42710D01*
X49380Y-42663D01*
X49380Y-42608D01*
X49380Y-42257D01*
X49360Y-42210D01*
X49380Y-42163D01*
X49380Y-42108D01*
X49380Y-41757D01*
X49360Y-41710D01*
X49364Y-41700D01*
X49602Y-41700D01*
X49694Y-41682D01*
X49772Y-41630D01*
X50327Y-41075D01*
X50379Y-40997D01*
X50397Y-40905D01*
X50397Y-40905D01*
X50397Y-39193D01*
X51989Y-37602D01*
X56250Y-37602D01*
X56239Y-37606D01*
X56150Y-37695D01*
X56102Y-37811D01*
X56102Y-37936D01*
X56150Y-38052D01*
X56238Y-38140D01*
X56354Y-38188D01*
X56479Y-38189D01*
X56595Y-38141D01*
X56684Y-38052D01*
X56732Y-37936D01*
X56732Y-37811D01*
X56684Y-37695D01*
X56595Y-37607D01*
X56584Y-37602D01*
X57077Y-37602D01*
X57065Y-37606D01*
X56977Y-37695D01*
X56929Y-37811D01*
X56929Y-37936D01*
X56976Y-38052D01*
X57004Y-38079D01*
X57004Y-38207D01*
X56061Y-39150D01*
X56012Y-39150D01*
X56012Y-39062D01*
X56012Y-38417D01*
X56012Y-37762D01*
X55991Y-37710D01*
X55951Y-37671D01*
X55900Y-37650D01*
X55844Y-37650D01*
X55567Y-37650D01*
X55532Y-37685D01*
X55532Y-38030D01*
X55977Y-38030D01*
X56012Y-37995D01*
X56012Y-37762D01*
X56012Y-38417D01*
X56012Y-38185D01*
X55977Y-38150D01*
X55532Y-38150D01*
X55532Y-38495D01*
X55567Y-38530D01*
X55844Y-38530D01*
X55900Y-38530D01*
X55951Y-38508D01*
X55991Y-38469D01*
X56012Y-38417D01*
X56012Y-39062D01*
X55991Y-39010D01*
X55951Y-38971D01*
X55900Y-38950D01*
X55844Y-38950D01*
X55412Y-38950D01*
X55412Y-38495D01*
X55412Y-38150D01*
X55412Y-38030D01*
X55412Y-37685D01*
X55377Y-37650D01*
X55100Y-37650D01*
X55044Y-37650D01*
X54993Y-37671D01*
X54953Y-37710D01*
X54932Y-37762D01*
X54932Y-37995D01*
X54967Y-38030D01*
X55412Y-38030D01*
X55412Y-38150D01*
X54967Y-38150D01*
X54932Y-38185D01*
X54932Y-38417D01*
X54953Y-38469D01*
X54993Y-38508D01*
X55044Y-38530D01*
X55100Y-38530D01*
X55377Y-38530D01*
X55412Y-38495D01*
X55412Y-38950D01*
X55044Y-38950D01*
X54993Y-38971D01*
X54953Y-39010D01*
X54932Y-39062D01*
X54932Y-39101D01*
X54627Y-38797D01*
X54627Y-38518D01*
X54627Y-38174D01*
X54627Y-37768D01*
X54606Y-37717D01*
X54567Y-37677D01*
X54515Y-37656D01*
X54459Y-37656D01*
X54307Y-37656D01*
X54272Y-37691D01*
X54272Y-37911D01*
X54592Y-37911D01*
X54627Y-37876D01*
X54627Y-37768D01*
X54627Y-38174D01*
X54627Y-38066D01*
X54592Y-38031D01*
X54272Y-38031D01*
X54272Y-38251D01*
X54307Y-38286D01*
X54459Y-38286D01*
X54515Y-38286D01*
X54567Y-38265D01*
X54606Y-38225D01*
X54627Y-38174D01*
X54627Y-38518D01*
X54606Y-38467D01*
X54567Y-38427D01*
X54515Y-38406D01*
X54459Y-38406D01*
X54152Y-38406D01*
X54152Y-38251D01*
X54152Y-38031D01*
X54152Y-37911D01*
X54152Y-37691D01*
X54117Y-37656D01*
X53965Y-37656D01*
X53909Y-37656D01*
X53858Y-37677D01*
X53818Y-37717D01*
X53797Y-37768D01*
X53797Y-37876D01*
X53832Y-37911D01*
X54152Y-37911D01*
X54152Y-38031D01*
X53832Y-38031D01*
X53797Y-38066D01*
X53797Y-38174D01*
X53818Y-38225D01*
X53858Y-38265D01*
X53909Y-38286D01*
X53965Y-38286D01*
X54117Y-38286D01*
X54152Y-38251D01*
X54152Y-38406D01*
X53909Y-38406D01*
X53858Y-38427D01*
X53818Y-38467D01*
X53797Y-38518D01*
X53797Y-38574D01*
X53797Y-38614D01*
X53773Y-38638D01*
X53773Y-38608D01*
X53773Y-38257D01*
X53754Y-38210D01*
X53773Y-38163D01*
X53773Y-37757D01*
X53752Y-37706D01*
X53713Y-37666D01*
X53661Y-37645D01*
X53606Y-37645D01*
X53020Y-37645D01*
X52985Y-37680D01*
X52985Y-37900D01*
X53738Y-37900D01*
X53773Y-37865D01*
X53773Y-37757D01*
X53773Y-38163D01*
X53773Y-38055D01*
X53738Y-38020D01*
X52985Y-38020D01*
X52985Y-38028D01*
X52865Y-38028D01*
X52865Y-38020D01*
X52865Y-37900D01*
X52865Y-37680D01*
X52830Y-37645D01*
X52244Y-37645D01*
X52188Y-37645D01*
X52137Y-37666D01*
X52097Y-37706D01*
X52076Y-37757D01*
X52076Y-37865D01*
X52111Y-37900D01*
X52865Y-37900D01*
X52865Y-38020D01*
X52111Y-38020D01*
X52076Y-38055D01*
X52076Y-38163D01*
X52095Y-38210D01*
X52076Y-38257D01*
X52076Y-38313D01*
X52076Y-38663D01*
X52095Y-38710D01*
X52091Y-38720D01*
X51393Y-38720D01*
X51301Y-38738D01*
X51223Y-38790D01*
X51077Y-38936D01*
X51039Y-38936D01*
X50924Y-38984D01*
X50835Y-39073D01*
X50787Y-39189D01*
X50787Y-39314D01*
X50835Y-39430D01*
X50923Y-39518D01*
X51039Y-39566D01*
X51164Y-39567D01*
X51280Y-39519D01*
X51369Y-39430D01*
X51417Y-39314D01*
X51417Y-39276D01*
X51493Y-39200D01*
X52091Y-39200D01*
X52095Y-39210D01*
X52076Y-39257D01*
X52076Y-39313D01*
X52076Y-39663D01*
X52095Y-39710D01*
X52076Y-39757D01*
X52076Y-39813D01*
X52076Y-40163D01*
X52095Y-40210D01*
X52091Y-40220D01*
X52019Y-40220D01*
X51927Y-40238D01*
X51881Y-40270D01*
X51849Y-40290D01*
X51011Y-41129D01*
X50959Y-41207D01*
X50941Y-41299D01*
X50941Y-47474D01*
X50563Y-47852D01*
X50193Y-47852D01*
X50141Y-47873D01*
X50102Y-47913D01*
X50081Y-47964D01*
X50081Y-48020D01*
X50081Y-48570D01*
X50102Y-48621D01*
X50141Y-48661D01*
X50193Y-48682D01*
X50248Y-48682D01*
X50798Y-48682D01*
X50850Y-48661D01*
X50889Y-48622D01*
X50911Y-48570D01*
X50911Y-48514D01*
X50911Y-48183D01*
X51256Y-47838D01*
X51256Y-47920D01*
X51144Y-48032D01*
X51081Y-48184D01*
X51080Y-48349D01*
X51144Y-48502D01*
X51260Y-48619D01*
X51413Y-48682D01*
X51578Y-48682D01*
X51730Y-48619D01*
X51847Y-48503D01*
X51910Y-48350D01*
X51911Y-48185D01*
X51848Y-48032D01*
X51736Y-47920D01*
X51736Y-41556D01*
X52091Y-41200D01*
X52091Y-41200D01*
X52095Y-41210D01*
X52076Y-41257D01*
X52076Y-41313D01*
X52076Y-41663D01*
X52095Y-41710D01*
X52076Y-41757D01*
X52076Y-41813D01*
X52076Y-42163D01*
X52095Y-42210D01*
X52076Y-42257D01*
X52076Y-42365D01*
X52111Y-42400D01*
X52865Y-42400D01*
X52865Y-42392D01*
X52985Y-42392D01*
X52985Y-42400D01*
X53738Y-42400D01*
X53773Y-42365D01*
X53773Y-42257D01*
X53754Y-42210D01*
X53773Y-42163D01*
X53773Y-42108D01*
X53773Y-41757D01*
X53754Y-41710D01*
X53773Y-41663D01*
X53773Y-41608D01*
X53773Y-41257D01*
X53754Y-41210D01*
X53773Y-41163D01*
X53773Y-41108D01*
X53773Y-40757D01*
X53754Y-40710D01*
X53773Y-40663D01*
X53773Y-40608D01*
X53773Y-40257D01*
X53754Y-40210D01*
X53758Y-40200D01*
X53837Y-40200D01*
X54594Y-40957D01*
X54594Y-40957D01*
X54671Y-41009D01*
X54763Y-41027D01*
X63089Y-41027D01*
X64484Y-42422D01*
X64484Y-43510D01*
X64440Y-43404D01*
X64351Y-43315D01*
X64236Y-43267D01*
X64110Y-43267D01*
X63995Y-43315D01*
X63986Y-43323D01*
X63800Y-43323D01*
X63800Y-42961D01*
X63800Y-42611D01*
X63779Y-42559D01*
X63740Y-42520D01*
X63688Y-42499D01*
X63633Y-42498D01*
X63083Y-42498D01*
X63031Y-42520D01*
X62992Y-42559D01*
X62986Y-42573D01*
X62801Y-42573D01*
X62795Y-42559D01*
X62755Y-42520D01*
X62704Y-42499D01*
X62648Y-42498D01*
X62098Y-42498D01*
X62047Y-42520D01*
X62007Y-42559D01*
X62001Y-42573D01*
X61856Y-42573D01*
X61850Y-42559D01*
X61811Y-42520D01*
X61759Y-42499D01*
X61703Y-42498D01*
X61153Y-42498D01*
X61102Y-42520D01*
X61063Y-42559D01*
X61057Y-42573D01*
X60814Y-42573D01*
X60808Y-42567D01*
X60692Y-42519D01*
X60669Y-42519D01*
X60669Y-41394D01*
X60621Y-41278D01*
X60532Y-41189D01*
X60417Y-41141D01*
X60291Y-41141D01*
X60176Y-41189D01*
X60148Y-41216D01*
X58394Y-41216D01*
X58367Y-41189D01*
X58251Y-41141D01*
X58126Y-41141D01*
X58010Y-41189D01*
X57922Y-41278D01*
X57874Y-41393D01*
X57873Y-41519D01*
X57921Y-41634D01*
X58010Y-41723D01*
X58126Y-41771D01*
X58251Y-41771D01*
X58367Y-41723D01*
X58394Y-41696D01*
X60148Y-41696D01*
X60175Y-41723D01*
X60291Y-41771D01*
X60416Y-41771D01*
X60532Y-41723D01*
X60621Y-41635D01*
X60669Y-41519D01*
X60669Y-41394D01*
X60669Y-42519D01*
X60567Y-42519D01*
X60451Y-42567D01*
X60363Y-42655D01*
X60314Y-42771D01*
X60314Y-42897D01*
X60362Y-43012D01*
X60451Y-43101D01*
X60566Y-43149D01*
X60692Y-43149D01*
X60808Y-43101D01*
X60856Y-43053D01*
X61057Y-43053D01*
X61062Y-43068D01*
X61102Y-43107D01*
X61153Y-43128D01*
X61209Y-43129D01*
X61759Y-43129D01*
X61810Y-43107D01*
X61850Y-43068D01*
X61856Y-43053D01*
X62001Y-43053D01*
X62007Y-43068D01*
X62047Y-43107D01*
X62098Y-43128D01*
X62154Y-43129D01*
X62704Y-43129D01*
X62755Y-43107D01*
X62795Y-43068D01*
X62801Y-43053D01*
X62986Y-43053D01*
X62992Y-43068D01*
X63031Y-43107D01*
X63082Y-43128D01*
X63138Y-43129D01*
X63688Y-43129D01*
X63740Y-43107D01*
X63779Y-43068D01*
X63800Y-43016D01*
X63800Y-42961D01*
X63800Y-43323D01*
X63785Y-43323D01*
X63779Y-43309D01*
X63740Y-43270D01*
X63688Y-43249D01*
X63633Y-43248D01*
X63083Y-43248D01*
X63031Y-43270D01*
X62992Y-43309D01*
X62970Y-43361D01*
X62970Y-43416D01*
X62970Y-43766D01*
X62992Y-43818D01*
X63031Y-43857D01*
X63082Y-43878D01*
X63138Y-43879D01*
X63688Y-43879D01*
X63740Y-43857D01*
X63779Y-43818D01*
X63785Y-43803D01*
X63949Y-43803D01*
X63994Y-43849D01*
X64110Y-43897D01*
X64235Y-43897D01*
X64351Y-43849D01*
X64440Y-43761D01*
X64484Y-43654D01*
X64484Y-44191D01*
X64230Y-44446D01*
X64178Y-44523D01*
X64160Y-44615D01*
X64160Y-45409D01*
X64097Y-45409D01*
X64045Y-45431D01*
X64006Y-45470D01*
X63985Y-45522D01*
X63984Y-45577D01*
X63984Y-45927D01*
X64006Y-45979D01*
X64045Y-46018D01*
X64097Y-46039D01*
X64152Y-46040D01*
X64702Y-46040D01*
X64754Y-46018D01*
X64793Y-45979D01*
X64814Y-45927D01*
X64815Y-45872D01*
X64815Y-45522D01*
X64793Y-45470D01*
X64754Y-45431D01*
X64702Y-45410D01*
X64647Y-45409D01*
X64640Y-45409D01*
X64640Y-44715D01*
X64894Y-44461D01*
X64894Y-44461D01*
X64914Y-44429D01*
X64946Y-44383D01*
X64946Y-44383D01*
X64964Y-44291D01*
X64964Y-44291D01*
X64964Y-42429D01*
X67360Y-44825D01*
X67360Y-45409D01*
X67297Y-45409D01*
X67245Y-45431D01*
X67206Y-45470D01*
X67185Y-45522D01*
X67184Y-45577D01*
X67184Y-45927D01*
X67206Y-45979D01*
X67245Y-46018D01*
X67297Y-46039D01*
X67352Y-46040D01*
X67902Y-46040D01*
X67954Y-46018D01*
X67993Y-45979D01*
X68014Y-45927D01*
X68015Y-45872D01*
X68015Y-45522D01*
X67993Y-45470D01*
X67954Y-45431D01*
X67902Y-45410D01*
X67847Y-45409D01*
X67840Y-45409D01*
X67840Y-44725D01*
X67821Y-44634D01*
X67769Y-44556D01*
X67769Y-44556D01*
X63476Y-40263D01*
X63398Y-40211D01*
X63307Y-40193D01*
X54981Y-40193D01*
X54079Y-39290D01*
X54001Y-39238D01*
X53909Y-39220D01*
X53758Y-39220D01*
X53754Y-39210D01*
X53758Y-39200D01*
X53791Y-39200D01*
X53883Y-39182D01*
X53961Y-39130D01*
X54054Y-39036D01*
X54188Y-39036D01*
X54711Y-39559D01*
X54711Y-39559D01*
X54789Y-39611D01*
X54881Y-39630D01*
X54881Y-39630D01*
X54932Y-39630D01*
X54932Y-39717D01*
X54953Y-39769D01*
X54993Y-39808D01*
X55044Y-39830D01*
X55100Y-39830D01*
X55900Y-39830D01*
X55951Y-39808D01*
X55991Y-39769D01*
X56012Y-39718D01*
X56012Y-39662D01*
X56012Y-39630D01*
X56161Y-39630D01*
X56252Y-39611D01*
X56330Y-39559D01*
X57413Y-38476D01*
X57413Y-38476D01*
X57465Y-38398D01*
X57484Y-38307D01*
X57484Y-38307D01*
X57484Y-38079D01*
X57510Y-38052D01*
X57559Y-37936D01*
X57559Y-37811D01*
X57511Y-37695D01*
X57422Y-37607D01*
X57410Y-37602D01*
X59731Y-37602D01*
X59624Y-37646D01*
X59536Y-37734D01*
X59488Y-37850D01*
X59488Y-37975D01*
X59535Y-38091D01*
X59563Y-38118D01*
X59563Y-39400D01*
X59536Y-39427D01*
X59488Y-39543D01*
X59488Y-39668D01*
X59535Y-39784D01*
X59624Y-39873D01*
X59740Y-39921D01*
X59865Y-39921D01*
X59981Y-39873D01*
X60070Y-39784D01*
X60078Y-39764D01*
X60087Y-39784D01*
X60175Y-39873D01*
X60291Y-39921D01*
X60416Y-39921D01*
X60532Y-39873D01*
X60621Y-39784D01*
X60669Y-39669D01*
X60669Y-39543D01*
X60621Y-39428D01*
X60594Y-39400D01*
X60594Y-38079D01*
X60621Y-38052D01*
X60669Y-37936D01*
X60669Y-37811D01*
X60621Y-37695D01*
X60532Y-37607D01*
X60521Y-37602D01*
X65551Y-37602D01*
X65643Y-37583D01*
X65720Y-37531D01*
X68319Y-34933D01*
X68319Y-34933D01*
X68371Y-34855D01*
X68389Y-34763D01*
X68389Y-34763D01*
X68389Y-31212D01*
X68389Y-31212D01*
X68371Y-31120D01*
X68319Y-31042D01*
X68319Y-31042D01*
X66897Y-29621D01*
X67022Y-29672D01*
X67217Y-29673D01*
X67397Y-29598D01*
X67535Y-29460D01*
X67609Y-29280D01*
X67610Y-29085D01*
X67535Y-28905D01*
X67397Y-28767D01*
X67217Y-28693D01*
X67022Y-28692D01*
X66842Y-28767D01*
X66704Y-28905D01*
X66630Y-29085D01*
X66629Y-29280D01*
X66681Y-29405D01*
X66594Y-29318D01*
X66609Y-29280D01*
X66610Y-29085D01*
X66535Y-28905D01*
X66397Y-28767D01*
X66217Y-28693D01*
X66022Y-28692D01*
X65842Y-28767D01*
X65704Y-28905D01*
X65630Y-29085D01*
X65629Y-29280D01*
X65704Y-29460D01*
X65842Y-29598D01*
X66022Y-29672D01*
X66217Y-29673D01*
X66254Y-29657D01*
X66503Y-29905D01*
X66430Y-29857D01*
X66338Y-29838D01*
X65532Y-29838D01*
X65360Y-29666D01*
X65360Y-29614D01*
X65397Y-29598D01*
X65535Y-29460D01*
X65609Y-29280D01*
X65610Y-29085D01*
X65535Y-28905D01*
X65397Y-28767D01*
X65217Y-28693D01*
X65022Y-28692D01*
X64842Y-28767D01*
X64704Y-28905D01*
X64630Y-29085D01*
X64629Y-29280D01*
X64704Y-29460D01*
X64842Y-29598D01*
X64880Y-29613D01*
X64880Y-29765D01*
X64898Y-29857D01*
X64950Y-29935D01*
X65207Y-30193D01*
X65060Y-30193D01*
X64431Y-29564D01*
X64535Y-29460D01*
X64609Y-29280D01*
X64610Y-29085D01*
X64535Y-28905D01*
X64397Y-28767D01*
X64217Y-28693D01*
X64022Y-28692D01*
X63842Y-28767D01*
X63704Y-28905D01*
X63630Y-29085D01*
X63629Y-29280D01*
X63704Y-29460D01*
X63842Y-29598D01*
X63884Y-29615D01*
X63898Y-29684D01*
X63950Y-29762D01*
X64790Y-30602D01*
X64790Y-30602D01*
X64868Y-30654D01*
X64960Y-30673D01*
X64960Y-30673D01*
X65845Y-30673D01*
X66684Y-31512D01*
X66684Y-32052D01*
X66706Y-32104D01*
X66745Y-32143D01*
X66797Y-32164D01*
X66852Y-32165D01*
X66860Y-32165D01*
X66860Y-32609D01*
X66797Y-32609D01*
X66745Y-32631D01*
X66706Y-32670D01*
X66685Y-32722D01*
X66684Y-32777D01*
X66684Y-33127D01*
X66706Y-33179D01*
X66745Y-33218D01*
X66797Y-33239D01*
X66852Y-33240D01*
X67402Y-33240D01*
X67454Y-33218D01*
X67493Y-33179D01*
X67514Y-33127D01*
X67515Y-33072D01*
X67515Y-32722D01*
X67493Y-32670D01*
X67454Y-32631D01*
X67402Y-32610D01*
X67347Y-32609D01*
X67340Y-32609D01*
X67340Y-32165D01*
X67402Y-32165D01*
X67454Y-32143D01*
X67493Y-32104D01*
X67514Y-32052D01*
X67515Y-31997D01*
X67515Y-31594D01*
X67555Y-31634D01*
X67555Y-34506D01*
X67340Y-34722D01*
X67340Y-33990D01*
X67402Y-33990D01*
X67454Y-33968D01*
X67493Y-33929D01*
X67514Y-33877D01*
X67515Y-33822D01*
X67515Y-33472D01*
X67493Y-33420D01*
X67454Y-33381D01*
X67402Y-33360D01*
X67347Y-33359D01*
X66797Y-33359D01*
X66745Y-33381D01*
X66706Y-33420D01*
X66685Y-33472D01*
X66684Y-33527D01*
X66684Y-33877D01*
X66706Y-33929D01*
X66745Y-33968D01*
X66797Y-33989D01*
X66852Y-33990D01*
X66860Y-33990D01*
X66860Y-34729D01*
X66515Y-35074D01*
X66515Y-31667D01*
X66452Y-31515D01*
X66335Y-31398D01*
X66182Y-31335D01*
X66083Y-31334D01*
X65524Y-30775D01*
X65446Y-30723D01*
X65354Y-30704D01*
X64705Y-30704D01*
X63498Y-29497D01*
X63535Y-29460D01*
X63609Y-29280D01*
X63610Y-29085D01*
X63535Y-28905D01*
X63397Y-28767D01*
X63217Y-28693D01*
X63022Y-28692D01*
X62842Y-28767D01*
X62704Y-28905D01*
X62630Y-29085D01*
X62629Y-29280D01*
X62704Y-29460D01*
X62842Y-29598D01*
X62975Y-29653D01*
X63399Y-30077D01*
X63361Y-30077D01*
X62811Y-30077D01*
X62759Y-30098D01*
X62720Y-30137D01*
X62699Y-30189D01*
X62699Y-30244D01*
X62699Y-30794D01*
X62720Y-30846D01*
X62759Y-30885D01*
X62811Y-30907D01*
X62866Y-30907D01*
X63416Y-30907D01*
X63468Y-30885D01*
X63507Y-30846D01*
X63529Y-30795D01*
X63529Y-30739D01*
X63529Y-30207D01*
X64436Y-31114D01*
X64514Y-31166D01*
X64606Y-31184D01*
X65254Y-31184D01*
X65700Y-31630D01*
X65685Y-31667D01*
X65684Y-31832D01*
X65747Y-31984D01*
X65860Y-32096D01*
X65860Y-32609D01*
X65797Y-32609D01*
X65745Y-32631D01*
X65706Y-32670D01*
X65685Y-32722D01*
X65684Y-32777D01*
X65684Y-33127D01*
X65706Y-33179D01*
X65745Y-33218D01*
X65797Y-33239D01*
X65852Y-33240D01*
X66402Y-33240D01*
X66454Y-33218D01*
X66493Y-33179D01*
X66514Y-33127D01*
X66515Y-33072D01*
X66515Y-32722D01*
X66493Y-32670D01*
X66454Y-32631D01*
X66402Y-32610D01*
X66347Y-32609D01*
X66340Y-32609D01*
X66340Y-32096D01*
X66451Y-31985D01*
X66514Y-31832D01*
X66515Y-31667D01*
X66515Y-35074D01*
X66340Y-35249D01*
X66340Y-33990D01*
X66402Y-33990D01*
X66454Y-33968D01*
X66493Y-33929D01*
X66514Y-33877D01*
X66515Y-33822D01*
X66515Y-33472D01*
X66493Y-33420D01*
X66454Y-33381D01*
X66402Y-33360D01*
X66347Y-33359D01*
X65797Y-33359D01*
X65745Y-33381D01*
X65706Y-33420D01*
X65685Y-33472D01*
X65684Y-33527D01*
X65684Y-33877D01*
X65706Y-33929D01*
X65745Y-33968D01*
X65797Y-33989D01*
X65852Y-33990D01*
X65860Y-33990D01*
X65860Y-35217D01*
X65515Y-35562D01*
X65515Y-31667D01*
X65452Y-31515D01*
X65335Y-31398D01*
X65182Y-31335D01*
X65017Y-31334D01*
X64865Y-31397D01*
X64748Y-31514D01*
X64685Y-31667D01*
X64684Y-31832D01*
X64747Y-31984D01*
X64864Y-32101D01*
X65017Y-32164D01*
X65182Y-32165D01*
X65334Y-32102D01*
X65451Y-31985D01*
X65514Y-31832D01*
X65515Y-31667D01*
X65515Y-35562D01*
X65176Y-35901D01*
X64521Y-35901D01*
X64521Y-31789D01*
X64504Y-31625D01*
X64474Y-31552D01*
X64413Y-31521D01*
X64328Y-31606D01*
X64328Y-31436D01*
X64297Y-31375D01*
X64139Y-31328D01*
X63975Y-31345D01*
X63902Y-31375D01*
X63871Y-31436D01*
X64100Y-31665D01*
X64328Y-31436D01*
X64328Y-31606D01*
X64184Y-31750D01*
X64413Y-31978D01*
X64474Y-31947D01*
X64521Y-31789D01*
X64521Y-35901D01*
X64328Y-35901D01*
X64328Y-32063D01*
X64100Y-31834D01*
X64015Y-31919D01*
X64015Y-31750D01*
X63786Y-31521D01*
X63725Y-31552D01*
X63678Y-31710D01*
X63695Y-31874D01*
X63725Y-31947D01*
X63786Y-31978D01*
X64015Y-31750D01*
X64015Y-31919D01*
X63871Y-32063D01*
X63902Y-32124D01*
X64060Y-32171D01*
X64224Y-32154D01*
X64297Y-32124D01*
X64328Y-32063D01*
X64328Y-35901D01*
X63680Y-35901D01*
X63680Y-33722D01*
X63680Y-32978D01*
X63680Y-32922D01*
X63659Y-32870D01*
X63619Y-32831D01*
X63568Y-32810D01*
X63521Y-32810D01*
X63521Y-31789D01*
X63504Y-31625D01*
X63474Y-31552D01*
X63413Y-31521D01*
X63328Y-31606D01*
X63328Y-31436D01*
X63297Y-31375D01*
X63139Y-31328D01*
X62975Y-31345D01*
X62902Y-31375D01*
X62871Y-31436D01*
X63100Y-31665D01*
X63328Y-31436D01*
X63328Y-31606D01*
X63184Y-31750D01*
X63413Y-31978D01*
X63474Y-31947D01*
X63521Y-31789D01*
X63521Y-32810D01*
X63335Y-32810D01*
X63328Y-32817D01*
X63328Y-32063D01*
X63100Y-31834D01*
X63015Y-31919D01*
X63015Y-31750D01*
X62786Y-31521D01*
X62725Y-31552D01*
X62678Y-31710D01*
X62695Y-31874D01*
X62725Y-31947D01*
X62786Y-31978D01*
X63015Y-31750D01*
X63015Y-31919D01*
X62871Y-32063D01*
X62902Y-32124D01*
X63060Y-32171D01*
X63224Y-32154D01*
X63297Y-32124D01*
X63328Y-32063D01*
X63328Y-32817D01*
X63300Y-32845D01*
X63300Y-33290D01*
X63645Y-33290D01*
X63680Y-33255D01*
X63680Y-32978D01*
X63680Y-33722D01*
X63680Y-33445D01*
X63645Y-33410D01*
X63300Y-33410D01*
X63300Y-33855D01*
X63335Y-33890D01*
X63568Y-33890D01*
X63619Y-33869D01*
X63659Y-33829D01*
X63680Y-33778D01*
X63680Y-33722D01*
X63680Y-35901D01*
X63249Y-35901D01*
X63249Y-34735D01*
X63249Y-34240D01*
X63249Y-34185D01*
X63227Y-34133D01*
X63188Y-34094D01*
X63180Y-34091D01*
X63180Y-33855D01*
X63180Y-33410D01*
X63180Y-33290D01*
X63180Y-32845D01*
X63145Y-32810D01*
X62912Y-32810D01*
X62861Y-32831D01*
X62821Y-32870D01*
X62800Y-32922D01*
X62800Y-32978D01*
X62800Y-33255D01*
X62835Y-33290D01*
X63180Y-33290D01*
X63180Y-33410D01*
X62835Y-33410D01*
X62800Y-33445D01*
X62800Y-33722D01*
X62800Y-33778D01*
X62821Y-33829D01*
X62861Y-33869D01*
X62912Y-33890D01*
X63145Y-33890D01*
X63180Y-33855D01*
X63180Y-34091D01*
X63136Y-34073D01*
X63029Y-34073D01*
X62994Y-34108D01*
X62994Y-34428D01*
X63214Y-34428D01*
X63249Y-34393D01*
X63249Y-34240D01*
X63249Y-34735D01*
X63249Y-34583D01*
X63214Y-34548D01*
X62994Y-34548D01*
X62994Y-34868D01*
X63029Y-34903D01*
X63136Y-34903D01*
X63188Y-34881D01*
X63227Y-34842D01*
X63249Y-34791D01*
X63249Y-34735D01*
X63249Y-35901D01*
X62874Y-35901D01*
X62874Y-34868D01*
X62874Y-34548D01*
X62874Y-34428D01*
X62874Y-34108D01*
X62839Y-34073D01*
X62731Y-34073D01*
X62679Y-34094D01*
X62640Y-34133D01*
X62619Y-34185D01*
X62619Y-34240D01*
X62619Y-34393D01*
X62654Y-34428D01*
X62874Y-34428D01*
X62874Y-34548D01*
X62654Y-34548D01*
X62619Y-34583D01*
X62619Y-34735D01*
X62619Y-34791D01*
X62640Y-34842D01*
X62679Y-34881D01*
X62731Y-34903D01*
X62839Y-34903D01*
X62874Y-34868D01*
X62874Y-35901D01*
X62610Y-35901D01*
X62610Y-29085D01*
X62535Y-28905D01*
X62397Y-28767D01*
X62217Y-28693D01*
X62022Y-28692D01*
X61842Y-28767D01*
X61704Y-28905D01*
X61630Y-29085D01*
X61629Y-29280D01*
X61704Y-29460D01*
X61842Y-29598D01*
X61880Y-29613D01*
X61880Y-30139D01*
X61879Y-30140D01*
X61762Y-30256D01*
X61699Y-30409D01*
X61699Y-30574D01*
X61762Y-30726D01*
X61878Y-30843D01*
X62031Y-30907D01*
X62196Y-30907D01*
X62348Y-30844D01*
X62465Y-30727D01*
X62529Y-30575D01*
X62529Y-30409D01*
X62466Y-30257D01*
X62360Y-30150D01*
X62360Y-29614D01*
X62397Y-29598D01*
X62535Y-29460D01*
X62609Y-29280D01*
X62610Y-29085D01*
X62610Y-35901D01*
X60008Y-35901D01*
X59981Y-35874D01*
X59866Y-35826D01*
X59740Y-35826D01*
X59624Y-35874D01*
X59536Y-35963D01*
X59515Y-36014D01*
X59515Y-31667D01*
X59452Y-31515D01*
X59335Y-31398D01*
X59182Y-31335D01*
X59017Y-31334D01*
X58865Y-31397D01*
X58748Y-31514D01*
X58685Y-31667D01*
X58684Y-31832D01*
X58747Y-31984D01*
X58864Y-32101D01*
X59017Y-32164D01*
X59182Y-32165D01*
X59334Y-32102D01*
X59451Y-31985D01*
X59514Y-31832D01*
X59515Y-31667D01*
X59515Y-36014D01*
X59488Y-36078D01*
X59488Y-36204D01*
X59535Y-36319D01*
X59624Y-36408D01*
X59740Y-36456D01*
X59865Y-36456D01*
X59981Y-36408D01*
X60008Y-36381D01*
X60101Y-36381D01*
X60087Y-36396D01*
X60039Y-36511D01*
X60039Y-36637D01*
X60087Y-36753D01*
X60101Y-36767D01*
X58521Y-36767D01*
X58521Y-31789D01*
X58504Y-31625D01*
X58474Y-31552D01*
X58413Y-31521D01*
X58328Y-31606D01*
X58328Y-31436D01*
X58297Y-31375D01*
X58139Y-31328D01*
X57975Y-31345D01*
X57902Y-31375D01*
X57871Y-31436D01*
X58100Y-31665D01*
X58328Y-31436D01*
X58328Y-31606D01*
X58184Y-31750D01*
X58413Y-31978D01*
X58474Y-31947D01*
X58521Y-31789D01*
X58521Y-36767D01*
X58328Y-36767D01*
X58328Y-32063D01*
X58100Y-31834D01*
X58015Y-31919D01*
X58015Y-31750D01*
X57786Y-31521D01*
X57725Y-31552D01*
X57678Y-31710D01*
X57695Y-31874D01*
X57725Y-31947D01*
X57786Y-31978D01*
X58015Y-31750D01*
X58015Y-31919D01*
X57871Y-32063D01*
X57902Y-32124D01*
X58060Y-32171D01*
X58224Y-32154D01*
X58297Y-32124D01*
X58328Y-32063D01*
X58328Y-36767D01*
X55185Y-36767D01*
X57256Y-34697D01*
X57308Y-34619D01*
X57326Y-34527D01*
X57326Y-34527D01*
X57326Y-31595D01*
X58721Y-30200D01*
X58822Y-30200D01*
X58914Y-30182D01*
X58992Y-30130D01*
X59474Y-29647D01*
X59512Y-29662D01*
X59707Y-29663D01*
X59765Y-29638D01*
X59101Y-30302D01*
X59049Y-30380D01*
X59031Y-30472D01*
X59031Y-30807D01*
X59049Y-30898D01*
X59101Y-30976D01*
X59436Y-31311D01*
X59436Y-31311D01*
X59514Y-31363D01*
X59606Y-31381D01*
X59904Y-31381D01*
X59865Y-31397D01*
X59748Y-31514D01*
X59685Y-31667D01*
X59684Y-31832D01*
X59747Y-31984D01*
X59864Y-32101D01*
X60017Y-32164D01*
X60182Y-32165D01*
X60334Y-32102D01*
X60451Y-31985D01*
X60514Y-31832D01*
X60515Y-31667D01*
X60452Y-31515D01*
X60335Y-31398D01*
X60295Y-31381D01*
X60904Y-31381D01*
X60865Y-31397D01*
X60748Y-31514D01*
X60685Y-31667D01*
X60684Y-31832D01*
X60747Y-31984D01*
X60864Y-32101D01*
X61017Y-32164D01*
X61182Y-32165D01*
X61334Y-32102D01*
X61451Y-31985D01*
X61514Y-31832D01*
X61515Y-31667D01*
X61452Y-31515D01*
X61335Y-31398D01*
X61295Y-31381D01*
X61392Y-31381D01*
X61685Y-31674D01*
X61684Y-31832D01*
X61747Y-31984D01*
X61860Y-32096D01*
X61860Y-32810D01*
X61612Y-32810D01*
X61561Y-32831D01*
X61521Y-32870D01*
X61500Y-32922D01*
X61500Y-32978D01*
X61500Y-33110D01*
X61154Y-33110D01*
X61084Y-33040D01*
X60968Y-32992D01*
X60843Y-32992D01*
X60727Y-33039D01*
X60638Y-33128D01*
X60590Y-33244D01*
X60590Y-33369D01*
X60638Y-33485D01*
X60726Y-33573D01*
X60842Y-33622D01*
X60967Y-33622D01*
X61044Y-33590D01*
X61500Y-33590D01*
X61500Y-33778D01*
X61521Y-33829D01*
X61561Y-33869D01*
X61612Y-33890D01*
X61668Y-33890D01*
X61700Y-33890D01*
X61700Y-34244D01*
X61718Y-34336D01*
X61770Y-34414D01*
X61869Y-34512D01*
X61869Y-34790D01*
X61890Y-34842D01*
X61929Y-34881D01*
X61981Y-34903D01*
X62036Y-34903D01*
X62386Y-34903D01*
X62438Y-34881D01*
X62477Y-34842D01*
X62499Y-34791D01*
X62499Y-34735D01*
X62499Y-34185D01*
X62477Y-34133D01*
X62438Y-34094D01*
X62387Y-34073D01*
X62331Y-34073D01*
X62180Y-34073D01*
X62180Y-33890D01*
X62268Y-33890D01*
X62319Y-33869D01*
X62359Y-33829D01*
X62380Y-33778D01*
X62380Y-33722D01*
X62380Y-32922D01*
X62359Y-32871D01*
X62340Y-32851D01*
X62340Y-32096D01*
X62451Y-31985D01*
X62514Y-31832D01*
X62515Y-31667D01*
X62452Y-31515D01*
X62335Y-31398D01*
X62182Y-31335D01*
X62024Y-31334D01*
X61661Y-30972D01*
X61583Y-30920D01*
X61491Y-30901D01*
X61209Y-30901D01*
X61348Y-30844D01*
X61465Y-30727D01*
X61529Y-30575D01*
X61529Y-30409D01*
X61466Y-30257D01*
X61360Y-30150D01*
X61360Y-29614D01*
X61397Y-29598D01*
X61535Y-29460D01*
X61609Y-29280D01*
X61610Y-29085D01*
X61535Y-28905D01*
X61397Y-28767D01*
X61217Y-28693D01*
X61022Y-28692D01*
X60842Y-28767D01*
X60704Y-28905D01*
X60630Y-29085D01*
X60629Y-29280D01*
X60704Y-29460D01*
X60842Y-29598D01*
X60880Y-29613D01*
X60880Y-30139D01*
X60879Y-30140D01*
X60762Y-30256D01*
X60699Y-30409D01*
X60699Y-30574D01*
X60762Y-30726D01*
X60878Y-30843D01*
X61018Y-30901D01*
X60535Y-30901D01*
X60535Y-30531D01*
X60518Y-30367D01*
X60488Y-30294D01*
X60427Y-30263D01*
X60199Y-30492D01*
X60427Y-30720D01*
X60488Y-30689D01*
X60535Y-30531D01*
X60535Y-30901D01*
X60187Y-30901D01*
X60238Y-30896D01*
X60311Y-30866D01*
X60342Y-30805D01*
X60114Y-30576D01*
X59885Y-30805D01*
X59916Y-30866D01*
X60035Y-30901D01*
X59705Y-30901D01*
X59511Y-30707D01*
X59511Y-30571D01*
X59719Y-30364D01*
X59692Y-30452D01*
X59709Y-30616D01*
X59740Y-30689D01*
X59800Y-30720D01*
X60029Y-30492D01*
X60023Y-30486D01*
X60108Y-30401D01*
X60114Y-30407D01*
X60342Y-30178D01*
X60311Y-30117D01*
X60153Y-30070D01*
X59996Y-30087D01*
X60504Y-29579D01*
X60504Y-29579D01*
X60556Y-29501D01*
X60574Y-29409D01*
X60574Y-29409D01*
X60574Y-28779D01*
X60556Y-28687D01*
X60504Y-28609D01*
X60272Y-28378D01*
X68590Y-28378D01*
X68938Y-28725D01*
X68938Y-33002D01*
X68954Y-33084D01*
X69000Y-33154D01*
X70055Y-34208D01*
X70055Y-47023D01*
M02*
