G04 (created by PCBNEW (2013-05-31 BZR 4019)-stable) date 20/03/2014 22:02:18*
%MOIN*%
G04 Gerber Fmt 3.4, Leading zero omitted, Abs format*
%FSLAX34Y34*%
G01*
G70*
G90*
G04 APERTURE LIST*
%ADD10C,0.00590551*%
%ADD11C,0.00393701*%
%ADD12C,0.00787402*%
%ADD13C,0.015*%
%ADD14C,0.005*%
%ADD15C,0.0039*%
%ADD16C,0.012*%
%ADD17C,0.0001*%
%ADD18C,0.0043*%
%ADD19C,0.0106*%
%ADD20C,0.0107*%
%ADD21C,0.01*%
G04 APERTURE END LIST*
G54D10*
G54D11*
X54838Y-36351D02*
X54658Y-36351D01*
X54748Y-36351D02*
X54748Y-36036D01*
X54718Y-36081D01*
X54688Y-36111D01*
X54658Y-36126D01*
X53672Y-47725D02*
X53492Y-47725D01*
X53582Y-47725D02*
X53582Y-47410D01*
X53552Y-47455D01*
X53522Y-47485D01*
X53492Y-47500D01*
X62491Y-47725D02*
X62311Y-47725D01*
X62401Y-47725D02*
X62401Y-47410D01*
X62371Y-47455D01*
X62341Y-47485D01*
X62311Y-47500D01*
X68712Y-30088D02*
X68532Y-30088D01*
X68622Y-30088D02*
X68622Y-29773D01*
X68592Y-29818D01*
X68562Y-29848D01*
X68532Y-29863D01*
X54212Y-43099D02*
X54032Y-43099D01*
X54122Y-43099D02*
X54122Y-42784D01*
X54092Y-42829D01*
X54062Y-42859D01*
X54032Y-42874D01*
X44287Y-42332D02*
X44287Y-42017D01*
X44467Y-42332D02*
X44332Y-42152D01*
X44467Y-42017D02*
X44287Y-42197D01*
X44208Y-38395D02*
X44208Y-38080D01*
X44388Y-38395D02*
X44253Y-38215D01*
X44388Y-38080D02*
X44208Y-38260D01*
X54919Y-40007D02*
X55159Y-40007D01*
X55039Y-40127D02*
X55039Y-39887D01*
X61257Y-33983D02*
X61497Y-33983D01*
X61377Y-34103D02*
X61377Y-33863D01*
X46257Y-34023D02*
X46497Y-34023D01*
X46377Y-34143D02*
X46377Y-33903D01*
X57242Y-45676D02*
X57482Y-45676D01*
X57362Y-45796D02*
X57362Y-45556D01*
X60404Y-29851D02*
X60224Y-29851D01*
X60314Y-29851D02*
X60314Y-29536D01*
X60284Y-29581D01*
X60254Y-29611D01*
X60224Y-29626D01*
G54D12*
X43509Y-41095D02*
X43490Y-41140D01*
X43490Y-41215D01*
X43509Y-41245D01*
X43528Y-41260D01*
X43565Y-41275D01*
X43603Y-41275D01*
X43640Y-41260D01*
X43659Y-41245D01*
X43678Y-41215D01*
X43696Y-41155D01*
X43715Y-41125D01*
X43734Y-41110D01*
X43771Y-41095D01*
X43809Y-41095D01*
X43846Y-41110D01*
X43865Y-41125D01*
X43884Y-41155D01*
X43884Y-41230D01*
X43865Y-41275D01*
X43490Y-41410D02*
X43884Y-41410D01*
X43865Y-41725D02*
X43884Y-41695D01*
X43884Y-41650D01*
X43865Y-41605D01*
X43828Y-41575D01*
X43790Y-41560D01*
X43715Y-41545D01*
X43659Y-41545D01*
X43584Y-41560D01*
X43546Y-41575D01*
X43509Y-41605D01*
X43490Y-41650D01*
X43490Y-41680D01*
X43509Y-41725D01*
X43528Y-41740D01*
X43659Y-41740D01*
X43659Y-41680D01*
X43440Y-38747D02*
X43628Y-38642D01*
X43440Y-38567D02*
X43834Y-38567D01*
X43834Y-38687D01*
X43815Y-38717D01*
X43796Y-38732D01*
X43759Y-38747D01*
X43703Y-38747D01*
X43665Y-38732D01*
X43646Y-38717D01*
X43628Y-38687D01*
X43628Y-38567D01*
X43646Y-38987D02*
X43646Y-38882D01*
X43440Y-38882D02*
X43834Y-38882D01*
X43834Y-39032D01*
X43440Y-39317D02*
X43440Y-39137D01*
X43440Y-39227D02*
X43834Y-39227D01*
X43778Y-39197D01*
X43740Y-39167D01*
X43721Y-39137D01*
X43796Y-39437D02*
X43815Y-39452D01*
X43834Y-39482D01*
X43834Y-39557D01*
X43815Y-39587D01*
X43796Y-39602D01*
X43759Y-39617D01*
X43721Y-39617D01*
X43665Y-39602D01*
X43440Y-39422D01*
X43440Y-39617D01*
X43865Y-40042D02*
X43884Y-40012D01*
X43884Y-39967D01*
X43865Y-39922D01*
X43828Y-39892D01*
X43790Y-39877D01*
X43715Y-39862D01*
X43659Y-39862D01*
X43584Y-39877D01*
X43546Y-39892D01*
X43509Y-39922D01*
X43490Y-39967D01*
X43490Y-39997D01*
X43509Y-40042D01*
X43528Y-40057D01*
X43659Y-40057D01*
X43659Y-39997D01*
X43490Y-40192D02*
X43884Y-40192D01*
X43884Y-40312D01*
X43865Y-40342D01*
X43846Y-40357D01*
X43809Y-40372D01*
X43753Y-40372D01*
X43715Y-40357D01*
X43696Y-40342D01*
X43678Y-40312D01*
X43678Y-40192D01*
X43509Y-40492D02*
X43490Y-40537D01*
X43490Y-40612D01*
X43509Y-40642D01*
X43528Y-40657D01*
X43565Y-40672D01*
X43603Y-40672D01*
X43640Y-40657D01*
X43659Y-40642D01*
X43678Y-40612D01*
X43696Y-40552D01*
X43715Y-40522D01*
X43734Y-40507D01*
X43771Y-40492D01*
X43809Y-40492D01*
X43846Y-40507D01*
X43865Y-40522D01*
X43884Y-40552D01*
X43884Y-40627D01*
X43865Y-40672D01*
G54D13*
X41212Y-37440D02*
X41685Y-34979D01*
X40937Y-37420D02*
X41390Y-34959D01*
X40681Y-37440D02*
X41114Y-34979D01*
X40405Y-37420D02*
X40819Y-34979D01*
X40150Y-37440D02*
X40543Y-34959D01*
X46390Y-37440D02*
X39559Y-37440D01*
X39559Y-37440D02*
X39559Y-34979D01*
X39559Y-34979D02*
X39559Y-34959D01*
X39559Y-34959D02*
X43909Y-34959D01*
X43909Y-36200D02*
X43909Y-34959D01*
X43909Y-34959D02*
X46390Y-34959D01*
X46390Y-34959D02*
X46390Y-36200D01*
X46390Y-36200D02*
X46390Y-37440D01*
X46390Y-37440D02*
X43909Y-37440D01*
X43909Y-37440D02*
X43909Y-36200D01*
X69804Y-35214D02*
G75*
G03X69804Y-35214I-683J0D01*
G74*
G01*
X69775Y-46234D02*
G75*
G03X69775Y-46234I-684J0D01*
G74*
G01*
X54350Y-48763D02*
X54600Y-48513D01*
X54600Y-48513D02*
X54850Y-48763D01*
X54850Y-48763D02*
X55350Y-48763D01*
X55350Y-48763D02*
X55600Y-48513D01*
X55600Y-48513D02*
X55850Y-48763D01*
X55850Y-48763D02*
X56350Y-48763D01*
X56350Y-48763D02*
X56600Y-48513D01*
X56600Y-48513D02*
X56850Y-48763D01*
X56850Y-48763D02*
X57350Y-48763D01*
X57350Y-48763D02*
X57600Y-48513D01*
X57600Y-48513D02*
X57850Y-48763D01*
X57850Y-48763D02*
X58350Y-48763D01*
X58350Y-48763D02*
X58600Y-48513D01*
X58600Y-48513D02*
X58850Y-48763D01*
X58850Y-48763D02*
X59350Y-48763D01*
X59350Y-48763D02*
X59600Y-48513D01*
X59600Y-48513D02*
X59850Y-48763D01*
X59850Y-48763D02*
X60350Y-48763D01*
X60350Y-48763D02*
X60600Y-48513D01*
X60600Y-48513D02*
X60850Y-48763D01*
X60850Y-48763D02*
X61350Y-48763D01*
X61350Y-48763D02*
X61600Y-48513D01*
X61600Y-48013D02*
X61350Y-47763D01*
X61600Y-48013D02*
X61600Y-48513D01*
X55600Y-48013D02*
X55850Y-47763D01*
X55850Y-47763D02*
X56350Y-47763D01*
X56350Y-47763D02*
X56600Y-48013D01*
X56600Y-48013D02*
X56850Y-47763D01*
X56850Y-47763D02*
X57350Y-47763D01*
X57350Y-47763D02*
X57600Y-48013D01*
X57600Y-48013D02*
X57850Y-47763D01*
X57850Y-47763D02*
X58350Y-47763D01*
X58350Y-47763D02*
X58600Y-48013D01*
X58600Y-48013D02*
X58850Y-47763D01*
X58850Y-47763D02*
X59350Y-47763D01*
X59350Y-47763D02*
X59600Y-48013D01*
X59600Y-48013D02*
X59850Y-47763D01*
X59850Y-47763D02*
X60350Y-47763D01*
X60350Y-47763D02*
X60600Y-48013D01*
X60600Y-48013D02*
X60850Y-47763D01*
X60850Y-47763D02*
X61350Y-47763D01*
X54350Y-47763D02*
X54600Y-48013D01*
X54600Y-48013D02*
X54850Y-47763D01*
X54850Y-47763D02*
X55350Y-47763D01*
X55350Y-47763D02*
X55600Y-48013D01*
X53850Y-48763D02*
X53600Y-48513D01*
X53850Y-48763D02*
X54350Y-48763D01*
X53850Y-47763D02*
X53600Y-48013D01*
X53850Y-47763D02*
X54350Y-47763D01*
X53600Y-48513D02*
X53600Y-48013D01*
X67870Y-28683D02*
X67620Y-28933D01*
X67620Y-28933D02*
X67370Y-28683D01*
X67370Y-28683D02*
X66870Y-28683D01*
X66870Y-28683D02*
X66620Y-28933D01*
X66620Y-28933D02*
X66370Y-28683D01*
X66370Y-28683D02*
X65870Y-28683D01*
X65870Y-28683D02*
X65620Y-28933D01*
X65620Y-28933D02*
X65370Y-28683D01*
X65370Y-28683D02*
X64870Y-28683D01*
X64870Y-28683D02*
X64620Y-28933D01*
X64620Y-28933D02*
X64370Y-28683D01*
X64370Y-28683D02*
X63870Y-28683D01*
X63870Y-28683D02*
X63620Y-28933D01*
X63620Y-28933D02*
X63370Y-28683D01*
X63370Y-28683D02*
X62870Y-28683D01*
X62870Y-28683D02*
X62620Y-28933D01*
X62620Y-28933D02*
X62370Y-28683D01*
X62370Y-28683D02*
X61870Y-28683D01*
X61870Y-28683D02*
X61620Y-28933D01*
X61620Y-28933D02*
X61370Y-28683D01*
X61370Y-28683D02*
X60870Y-28683D01*
X60870Y-28683D02*
X60620Y-28933D01*
X60620Y-29433D02*
X60870Y-29683D01*
X60620Y-29433D02*
X60620Y-28933D01*
X66620Y-29433D02*
X66370Y-29683D01*
X66370Y-29683D02*
X65870Y-29683D01*
X65870Y-29683D02*
X65620Y-29433D01*
X65620Y-29433D02*
X65370Y-29683D01*
X65370Y-29683D02*
X64870Y-29683D01*
X64870Y-29683D02*
X64620Y-29433D01*
X64620Y-29433D02*
X64370Y-29683D01*
X64370Y-29683D02*
X63870Y-29683D01*
X63870Y-29683D02*
X63620Y-29433D01*
X63620Y-29433D02*
X63370Y-29683D01*
X63370Y-29683D02*
X62870Y-29683D01*
X62870Y-29683D02*
X62620Y-29433D01*
X62620Y-29433D02*
X62370Y-29683D01*
X62370Y-29683D02*
X61870Y-29683D01*
X61870Y-29683D02*
X61620Y-29433D01*
X61620Y-29433D02*
X61370Y-29683D01*
X61370Y-29683D02*
X60870Y-29683D01*
X67870Y-29683D02*
X67620Y-29433D01*
X67620Y-29433D02*
X67370Y-29683D01*
X67370Y-29683D02*
X66870Y-29683D01*
X66870Y-29683D02*
X66620Y-29433D01*
X68370Y-28683D02*
X68620Y-28933D01*
X68370Y-28683D02*
X67870Y-28683D01*
X68370Y-29683D02*
X68620Y-29433D01*
X68370Y-29683D02*
X67870Y-29683D01*
X68620Y-28933D02*
X68620Y-29433D01*
X68340Y-48763D02*
X68590Y-48513D01*
X68340Y-47763D02*
X68590Y-48013D01*
X68590Y-48513D02*
X68590Y-48013D01*
X65540Y-48563D02*
X65590Y-48513D01*
X65590Y-48513D02*
X65840Y-48763D01*
X65840Y-48763D02*
X66340Y-48763D01*
X66340Y-48763D02*
X66590Y-48513D01*
X66590Y-48513D02*
X66840Y-48763D01*
X66840Y-48763D02*
X67340Y-48763D01*
X67340Y-48763D02*
X67590Y-48513D01*
X67590Y-48513D02*
X67840Y-48763D01*
X67840Y-48763D02*
X68340Y-48763D01*
X64590Y-48513D02*
X64840Y-48763D01*
X64840Y-48763D02*
X65340Y-48763D01*
X65340Y-48763D02*
X65540Y-48563D01*
X64840Y-47763D02*
X65340Y-47763D01*
X65340Y-47763D02*
X65590Y-48013D01*
X65590Y-48013D02*
X65790Y-47763D01*
X65790Y-47763D02*
X66340Y-47763D01*
X66340Y-47763D02*
X66590Y-48013D01*
X66590Y-48013D02*
X66790Y-47763D01*
X66790Y-47763D02*
X67340Y-47763D01*
X67340Y-47763D02*
X67590Y-48013D01*
X67590Y-48013D02*
X67790Y-47763D01*
X67790Y-47763D02*
X68340Y-47763D01*
X64590Y-48013D02*
X64840Y-47763D01*
X63590Y-48513D02*
X63840Y-48763D01*
X63840Y-48763D02*
X64340Y-48763D01*
X64340Y-48763D02*
X64590Y-48513D01*
X64590Y-48013D02*
X64340Y-47763D01*
X64340Y-47763D02*
X63840Y-47763D01*
X63840Y-47763D02*
X63590Y-48013D01*
X63590Y-48513D02*
X63340Y-48763D01*
X63590Y-48013D02*
X63340Y-47763D01*
X62840Y-48763D02*
X62590Y-48513D01*
X62840Y-48763D02*
X63340Y-48763D01*
X62840Y-47763D02*
X62590Y-48013D01*
X62840Y-47763D02*
X63340Y-47763D01*
X62590Y-48013D02*
X62590Y-48513D01*
X60110Y-28923D02*
X59860Y-28673D01*
X59860Y-28673D02*
X59360Y-28673D01*
X59360Y-28673D02*
X59110Y-28923D01*
X59110Y-28923D02*
X58860Y-28673D01*
X58860Y-28673D02*
X58360Y-28673D01*
X58360Y-28673D02*
X58110Y-28923D01*
X58110Y-28923D02*
X57860Y-28673D01*
X57860Y-28673D02*
X57360Y-28673D01*
X57360Y-28673D02*
X57110Y-28923D01*
X57110Y-28923D02*
X56860Y-28673D01*
X56860Y-28673D02*
X56360Y-28673D01*
X56360Y-28673D02*
X56110Y-28923D01*
X56110Y-28923D02*
X55860Y-28673D01*
X55860Y-28673D02*
X55360Y-28673D01*
X55360Y-28673D02*
X55110Y-28923D01*
X55110Y-28923D02*
X54860Y-28673D01*
X54860Y-28673D02*
X54360Y-28673D01*
X54360Y-28673D02*
X54110Y-28923D01*
X54110Y-28923D02*
X53860Y-28673D01*
X53860Y-28673D02*
X53360Y-28673D01*
X53360Y-28673D02*
X53110Y-28923D01*
X53110Y-28923D02*
X52860Y-28673D01*
X52860Y-28673D02*
X52360Y-28673D01*
X52360Y-28673D02*
X52110Y-28923D01*
X52110Y-28923D02*
X51860Y-28673D01*
X51860Y-28673D02*
X51410Y-28673D01*
X51410Y-28673D02*
X51360Y-28673D01*
X51360Y-28673D02*
X51110Y-28923D01*
X51110Y-28923D02*
X50860Y-28673D01*
X50860Y-28673D02*
X50360Y-28673D01*
X50360Y-28673D02*
X50110Y-28923D01*
X58360Y-29673D02*
X58110Y-29423D01*
X58110Y-29423D02*
X57860Y-29673D01*
X57860Y-29673D02*
X57360Y-29673D01*
X57360Y-29673D02*
X57110Y-29423D01*
X57110Y-29423D02*
X56860Y-29673D01*
X56860Y-29673D02*
X56360Y-29673D01*
X56360Y-29673D02*
X56110Y-29423D01*
X56110Y-29423D02*
X55860Y-29673D01*
X55860Y-29673D02*
X55360Y-29673D01*
X55360Y-29673D02*
X55110Y-29423D01*
X55110Y-29423D02*
X54860Y-29673D01*
X54860Y-29673D02*
X54360Y-29673D01*
X54360Y-29673D02*
X54110Y-29423D01*
X54110Y-29423D02*
X53860Y-29673D01*
X53860Y-29673D02*
X53360Y-29673D01*
X53360Y-29673D02*
X53110Y-29423D01*
X53110Y-29423D02*
X52860Y-29673D01*
X52860Y-29673D02*
X52360Y-29673D01*
X52360Y-29673D02*
X52110Y-29423D01*
X52110Y-29423D02*
X51860Y-29673D01*
X51860Y-29673D02*
X51360Y-29673D01*
X51360Y-29673D02*
X51110Y-29423D01*
X51110Y-29423D02*
X50860Y-29673D01*
X50860Y-29673D02*
X50360Y-29673D01*
X50360Y-29673D02*
X50110Y-29423D01*
X50110Y-29423D02*
X50110Y-28923D01*
X59360Y-29673D02*
X59110Y-29423D01*
X59110Y-29423D02*
X58860Y-29673D01*
X58860Y-29673D02*
X58360Y-29673D01*
X60110Y-29423D02*
X59860Y-29673D01*
X59860Y-29673D02*
X59360Y-29673D01*
X60110Y-29423D02*
X60110Y-28923D01*
X41112Y-32290D02*
X41585Y-29829D01*
X40837Y-32270D02*
X41290Y-29809D01*
X40581Y-32290D02*
X41014Y-29829D01*
X40305Y-32270D02*
X40719Y-29829D01*
X40050Y-32290D02*
X40443Y-29809D01*
X46290Y-32290D02*
X39459Y-32290D01*
X39459Y-32290D02*
X39459Y-29829D01*
X39459Y-29829D02*
X39459Y-29809D01*
X39459Y-29809D02*
X43809Y-29809D01*
X43809Y-31050D02*
X43809Y-29809D01*
X43809Y-29809D02*
X46290Y-29809D01*
X46290Y-29809D02*
X46290Y-31050D01*
X46290Y-31050D02*
X46290Y-32290D01*
X46290Y-32290D02*
X43809Y-32290D01*
X43809Y-32290D02*
X43809Y-31050D01*
X41262Y-45690D02*
X41735Y-43229D01*
X40987Y-45670D02*
X41440Y-43209D01*
X40731Y-45690D02*
X41164Y-43229D01*
X40455Y-45670D02*
X40869Y-43229D01*
X40200Y-45690D02*
X40593Y-43209D01*
X46440Y-45690D02*
X39609Y-45690D01*
X39609Y-45690D02*
X39609Y-43229D01*
X39609Y-43229D02*
X39609Y-43209D01*
X39609Y-43209D02*
X43959Y-43209D01*
X43959Y-44450D02*
X43959Y-43209D01*
X43959Y-43209D02*
X46440Y-43209D01*
X46440Y-43209D02*
X46440Y-44450D01*
X46440Y-44450D02*
X46440Y-45690D01*
X46440Y-45690D02*
X43959Y-45690D01*
X43959Y-45690D02*
X43959Y-44450D01*
G54D14*
X46807Y-33698D02*
X46807Y-32798D01*
X46807Y-32798D02*
X46157Y-32798D01*
X45457Y-33698D02*
X44807Y-33698D01*
X44807Y-33698D02*
X44807Y-32798D01*
X44807Y-32798D02*
X45457Y-32798D01*
X46157Y-33698D02*
X46807Y-33698D01*
X61590Y-32900D02*
X61590Y-33800D01*
X61590Y-33800D02*
X62240Y-33800D01*
X62940Y-32900D02*
X63590Y-32900D01*
X63590Y-32900D02*
X63590Y-33800D01*
X63590Y-33800D02*
X62940Y-33800D01*
X62240Y-32900D02*
X61590Y-32900D01*
X58560Y-45338D02*
X57660Y-45338D01*
X57660Y-45338D02*
X57660Y-45988D01*
X58560Y-46688D02*
X58560Y-47338D01*
X58560Y-47338D02*
X57660Y-47338D01*
X57660Y-47338D02*
X57660Y-46688D01*
X58560Y-45988D02*
X58560Y-45338D01*
X55022Y-39740D02*
X55922Y-39740D01*
X55922Y-39740D02*
X55922Y-39090D01*
X55022Y-38390D02*
X55022Y-37740D01*
X55022Y-37740D02*
X55922Y-37740D01*
X55922Y-37740D02*
X55922Y-38390D01*
X55022Y-39090D02*
X55022Y-39740D01*
G54D15*
X45400Y-38785D02*
G75*
G03X45400Y-38785I-50J0D01*
G74*
G01*
X44900Y-38785D02*
X45300Y-38785D01*
X45300Y-38785D02*
X45300Y-39385D01*
X45300Y-39385D02*
X44900Y-39385D01*
X44500Y-39385D02*
X44100Y-39385D01*
X44100Y-39385D02*
X44100Y-38785D01*
X44100Y-38785D02*
X44500Y-38785D01*
X46900Y-38785D02*
G75*
G03X46900Y-38785I-50J0D01*
G74*
G01*
X46400Y-38785D02*
X46800Y-38785D01*
X46800Y-38785D02*
X46800Y-39385D01*
X46800Y-39385D02*
X46400Y-39385D01*
X46000Y-39385D02*
X45600Y-39385D01*
X45600Y-39385D02*
X45600Y-38785D01*
X45600Y-38785D02*
X46000Y-38785D01*
X54562Y-38996D02*
G75*
G03X54562Y-38996I-50J0D01*
G74*
G01*
X54512Y-38546D02*
X54512Y-38946D01*
X54512Y-38946D02*
X53912Y-38946D01*
X53912Y-38946D02*
X53912Y-38546D01*
X53912Y-38146D02*
X53912Y-37746D01*
X53912Y-37746D02*
X54512Y-37746D01*
X54512Y-37746D02*
X54512Y-38146D01*
X61959Y-34788D02*
G75*
G03X61959Y-34788I-50J0D01*
G74*
G01*
X62359Y-34788D02*
X61959Y-34788D01*
X61959Y-34788D02*
X61959Y-34188D01*
X61959Y-34188D02*
X62359Y-34188D01*
X62759Y-34188D02*
X63159Y-34188D01*
X63159Y-34188D02*
X63159Y-34788D01*
X63159Y-34788D02*
X62759Y-34788D01*
X63050Y-45450D02*
G75*
G03X63050Y-45450I-50J0D01*
G74*
G01*
X63000Y-45900D02*
X63000Y-45500D01*
X63000Y-45500D02*
X63600Y-45500D01*
X63600Y-45500D02*
X63600Y-45900D01*
X63600Y-46300D02*
X63600Y-46700D01*
X63600Y-46700D02*
X63000Y-46700D01*
X63000Y-46700D02*
X63000Y-46300D01*
X67450Y-33950D02*
G75*
G03X67450Y-33950I-50J0D01*
G74*
G01*
X67400Y-33500D02*
X67400Y-33900D01*
X67400Y-33900D02*
X66800Y-33900D01*
X66800Y-33900D02*
X66800Y-33500D01*
X66800Y-33100D02*
X66800Y-32700D01*
X66800Y-32700D02*
X67400Y-32700D01*
X67400Y-32700D02*
X67400Y-33100D01*
X66450Y-33950D02*
G75*
G03X66450Y-33950I-50J0D01*
G74*
G01*
X66400Y-33500D02*
X66400Y-33900D01*
X66400Y-33900D02*
X65800Y-33900D01*
X65800Y-33900D02*
X65800Y-33500D01*
X65800Y-33100D02*
X65800Y-32700D01*
X65800Y-32700D02*
X66400Y-32700D01*
X66400Y-32700D02*
X66400Y-33100D01*
X46900Y-41118D02*
G75*
G03X46900Y-41118I-50J0D01*
G74*
G01*
X46400Y-41118D02*
X46800Y-41118D01*
X46800Y-41118D02*
X46800Y-41718D01*
X46800Y-41718D02*
X46400Y-41718D01*
X46000Y-41718D02*
X45600Y-41718D01*
X45600Y-41718D02*
X45600Y-41118D01*
X45600Y-41118D02*
X46000Y-41118D01*
X45450Y-39967D02*
G75*
G03X45450Y-39967I-50J0D01*
G74*
G01*
X44950Y-39967D02*
X45350Y-39967D01*
X45350Y-39967D02*
X45350Y-40567D01*
X45350Y-40567D02*
X44950Y-40567D01*
X44550Y-40567D02*
X44150Y-40567D01*
X44150Y-40567D02*
X44150Y-39967D01*
X44150Y-39967D02*
X44550Y-39967D01*
X46900Y-39967D02*
G75*
G03X46900Y-39967I-50J0D01*
G74*
G01*
X46400Y-39967D02*
X46800Y-39967D01*
X46800Y-39967D02*
X46800Y-40567D01*
X46800Y-40567D02*
X46400Y-40567D01*
X46000Y-40567D02*
X45600Y-40567D01*
X45600Y-40567D02*
X45600Y-39967D01*
X45600Y-39967D02*
X46000Y-39967D01*
X59120Y-45531D02*
G75*
G03X59120Y-45531I-50J0D01*
G74*
G01*
X59070Y-45981D02*
X59070Y-45581D01*
X59070Y-45581D02*
X59670Y-45581D01*
X59670Y-45581D02*
X59670Y-45981D01*
X59670Y-46381D02*
X59670Y-46781D01*
X59670Y-46781D02*
X59070Y-46781D01*
X59070Y-46781D02*
X59070Y-46381D01*
X60277Y-45527D02*
G75*
G03X60277Y-45527I-50J0D01*
G74*
G01*
X60227Y-45977D02*
X60227Y-45577D01*
X60227Y-45577D02*
X60827Y-45577D01*
X60827Y-45577D02*
X60827Y-45977D01*
X60827Y-46377D02*
X60827Y-46777D01*
X60827Y-46777D02*
X60227Y-46777D01*
X60227Y-46777D02*
X60227Y-46377D01*
X65850Y-46750D02*
G75*
G03X65850Y-46750I-50J0D01*
G74*
G01*
X65800Y-46300D02*
X65800Y-46700D01*
X65800Y-46700D02*
X65200Y-46700D01*
X65200Y-46700D02*
X65200Y-46300D01*
X65200Y-45900D02*
X65200Y-45500D01*
X65200Y-45500D02*
X65800Y-45500D01*
X65800Y-45500D02*
X65800Y-45900D01*
X66900Y-46750D02*
G75*
G03X66900Y-46750I-50J0D01*
G74*
G01*
X66850Y-46300D02*
X66850Y-46700D01*
X66850Y-46700D02*
X66250Y-46700D01*
X66250Y-46700D02*
X66250Y-46300D01*
X66250Y-45900D02*
X66250Y-45500D01*
X66250Y-45500D02*
X66850Y-45500D01*
X66850Y-45500D02*
X66850Y-45900D01*
X64750Y-46750D02*
G75*
G03X64750Y-46750I-50J0D01*
G74*
G01*
X64700Y-46300D02*
X64700Y-46700D01*
X64700Y-46700D02*
X64100Y-46700D01*
X64100Y-46700D02*
X64100Y-46300D01*
X64100Y-45900D02*
X64100Y-45500D01*
X64100Y-45500D02*
X64700Y-45500D01*
X64700Y-45500D02*
X64700Y-45900D01*
X67950Y-46750D02*
G75*
G03X67950Y-46750I-50J0D01*
G74*
G01*
X67900Y-46300D02*
X67900Y-46700D01*
X67900Y-46700D02*
X67300Y-46700D01*
X67300Y-46700D02*
X67300Y-46300D01*
X67300Y-45900D02*
X67300Y-45500D01*
X67300Y-45500D02*
X67900Y-45500D01*
X67900Y-45500D02*
X67900Y-45900D01*
X45450Y-41118D02*
G75*
G03X45450Y-41118I-50J0D01*
G74*
G01*
X44950Y-41118D02*
X45350Y-41118D01*
X45350Y-41118D02*
X45350Y-41718D01*
X45350Y-41718D02*
X44950Y-41718D01*
X44550Y-41718D02*
X44150Y-41718D01*
X44150Y-41718D02*
X44150Y-41118D01*
X44150Y-41118D02*
X44550Y-41118D01*
G54D16*
X49996Y-48767D02*
X49996Y-47767D01*
X49996Y-47767D02*
X52996Y-47767D01*
X52996Y-47767D02*
X52996Y-48767D01*
X52996Y-48767D02*
X49996Y-48767D01*
X50996Y-47767D02*
X50996Y-48767D01*
X67600Y-31250D02*
X67600Y-32250D01*
X67600Y-32250D02*
X57600Y-32250D01*
X57600Y-32250D02*
X57600Y-31250D01*
X57600Y-31250D02*
X67600Y-31250D01*
X66600Y-31250D02*
X66600Y-32250D01*
G54D13*
X53330Y-31392D02*
X53330Y-35408D01*
X53330Y-35408D02*
X51519Y-35408D01*
X51519Y-35408D02*
X51519Y-31392D01*
X51519Y-31392D02*
X53330Y-31392D01*
X53980Y-36569D02*
X47720Y-36569D01*
X47720Y-36569D02*
X47700Y-30231D01*
X47700Y-30231D02*
X53980Y-30231D01*
X53980Y-30231D02*
X53980Y-36569D01*
G54D15*
X61206Y-42538D02*
G75*
G03X61206Y-42538I-50J0D01*
G74*
G01*
X61156Y-42988D02*
X61156Y-42588D01*
X61156Y-42588D02*
X61756Y-42588D01*
X61756Y-42588D02*
X61756Y-42988D01*
X61756Y-43388D02*
X61756Y-43788D01*
X61756Y-43788D02*
X61156Y-43788D01*
X61156Y-43788D02*
X61156Y-43388D01*
X63735Y-43838D02*
G75*
G03X63735Y-43838I-50J0D01*
G74*
G01*
X63685Y-43388D02*
X63685Y-43788D01*
X63685Y-43788D02*
X63085Y-43788D01*
X63085Y-43788D02*
X63085Y-43388D01*
X63085Y-42988D02*
X63085Y-42588D01*
X63085Y-42588D02*
X63685Y-42588D01*
X63685Y-42588D02*
X63685Y-42988D01*
X62151Y-42538D02*
G75*
G03X62151Y-42538I-50J0D01*
G74*
G01*
X62101Y-42988D02*
X62101Y-42588D01*
X62101Y-42588D02*
X62701Y-42588D01*
X62701Y-42588D02*
X62701Y-42988D01*
X62701Y-43388D02*
X62701Y-43788D01*
X62701Y-43788D02*
X62101Y-43788D01*
X62101Y-43788D02*
X62101Y-43388D01*
G54D16*
X63614Y-30992D02*
X63614Y-30992D01*
X63614Y-29992D02*
X63614Y-30992D01*
X63614Y-30992D02*
X63614Y-30992D01*
X63614Y-30992D02*
X59614Y-30992D01*
X59614Y-30992D02*
X59614Y-29992D01*
X59614Y-29992D02*
X63614Y-29992D01*
X62614Y-29992D02*
X62614Y-30992D01*
G54D13*
X49789Y-29303D02*
G75*
G03X49789Y-29303I-669J0D01*
G74*
G01*
X49289Y-48193D02*
G75*
G03X49289Y-48193I-669J0D01*
G74*
G01*
G54D17*
G36*
X68209Y-41061D02*
X68199Y-41096D01*
X68177Y-41096D01*
X68133Y-41053D01*
X68066Y-40972D01*
X67949Y-40837D01*
X67813Y-40700D01*
X67669Y-40567D01*
X67526Y-40446D01*
X67393Y-40346D01*
X67280Y-40274D01*
X67197Y-40237D01*
X67164Y-40237D01*
X67071Y-40260D01*
X67004Y-40269D01*
X67004Y-40136D01*
X66998Y-40125D01*
X66966Y-40093D01*
X66961Y-40091D01*
X66958Y-40113D01*
X66965Y-40125D01*
X66996Y-40156D01*
X67002Y-40158D01*
X67004Y-40136D01*
X67004Y-40269D01*
X66926Y-40281D01*
X66855Y-40287D01*
X66855Y-40158D01*
X66682Y-40039D01*
X66509Y-39944D01*
X66303Y-39879D01*
X66253Y-39871D01*
X66253Y-39758D01*
X66249Y-39734D01*
X66212Y-39673D01*
X66159Y-39600D01*
X66027Y-39398D01*
X65900Y-39142D01*
X65778Y-38828D01*
X65658Y-38453D01*
X65630Y-38358D01*
X65504Y-37925D01*
X65385Y-37551D01*
X65270Y-37228D01*
X65156Y-36948D01*
X65038Y-36705D01*
X64914Y-36490D01*
X64779Y-36296D01*
X64632Y-36116D01*
X64522Y-35998D01*
X64319Y-35813D01*
X64075Y-35627D01*
X63814Y-35457D01*
X63558Y-35319D01*
X63460Y-35275D01*
X63356Y-35231D01*
X63416Y-35470D01*
X63443Y-35591D01*
X63475Y-35759D01*
X63508Y-35954D01*
X63539Y-36155D01*
X63547Y-36208D01*
X63629Y-36734D01*
X63719Y-37200D01*
X63819Y-37615D01*
X63931Y-37985D01*
X64057Y-38317D01*
X64199Y-38619D01*
X64360Y-38898D01*
X64399Y-38959D01*
X64528Y-39131D01*
X64686Y-39312D01*
X64856Y-39481D01*
X65017Y-39617D01*
X65048Y-39640D01*
X65114Y-39682D01*
X65172Y-39703D01*
X65246Y-39707D01*
X65356Y-39697D01*
X65404Y-39691D01*
X65522Y-39682D01*
X65667Y-39681D01*
X65822Y-39685D01*
X65970Y-39695D01*
X66095Y-39710D01*
X66181Y-39727D01*
X66208Y-39740D01*
X66253Y-39758D01*
X66253Y-39871D01*
X66055Y-39840D01*
X65754Y-39826D01*
X65715Y-39826D01*
X65561Y-39828D01*
X65466Y-39831D01*
X65420Y-39838D01*
X65416Y-39851D01*
X65444Y-39870D01*
X65449Y-39873D01*
X65617Y-39947D01*
X65833Y-40015D01*
X66079Y-40075D01*
X66336Y-40120D01*
X66586Y-40148D01*
X66710Y-40154D01*
X66855Y-40158D01*
X66855Y-40287D01*
X66746Y-40298D01*
X66545Y-40310D01*
X66339Y-40317D01*
X66144Y-40317D01*
X66052Y-40314D01*
X65752Y-40292D01*
X65501Y-40253D01*
X65286Y-40194D01*
X65089Y-40112D01*
X65071Y-40102D01*
X64976Y-40061D01*
X64904Y-40043D01*
X64879Y-40047D01*
X64885Y-40084D01*
X64928Y-40153D01*
X64999Y-40241D01*
X65075Y-40329D01*
X65128Y-40398D01*
X65148Y-40433D01*
X65128Y-40457D01*
X65082Y-40440D01*
X65048Y-40408D01*
X64994Y-40366D01*
X64967Y-40358D01*
X64923Y-40333D01*
X64864Y-40272D01*
X64851Y-40255D01*
X64799Y-40191D01*
X64764Y-40175D01*
X64724Y-40199D01*
X64715Y-40208D01*
X64657Y-40279D01*
X64614Y-40360D01*
X64577Y-40428D01*
X64544Y-40458D01*
X64543Y-40458D01*
X64528Y-40431D01*
X64537Y-40361D01*
X64567Y-40266D01*
X64605Y-40180D01*
X64629Y-40118D01*
X64626Y-40067D01*
X64586Y-40020D01*
X64501Y-39968D01*
X64363Y-39900D01*
X64343Y-39891D01*
X64181Y-39828D01*
X64181Y-39708D01*
X64165Y-39691D01*
X64148Y-39708D01*
X64165Y-39725D01*
X64181Y-39708D01*
X64181Y-39828D01*
X64162Y-39821D01*
X63984Y-39776D01*
X63822Y-39758D01*
X63691Y-39767D01*
X63604Y-39807D01*
X63600Y-39810D01*
X63560Y-39857D01*
X63569Y-39892D01*
X63610Y-39928D01*
X63671Y-39995D01*
X63668Y-40044D01*
X63601Y-40077D01*
X63491Y-40074D01*
X63403Y-40018D01*
X63360Y-39935D01*
X63356Y-39823D01*
X63409Y-39742D01*
X63520Y-39690D01*
X63689Y-39667D01*
X63848Y-39668D01*
X64131Y-39682D01*
X63965Y-39605D01*
X63821Y-39547D01*
X63659Y-39494D01*
X63500Y-39452D01*
X63368Y-39428D01*
X63316Y-39425D01*
X63205Y-39444D01*
X63120Y-39493D01*
X63070Y-39558D01*
X63062Y-39627D01*
X63104Y-39687D01*
X63140Y-39707D01*
X63198Y-39747D01*
X63193Y-39782D01*
X63129Y-39808D01*
X63051Y-39818D01*
X62927Y-39814D01*
X62853Y-39773D01*
X62819Y-39685D01*
X62815Y-39605D01*
X62827Y-39497D01*
X62870Y-39422D01*
X62952Y-39374D01*
X63082Y-39350D01*
X63268Y-39343D01*
X63280Y-39343D01*
X63617Y-39379D01*
X63951Y-39481D01*
X64281Y-39649D01*
X64538Y-39828D01*
X64636Y-39900D01*
X64714Y-39949D01*
X64758Y-39965D01*
X64762Y-39962D01*
X64747Y-39929D01*
X64690Y-39872D01*
X64628Y-39822D01*
X64468Y-39676D01*
X64303Y-39479D01*
X64145Y-39246D01*
X64005Y-38992D01*
X63996Y-38975D01*
X63902Y-38761D01*
X63817Y-38533D01*
X63742Y-38281D01*
X63674Y-38000D01*
X63612Y-37681D01*
X63554Y-37316D01*
X63499Y-36900D01*
X63448Y-36460D01*
X63411Y-36135D01*
X63375Y-35868D01*
X63340Y-35652D01*
X63305Y-35479D01*
X63267Y-35342D01*
X63233Y-35249D01*
X63201Y-35170D01*
X63200Y-35134D01*
X63230Y-35125D01*
X63253Y-35125D01*
X63325Y-35141D01*
X63441Y-35187D01*
X63586Y-35254D01*
X63747Y-35337D01*
X63911Y-35427D01*
X64063Y-35518D01*
X64192Y-35604D01*
X64221Y-35625D01*
X64546Y-35910D01*
X64836Y-36245D01*
X65085Y-36619D01*
X65282Y-37022D01*
X65285Y-37028D01*
X65334Y-37156D01*
X65393Y-37327D01*
X65456Y-37519D01*
X65516Y-37710D01*
X65520Y-37725D01*
X65581Y-37928D01*
X65646Y-38147D01*
X65708Y-38355D01*
X65758Y-38521D01*
X65805Y-38676D01*
X65839Y-38769D01*
X65866Y-38804D01*
X65890Y-38781D01*
X65917Y-38705D01*
X65944Y-38605D01*
X66010Y-38442D01*
X66131Y-38243D01*
X66306Y-38009D01*
X66519Y-37758D01*
X66723Y-37515D01*
X66924Y-37248D01*
X67108Y-36977D01*
X67261Y-36725D01*
X67288Y-36675D01*
X67368Y-36500D01*
X67446Y-36293D01*
X67511Y-36080D01*
X67556Y-35889D01*
X67564Y-35833D01*
X67583Y-35735D01*
X67607Y-35672D01*
X67623Y-35658D01*
X67640Y-35690D01*
X67645Y-35787D01*
X67639Y-35949D01*
X67638Y-35964D01*
X67644Y-36355D01*
X67716Y-36745D01*
X67802Y-37013D01*
X67894Y-37262D01*
X67965Y-37461D01*
X68017Y-37623D01*
X68052Y-37760D01*
X68075Y-37884D01*
X68088Y-38008D01*
X68093Y-38143D01*
X68095Y-38225D01*
X68093Y-38416D01*
X68084Y-38564D01*
X68065Y-38690D01*
X68048Y-38755D01*
X68048Y-38256D01*
X68031Y-38074D01*
X67982Y-37835D01*
X67901Y-37541D01*
X67787Y-37194D01*
X67751Y-37091D01*
X67695Y-36924D01*
X67646Y-36763D01*
X67610Y-36627D01*
X67593Y-36544D01*
X67571Y-36380D01*
X67431Y-36661D01*
X67366Y-36786D01*
X67275Y-36951D01*
X67167Y-37140D01*
X67054Y-37335D01*
X66981Y-37458D01*
X66798Y-37770D01*
X66651Y-38036D01*
X66537Y-38265D01*
X66453Y-38465D01*
X66397Y-38644D01*
X66364Y-38811D01*
X66351Y-38974D01*
X66353Y-39086D01*
X66390Y-39339D01*
X66475Y-39574D01*
X66599Y-39772D01*
X66614Y-39791D01*
X66678Y-39841D01*
X66785Y-39902D01*
X66917Y-39967D01*
X67053Y-40026D01*
X67175Y-40070D01*
X67253Y-40088D01*
X67279Y-40063D01*
X67332Y-39993D01*
X67403Y-39890D01*
X67463Y-39800D01*
X67677Y-39440D01*
X67845Y-39093D01*
X67964Y-38766D01*
X68032Y-38465D01*
X68048Y-38256D01*
X68048Y-38755D01*
X68032Y-38818D01*
X68020Y-38856D01*
X67938Y-39079D01*
X67825Y-39329D01*
X67694Y-39583D01*
X67556Y-39817D01*
X67519Y-39875D01*
X67385Y-40075D01*
X67483Y-40085D01*
X67561Y-40103D01*
X67575Y-40130D01*
X67525Y-40158D01*
X67477Y-40170D01*
X67373Y-40191D01*
X67569Y-40322D01*
X67752Y-40456D01*
X67915Y-40600D01*
X68049Y-40742D01*
X68147Y-40876D01*
X68202Y-40991D01*
X68209Y-41061D01*
X68209Y-41061D01*
X68209Y-41061D01*
G37*
G54D13*
X51728Y-46860D02*
X51728Y-47260D01*
X49728Y-46860D02*
X49728Y-47260D01*
X49728Y-37260D02*
X49728Y-36660D01*
X51728Y-37260D02*
X51728Y-36660D01*
X52978Y-44960D02*
X52978Y-44760D01*
X52978Y-44760D02*
X53478Y-44760D01*
X53478Y-44760D02*
X53478Y-44960D01*
X53478Y-44960D02*
X52978Y-44960D01*
X52978Y-44960D02*
X52978Y-44860D01*
X52978Y-44860D02*
X53428Y-44860D01*
X47928Y-44960D02*
X48478Y-44960D01*
X48478Y-44960D02*
X48478Y-44760D01*
X48478Y-44760D02*
X47928Y-44760D01*
X47928Y-44760D02*
X47928Y-44960D01*
X53478Y-44860D02*
X53478Y-44910D01*
X53478Y-44910D02*
X53028Y-44910D01*
X52978Y-44810D02*
X53478Y-44810D01*
X47978Y-44910D02*
X48378Y-44910D01*
X47928Y-44810D02*
X48478Y-44810D01*
X50178Y-46710D02*
X49478Y-45210D01*
X49478Y-46710D02*
X49478Y-45210D01*
X49478Y-45210D02*
X50178Y-45210D01*
X50178Y-45210D02*
X50178Y-46710D01*
X50178Y-46710D02*
X49478Y-46710D01*
X49478Y-46710D02*
X50178Y-45210D01*
X48228Y-46960D02*
X48228Y-36960D01*
X48228Y-36960D02*
X53228Y-36960D01*
X53228Y-36960D02*
X53228Y-46960D01*
X53228Y-46960D02*
X48228Y-46960D01*
G54D16*
X44950Y-33892D02*
X44950Y-34321D01*
X44921Y-34407D01*
X44864Y-34464D01*
X44778Y-34492D01*
X44721Y-34492D01*
X45550Y-34492D02*
X45207Y-34492D01*
X45378Y-34492D02*
X45378Y-33892D01*
X45321Y-33978D01*
X45264Y-34035D01*
X45207Y-34064D01*
X40989Y-38422D02*
X41074Y-38450D01*
X41217Y-38450D01*
X41274Y-38422D01*
X41303Y-38393D01*
X41331Y-38336D01*
X41331Y-38279D01*
X41303Y-38222D01*
X41274Y-38193D01*
X41217Y-38165D01*
X41103Y-38136D01*
X41046Y-38107D01*
X41017Y-38079D01*
X40989Y-38022D01*
X40989Y-37965D01*
X41017Y-37907D01*
X41046Y-37879D01*
X41103Y-37850D01*
X41246Y-37850D01*
X41331Y-37879D01*
X41589Y-38450D02*
X41589Y-37850D01*
X41789Y-38279D01*
X41989Y-37850D01*
X41989Y-38450D01*
X42246Y-38279D02*
X42531Y-38279D01*
X42189Y-38450D02*
X42389Y-37850D01*
X42589Y-38450D01*
X42646Y-38507D02*
X43103Y-38507D01*
X43160Y-37850D02*
X43503Y-37850D01*
X43331Y-38450D02*
X43331Y-37850D01*
X43703Y-38450D02*
X43703Y-37850D01*
X43703Y-38136D02*
X44046Y-38136D01*
X44046Y-38450D02*
X44046Y-37850D01*
X52833Y-50087D02*
X52805Y-50116D01*
X52719Y-50144D01*
X52662Y-50144D01*
X52576Y-50116D01*
X52519Y-50059D01*
X52490Y-50002D01*
X52462Y-49887D01*
X52462Y-49802D01*
X52490Y-49687D01*
X52519Y-49630D01*
X52576Y-49573D01*
X52662Y-49544D01*
X52719Y-49544D01*
X52805Y-49573D01*
X52833Y-49602D01*
X53205Y-49544D02*
X53319Y-49544D01*
X53376Y-49573D01*
X53433Y-49630D01*
X53462Y-49744D01*
X53462Y-49944D01*
X53433Y-50059D01*
X53376Y-50116D01*
X53319Y-50144D01*
X53205Y-50144D01*
X53147Y-50116D01*
X53090Y-50059D01*
X53062Y-49944D01*
X53062Y-49744D01*
X53090Y-49630D01*
X53147Y-49573D01*
X53205Y-49544D01*
X53719Y-50144D02*
X53719Y-49544D01*
X54062Y-50144D01*
X54062Y-49544D01*
X54347Y-50144D02*
X54347Y-49544D01*
X54690Y-50144D01*
X54690Y-49544D01*
X54833Y-50202D02*
X55290Y-50202D01*
X55519Y-49802D02*
X55462Y-49773D01*
X55433Y-49744D01*
X55405Y-49687D01*
X55405Y-49659D01*
X55433Y-49602D01*
X55462Y-49573D01*
X55519Y-49544D01*
X55633Y-49544D01*
X55690Y-49573D01*
X55719Y-49602D01*
X55747Y-49659D01*
X55747Y-49687D01*
X55719Y-49744D01*
X55690Y-49773D01*
X55633Y-49802D01*
X55519Y-49802D01*
X55462Y-49830D01*
X55433Y-49859D01*
X55405Y-49916D01*
X55405Y-50030D01*
X55433Y-50087D01*
X55462Y-50116D01*
X55519Y-50144D01*
X55633Y-50144D01*
X55690Y-50116D01*
X55719Y-50087D01*
X55747Y-50030D01*
X55747Y-49916D01*
X55719Y-49859D01*
X55690Y-49830D01*
X55633Y-49802D01*
X63278Y-27485D02*
X63250Y-27514D01*
X63164Y-27542D01*
X63107Y-27542D01*
X63021Y-27514D01*
X62964Y-27457D01*
X62935Y-27400D01*
X62907Y-27285D01*
X62907Y-27200D01*
X62935Y-27085D01*
X62964Y-27028D01*
X63021Y-26971D01*
X63107Y-26942D01*
X63164Y-26942D01*
X63250Y-26971D01*
X63278Y-27000D01*
X63650Y-26942D02*
X63764Y-26942D01*
X63821Y-26971D01*
X63878Y-27028D01*
X63907Y-27142D01*
X63907Y-27342D01*
X63878Y-27457D01*
X63821Y-27514D01*
X63764Y-27542D01*
X63650Y-27542D01*
X63592Y-27514D01*
X63535Y-27457D01*
X63507Y-27342D01*
X63507Y-27142D01*
X63535Y-27028D01*
X63592Y-26971D01*
X63650Y-26942D01*
X64164Y-27542D02*
X64164Y-26942D01*
X64507Y-27542D01*
X64507Y-26942D01*
X64792Y-27542D02*
X64792Y-26942D01*
X65135Y-27542D01*
X65135Y-26942D01*
X65278Y-27600D02*
X65735Y-27600D01*
X65964Y-27200D02*
X65907Y-27171D01*
X65878Y-27142D01*
X65850Y-27085D01*
X65850Y-27057D01*
X65878Y-27000D01*
X65907Y-26971D01*
X65964Y-26942D01*
X66078Y-26942D01*
X66135Y-26971D01*
X66164Y-27000D01*
X66192Y-27057D01*
X66192Y-27085D01*
X66164Y-27142D01*
X66135Y-27171D01*
X66078Y-27200D01*
X65964Y-27200D01*
X65907Y-27228D01*
X65878Y-27257D01*
X65850Y-27314D01*
X65850Y-27428D01*
X65878Y-27485D01*
X65907Y-27514D01*
X65964Y-27542D01*
X66078Y-27542D01*
X66135Y-27514D01*
X66164Y-27485D01*
X66192Y-27428D01*
X66192Y-27314D01*
X66164Y-27257D01*
X66135Y-27228D01*
X66078Y-27200D01*
X61823Y-50087D02*
X61795Y-50116D01*
X61709Y-50144D01*
X61652Y-50144D01*
X61566Y-50116D01*
X61509Y-50059D01*
X61480Y-50002D01*
X61452Y-49887D01*
X61452Y-49802D01*
X61480Y-49687D01*
X61509Y-49630D01*
X61566Y-49573D01*
X61652Y-49544D01*
X61709Y-49544D01*
X61795Y-49573D01*
X61823Y-49602D01*
X62195Y-49544D02*
X62309Y-49544D01*
X62366Y-49573D01*
X62423Y-49630D01*
X62452Y-49744D01*
X62452Y-49944D01*
X62423Y-50059D01*
X62366Y-50116D01*
X62309Y-50144D01*
X62195Y-50144D01*
X62137Y-50116D01*
X62080Y-50059D01*
X62052Y-49944D01*
X62052Y-49744D01*
X62080Y-49630D01*
X62137Y-49573D01*
X62195Y-49544D01*
X62709Y-50144D02*
X62709Y-49544D01*
X63052Y-50144D01*
X63052Y-49544D01*
X63337Y-50144D02*
X63337Y-49544D01*
X63680Y-50144D01*
X63680Y-49544D01*
X63823Y-50202D02*
X64280Y-50202D01*
X64680Y-49544D02*
X64566Y-49544D01*
X64509Y-49573D01*
X64480Y-49602D01*
X64423Y-49687D01*
X64395Y-49802D01*
X64395Y-50030D01*
X64423Y-50087D01*
X64452Y-50116D01*
X64509Y-50144D01*
X64623Y-50144D01*
X64680Y-50116D01*
X64709Y-50087D01*
X64737Y-50030D01*
X64737Y-49887D01*
X64709Y-49830D01*
X64680Y-49802D01*
X64623Y-49773D01*
X64509Y-49773D01*
X64452Y-49802D01*
X64423Y-49830D01*
X64395Y-49887D01*
X53442Y-27485D02*
X53414Y-27514D01*
X53328Y-27542D01*
X53271Y-27542D01*
X53185Y-27514D01*
X53128Y-27457D01*
X53100Y-27400D01*
X53071Y-27285D01*
X53071Y-27200D01*
X53100Y-27085D01*
X53128Y-27028D01*
X53185Y-26971D01*
X53271Y-26942D01*
X53328Y-26942D01*
X53414Y-26971D01*
X53442Y-27000D01*
X53814Y-26942D02*
X53928Y-26942D01*
X53985Y-26971D01*
X54042Y-27028D01*
X54071Y-27142D01*
X54071Y-27342D01*
X54042Y-27457D01*
X53985Y-27514D01*
X53928Y-27542D01*
X53814Y-27542D01*
X53757Y-27514D01*
X53700Y-27457D01*
X53671Y-27342D01*
X53671Y-27142D01*
X53700Y-27028D01*
X53757Y-26971D01*
X53814Y-26942D01*
X54328Y-27542D02*
X54328Y-26942D01*
X54671Y-27542D01*
X54671Y-26942D01*
X54957Y-27542D02*
X54957Y-26942D01*
X55299Y-27542D01*
X55299Y-26942D01*
X55442Y-27600D02*
X55899Y-27600D01*
X56357Y-27542D02*
X56014Y-27542D01*
X56185Y-27542D02*
X56185Y-26942D01*
X56128Y-27028D01*
X56071Y-27085D01*
X56014Y-27114D01*
X56728Y-26942D02*
X56785Y-26942D01*
X56842Y-26971D01*
X56871Y-27000D01*
X56899Y-27057D01*
X56928Y-27171D01*
X56928Y-27314D01*
X56899Y-27428D01*
X56871Y-27485D01*
X56842Y-27514D01*
X56785Y-27542D01*
X56728Y-27542D01*
X56671Y-27514D01*
X56642Y-27485D01*
X56614Y-27428D01*
X56585Y-27314D01*
X56585Y-27171D01*
X56614Y-27057D01*
X56642Y-27000D01*
X56671Y-26971D01*
X56728Y-26942D01*
X44850Y-28742D02*
X44850Y-29171D01*
X44821Y-29257D01*
X44764Y-29314D01*
X44678Y-29342D01*
X44621Y-29342D01*
X45107Y-28800D02*
X45135Y-28771D01*
X45192Y-28742D01*
X45335Y-28742D01*
X45392Y-28771D01*
X45421Y-28800D01*
X45450Y-28857D01*
X45450Y-28914D01*
X45421Y-29000D01*
X45078Y-29342D01*
X45450Y-29342D01*
X40889Y-33272D02*
X40974Y-33300D01*
X41117Y-33300D01*
X41174Y-33272D01*
X41203Y-33243D01*
X41231Y-33186D01*
X41231Y-33129D01*
X41203Y-33072D01*
X41174Y-33043D01*
X41117Y-33015D01*
X41003Y-32986D01*
X40946Y-32957D01*
X40917Y-32929D01*
X40889Y-32872D01*
X40889Y-32815D01*
X40917Y-32757D01*
X40946Y-32729D01*
X41003Y-32700D01*
X41146Y-32700D01*
X41231Y-32729D01*
X41489Y-33300D02*
X41489Y-32700D01*
X41689Y-33129D01*
X41889Y-32700D01*
X41889Y-33300D01*
X42146Y-33129D02*
X42431Y-33129D01*
X42089Y-33300D02*
X42289Y-32700D01*
X42489Y-33300D01*
X42546Y-33357D02*
X43003Y-33357D01*
X43060Y-32700D02*
X43403Y-32700D01*
X43231Y-33300D02*
X43231Y-32700D01*
X43603Y-33300D02*
X43603Y-32700D01*
X43603Y-32986D02*
X43946Y-32986D01*
X43946Y-33300D02*
X43946Y-32700D01*
X44603Y-46257D02*
X44603Y-46685D01*
X44574Y-46771D01*
X44517Y-46828D01*
X44431Y-46857D01*
X44374Y-46857D01*
X44831Y-46257D02*
X45203Y-46257D01*
X45003Y-46485D01*
X45088Y-46485D01*
X45146Y-46514D01*
X45174Y-46542D01*
X45203Y-46599D01*
X45203Y-46742D01*
X45174Y-46799D01*
X45146Y-46828D01*
X45088Y-46857D01*
X44917Y-46857D01*
X44860Y-46828D01*
X44831Y-46799D01*
X41039Y-46672D02*
X41124Y-46700D01*
X41267Y-46700D01*
X41324Y-46672D01*
X41353Y-46643D01*
X41381Y-46586D01*
X41381Y-46529D01*
X41353Y-46472D01*
X41324Y-46443D01*
X41267Y-46415D01*
X41153Y-46386D01*
X41096Y-46357D01*
X41067Y-46329D01*
X41039Y-46272D01*
X41039Y-46215D01*
X41067Y-46157D01*
X41096Y-46129D01*
X41153Y-46100D01*
X41296Y-46100D01*
X41381Y-46129D01*
X41639Y-46700D02*
X41639Y-46100D01*
X41839Y-46529D01*
X42039Y-46100D01*
X42039Y-46700D01*
X42296Y-46529D02*
X42581Y-46529D01*
X42239Y-46700D02*
X42439Y-46100D01*
X42639Y-46700D01*
X42696Y-46757D02*
X43153Y-46757D01*
X43210Y-46100D02*
X43553Y-46100D01*
X43381Y-46700D02*
X43381Y-46100D01*
X43753Y-46700D02*
X43753Y-46100D01*
X43753Y-46386D02*
X44096Y-46386D01*
X44096Y-46700D02*
X44096Y-46100D01*
G54D14*
X44221Y-34033D02*
X44207Y-34048D01*
X44164Y-34062D01*
X44135Y-34062D01*
X44093Y-34048D01*
X44064Y-34019D01*
X44050Y-33990D01*
X44035Y-33933D01*
X44035Y-33890D01*
X44050Y-33833D01*
X44064Y-33805D01*
X44093Y-33776D01*
X44135Y-33762D01*
X44164Y-33762D01*
X44207Y-33776D01*
X44221Y-33790D01*
X44364Y-34062D02*
X44421Y-34062D01*
X44450Y-34048D01*
X44464Y-34033D01*
X44493Y-33990D01*
X44507Y-33933D01*
X44507Y-33819D01*
X44493Y-33790D01*
X44478Y-33776D01*
X44450Y-33762D01*
X44393Y-33762D01*
X44364Y-33776D01*
X44350Y-33790D01*
X44335Y-33819D01*
X44335Y-33890D01*
X44350Y-33919D01*
X44364Y-33933D01*
X44393Y-33948D01*
X44450Y-33948D01*
X44478Y-33933D01*
X44493Y-33919D01*
X44507Y-33890D01*
X61068Y-32888D02*
X61053Y-32902D01*
X61010Y-32916D01*
X60982Y-32916D01*
X60939Y-32902D01*
X60910Y-32873D01*
X60896Y-32845D01*
X60882Y-32788D01*
X60882Y-32745D01*
X60896Y-32688D01*
X60910Y-32659D01*
X60939Y-32630D01*
X60982Y-32616D01*
X61010Y-32616D01*
X61053Y-32630D01*
X61068Y-32645D01*
X61182Y-32645D02*
X61196Y-32630D01*
X61225Y-32616D01*
X61296Y-32616D01*
X61325Y-32630D01*
X61339Y-32645D01*
X61353Y-32673D01*
X61353Y-32702D01*
X61339Y-32745D01*
X61168Y-32916D01*
X61353Y-32916D01*
X58060Y-45081D02*
X58045Y-45095D01*
X58003Y-45110D01*
X57974Y-45110D01*
X57931Y-45095D01*
X57903Y-45067D01*
X57888Y-45038D01*
X57874Y-44981D01*
X57874Y-44938D01*
X57888Y-44881D01*
X57903Y-44852D01*
X57931Y-44824D01*
X57974Y-44810D01*
X58003Y-44810D01*
X58045Y-44824D01*
X58060Y-44838D01*
X58331Y-44810D02*
X58188Y-44810D01*
X58174Y-44952D01*
X58188Y-44938D01*
X58217Y-44924D01*
X58288Y-44924D01*
X58317Y-44938D01*
X58331Y-44952D01*
X58345Y-44981D01*
X58345Y-45052D01*
X58331Y-45081D01*
X58317Y-45095D01*
X58288Y-45110D01*
X58217Y-45110D01*
X58188Y-45095D01*
X58174Y-45081D01*
X55461Y-40289D02*
X55447Y-40303D01*
X55404Y-40318D01*
X55376Y-40318D01*
X55333Y-40303D01*
X55304Y-40275D01*
X55290Y-40246D01*
X55276Y-40189D01*
X55276Y-40146D01*
X55290Y-40089D01*
X55304Y-40061D01*
X55333Y-40032D01*
X55376Y-40018D01*
X55404Y-40018D01*
X55447Y-40032D01*
X55461Y-40046D01*
X55561Y-40018D02*
X55761Y-40018D01*
X55633Y-40318D01*
G54D18*
X44559Y-38603D02*
X44559Y-38406D01*
X44606Y-38406D01*
X44634Y-38415D01*
X44653Y-38434D01*
X44662Y-38453D01*
X44671Y-38490D01*
X44671Y-38518D01*
X44662Y-38556D01*
X44653Y-38575D01*
X44634Y-38593D01*
X44606Y-38603D01*
X44559Y-38603D01*
X44859Y-38603D02*
X44746Y-38603D01*
X44803Y-38603D02*
X44803Y-38406D01*
X44784Y-38434D01*
X44765Y-38453D01*
X44746Y-38462D01*
X44069Y-38415D02*
X43976Y-38415D01*
X43976Y-38218D01*
X44135Y-38311D02*
X44201Y-38311D01*
X44229Y-38415D02*
X44135Y-38415D01*
X44135Y-38218D01*
X44229Y-38218D01*
X44313Y-38415D02*
X44313Y-38218D01*
X44360Y-38218D01*
X44388Y-38227D01*
X44407Y-38246D01*
X44416Y-38265D01*
X44426Y-38302D01*
X44426Y-38330D01*
X44416Y-38368D01*
X44407Y-38387D01*
X44388Y-38405D01*
X44360Y-38415D01*
X44313Y-38415D01*
X44764Y-38227D02*
X44745Y-38218D01*
X44717Y-38218D01*
X44689Y-38227D01*
X44670Y-38246D01*
X44660Y-38265D01*
X44651Y-38302D01*
X44651Y-38330D01*
X44660Y-38368D01*
X44670Y-38387D01*
X44689Y-38405D01*
X44717Y-38415D01*
X44735Y-38415D01*
X44764Y-38405D01*
X44773Y-38396D01*
X44773Y-38330D01*
X44735Y-38330D01*
X44970Y-38415D02*
X44904Y-38321D01*
X44857Y-38415D02*
X44857Y-38218D01*
X44932Y-38218D01*
X44951Y-38227D01*
X44961Y-38236D01*
X44970Y-38255D01*
X44970Y-38283D01*
X44961Y-38302D01*
X44951Y-38311D01*
X44932Y-38321D01*
X44857Y-38321D01*
X45054Y-38311D02*
X45120Y-38311D01*
X45148Y-38415D02*
X45054Y-38415D01*
X45054Y-38218D01*
X45148Y-38218D01*
X45233Y-38311D02*
X45298Y-38311D01*
X45326Y-38415D02*
X45233Y-38415D01*
X45233Y-38218D01*
X45326Y-38218D01*
X45411Y-38415D02*
X45411Y-38218D01*
X45523Y-38415D01*
X45523Y-38218D01*
X46167Y-38603D02*
X46102Y-38509D01*
X46055Y-38603D02*
X46055Y-38406D01*
X46130Y-38406D01*
X46149Y-38415D01*
X46158Y-38425D01*
X46167Y-38443D01*
X46167Y-38472D01*
X46158Y-38490D01*
X46149Y-38500D01*
X46130Y-38509D01*
X46055Y-38509D01*
X46336Y-38406D02*
X46299Y-38406D01*
X46280Y-38415D01*
X46271Y-38425D01*
X46252Y-38453D01*
X46243Y-38490D01*
X46243Y-38565D01*
X46252Y-38584D01*
X46261Y-38593D01*
X46280Y-38603D01*
X46318Y-38603D01*
X46336Y-38593D01*
X46346Y-38584D01*
X46355Y-38565D01*
X46355Y-38518D01*
X46346Y-38500D01*
X46336Y-38490D01*
X46318Y-38481D01*
X46280Y-38481D01*
X46261Y-38490D01*
X46252Y-38500D01*
X46243Y-38518D01*
X45857Y-38836D02*
X45866Y-38827D01*
X45885Y-38818D01*
X45932Y-38818D01*
X45951Y-38827D01*
X45960Y-38836D01*
X45970Y-38855D01*
X45970Y-38874D01*
X45960Y-38902D01*
X45848Y-39015D01*
X45970Y-39015D01*
X46045Y-38836D02*
X46054Y-38827D01*
X46073Y-38818D01*
X46120Y-38818D01*
X46139Y-38827D01*
X46148Y-38836D01*
X46157Y-38855D01*
X46157Y-38874D01*
X46148Y-38902D01*
X46035Y-39015D01*
X46157Y-39015D01*
X46279Y-38818D02*
X46298Y-38818D01*
X46317Y-38827D01*
X46326Y-38836D01*
X46336Y-38855D01*
X46345Y-38893D01*
X46345Y-38940D01*
X46336Y-38977D01*
X46326Y-38996D01*
X46317Y-39005D01*
X46298Y-39015D01*
X46279Y-39015D01*
X46260Y-39005D01*
X46251Y-38996D01*
X46242Y-38977D01*
X46232Y-38940D01*
X46232Y-38893D01*
X46242Y-38855D01*
X46251Y-38836D01*
X46260Y-38827D01*
X46279Y-38818D01*
X46542Y-39015D02*
X46476Y-38921D01*
X46429Y-39015D02*
X46429Y-38818D01*
X46504Y-38818D01*
X46523Y-38827D01*
X46533Y-38836D01*
X46542Y-38855D01*
X46542Y-38883D01*
X46533Y-38902D01*
X46523Y-38911D01*
X46504Y-38921D01*
X46429Y-38921D01*
X54171Y-37537D02*
X54162Y-37546D01*
X54134Y-37556D01*
X54115Y-37556D01*
X54087Y-37546D01*
X54068Y-37527D01*
X54059Y-37509D01*
X54049Y-37471D01*
X54049Y-37443D01*
X54059Y-37406D01*
X54068Y-37387D01*
X54087Y-37368D01*
X54115Y-37359D01*
X54134Y-37359D01*
X54162Y-37368D01*
X54171Y-37377D01*
X54359Y-37556D02*
X54246Y-37556D01*
X54303Y-37556D02*
X54303Y-37359D01*
X54284Y-37387D01*
X54265Y-37406D01*
X54246Y-37415D01*
X54245Y-38670D02*
X54245Y-38651D01*
X54254Y-38632D01*
X54264Y-38623D01*
X54282Y-38613D01*
X54320Y-38604D01*
X54367Y-38604D01*
X54404Y-38613D01*
X54423Y-38623D01*
X54432Y-38632D01*
X54442Y-38651D01*
X54442Y-38670D01*
X54432Y-38688D01*
X54423Y-38698D01*
X54404Y-38707D01*
X54367Y-38717D01*
X54320Y-38717D01*
X54282Y-38707D01*
X54264Y-38698D01*
X54254Y-38688D01*
X54245Y-38670D01*
X54423Y-38520D02*
X54432Y-38510D01*
X54442Y-38520D01*
X54432Y-38529D01*
X54423Y-38520D01*
X54442Y-38520D01*
X54442Y-38323D02*
X54442Y-38435D01*
X54442Y-38379D02*
X54245Y-38379D01*
X54273Y-38398D01*
X54292Y-38416D01*
X54301Y-38435D01*
X54311Y-38154D02*
X54442Y-38154D01*
X54311Y-38238D02*
X54414Y-38238D01*
X54432Y-38229D01*
X54442Y-38210D01*
X54442Y-38182D01*
X54432Y-38163D01*
X54423Y-38154D01*
X54339Y-37994D02*
X54339Y-38060D01*
X54442Y-38060D02*
X54245Y-38060D01*
X54245Y-37966D01*
X61576Y-34549D02*
X61566Y-34558D01*
X61538Y-34567D01*
X61519Y-34567D01*
X61491Y-34558D01*
X61473Y-34539D01*
X61463Y-34521D01*
X61454Y-34483D01*
X61454Y-34455D01*
X61463Y-34417D01*
X61473Y-34399D01*
X61491Y-34380D01*
X61519Y-34370D01*
X61538Y-34370D01*
X61566Y-34380D01*
X61576Y-34389D01*
X61745Y-34370D02*
X61707Y-34370D01*
X61688Y-34380D01*
X61679Y-34389D01*
X61660Y-34417D01*
X61651Y-34455D01*
X61651Y-34530D01*
X61660Y-34549D01*
X61670Y-34558D01*
X61688Y-34567D01*
X61726Y-34567D01*
X61745Y-34558D01*
X61754Y-34549D01*
X61763Y-34530D01*
X61763Y-34483D01*
X61754Y-34464D01*
X61745Y-34455D01*
X61726Y-34445D01*
X61688Y-34445D01*
X61670Y-34455D01*
X61660Y-34464D01*
X61651Y-34483D01*
X62235Y-34520D02*
X62254Y-34520D01*
X62272Y-34530D01*
X62282Y-34539D01*
X62291Y-34558D01*
X62301Y-34595D01*
X62301Y-34642D01*
X62291Y-34680D01*
X62282Y-34699D01*
X62272Y-34708D01*
X62254Y-34717D01*
X62235Y-34717D01*
X62216Y-34708D01*
X62207Y-34699D01*
X62197Y-34680D01*
X62188Y-34642D01*
X62188Y-34595D01*
X62197Y-34558D01*
X62207Y-34539D01*
X62216Y-34530D01*
X62235Y-34520D01*
X62385Y-34699D02*
X62394Y-34708D01*
X62385Y-34717D01*
X62376Y-34708D01*
X62385Y-34699D01*
X62385Y-34717D01*
X62582Y-34717D02*
X62469Y-34717D01*
X62526Y-34717D02*
X62526Y-34520D01*
X62507Y-34549D01*
X62488Y-34567D01*
X62469Y-34577D01*
X62751Y-34586D02*
X62751Y-34717D01*
X62666Y-34586D02*
X62666Y-34689D01*
X62676Y-34708D01*
X62695Y-34717D01*
X62723Y-34717D01*
X62741Y-34708D01*
X62751Y-34699D01*
X62910Y-34614D02*
X62845Y-34614D01*
X62845Y-34717D02*
X62845Y-34520D01*
X62938Y-34520D01*
X63628Y-45197D02*
X63562Y-45104D01*
X63516Y-45197D02*
X63516Y-45000D01*
X63591Y-45000D01*
X63609Y-45010D01*
X63619Y-45019D01*
X63628Y-45038D01*
X63628Y-45066D01*
X63619Y-45085D01*
X63609Y-45094D01*
X63591Y-45104D01*
X63516Y-45104D01*
X63806Y-45000D02*
X63713Y-45000D01*
X63703Y-45094D01*
X63713Y-45085D01*
X63731Y-45075D01*
X63778Y-45075D01*
X63797Y-45085D01*
X63806Y-45094D01*
X63816Y-45113D01*
X63816Y-45160D01*
X63806Y-45179D01*
X63797Y-45188D01*
X63778Y-45197D01*
X63731Y-45197D01*
X63713Y-45188D01*
X63703Y-45179D01*
X63098Y-46254D02*
X63229Y-46254D01*
X63023Y-46301D02*
X63164Y-46348D01*
X63164Y-46226D01*
X63032Y-46170D02*
X63032Y-46039D01*
X63229Y-46123D01*
X63229Y-45963D02*
X63032Y-45963D01*
X63229Y-45851D02*
X63117Y-45935D01*
X63032Y-45851D02*
X63145Y-45963D01*
X67053Y-34292D02*
X66988Y-34198D01*
X66941Y-34292D02*
X66941Y-34095D01*
X67016Y-34095D01*
X67035Y-34104D01*
X67044Y-34114D01*
X67053Y-34132D01*
X67053Y-34161D01*
X67044Y-34179D01*
X67035Y-34189D01*
X67016Y-34198D01*
X66941Y-34198D01*
X67166Y-34179D02*
X67147Y-34170D01*
X67138Y-34161D01*
X67128Y-34142D01*
X67128Y-34132D01*
X67138Y-34114D01*
X67147Y-34104D01*
X67166Y-34095D01*
X67203Y-34095D01*
X67222Y-34104D01*
X67232Y-34114D01*
X67241Y-34132D01*
X67241Y-34142D01*
X67232Y-34161D01*
X67222Y-34170D01*
X67203Y-34179D01*
X67166Y-34179D01*
X67147Y-34189D01*
X67138Y-34198D01*
X67128Y-34217D01*
X67128Y-34254D01*
X67138Y-34273D01*
X67147Y-34282D01*
X67166Y-34292D01*
X67203Y-34292D01*
X67222Y-34282D01*
X67232Y-34273D01*
X67241Y-34254D01*
X67241Y-34217D01*
X67232Y-34198D01*
X67222Y-34189D01*
X67203Y-34179D01*
X67132Y-33407D02*
X67132Y-33389D01*
X67142Y-33370D01*
X67151Y-33360D01*
X67170Y-33351D01*
X67207Y-33342D01*
X67254Y-33342D01*
X67292Y-33351D01*
X67310Y-33360D01*
X67320Y-33370D01*
X67329Y-33389D01*
X67329Y-33407D01*
X67320Y-33426D01*
X67310Y-33436D01*
X67292Y-33445D01*
X67254Y-33454D01*
X67207Y-33454D01*
X67170Y-33445D01*
X67151Y-33436D01*
X67142Y-33426D01*
X67132Y-33407D01*
X67329Y-33145D02*
X67235Y-33210D01*
X67329Y-33257D02*
X67132Y-33257D01*
X67132Y-33182D01*
X67142Y-33163D01*
X67151Y-33154D01*
X67170Y-33145D01*
X67198Y-33145D01*
X67217Y-33154D01*
X67226Y-33163D01*
X67235Y-33182D01*
X67235Y-33257D01*
X66069Y-34292D02*
X66003Y-34198D01*
X65956Y-34292D02*
X65956Y-34095D01*
X66032Y-34095D01*
X66050Y-34104D01*
X66060Y-34114D01*
X66069Y-34132D01*
X66069Y-34161D01*
X66060Y-34179D01*
X66050Y-34189D01*
X66032Y-34198D01*
X65956Y-34198D01*
X66163Y-34292D02*
X66200Y-34292D01*
X66219Y-34282D01*
X66229Y-34273D01*
X66247Y-34245D01*
X66257Y-34207D01*
X66257Y-34132D01*
X66247Y-34114D01*
X66238Y-34104D01*
X66219Y-34095D01*
X66182Y-34095D01*
X66163Y-34104D01*
X66153Y-34114D01*
X66144Y-34132D01*
X66144Y-34179D01*
X66153Y-34198D01*
X66163Y-34207D01*
X66182Y-34217D01*
X66219Y-34217D01*
X66238Y-34207D01*
X66247Y-34198D01*
X66257Y-34179D01*
X66132Y-33407D02*
X66132Y-33389D01*
X66142Y-33370D01*
X66151Y-33360D01*
X66170Y-33351D01*
X66207Y-33342D01*
X66254Y-33342D01*
X66292Y-33351D01*
X66310Y-33360D01*
X66320Y-33370D01*
X66329Y-33389D01*
X66329Y-33407D01*
X66320Y-33426D01*
X66310Y-33436D01*
X66292Y-33445D01*
X66254Y-33454D01*
X66207Y-33454D01*
X66170Y-33445D01*
X66151Y-33436D01*
X66142Y-33426D01*
X66132Y-33407D01*
X66329Y-33145D02*
X66235Y-33210D01*
X66329Y-33257D02*
X66132Y-33257D01*
X66132Y-33182D01*
X66142Y-33163D01*
X66151Y-33154D01*
X66170Y-33145D01*
X66198Y-33145D01*
X66217Y-33154D01*
X66226Y-33163D01*
X66235Y-33182D01*
X66235Y-33257D01*
X46074Y-40945D02*
X46008Y-40852D01*
X45961Y-40945D02*
X45961Y-40748D01*
X46036Y-40748D01*
X46055Y-40758D01*
X46064Y-40767D01*
X46074Y-40786D01*
X46074Y-40814D01*
X46064Y-40833D01*
X46055Y-40842D01*
X46036Y-40852D01*
X45961Y-40852D01*
X46261Y-40945D02*
X46149Y-40945D01*
X46205Y-40945D02*
X46205Y-40748D01*
X46186Y-40777D01*
X46167Y-40795D01*
X46149Y-40805D01*
X46440Y-40748D02*
X46346Y-40748D01*
X46336Y-40842D01*
X46346Y-40833D01*
X46364Y-40823D01*
X46411Y-40823D01*
X46430Y-40833D01*
X46440Y-40842D01*
X46449Y-40861D01*
X46449Y-40908D01*
X46440Y-40927D01*
X46430Y-40936D01*
X46411Y-40945D01*
X46364Y-40945D01*
X46346Y-40936D01*
X46336Y-40927D01*
X45857Y-41169D02*
X45866Y-41160D01*
X45885Y-41150D01*
X45932Y-41150D01*
X45951Y-41160D01*
X45960Y-41169D01*
X45970Y-41188D01*
X45970Y-41207D01*
X45960Y-41235D01*
X45848Y-41347D01*
X45970Y-41347D01*
X46045Y-41169D02*
X46054Y-41160D01*
X46073Y-41150D01*
X46120Y-41150D01*
X46139Y-41160D01*
X46148Y-41169D01*
X46157Y-41188D01*
X46157Y-41207D01*
X46148Y-41235D01*
X46035Y-41347D01*
X46157Y-41347D01*
X46279Y-41150D02*
X46298Y-41150D01*
X46317Y-41160D01*
X46326Y-41169D01*
X46336Y-41188D01*
X46345Y-41225D01*
X46345Y-41272D01*
X46336Y-41310D01*
X46326Y-41329D01*
X46317Y-41338D01*
X46298Y-41347D01*
X46279Y-41347D01*
X46260Y-41338D01*
X46251Y-41329D01*
X46242Y-41310D01*
X46232Y-41272D01*
X46232Y-41225D01*
X46242Y-41188D01*
X46251Y-41169D01*
X46260Y-41160D01*
X46279Y-41150D01*
X46542Y-41347D02*
X46476Y-41254D01*
X46429Y-41347D02*
X46429Y-41150D01*
X46504Y-41150D01*
X46523Y-41160D01*
X46533Y-41169D01*
X46542Y-41188D01*
X46542Y-41216D01*
X46533Y-41235D01*
X46523Y-41244D01*
X46504Y-41254D01*
X46429Y-41254D01*
X44598Y-39784D02*
X44598Y-39587D01*
X44645Y-39587D01*
X44673Y-39596D01*
X44692Y-39615D01*
X44701Y-39634D01*
X44711Y-39671D01*
X44711Y-39700D01*
X44701Y-39737D01*
X44692Y-39756D01*
X44673Y-39775D01*
X44645Y-39784D01*
X44598Y-39784D01*
X44786Y-39606D02*
X44795Y-39596D01*
X44814Y-39587D01*
X44861Y-39587D01*
X44880Y-39596D01*
X44889Y-39606D01*
X44898Y-39624D01*
X44898Y-39643D01*
X44889Y-39671D01*
X44776Y-39784D01*
X44898Y-39784D01*
X44069Y-40197D02*
X43976Y-40197D01*
X43976Y-40000D01*
X44135Y-40093D02*
X44201Y-40093D01*
X44229Y-40197D02*
X44135Y-40197D01*
X44135Y-40000D01*
X44229Y-40000D01*
X44313Y-40197D02*
X44313Y-40000D01*
X44360Y-40000D01*
X44388Y-40009D01*
X44407Y-40028D01*
X44416Y-40046D01*
X44426Y-40084D01*
X44426Y-40112D01*
X44416Y-40150D01*
X44407Y-40168D01*
X44388Y-40187D01*
X44360Y-40197D01*
X44313Y-40197D01*
X44764Y-40009D02*
X44745Y-40000D01*
X44717Y-40000D01*
X44689Y-40009D01*
X44670Y-40028D01*
X44660Y-40046D01*
X44651Y-40084D01*
X44651Y-40112D01*
X44660Y-40150D01*
X44670Y-40168D01*
X44689Y-40187D01*
X44717Y-40197D01*
X44735Y-40197D01*
X44764Y-40187D01*
X44773Y-40178D01*
X44773Y-40112D01*
X44735Y-40112D01*
X44970Y-40197D02*
X44904Y-40103D01*
X44857Y-40197D02*
X44857Y-40000D01*
X44932Y-40000D01*
X44951Y-40009D01*
X44961Y-40018D01*
X44970Y-40037D01*
X44970Y-40065D01*
X44961Y-40084D01*
X44951Y-40093D01*
X44932Y-40103D01*
X44857Y-40103D01*
X45054Y-40093D02*
X45120Y-40093D01*
X45148Y-40197D02*
X45054Y-40197D01*
X45054Y-40000D01*
X45148Y-40000D01*
X45233Y-40093D02*
X45298Y-40093D01*
X45326Y-40197D02*
X45233Y-40197D01*
X45233Y-40000D01*
X45326Y-40000D01*
X45411Y-40197D02*
X45411Y-40000D01*
X45523Y-40197D01*
X45523Y-40000D01*
X46167Y-39784D02*
X46102Y-39690D01*
X46055Y-39784D02*
X46055Y-39587D01*
X46130Y-39587D01*
X46149Y-39596D01*
X46158Y-39606D01*
X46167Y-39624D01*
X46167Y-39653D01*
X46158Y-39671D01*
X46149Y-39681D01*
X46130Y-39690D01*
X46055Y-39690D01*
X46233Y-39587D02*
X46364Y-39587D01*
X46280Y-39784D01*
X45857Y-40018D02*
X45866Y-40009D01*
X45885Y-40000D01*
X45932Y-40000D01*
X45951Y-40009D01*
X45960Y-40018D01*
X45970Y-40037D01*
X45970Y-40056D01*
X45960Y-40084D01*
X45848Y-40197D01*
X45970Y-40197D01*
X46045Y-40018D02*
X46054Y-40009D01*
X46073Y-40000D01*
X46120Y-40000D01*
X46139Y-40009D01*
X46148Y-40018D01*
X46157Y-40037D01*
X46157Y-40056D01*
X46148Y-40084D01*
X46035Y-40197D01*
X46157Y-40197D01*
X46279Y-40000D02*
X46298Y-40000D01*
X46317Y-40009D01*
X46326Y-40018D01*
X46336Y-40037D01*
X46345Y-40075D01*
X46345Y-40122D01*
X46336Y-40159D01*
X46326Y-40178D01*
X46317Y-40187D01*
X46298Y-40197D01*
X46279Y-40197D01*
X46260Y-40187D01*
X46251Y-40178D01*
X46242Y-40159D01*
X46232Y-40122D01*
X46232Y-40075D01*
X46242Y-40037D01*
X46251Y-40018D01*
X46260Y-40009D01*
X46279Y-40000D01*
X46542Y-40197D02*
X46476Y-40103D01*
X46429Y-40197D02*
X46429Y-40000D01*
X46504Y-40000D01*
X46523Y-40009D01*
X46533Y-40018D01*
X46542Y-40037D01*
X46542Y-40065D01*
X46533Y-40084D01*
X46523Y-40093D01*
X46504Y-40103D01*
X46429Y-40103D01*
X59337Y-45292D02*
X59327Y-45301D01*
X59299Y-45310D01*
X59280Y-45310D01*
X59252Y-45301D01*
X59234Y-45282D01*
X59224Y-45263D01*
X59215Y-45226D01*
X59215Y-45198D01*
X59224Y-45160D01*
X59234Y-45141D01*
X59252Y-45123D01*
X59280Y-45113D01*
X59299Y-45113D01*
X59327Y-45123D01*
X59337Y-45132D01*
X59402Y-45113D02*
X59524Y-45113D01*
X59459Y-45188D01*
X59487Y-45188D01*
X59506Y-45198D01*
X59515Y-45207D01*
X59524Y-45226D01*
X59524Y-45273D01*
X59515Y-45292D01*
X59506Y-45301D01*
X59487Y-45310D01*
X59431Y-45310D01*
X59412Y-45301D01*
X59402Y-45292D01*
X59299Y-46392D02*
X59299Y-46504D01*
X59299Y-46448D02*
X59102Y-46448D01*
X59130Y-46467D01*
X59149Y-46485D01*
X59159Y-46504D01*
X59102Y-46270D02*
X59102Y-46251D01*
X59112Y-46232D01*
X59121Y-46223D01*
X59140Y-46213D01*
X59177Y-46204D01*
X59224Y-46204D01*
X59262Y-46213D01*
X59281Y-46223D01*
X59290Y-46232D01*
X59299Y-46251D01*
X59299Y-46270D01*
X59290Y-46288D01*
X59281Y-46298D01*
X59262Y-46307D01*
X59224Y-46317D01*
X59177Y-46317D01*
X59140Y-46307D01*
X59121Y-46298D01*
X59112Y-46288D01*
X59102Y-46270D01*
X59168Y-46120D02*
X59365Y-46120D01*
X59177Y-46120D02*
X59168Y-46101D01*
X59168Y-46063D01*
X59177Y-46045D01*
X59187Y-46035D01*
X59206Y-46026D01*
X59262Y-46026D01*
X59281Y-46035D01*
X59290Y-46045D01*
X59299Y-46063D01*
X59299Y-46101D01*
X59290Y-46120D01*
X59196Y-45876D02*
X59196Y-45941D01*
X59299Y-45941D02*
X59102Y-45941D01*
X59102Y-45848D01*
X60518Y-45297D02*
X60508Y-45306D01*
X60480Y-45315D01*
X60462Y-45315D01*
X60433Y-45306D01*
X60415Y-45287D01*
X60405Y-45269D01*
X60396Y-45231D01*
X60396Y-45203D01*
X60405Y-45165D01*
X60415Y-45147D01*
X60433Y-45128D01*
X60462Y-45118D01*
X60480Y-45118D01*
X60508Y-45128D01*
X60518Y-45137D01*
X60687Y-45184D02*
X60687Y-45315D01*
X60640Y-45109D02*
X60593Y-45250D01*
X60715Y-45250D01*
X60260Y-46500D02*
X60260Y-46482D01*
X60269Y-46463D01*
X60279Y-46453D01*
X60297Y-46444D01*
X60335Y-46435D01*
X60382Y-46435D01*
X60419Y-46444D01*
X60438Y-46453D01*
X60447Y-46463D01*
X60457Y-46482D01*
X60457Y-46500D01*
X60447Y-46519D01*
X60438Y-46528D01*
X60419Y-46538D01*
X60382Y-46547D01*
X60335Y-46547D01*
X60297Y-46538D01*
X60279Y-46528D01*
X60269Y-46519D01*
X60260Y-46500D01*
X60438Y-46350D02*
X60447Y-46341D01*
X60457Y-46350D01*
X60447Y-46360D01*
X60438Y-46350D01*
X60457Y-46350D01*
X60457Y-46153D02*
X60457Y-46266D01*
X60457Y-46209D02*
X60260Y-46209D01*
X60288Y-46228D01*
X60307Y-46247D01*
X60316Y-46266D01*
X60325Y-45984D02*
X60457Y-45984D01*
X60325Y-46069D02*
X60429Y-46069D01*
X60447Y-46059D01*
X60457Y-46041D01*
X60457Y-46012D01*
X60447Y-45994D01*
X60438Y-45984D01*
X60354Y-45825D02*
X60354Y-45891D01*
X60457Y-45891D02*
X60260Y-45891D01*
X60260Y-45797D01*
X65833Y-45197D02*
X65767Y-45104D01*
X65720Y-45197D02*
X65720Y-45000D01*
X65795Y-45000D01*
X65814Y-45010D01*
X65823Y-45019D01*
X65833Y-45038D01*
X65833Y-45066D01*
X65823Y-45085D01*
X65814Y-45094D01*
X65795Y-45104D01*
X65720Y-45104D01*
X65898Y-45000D02*
X66020Y-45000D01*
X65955Y-45075D01*
X65983Y-45075D01*
X66002Y-45085D01*
X66011Y-45094D01*
X66020Y-45113D01*
X66020Y-45160D01*
X66011Y-45179D01*
X66002Y-45188D01*
X65983Y-45197D01*
X65927Y-45197D01*
X65908Y-45188D01*
X65898Y-45179D01*
X65598Y-46254D02*
X65729Y-46254D01*
X65523Y-46301D02*
X65664Y-46348D01*
X65664Y-46226D01*
X65729Y-46151D02*
X65532Y-46151D01*
X65729Y-46039D02*
X65617Y-46123D01*
X65532Y-46039D02*
X65645Y-46151D01*
X65532Y-45973D02*
X65532Y-45842D01*
X65729Y-45926D01*
X66517Y-45229D02*
X66451Y-45135D01*
X66404Y-45229D02*
X66404Y-45032D01*
X66479Y-45032D01*
X66498Y-45042D01*
X66507Y-45051D01*
X66517Y-45070D01*
X66517Y-45098D01*
X66507Y-45117D01*
X66498Y-45126D01*
X66479Y-45135D01*
X66404Y-45135D01*
X66686Y-45098D02*
X66686Y-45229D01*
X66639Y-45023D02*
X66592Y-45164D01*
X66714Y-45164D01*
X66648Y-46254D02*
X66779Y-46254D01*
X66573Y-46301D02*
X66714Y-46348D01*
X66714Y-46226D01*
X66779Y-46151D02*
X66582Y-46151D01*
X66779Y-46039D02*
X66667Y-46123D01*
X66582Y-46039D02*
X66695Y-46151D01*
X66582Y-45973D02*
X66582Y-45842D01*
X66779Y-45926D01*
X64367Y-45229D02*
X64301Y-45135D01*
X64254Y-45229D02*
X64254Y-45032D01*
X64329Y-45032D01*
X64348Y-45042D01*
X64357Y-45051D01*
X64367Y-45070D01*
X64367Y-45098D01*
X64357Y-45117D01*
X64348Y-45126D01*
X64329Y-45135D01*
X64254Y-45135D01*
X64554Y-45229D02*
X64442Y-45229D01*
X64498Y-45229D02*
X64498Y-45032D01*
X64479Y-45060D01*
X64460Y-45079D01*
X64442Y-45089D01*
X64432Y-46301D02*
X64432Y-46282D01*
X64442Y-46264D01*
X64451Y-46254D01*
X64470Y-46245D01*
X64507Y-46236D01*
X64554Y-46236D01*
X64592Y-46245D01*
X64610Y-46254D01*
X64620Y-46264D01*
X64629Y-46282D01*
X64629Y-46301D01*
X64620Y-46320D01*
X64610Y-46329D01*
X64592Y-46339D01*
X64554Y-46348D01*
X64507Y-46348D01*
X64470Y-46339D01*
X64451Y-46329D01*
X64442Y-46320D01*
X64432Y-46301D01*
X64629Y-46039D02*
X64535Y-46104D01*
X64629Y-46151D02*
X64432Y-46151D01*
X64432Y-46076D01*
X64442Y-46057D01*
X64451Y-46048D01*
X64470Y-46039D01*
X64498Y-46039D01*
X64517Y-46048D01*
X64526Y-46057D01*
X64535Y-46076D01*
X64535Y-46151D01*
X64432Y-45917D02*
X64432Y-45898D01*
X64442Y-45879D01*
X64451Y-45870D01*
X64470Y-45860D01*
X64507Y-45851D01*
X64554Y-45851D01*
X64592Y-45860D01*
X64610Y-45870D01*
X64620Y-45879D01*
X64629Y-45898D01*
X64629Y-45917D01*
X64620Y-45935D01*
X64610Y-45945D01*
X64592Y-45954D01*
X64554Y-45963D01*
X64507Y-45963D01*
X64470Y-45954D01*
X64451Y-45945D01*
X64442Y-45935D01*
X64432Y-45917D01*
X67517Y-45229D02*
X67451Y-45135D01*
X67404Y-45229D02*
X67404Y-45032D01*
X67479Y-45032D01*
X67498Y-45042D01*
X67507Y-45051D01*
X67517Y-45070D01*
X67517Y-45098D01*
X67507Y-45117D01*
X67498Y-45126D01*
X67479Y-45135D01*
X67404Y-45135D01*
X67592Y-45051D02*
X67601Y-45042D01*
X67620Y-45032D01*
X67667Y-45032D01*
X67686Y-45042D01*
X67695Y-45051D01*
X67704Y-45070D01*
X67704Y-45089D01*
X67695Y-45117D01*
X67582Y-45229D01*
X67704Y-45229D01*
X67632Y-46301D02*
X67632Y-46282D01*
X67642Y-46264D01*
X67651Y-46254D01*
X67670Y-46245D01*
X67707Y-46236D01*
X67754Y-46236D01*
X67792Y-46245D01*
X67810Y-46254D01*
X67820Y-46264D01*
X67829Y-46282D01*
X67829Y-46301D01*
X67820Y-46320D01*
X67810Y-46329D01*
X67792Y-46339D01*
X67754Y-46348D01*
X67707Y-46348D01*
X67670Y-46339D01*
X67651Y-46329D01*
X67642Y-46320D01*
X67632Y-46301D01*
X67829Y-46039D02*
X67735Y-46104D01*
X67829Y-46151D02*
X67632Y-46151D01*
X67632Y-46076D01*
X67642Y-46057D01*
X67651Y-46048D01*
X67670Y-46039D01*
X67698Y-46039D01*
X67717Y-46048D01*
X67726Y-46057D01*
X67735Y-46076D01*
X67735Y-46151D01*
X67632Y-45917D02*
X67632Y-45898D01*
X67642Y-45879D01*
X67651Y-45870D01*
X67670Y-45860D01*
X67707Y-45851D01*
X67754Y-45851D01*
X67792Y-45860D01*
X67810Y-45870D01*
X67820Y-45879D01*
X67829Y-45898D01*
X67829Y-45917D01*
X67820Y-45935D01*
X67810Y-45945D01*
X67792Y-45954D01*
X67754Y-45963D01*
X67707Y-45963D01*
X67670Y-45954D01*
X67651Y-45945D01*
X67642Y-45935D01*
X67632Y-45917D01*
X44598Y-40945D02*
X44598Y-40748D01*
X44645Y-40748D01*
X44673Y-40758D01*
X44692Y-40777D01*
X44701Y-40795D01*
X44711Y-40833D01*
X44711Y-40861D01*
X44701Y-40898D01*
X44692Y-40917D01*
X44673Y-40936D01*
X44645Y-40945D01*
X44598Y-40945D01*
X44776Y-40748D02*
X44898Y-40748D01*
X44833Y-40823D01*
X44861Y-40823D01*
X44880Y-40833D01*
X44889Y-40842D01*
X44898Y-40861D01*
X44898Y-40908D01*
X44889Y-40927D01*
X44880Y-40936D01*
X44861Y-40945D01*
X44805Y-40945D01*
X44786Y-40936D01*
X44776Y-40927D01*
X44069Y-41347D02*
X43976Y-41347D01*
X43976Y-41150D01*
X44135Y-41244D02*
X44201Y-41244D01*
X44229Y-41347D02*
X44135Y-41347D01*
X44135Y-41150D01*
X44229Y-41150D01*
X44313Y-41347D02*
X44313Y-41150D01*
X44360Y-41150D01*
X44388Y-41160D01*
X44407Y-41178D01*
X44416Y-41197D01*
X44426Y-41235D01*
X44426Y-41263D01*
X44416Y-41300D01*
X44407Y-41319D01*
X44388Y-41338D01*
X44360Y-41347D01*
X44313Y-41347D01*
X44764Y-41160D02*
X44745Y-41150D01*
X44717Y-41150D01*
X44689Y-41160D01*
X44670Y-41178D01*
X44660Y-41197D01*
X44651Y-41235D01*
X44651Y-41263D01*
X44660Y-41300D01*
X44670Y-41319D01*
X44689Y-41338D01*
X44717Y-41347D01*
X44735Y-41347D01*
X44764Y-41338D01*
X44773Y-41329D01*
X44773Y-41263D01*
X44735Y-41263D01*
X44970Y-41347D02*
X44904Y-41254D01*
X44857Y-41347D02*
X44857Y-41150D01*
X44932Y-41150D01*
X44951Y-41160D01*
X44961Y-41169D01*
X44970Y-41188D01*
X44970Y-41216D01*
X44961Y-41235D01*
X44951Y-41244D01*
X44932Y-41254D01*
X44857Y-41254D01*
X45054Y-41244D02*
X45120Y-41244D01*
X45148Y-41347D02*
X45054Y-41347D01*
X45054Y-41150D01*
X45148Y-41150D01*
X45233Y-41244D02*
X45298Y-41244D01*
X45326Y-41347D02*
X45233Y-41347D01*
X45233Y-41150D01*
X45326Y-41150D01*
X45411Y-41347D02*
X45411Y-41150D01*
X45523Y-41347D01*
X45523Y-41150D01*
G54D19*
X49305Y-47927D02*
X49305Y-47222D01*
X49547Y-47927D02*
X49365Y-47524D01*
X49547Y-47222D02*
X49305Y-47624D01*
X49951Y-47927D02*
X49708Y-47927D01*
X49830Y-47927D02*
X49830Y-47222D01*
X49789Y-47322D01*
X49749Y-47389D01*
X49708Y-47423D01*
G54D16*
G54D20*
X68117Y-31346D02*
X68117Y-31833D01*
X68096Y-31930D01*
X68056Y-31995D01*
X67994Y-32027D01*
X67954Y-32027D01*
X68504Y-31573D02*
X68504Y-32027D01*
X68402Y-31314D02*
X68300Y-31800D01*
X68565Y-31800D01*
G54D16*
G54D21*
X59347Y-32964D02*
X59404Y-32992D01*
X59500Y-32992D01*
X59538Y-32964D01*
X59557Y-32935D01*
X59576Y-32878D01*
X59576Y-32821D01*
X59557Y-32764D01*
X59538Y-32735D01*
X59500Y-32707D01*
X59423Y-32678D01*
X59385Y-32650D01*
X59366Y-32621D01*
X59347Y-32564D01*
X59347Y-32507D01*
X59366Y-32450D01*
X59385Y-32421D01*
X59423Y-32392D01*
X59519Y-32392D01*
X59576Y-32421D01*
X59747Y-32992D02*
X59747Y-32392D01*
X60128Y-32992D02*
X59938Y-32992D01*
X59938Y-32392D01*
X60471Y-32992D02*
X60242Y-32992D01*
X60357Y-32992D02*
X60357Y-32392D01*
X60319Y-32478D01*
X60280Y-32535D01*
X60242Y-32564D01*
X60719Y-32392D02*
X60757Y-32392D01*
X60795Y-32421D01*
X60814Y-32450D01*
X60833Y-32507D01*
X60852Y-32621D01*
X60852Y-32764D01*
X60833Y-32878D01*
X60814Y-32935D01*
X60795Y-32964D01*
X60757Y-32992D01*
X60719Y-32992D01*
X60680Y-32964D01*
X60661Y-32935D01*
X60642Y-32878D01*
X60623Y-32764D01*
X60623Y-32621D01*
X60642Y-32507D01*
X60661Y-32450D01*
X60680Y-32421D01*
X60719Y-32392D01*
G54D16*
X54503Y-36827D02*
X54503Y-37313D01*
X54532Y-37370D01*
X54560Y-37399D01*
X54617Y-37427D01*
X54732Y-37427D01*
X54789Y-37399D01*
X54817Y-37370D01*
X54846Y-37313D01*
X54846Y-36827D01*
X55074Y-36827D02*
X55446Y-36827D01*
X55246Y-37056D01*
X55332Y-37056D01*
X55389Y-37085D01*
X55417Y-37113D01*
X55446Y-37170D01*
X55446Y-37313D01*
X55417Y-37370D01*
X55389Y-37399D01*
X55332Y-37427D01*
X55160Y-37427D01*
X55103Y-37399D01*
X55074Y-37370D01*
G54D18*
X61330Y-42363D02*
X61264Y-42269D01*
X61217Y-42363D02*
X61217Y-42166D01*
X61292Y-42166D01*
X61311Y-42175D01*
X61320Y-42184D01*
X61330Y-42203D01*
X61330Y-42231D01*
X61320Y-42250D01*
X61311Y-42260D01*
X61292Y-42269D01*
X61217Y-42269D01*
X61517Y-42363D02*
X61405Y-42363D01*
X61461Y-42363D02*
X61461Y-42166D01*
X61442Y-42194D01*
X61423Y-42213D01*
X61405Y-42222D01*
X61583Y-42166D02*
X61705Y-42166D01*
X61639Y-42241D01*
X61667Y-42241D01*
X61686Y-42250D01*
X61695Y-42260D01*
X61705Y-42278D01*
X61705Y-42325D01*
X61695Y-42344D01*
X61686Y-42353D01*
X61667Y-42363D01*
X61611Y-42363D01*
X61592Y-42353D01*
X61583Y-42344D01*
X61386Y-43231D02*
X61386Y-43343D01*
X61386Y-43287D02*
X61189Y-43287D01*
X61217Y-43306D01*
X61236Y-43325D01*
X61245Y-43343D01*
X61386Y-43146D02*
X61189Y-43146D01*
X61386Y-43034D02*
X61273Y-43118D01*
X61189Y-43034D02*
X61302Y-43146D01*
X63259Y-42402D02*
X63193Y-42308D01*
X63146Y-42402D02*
X63146Y-42205D01*
X63221Y-42205D01*
X63240Y-42214D01*
X63249Y-42224D01*
X63259Y-42243D01*
X63259Y-42271D01*
X63249Y-42290D01*
X63240Y-42299D01*
X63221Y-42308D01*
X63146Y-42308D01*
X63446Y-42402D02*
X63334Y-42402D01*
X63390Y-42402D02*
X63390Y-42205D01*
X63371Y-42233D01*
X63352Y-42252D01*
X63334Y-42261D01*
X63521Y-42224D02*
X63531Y-42214D01*
X63549Y-42205D01*
X63596Y-42205D01*
X63615Y-42214D01*
X63625Y-42224D01*
X63634Y-42243D01*
X63634Y-42261D01*
X63625Y-42290D01*
X63512Y-42402D01*
X63634Y-42402D01*
X63615Y-43325D02*
X63615Y-43437D01*
X63615Y-43381D02*
X63418Y-43381D01*
X63446Y-43400D01*
X63465Y-43418D01*
X63474Y-43437D01*
X63418Y-43203D02*
X63418Y-43184D01*
X63427Y-43165D01*
X63437Y-43156D01*
X63456Y-43146D01*
X63493Y-43137D01*
X63540Y-43137D01*
X63578Y-43146D01*
X63596Y-43156D01*
X63606Y-43165D01*
X63615Y-43184D01*
X63615Y-43203D01*
X63606Y-43221D01*
X63596Y-43231D01*
X63578Y-43240D01*
X63540Y-43249D01*
X63493Y-43249D01*
X63456Y-43240D01*
X63437Y-43231D01*
X63427Y-43221D01*
X63418Y-43203D01*
X63615Y-43052D02*
X63418Y-43052D01*
X63615Y-42940D02*
X63502Y-43024D01*
X63418Y-42940D02*
X63531Y-43052D01*
X62368Y-42383D02*
X62359Y-42393D01*
X62331Y-42402D01*
X62312Y-42402D01*
X62284Y-42393D01*
X62265Y-42374D01*
X62256Y-42355D01*
X62246Y-42318D01*
X62246Y-42290D01*
X62256Y-42252D01*
X62265Y-42233D01*
X62284Y-42214D01*
X62312Y-42205D01*
X62331Y-42205D01*
X62359Y-42214D01*
X62368Y-42224D01*
X62481Y-42290D02*
X62462Y-42280D01*
X62453Y-42271D01*
X62443Y-42252D01*
X62443Y-42243D01*
X62453Y-42224D01*
X62462Y-42214D01*
X62481Y-42205D01*
X62518Y-42205D01*
X62537Y-42214D01*
X62546Y-42224D01*
X62556Y-42243D01*
X62556Y-42252D01*
X62546Y-42271D01*
X62537Y-42280D01*
X62518Y-42290D01*
X62481Y-42290D01*
X62462Y-42299D01*
X62453Y-42308D01*
X62443Y-42327D01*
X62443Y-42365D01*
X62453Y-42383D01*
X62462Y-42393D01*
X62481Y-42402D01*
X62518Y-42402D01*
X62537Y-42393D01*
X62546Y-42383D01*
X62556Y-42365D01*
X62556Y-42327D01*
X62546Y-42308D01*
X62537Y-42299D01*
X62518Y-42290D01*
X62134Y-43512D02*
X62134Y-43493D01*
X62143Y-43475D01*
X62153Y-43465D01*
X62171Y-43456D01*
X62209Y-43446D01*
X62256Y-43446D01*
X62293Y-43456D01*
X62312Y-43465D01*
X62321Y-43475D01*
X62331Y-43493D01*
X62331Y-43512D01*
X62321Y-43531D01*
X62312Y-43540D01*
X62293Y-43550D01*
X62256Y-43559D01*
X62209Y-43559D01*
X62171Y-43550D01*
X62153Y-43540D01*
X62143Y-43531D01*
X62134Y-43512D01*
X62312Y-43362D02*
X62321Y-43353D01*
X62331Y-43362D01*
X62321Y-43371D01*
X62312Y-43362D01*
X62331Y-43362D01*
X62331Y-43165D02*
X62331Y-43278D01*
X62331Y-43221D02*
X62134Y-43221D01*
X62162Y-43240D01*
X62181Y-43259D01*
X62190Y-43278D01*
X62199Y-42996D02*
X62331Y-42996D01*
X62199Y-43081D02*
X62303Y-43081D01*
X62321Y-43071D01*
X62331Y-43052D01*
X62331Y-43024D01*
X62321Y-43006D01*
X62312Y-42996D01*
X62228Y-42837D02*
X62228Y-42902D01*
X62331Y-42902D02*
X62134Y-42902D01*
X62134Y-42809D01*
G54D20*
X67243Y-30800D02*
X67243Y-30117D01*
X67406Y-30117D01*
X67446Y-30149D01*
X67467Y-30182D01*
X67487Y-30247D01*
X67487Y-30344D01*
X67467Y-30409D01*
X67446Y-30442D01*
X67406Y-30474D01*
X67243Y-30474D01*
X67895Y-30800D02*
X67650Y-30800D01*
X67773Y-30800D02*
X67773Y-30117D01*
X67732Y-30214D01*
X67691Y-30279D01*
X67650Y-30312D01*
G54D16*
G54D21*
G54D16*
X53792Y-45242D02*
X53792Y-45728D01*
X53821Y-45785D01*
X53850Y-45814D01*
X53907Y-45842D01*
X54021Y-45842D01*
X54078Y-45814D01*
X54107Y-45785D01*
X54135Y-45728D01*
X54135Y-45242D01*
X54678Y-45442D02*
X54678Y-45842D01*
X54535Y-45214D02*
X54392Y-45642D01*
X54764Y-45642D01*
X46371Y-48074D02*
X46371Y-47732D01*
X46971Y-47903D02*
X46371Y-47903D01*
X46971Y-47532D02*
X46371Y-47532D01*
X46371Y-47389D01*
X46399Y-47303D01*
X46456Y-47246D01*
X46514Y-47217D01*
X46628Y-47189D01*
X46714Y-47189D01*
X46828Y-47217D01*
X46885Y-47246D01*
X46942Y-47303D01*
X46971Y-47389D01*
X46971Y-47532D01*
X46971Y-46617D02*
X46971Y-46960D01*
X46971Y-46789D02*
X46371Y-46789D01*
X46456Y-46846D01*
X46514Y-46903D01*
X46542Y-46960D01*
X46428Y-46389D02*
X46399Y-46360D01*
X46371Y-46303D01*
X46371Y-46160D01*
X46399Y-46103D01*
X46428Y-46074D01*
X46485Y-46046D01*
X46542Y-46046D01*
X46628Y-46074D01*
X46971Y-46417D01*
X46971Y-46046D01*
X46371Y-45674D02*
X46371Y-45617D01*
X46399Y-45560D01*
X46428Y-45532D01*
X46485Y-45503D01*
X46599Y-45474D01*
X46742Y-45474D01*
X46856Y-45503D01*
X46914Y-45532D01*
X46942Y-45560D01*
X46971Y-45617D01*
X46971Y-45674D01*
X46942Y-45732D01*
X46914Y-45760D01*
X46856Y-45789D01*
X46742Y-45817D01*
X46599Y-45817D01*
X46485Y-45789D01*
X46428Y-45760D01*
X46399Y-45732D01*
X46371Y-45674D01*
X46428Y-45246D02*
X46399Y-45217D01*
X46371Y-45160D01*
X46371Y-45017D01*
X46399Y-44960D01*
X46428Y-44932D01*
X46485Y-44903D01*
X46542Y-44903D01*
X46628Y-44932D01*
X46971Y-45274D01*
X46971Y-44903D01*
M02*
