M48
;DRILL file {Pcbnew (2013-05-31 BZR 4019)-stable} date 14/03/2014 23:51:23
;FORMAT={3:3/ absolute / metric / keep zeros}
FMAT,2
METRIC,TZ
T1C0.500
T2C0.813
T3C1.016
T4C1.500
T5C1.600
T6C2.540
%
G90
G05
M71
T1
X110744Y-119380
X110744Y-123444
X111760Y-073152
X115824Y-073152
X118872Y-073152
X119126Y-086995
X119126Y-117094
X119380Y-077470
X119380Y-095250
X119888Y-111379
X120000Y-099200
X120200Y-102300
X120269Y-118110
X120396Y-096139
X120904Y-123444
X121031Y-112522
X121412Y-092710
X121666Y-114046
X122682Y-093345
X123952Y-086741
X126365Y-094996
X126492Y-078232
X126492Y-081280
X126492Y-083820
X128016Y-111252
X129800Y-099700
X130048Y-078232
X130048Y-081280
X130048Y-083820
X132500Y-112000
X132500Y-114500
X133604Y-078232
X133604Y-081280
X133604Y-083820
X133604Y-117348
X134620Y-086614
X137160Y-076708
X137414Y-104013
X137668Y-110236
X137668Y-117348
X140843Y-079756
X140900Y-082000
X141732Y-110236
X141732Y-117348
X143256Y-091948
X143300Y-096200
X144272Y-106680
X145400Y-096200
X145796Y-110236
X146812Y-086868
X147800Y-105300
X148590Y-096139
X149352Y-083820
X149352Y-091948
X149860Y-110236
X151900Y-091800
X151900Y-096300
X151900Y-100600
X153300Y-092900
X153300Y-096200
X153300Y-100600
X153300Y-105300
X153416Y-110236
X153416Y-113284
X153924Y-088900
X154000Y-108800
X154700Y-084600
X155448Y-101092
X156000Y-116900
X157480Y-122936
X157800Y-115700
X157988Y-105664
X158920Y-117980
X160655Y-114554
X161544Y-112776
X162560Y-089408
X162560Y-097536
X163000Y-110700
X164592Y-084836
X166116Y-112268
X166243Y-114554
X167640Y-097536
X167640Y-103124
X172212Y-092964
X172212Y-097536
X172212Y-102616
X172212Y-108204
X176276Y-094488
X176276Y-108204
X176276Y-112776
T2
X128260Y-122600
X130800Y-122600
X133340Y-122600
X147574Y-080645
X150114Y-080645
X152654Y-080645
X152690Y-077450
X155194Y-080645
X155230Y-077450
X157734Y-080645
X157770Y-077450
X160274Y-080645
X160310Y-077450
X162814Y-080645
X165354Y-080645
X167894Y-080645
X170434Y-080645
T3
X128549Y-074099
X131089Y-074099
X133629Y-074099
X136169Y-074099
X137414Y-122588
X138709Y-074099
X139954Y-122588
X141249Y-074099
X142494Y-122588
X143789Y-074099
X145034Y-122588
X146329Y-074099
X147574Y-122588
X148869Y-074099
X150114Y-122588
X151409Y-074099
X152654Y-122588
X155194Y-122588
X155245Y-074125
X157785Y-074125
X160249Y-122588
X160325Y-074125
X162789Y-122588
X162865Y-074125
X165329Y-122588
X165405Y-074125
X167869Y-122588
X167945Y-074125
X170409Y-122588
X170485Y-074125
X172949Y-122588
X173025Y-074125
T4
X114427Y-078867
X114681Y-091948
X114808Y-112903
T5
X111887Y-076327
X111887Y-081407
X112141Y-089408
X112141Y-094488
X112268Y-110363
X112268Y-115443
X116967Y-076327
X116967Y-081407
X117221Y-089408
X117221Y-094488
X117348Y-110363
X117348Y-115443
T6
X123495Y-122410
X124765Y-074430
X175489Y-117432
X175565Y-089441
T0
M30
