G04 (created by PCBNEW (2013-05-31 BZR 4019)-stable) date 14/03/2014 22:41:48*
%MOIN*%
G04 Gerber Fmt 3.4, Leading zero omitted, Abs format*
%FSLAX34Y34*%
G01*
G70*
G90*
G04 APERTURE LIST*
%ADD10C,0.00590551*%
%ADD11R,0.06X0.08*%
%ADD12R,0.08X0.06*%
%ADD13R,0.035X0.055*%
%ADD14R,0.055X0.035*%
%ADD15R,0.0787X0.0551*%
%ADD16R,0.141732X0.0350394*%
G04 APERTURE END LIST*
G54D10*
G54D11*
X46457Y-33248D03*
X45157Y-33248D03*
X61940Y-33350D03*
X63240Y-33350D03*
G54D12*
X58110Y-45688D03*
X58110Y-46988D03*
X55472Y-39390D03*
X55472Y-38090D03*
G54D13*
X45075Y-39085D03*
X44325Y-39085D03*
X46575Y-39085D03*
X45825Y-39085D03*
G54D14*
X54212Y-38721D03*
X54212Y-37971D03*
G54D13*
X62184Y-34488D03*
X62934Y-34488D03*
G54D14*
X63300Y-45725D03*
X63300Y-46475D03*
X67100Y-33675D03*
X67100Y-32925D03*
X66100Y-33675D03*
X66100Y-32925D03*
G54D13*
X46575Y-41418D03*
X45825Y-41418D03*
X45125Y-40267D03*
X44375Y-40267D03*
X46575Y-40267D03*
X45825Y-40267D03*
G54D14*
X59370Y-45806D03*
X59370Y-46556D03*
X60527Y-45802D03*
X60527Y-46552D03*
X65500Y-46475D03*
X65500Y-45725D03*
X66550Y-46475D03*
X66550Y-45725D03*
X64400Y-46475D03*
X64400Y-45725D03*
X67600Y-46475D03*
X67600Y-45725D03*
G54D13*
X45125Y-41418D03*
X44375Y-41418D03*
G54D15*
X53980Y-35743D03*
X53991Y-34955D03*
X53991Y-34168D03*
X53991Y-33400D03*
X53991Y-32632D03*
X53991Y-31845D03*
X53991Y-31057D03*
X47731Y-31057D03*
X47731Y-31845D03*
X47731Y-32632D03*
X47731Y-33400D03*
X47731Y-34168D03*
X47731Y-34955D03*
X47731Y-35743D03*
G54D14*
X61456Y-42813D03*
X61456Y-43563D03*
X63385Y-43563D03*
X63385Y-42813D03*
X62401Y-42813D03*
X62401Y-43563D03*
G54D16*
X48531Y-37960D03*
X48531Y-38460D03*
X48531Y-38960D03*
X48531Y-39460D03*
X48531Y-39960D03*
X48531Y-40460D03*
X48531Y-40960D03*
X48531Y-41460D03*
X48531Y-41960D03*
X48531Y-42460D03*
X48531Y-42960D03*
X48531Y-45460D03*
X48531Y-45960D03*
X48531Y-46460D03*
X52925Y-42960D03*
X52925Y-42460D03*
X52925Y-41960D03*
X52925Y-41460D03*
X52925Y-40960D03*
X52925Y-40460D03*
X52925Y-39960D03*
X52925Y-39460D03*
X52925Y-38960D03*
X52925Y-38460D03*
X52925Y-37960D03*
M02*
