G04 (created by PCBNEW (2013-05-31 BZR 4019)-stable) date 14/03/2014 22:41:48*
%MOIN*%
G04 Gerber Fmt 3.4, Leading zero omitted, Abs format*
%FSLAX34Y34*%
G01*
G70*
G90*
G04 APERTURE LIST*
%ADD10C,0.00590551*%
%ADD11R,0.035X0.055*%
%ADD12R,0.0314961X0.0708661*%
G04 APERTURE END LIST*
G54D10*
G54D11*
X58682Y-39488D03*
X57932Y-39488D03*
X58682Y-40590D03*
X57932Y-40590D03*
G54D12*
X48905Y-40079D03*
X49338Y-40079D03*
X49772Y-40079D03*
X50205Y-40079D03*
X50638Y-40079D03*
X51071Y-40079D03*
X51504Y-40079D03*
X51937Y-40079D03*
X52370Y-40079D03*
X48905Y-36339D03*
X49338Y-36339D03*
X49772Y-36339D03*
X50205Y-36339D03*
X50638Y-36339D03*
X51071Y-36339D03*
X51504Y-36339D03*
X51937Y-36339D03*
X52370Y-36339D03*
X48922Y-35228D03*
X49355Y-35228D03*
X49788Y-35228D03*
X50221Y-35228D03*
X50654Y-35228D03*
X51087Y-35228D03*
X52583Y-35228D03*
X53016Y-35228D03*
X53449Y-35228D03*
X53882Y-35228D03*
X54315Y-35228D03*
X54748Y-35228D03*
X55181Y-35228D03*
X55614Y-35228D03*
X55614Y-41842D03*
X48922Y-41842D03*
X55181Y-41842D03*
X54748Y-41842D03*
X54315Y-41842D03*
X53882Y-41842D03*
X53449Y-41842D03*
X53016Y-41842D03*
X52583Y-41842D03*
X51087Y-41842D03*
X50654Y-41842D03*
X50221Y-41842D03*
X49788Y-41842D03*
X49355Y-41842D03*
M02*
