G04 (created by PCBNEW (2013-05-31 BZR 4019)-stable) date 14/03/2014 22:41:48*
%MOIN*%
G04 Gerber Fmt 3.4, Leading zero omitted, Abs format*
%FSLAX34Y34*%
G01*
G70*
G90*
G04 APERTURE LIST*
%ADD10C,0.00590551*%
%ADD11C,0.0984252*%
%ADD12C,0.1*%
%ADD13C,0.07*%
%ADD14R,0.035X0.055*%
%ADD15R,0.055X0.055*%
%ADD16C,0.055*%
%ADD17R,0.0314961X0.0708661*%
%ADD18C,0.035*%
%ADD19C,0.02*%
%ADD20C,0.0354331*%
%ADD21C,0.008*%
G04 APERTURE END LIST*
G54D10*
G54D11*
X45150Y-36200D03*
X44150Y-37200D03*
X46150Y-37200D03*
X46150Y-35200D03*
X44150Y-35200D03*
G54D12*
X69120Y-35213D03*
X69090Y-46233D03*
G54D13*
X55100Y-48263D03*
X56100Y-48263D03*
X57100Y-48263D03*
X58100Y-48263D03*
X59100Y-48263D03*
X60100Y-48263D03*
X61100Y-48263D03*
X54100Y-48263D03*
X67120Y-29183D03*
X66120Y-29183D03*
X65120Y-29183D03*
X64120Y-29183D03*
X63120Y-29183D03*
X62120Y-29183D03*
X61120Y-29183D03*
X68120Y-29183D03*
X64090Y-48263D03*
X65090Y-48263D03*
X66090Y-48263D03*
X67090Y-48263D03*
X68090Y-48263D03*
X63090Y-48263D03*
X58610Y-29173D03*
X57610Y-29173D03*
X56610Y-29173D03*
X55610Y-29173D03*
X54610Y-29173D03*
X53610Y-29173D03*
X52610Y-29173D03*
X51610Y-29173D03*
X50610Y-29173D03*
X59610Y-29173D03*
G54D11*
X45050Y-31050D03*
X44050Y-32050D03*
X46050Y-32050D03*
X46050Y-30050D03*
X44050Y-30050D03*
X45200Y-44450D03*
X44200Y-45450D03*
X46200Y-45450D03*
X46200Y-43450D03*
X44200Y-43450D03*
G54D14*
X58682Y-39488D03*
X57932Y-39488D03*
X58682Y-40590D03*
X57932Y-40590D03*
G54D15*
X50496Y-48267D03*
G54D16*
X51496Y-48267D03*
X52496Y-48267D03*
G54D15*
X67100Y-31750D03*
G54D16*
X66100Y-31750D03*
X65100Y-31750D03*
X64100Y-31750D03*
X63100Y-31750D03*
X62100Y-31750D03*
X61100Y-31750D03*
X60100Y-31750D03*
X59100Y-31750D03*
X58100Y-31750D03*
G54D17*
X48905Y-40079D03*
X49338Y-40079D03*
X49772Y-40079D03*
X50205Y-40079D03*
X50638Y-40079D03*
X51071Y-40079D03*
X51504Y-40079D03*
X51937Y-40079D03*
X52370Y-40079D03*
X48905Y-36339D03*
X49338Y-36339D03*
X49772Y-36339D03*
X50205Y-36339D03*
X50638Y-36339D03*
X51071Y-36339D03*
X51504Y-36339D03*
X51937Y-36339D03*
X52370Y-36339D03*
X48922Y-35228D03*
X49355Y-35228D03*
X49788Y-35228D03*
X50221Y-35228D03*
X50654Y-35228D03*
X51087Y-35228D03*
X52583Y-35228D03*
X53016Y-35228D03*
X53449Y-35228D03*
X53882Y-35228D03*
X54315Y-35228D03*
X54748Y-35228D03*
X55181Y-35228D03*
X55614Y-35228D03*
X55614Y-41842D03*
X48922Y-41842D03*
X55181Y-41842D03*
X54748Y-41842D03*
X54315Y-41842D03*
X53882Y-41842D03*
X53449Y-41842D03*
X53016Y-41842D03*
X52583Y-41842D03*
X51087Y-41842D03*
X50654Y-41842D03*
X50221Y-41842D03*
X49788Y-41842D03*
X49355Y-41842D03*
G54D15*
X63114Y-30492D03*
G54D16*
X62114Y-30492D03*
X61114Y-30492D03*
X60114Y-30492D03*
G54D12*
X49120Y-29303D03*
X48620Y-48193D03*
G54D18*
X56417Y-37874D03*
X54100Y-40950D03*
X58500Y-37850D03*
X48300Y-36750D03*
X47400Y-37850D03*
X47350Y-46500D03*
X47900Y-44900D03*
X56800Y-42000D03*
X61200Y-39800D03*
X58800Y-36200D03*
X56400Y-36200D03*
X57800Y-34200D03*
X58800Y-33000D03*
X60600Y-35000D03*
X64800Y-33400D03*
X64000Y-35200D03*
X64000Y-38400D03*
X66000Y-40600D03*
X66000Y-38400D03*
X67800Y-36600D03*
X67800Y-38400D03*
X67800Y-40400D03*
X67800Y-42600D03*
X69400Y-37200D03*
X69400Y-42600D03*
X69400Y-44400D03*
X65400Y-44200D03*
X63600Y-44400D03*
X62200Y-41600D03*
X60400Y-44600D03*
X60400Y-43400D03*
X59000Y-43400D03*
X57400Y-43400D03*
X55800Y-43400D03*
X54200Y-43400D03*
X55800Y-46200D03*
X54200Y-46200D03*
X52600Y-46200D03*
X50400Y-43800D03*
X52600Y-33000D03*
X51200Y-33000D03*
X49800Y-33000D03*
X52600Y-32000D03*
X51200Y-32000D03*
X49800Y-32000D03*
X52600Y-30800D03*
X51200Y-30800D03*
X49800Y-30800D03*
X46800Y-28800D03*
X45600Y-28800D03*
X44000Y-28800D03*
X62000Y-48400D03*
X47600Y-48600D03*
X43600Y-47000D03*
X43600Y-48600D03*
X46900Y-46100D03*
X47650Y-44300D03*
X47200Y-43850D03*
X47800Y-36500D03*
X49750Y-37400D03*
X47000Y-37500D03*
X47000Y-30500D03*
X51102Y-39251D03*
X57244Y-37874D03*
X60905Y-33307D03*
X63250Y-45100D03*
X65450Y-45100D03*
X55472Y-32283D03*
X46900Y-34250D03*
X54000Y-30200D03*
X55450Y-31400D03*
X48800Y-34150D03*
X53000Y-34100D03*
X60629Y-42834D03*
X62125Y-45551D03*
X52165Y-44094D03*
X52165Y-45078D03*
X62566Y-46448D03*
X47322Y-40275D03*
X47244Y-39055D03*
X58188Y-41456D03*
X60354Y-41456D03*
X60354Y-39606D03*
X60354Y-37874D03*
X60354Y-36574D03*
X59803Y-39606D03*
X59803Y-37913D03*
X59803Y-36141D03*
X64173Y-43582D03*
X61417Y-46023D03*
G54D19*
X50205Y-40079D02*
X50205Y-39479D01*
X50205Y-39479D02*
X50433Y-39251D01*
X50433Y-39251D02*
X51102Y-39251D01*
X60275Y-33346D02*
X60866Y-33346D01*
X57244Y-37874D02*
X57244Y-36377D01*
X57244Y-36377D02*
X60275Y-33346D01*
X60866Y-33346D02*
X60905Y-33307D01*
X50221Y-41842D02*
X50221Y-42898D01*
X57100Y-45092D02*
X57100Y-48263D01*
X56496Y-44488D02*
X57100Y-45092D01*
X51811Y-44488D02*
X56496Y-44488D01*
X50221Y-42898D02*
X51811Y-44488D01*
X63114Y-30492D02*
X63114Y-30988D01*
X63114Y-30988D02*
X63175Y-31050D01*
X63250Y-45100D02*
X65450Y-45100D01*
X53449Y-41842D02*
X53400Y-41793D01*
X53400Y-41793D02*
X53400Y-41050D01*
X50205Y-40079D02*
X50250Y-40124D01*
X50250Y-40124D02*
X50250Y-41000D01*
X49772Y-40079D02*
X49750Y-40101D01*
X49750Y-40101D02*
X49750Y-40900D01*
X49338Y-40079D02*
X49350Y-40090D01*
X50250Y-41814D02*
X50221Y-41842D01*
X50250Y-41000D02*
X50250Y-41814D01*
X49350Y-40900D02*
X49750Y-40900D01*
X49350Y-40090D02*
X49350Y-40900D01*
X62100Y-31750D02*
X62100Y-31400D01*
X62100Y-31400D02*
X62450Y-31050D01*
X62450Y-31050D02*
X63175Y-31050D01*
X63175Y-31050D02*
X64750Y-31050D01*
X64750Y-31050D02*
X65100Y-31400D01*
X65100Y-31400D02*
X65100Y-31750D01*
X50150Y-40900D02*
X50250Y-41000D01*
X49750Y-40900D02*
X50150Y-40900D01*
X53200Y-40850D02*
X52728Y-40850D01*
X53400Y-41050D02*
X53200Y-40850D01*
X52728Y-40850D02*
X50200Y-40850D01*
X50200Y-40850D02*
X50150Y-40900D01*
X58582Y-29173D02*
X58610Y-29173D01*
X55472Y-32283D02*
X58582Y-29173D01*
X57610Y-29173D02*
X57610Y-29240D01*
X46900Y-33950D02*
X46900Y-34250D01*
X47300Y-33550D02*
X46900Y-33950D01*
X53500Y-33550D02*
X47300Y-33550D01*
X54000Y-33100D02*
X53500Y-33550D01*
X53991Y-31057D02*
X54000Y-33100D01*
X53991Y-31057D02*
X53991Y-31057D01*
X54000Y-30200D02*
X53991Y-31057D01*
X57610Y-29240D02*
X55450Y-31400D01*
X56610Y-29173D02*
X56610Y-29390D01*
X56610Y-29390D02*
X55000Y-31000D01*
X49200Y-34550D02*
X48800Y-34150D01*
X54050Y-34550D02*
X49200Y-34550D01*
X55000Y-33600D02*
X54050Y-34550D01*
X55000Y-31000D02*
X55000Y-33600D01*
X54000Y-34100D02*
X53000Y-34100D01*
X54610Y-29173D02*
X54610Y-33490D01*
X54610Y-33490D02*
X54000Y-34100D01*
X61574Y-42834D02*
X60629Y-42834D01*
X62125Y-43385D02*
X61574Y-42834D01*
X62125Y-44330D02*
X62125Y-43385D01*
X62125Y-45551D02*
X62125Y-44330D01*
X48905Y-40079D02*
X48818Y-40079D01*
X52109Y-44150D02*
X52100Y-44150D01*
X52165Y-44094D02*
X52109Y-44150D01*
X50787Y-45078D02*
X52165Y-45078D01*
X48110Y-42401D02*
X50787Y-45078D01*
X48110Y-40787D02*
X48110Y-42401D01*
X48818Y-40079D02*
X48110Y-40787D01*
X50650Y-41847D02*
X50654Y-41842D01*
X50650Y-42850D02*
X50650Y-41847D01*
X51950Y-44150D02*
X50975Y-43175D01*
X50975Y-43175D02*
X50650Y-42850D01*
X52050Y-44150D02*
X51950Y-44150D01*
X52100Y-44150D02*
X52050Y-44150D01*
X58300Y-44150D02*
X52100Y-44150D01*
X60600Y-46450D02*
X58300Y-44150D01*
X60750Y-46450D02*
X60600Y-46450D01*
X62566Y-46448D02*
X60750Y-46450D01*
X65090Y-47114D02*
X65090Y-48263D01*
X66259Y-45944D02*
X65090Y-47114D01*
X66259Y-43858D02*
X66259Y-45944D01*
X61181Y-38779D02*
X66259Y-43858D01*
X48818Y-38779D02*
X61181Y-38779D01*
X47322Y-40275D02*
X48818Y-38779D01*
X66090Y-46587D02*
X66090Y-48263D01*
X66574Y-46102D02*
X66090Y-46587D01*
X66574Y-43700D02*
X66574Y-46102D01*
X61259Y-38385D02*
X66574Y-43700D01*
X47913Y-38385D02*
X61259Y-38385D01*
X47244Y-39055D02*
X47913Y-38385D01*
G54D20*
X48870Y-37290D02*
X48960Y-37290D01*
X46620Y-36200D02*
X47710Y-37290D01*
X47710Y-37290D02*
X48870Y-37290D01*
X45150Y-36200D02*
X46620Y-36200D01*
X49340Y-36910D02*
X49340Y-36760D01*
X48960Y-37290D02*
X49340Y-36910D01*
G54D19*
X49355Y-36323D02*
X49338Y-36339D01*
X49355Y-35228D02*
X49355Y-36323D01*
X60354Y-39606D02*
X60354Y-41456D01*
X60354Y-36574D02*
X60354Y-37874D01*
X54748Y-41842D02*
X54748Y-41196D01*
X58682Y-40963D02*
X58682Y-40590D01*
X58188Y-41456D02*
X58682Y-40963D01*
X57283Y-41456D02*
X58188Y-41456D01*
X56850Y-41023D02*
X57283Y-41456D01*
X54921Y-41023D02*
X56850Y-41023D01*
X54748Y-41196D02*
X54921Y-41023D01*
X58682Y-39488D02*
X59685Y-39488D01*
X59685Y-39488D02*
X59803Y-39606D01*
X54315Y-41842D02*
X54315Y-42508D01*
X59803Y-40909D02*
X59803Y-39606D01*
X57992Y-42720D02*
X59803Y-40909D01*
X54527Y-42720D02*
X57992Y-42720D01*
X54315Y-42508D02*
X54527Y-42720D01*
X59803Y-36141D02*
X59803Y-37913D01*
X63188Y-43582D02*
X64173Y-43582D01*
X62559Y-44212D02*
X63188Y-43582D01*
X62559Y-45826D02*
X62559Y-44212D01*
X62401Y-45984D02*
X62559Y-45826D01*
X61456Y-45984D02*
X62401Y-45984D01*
X61417Y-46023D02*
X61456Y-45984D01*
X48922Y-36323D02*
X48905Y-36339D01*
X48922Y-35150D02*
X48922Y-36323D01*
X49788Y-36323D02*
X49772Y-36339D01*
X49788Y-35228D02*
X49788Y-36323D01*
X57932Y-40590D02*
X57932Y-40530D01*
X51937Y-39676D02*
X51937Y-40079D01*
X52101Y-39512D02*
X51937Y-39676D01*
X56914Y-39512D02*
X52101Y-39512D01*
X57932Y-40530D02*
X56914Y-39512D01*
X57932Y-39488D02*
X57716Y-39488D01*
X51504Y-39479D02*
X51504Y-40079D01*
X51771Y-39212D02*
X51504Y-39479D01*
X57440Y-39212D02*
X51771Y-39212D01*
X57716Y-39488D02*
X57440Y-39212D01*
G54D10*
G36*
X70055Y-47023D02*
X69760Y-47318D01*
X69760Y-35086D01*
X69662Y-34850D01*
X69483Y-34670D01*
X69247Y-34573D01*
X68993Y-34572D01*
X68757Y-34670D01*
X68610Y-34817D01*
X68610Y-29085D01*
X68535Y-28905D01*
X68397Y-28767D01*
X68217Y-28693D01*
X68022Y-28692D01*
X67842Y-28767D01*
X67704Y-28905D01*
X67630Y-29085D01*
X67629Y-29280D01*
X67704Y-29460D01*
X67842Y-29598D01*
X68022Y-29672D01*
X68217Y-29673D01*
X68397Y-29598D01*
X68535Y-29460D01*
X68609Y-29280D01*
X68610Y-29085D01*
X68610Y-34817D01*
X68577Y-34849D01*
X68480Y-35085D01*
X68479Y-35339D01*
X68577Y-35575D01*
X68756Y-35755D01*
X68992Y-35852D01*
X69246Y-35853D01*
X69482Y-35755D01*
X69662Y-35576D01*
X69759Y-35340D01*
X69760Y-35086D01*
X69760Y-47318D01*
X69730Y-47348D01*
X69730Y-46106D01*
X69632Y-45870D01*
X69453Y-45690D01*
X69217Y-45593D01*
X68963Y-45592D01*
X68727Y-45690D01*
X68547Y-45869D01*
X68450Y-46105D01*
X68449Y-46359D01*
X68547Y-46595D01*
X68726Y-46775D01*
X68962Y-46872D01*
X69216Y-46873D01*
X69452Y-46775D01*
X69632Y-46596D01*
X69729Y-46360D01*
X69730Y-46106D01*
X69730Y-47348D01*
X68932Y-48145D01*
X68886Y-48215D01*
X68870Y-48298D01*
X68870Y-49018D01*
X68580Y-49018D01*
X68580Y-48165D01*
X68505Y-47985D01*
X68367Y-47847D01*
X68187Y-47773D01*
X67992Y-47772D01*
X67812Y-47847D01*
X67674Y-47985D01*
X67610Y-48141D01*
X67610Y-29085D01*
X67535Y-28905D01*
X67397Y-28767D01*
X67217Y-28693D01*
X67022Y-28692D01*
X66842Y-28767D01*
X66704Y-28905D01*
X66630Y-29085D01*
X66629Y-29280D01*
X66704Y-29460D01*
X66842Y-29598D01*
X67022Y-29672D01*
X67217Y-29673D01*
X67397Y-29598D01*
X67535Y-29460D01*
X67609Y-29280D01*
X67610Y-29085D01*
X67610Y-48141D01*
X67600Y-48165D01*
X67599Y-48360D01*
X67674Y-48540D01*
X67812Y-48678D01*
X67992Y-48752D01*
X68187Y-48753D01*
X68367Y-48678D01*
X68505Y-48540D01*
X68579Y-48360D01*
X68580Y-48165D01*
X68580Y-49018D01*
X67580Y-49018D01*
X67580Y-48165D01*
X67515Y-48008D01*
X67515Y-31997D01*
X67515Y-31447D01*
X67493Y-31395D01*
X67454Y-31356D01*
X67402Y-31335D01*
X67347Y-31334D01*
X66797Y-31334D01*
X66745Y-31356D01*
X66706Y-31395D01*
X66685Y-31447D01*
X66684Y-31502D01*
X66684Y-32052D01*
X66706Y-32104D01*
X66745Y-32143D01*
X66797Y-32164D01*
X66852Y-32165D01*
X67402Y-32165D01*
X67454Y-32143D01*
X67493Y-32104D01*
X67514Y-32052D01*
X67515Y-31997D01*
X67515Y-48008D01*
X67505Y-47985D01*
X67367Y-47847D01*
X67187Y-47773D01*
X66992Y-47772D01*
X66814Y-47846D01*
X66814Y-46102D01*
X66814Y-43700D01*
X66796Y-43608D01*
X66744Y-43531D01*
X66610Y-43396D01*
X66610Y-29085D01*
X66535Y-28905D01*
X66397Y-28767D01*
X66217Y-28693D01*
X66022Y-28692D01*
X65842Y-28767D01*
X65704Y-28905D01*
X65630Y-29085D01*
X65629Y-29280D01*
X65704Y-29460D01*
X65842Y-29598D01*
X66022Y-29672D01*
X66217Y-29673D01*
X66397Y-29598D01*
X66535Y-29460D01*
X66609Y-29280D01*
X66610Y-29085D01*
X66610Y-43396D01*
X66515Y-43301D01*
X66515Y-31667D01*
X66452Y-31515D01*
X66335Y-31398D01*
X66182Y-31335D01*
X66017Y-31334D01*
X65865Y-31397D01*
X65748Y-31514D01*
X65685Y-31667D01*
X65684Y-31832D01*
X65747Y-31984D01*
X65864Y-32101D01*
X66017Y-32164D01*
X66182Y-32165D01*
X66334Y-32102D01*
X66451Y-31985D01*
X66514Y-31832D01*
X66515Y-31667D01*
X66515Y-43301D01*
X65610Y-42396D01*
X65610Y-29085D01*
X65535Y-28905D01*
X65397Y-28767D01*
X65217Y-28693D01*
X65022Y-28692D01*
X64842Y-28767D01*
X64704Y-28905D01*
X64630Y-29085D01*
X64629Y-29280D01*
X64704Y-29460D01*
X64842Y-29598D01*
X65022Y-29672D01*
X65217Y-29673D01*
X65397Y-29598D01*
X65535Y-29460D01*
X65609Y-29280D01*
X65610Y-29085D01*
X65610Y-42396D01*
X65515Y-42301D01*
X65515Y-31667D01*
X65452Y-31515D01*
X65340Y-31403D01*
X65340Y-31400D01*
X65339Y-31399D01*
X65321Y-31308D01*
X65269Y-31230D01*
X65269Y-31230D01*
X64919Y-30880D01*
X64841Y-30828D01*
X64750Y-30810D01*
X64610Y-30810D01*
X64610Y-29085D01*
X64535Y-28905D01*
X64397Y-28767D01*
X64217Y-28693D01*
X64022Y-28692D01*
X63842Y-28767D01*
X63704Y-28905D01*
X63630Y-29085D01*
X63629Y-29280D01*
X63704Y-29460D01*
X63842Y-29598D01*
X64022Y-29672D01*
X64217Y-29673D01*
X64397Y-29598D01*
X64535Y-29460D01*
X64609Y-29280D01*
X64610Y-29085D01*
X64610Y-30810D01*
X63610Y-30810D01*
X63610Y-29085D01*
X63535Y-28905D01*
X63397Y-28767D01*
X63217Y-28693D01*
X63022Y-28692D01*
X62842Y-28767D01*
X62704Y-28905D01*
X62630Y-29085D01*
X62629Y-29280D01*
X62704Y-29460D01*
X62842Y-29598D01*
X63022Y-29672D01*
X63217Y-29673D01*
X63397Y-29598D01*
X63535Y-29460D01*
X63609Y-29280D01*
X63610Y-29085D01*
X63610Y-30810D01*
X63522Y-30810D01*
X63529Y-30795D01*
X63529Y-30739D01*
X63529Y-30189D01*
X63507Y-30137D01*
X63468Y-30098D01*
X63417Y-30077D01*
X63361Y-30077D01*
X62811Y-30077D01*
X62759Y-30098D01*
X62720Y-30137D01*
X62699Y-30189D01*
X62699Y-30244D01*
X62699Y-30794D01*
X62705Y-30810D01*
X62610Y-30810D01*
X62610Y-29085D01*
X62535Y-28905D01*
X62397Y-28767D01*
X62217Y-28693D01*
X62022Y-28692D01*
X61842Y-28767D01*
X61704Y-28905D01*
X61630Y-29085D01*
X61629Y-29280D01*
X61704Y-29460D01*
X61842Y-29598D01*
X62022Y-29672D01*
X62217Y-29673D01*
X62397Y-29598D01*
X62535Y-29460D01*
X62609Y-29280D01*
X62610Y-29085D01*
X62610Y-30810D01*
X62450Y-30810D01*
X62366Y-30826D01*
X62465Y-30727D01*
X62529Y-30575D01*
X62529Y-30409D01*
X62466Y-30257D01*
X62349Y-30140D01*
X62197Y-30077D01*
X62031Y-30077D01*
X61879Y-30140D01*
X61762Y-30256D01*
X61699Y-30409D01*
X61699Y-30574D01*
X61762Y-30726D01*
X61878Y-30843D01*
X62031Y-30907D01*
X62196Y-30907D01*
X62310Y-30859D01*
X62280Y-30880D01*
X61930Y-31230D01*
X61878Y-31308D01*
X61860Y-31400D01*
X61860Y-31403D01*
X61748Y-31514D01*
X61685Y-31667D01*
X61684Y-31832D01*
X61747Y-31984D01*
X61864Y-32101D01*
X62017Y-32164D01*
X62182Y-32165D01*
X62334Y-32102D01*
X62451Y-31985D01*
X62514Y-31832D01*
X62515Y-31667D01*
X62452Y-31515D01*
X62388Y-31451D01*
X62549Y-31290D01*
X63175Y-31290D01*
X64650Y-31290D01*
X64811Y-31451D01*
X64748Y-31514D01*
X64685Y-31667D01*
X64684Y-31832D01*
X64747Y-31984D01*
X64864Y-32101D01*
X65017Y-32164D01*
X65182Y-32165D01*
X65334Y-32102D01*
X65451Y-31985D01*
X65514Y-31832D01*
X65515Y-31667D01*
X65515Y-42301D01*
X64521Y-41307D01*
X64521Y-31789D01*
X64504Y-31625D01*
X64474Y-31552D01*
X64413Y-31521D01*
X64328Y-31606D01*
X64328Y-31436D01*
X64297Y-31375D01*
X64139Y-31328D01*
X63975Y-31345D01*
X63902Y-31375D01*
X63871Y-31436D01*
X64100Y-31665D01*
X64328Y-31436D01*
X64328Y-31606D01*
X64184Y-31750D01*
X64413Y-31978D01*
X64474Y-31947D01*
X64521Y-31789D01*
X64521Y-41307D01*
X64328Y-41115D01*
X64328Y-32063D01*
X64100Y-31834D01*
X64015Y-31919D01*
X64015Y-31750D01*
X63786Y-31521D01*
X63725Y-31552D01*
X63678Y-31710D01*
X63695Y-31874D01*
X63725Y-31947D01*
X63786Y-31978D01*
X64015Y-31750D01*
X64015Y-31919D01*
X63871Y-32063D01*
X63902Y-32124D01*
X64060Y-32171D01*
X64224Y-32154D01*
X64297Y-32124D01*
X64328Y-32063D01*
X64328Y-41115D01*
X63521Y-40307D01*
X63521Y-31789D01*
X63504Y-31625D01*
X63474Y-31552D01*
X63413Y-31521D01*
X63328Y-31606D01*
X63328Y-31436D01*
X63297Y-31375D01*
X63139Y-31328D01*
X62975Y-31345D01*
X62902Y-31375D01*
X62871Y-31436D01*
X63100Y-31665D01*
X63328Y-31436D01*
X63328Y-31606D01*
X63184Y-31750D01*
X63413Y-31978D01*
X63474Y-31947D01*
X63521Y-31789D01*
X63521Y-40307D01*
X63328Y-40115D01*
X63328Y-32063D01*
X63100Y-31834D01*
X63015Y-31919D01*
X63015Y-31750D01*
X62786Y-31521D01*
X62725Y-31552D01*
X62678Y-31710D01*
X62695Y-31874D01*
X62725Y-31947D01*
X62786Y-31978D01*
X63015Y-31750D01*
X63015Y-31919D01*
X62871Y-32063D01*
X62902Y-32124D01*
X63060Y-32171D01*
X63224Y-32154D01*
X63297Y-32124D01*
X63328Y-32063D01*
X63328Y-40115D01*
X61610Y-38396D01*
X61610Y-29085D01*
X61535Y-28905D01*
X61397Y-28767D01*
X61217Y-28693D01*
X61022Y-28692D01*
X60842Y-28767D01*
X60704Y-28905D01*
X60630Y-29085D01*
X60629Y-29280D01*
X60704Y-29460D01*
X60842Y-29598D01*
X61022Y-29672D01*
X61217Y-29673D01*
X61397Y-29598D01*
X61535Y-29460D01*
X61609Y-29280D01*
X61610Y-29085D01*
X61610Y-38396D01*
X61529Y-38315D01*
X61529Y-30409D01*
X61466Y-30257D01*
X61349Y-30140D01*
X61197Y-30077D01*
X61031Y-30077D01*
X60879Y-30140D01*
X60762Y-30256D01*
X60699Y-30409D01*
X60699Y-30574D01*
X60762Y-30726D01*
X60878Y-30843D01*
X61031Y-30907D01*
X61196Y-30907D01*
X61348Y-30844D01*
X61465Y-30727D01*
X61529Y-30575D01*
X61529Y-30409D01*
X61529Y-38315D01*
X61515Y-38301D01*
X61515Y-31667D01*
X61452Y-31515D01*
X61335Y-31398D01*
X61182Y-31335D01*
X61017Y-31334D01*
X60865Y-31397D01*
X60748Y-31514D01*
X60685Y-31667D01*
X60684Y-31832D01*
X60747Y-31984D01*
X60864Y-32101D01*
X61017Y-32164D01*
X61182Y-32165D01*
X61334Y-32102D01*
X61451Y-31985D01*
X61514Y-31832D01*
X61515Y-31667D01*
X61515Y-38301D01*
X61429Y-38216D01*
X61351Y-38164D01*
X61259Y-38145D01*
X60521Y-38145D01*
X60532Y-38141D01*
X60621Y-38052D01*
X60669Y-37936D01*
X60669Y-37811D01*
X60621Y-37695D01*
X60594Y-37668D01*
X60594Y-36780D01*
X60621Y-36753D01*
X60669Y-36637D01*
X60669Y-36512D01*
X60621Y-36396D01*
X60532Y-36307D01*
X60417Y-36259D01*
X60291Y-36259D01*
X60176Y-36307D01*
X60087Y-36396D01*
X60043Y-36502D01*
X60043Y-36347D01*
X60070Y-36320D01*
X60118Y-36204D01*
X60118Y-36079D01*
X60070Y-35963D01*
X59981Y-35874D01*
X59866Y-35826D01*
X59740Y-35826D01*
X59624Y-35874D01*
X59536Y-35963D01*
X59488Y-36078D01*
X59488Y-36204D01*
X59535Y-36319D01*
X59563Y-36347D01*
X59563Y-37707D01*
X59536Y-37734D01*
X59488Y-37850D01*
X59488Y-37975D01*
X59535Y-38091D01*
X59590Y-38145D01*
X57411Y-38145D01*
X57422Y-38141D01*
X57510Y-38052D01*
X57559Y-37936D01*
X57559Y-37811D01*
X57511Y-37695D01*
X57484Y-37668D01*
X57484Y-36477D01*
X60375Y-33586D01*
X60756Y-33586D01*
X60842Y-33622D01*
X60967Y-33622D01*
X61083Y-33574D01*
X61172Y-33485D01*
X61220Y-33370D01*
X61220Y-33244D01*
X61172Y-33128D01*
X61084Y-33040D01*
X60968Y-32992D01*
X60843Y-32992D01*
X60727Y-33039D01*
X60660Y-33106D01*
X60535Y-33106D01*
X60535Y-30531D01*
X60518Y-30367D01*
X60488Y-30294D01*
X60427Y-30263D01*
X60342Y-30348D01*
X60342Y-30178D01*
X60311Y-30117D01*
X60153Y-30070D01*
X60100Y-30076D01*
X60100Y-29075D01*
X60025Y-28895D01*
X59887Y-28757D01*
X59707Y-28683D01*
X59512Y-28682D01*
X59332Y-28757D01*
X59194Y-28895D01*
X59120Y-29075D01*
X59119Y-29270D01*
X59194Y-29450D01*
X59332Y-29588D01*
X59512Y-29662D01*
X59707Y-29663D01*
X59887Y-29588D01*
X60025Y-29450D01*
X60099Y-29270D01*
X60100Y-29075D01*
X60100Y-30076D01*
X59989Y-30087D01*
X59916Y-30117D01*
X59885Y-30178D01*
X60114Y-30407D01*
X60342Y-30178D01*
X60342Y-30348D01*
X60199Y-30492D01*
X60427Y-30720D01*
X60488Y-30689D01*
X60535Y-30531D01*
X60535Y-33106D01*
X60515Y-33106D01*
X60515Y-31667D01*
X60452Y-31515D01*
X60342Y-31405D01*
X60342Y-30805D01*
X60114Y-30576D01*
X60029Y-30661D01*
X60029Y-30492D01*
X59800Y-30263D01*
X59740Y-30294D01*
X59692Y-30452D01*
X59709Y-30616D01*
X59740Y-30689D01*
X59800Y-30720D01*
X60029Y-30492D01*
X60029Y-30661D01*
X59885Y-30805D01*
X59916Y-30866D01*
X60074Y-30913D01*
X60238Y-30896D01*
X60311Y-30866D01*
X60342Y-30805D01*
X60342Y-31405D01*
X60335Y-31398D01*
X60182Y-31335D01*
X60017Y-31334D01*
X59865Y-31397D01*
X59748Y-31514D01*
X59685Y-31667D01*
X59684Y-31832D01*
X59747Y-31984D01*
X59864Y-32101D01*
X60017Y-32164D01*
X60182Y-32165D01*
X60334Y-32102D01*
X60451Y-31985D01*
X60514Y-31832D01*
X60515Y-31667D01*
X60515Y-33106D01*
X60275Y-33106D01*
X60183Y-33124D01*
X60105Y-33176D01*
X59515Y-33767D01*
X59515Y-31667D01*
X59452Y-31515D01*
X59335Y-31398D01*
X59182Y-31335D01*
X59100Y-31334D01*
X59100Y-29075D01*
X59025Y-28895D01*
X58887Y-28757D01*
X58707Y-28683D01*
X58512Y-28682D01*
X58332Y-28757D01*
X58194Y-28895D01*
X58120Y-29075D01*
X58119Y-29270D01*
X58127Y-29288D01*
X58067Y-29349D01*
X58099Y-29270D01*
X58100Y-29075D01*
X58025Y-28895D01*
X57887Y-28757D01*
X57707Y-28683D01*
X57512Y-28682D01*
X57332Y-28757D01*
X57194Y-28895D01*
X57120Y-29075D01*
X57119Y-29270D01*
X57155Y-29355D01*
X55425Y-31084D01*
X55387Y-31084D01*
X55271Y-31132D01*
X55240Y-31164D01*
X55240Y-31099D01*
X56676Y-29663D01*
X56707Y-29663D01*
X56887Y-29588D01*
X57025Y-29450D01*
X57099Y-29270D01*
X57100Y-29075D01*
X57025Y-28895D01*
X56887Y-28757D01*
X56707Y-28683D01*
X56512Y-28682D01*
X56332Y-28757D01*
X56194Y-28895D01*
X56120Y-29075D01*
X56119Y-29270D01*
X56194Y-29450D01*
X56202Y-29458D01*
X56100Y-29560D01*
X56100Y-29075D01*
X56025Y-28895D01*
X55887Y-28757D01*
X55707Y-28683D01*
X55512Y-28682D01*
X55332Y-28757D01*
X55194Y-28895D01*
X55120Y-29075D01*
X55119Y-29270D01*
X55194Y-29450D01*
X55332Y-29588D01*
X55512Y-29662D01*
X55707Y-29663D01*
X55887Y-29588D01*
X56025Y-29450D01*
X56099Y-29270D01*
X56100Y-29075D01*
X56100Y-29560D01*
X54850Y-30810D01*
X54850Y-29604D01*
X54887Y-29588D01*
X55025Y-29450D01*
X55099Y-29270D01*
X55100Y-29075D01*
X55025Y-28895D01*
X54887Y-28757D01*
X54707Y-28683D01*
X54512Y-28682D01*
X54332Y-28757D01*
X54194Y-28895D01*
X54120Y-29075D01*
X54119Y-29270D01*
X54194Y-29450D01*
X54332Y-29588D01*
X54370Y-29603D01*
X54370Y-33390D01*
X53900Y-33860D01*
X53205Y-33860D01*
X53178Y-33833D01*
X53074Y-33790D01*
X53500Y-33790D01*
X53539Y-33782D01*
X53580Y-33776D01*
X53585Y-33772D01*
X53591Y-33771D01*
X53625Y-33749D01*
X53660Y-33728D01*
X54160Y-33278D01*
X54162Y-33275D01*
X54172Y-33268D01*
X54208Y-33213D01*
X54216Y-33203D01*
X54217Y-33201D01*
X54223Y-33190D01*
X54237Y-33121D01*
X54239Y-33112D01*
X54239Y-33110D01*
X54241Y-33098D01*
X54231Y-31057D01*
X54237Y-30407D01*
X54266Y-30378D01*
X54314Y-30262D01*
X54315Y-30137D01*
X54267Y-30021D01*
X54178Y-29933D01*
X54106Y-29903D01*
X54106Y-29230D01*
X54090Y-29036D01*
X54046Y-28930D01*
X53978Y-28889D01*
X53893Y-28974D01*
X53893Y-28804D01*
X53852Y-28736D01*
X53667Y-28676D01*
X53473Y-28692D01*
X53367Y-28736D01*
X53326Y-28804D01*
X53610Y-29088D01*
X53893Y-28804D01*
X53893Y-28974D01*
X53694Y-29173D01*
X53978Y-29456D01*
X54046Y-29415D01*
X54106Y-29230D01*
X54106Y-29903D01*
X54062Y-29885D01*
X53937Y-29884D01*
X53893Y-29903D01*
X53893Y-29541D01*
X53610Y-29257D01*
X53525Y-29342D01*
X53525Y-29173D01*
X53241Y-28889D01*
X53173Y-28930D01*
X53113Y-29115D01*
X53129Y-29309D01*
X53173Y-29415D01*
X53241Y-29456D01*
X53525Y-29173D01*
X53525Y-29342D01*
X53326Y-29541D01*
X53367Y-29609D01*
X53552Y-29669D01*
X53746Y-29653D01*
X53852Y-29609D01*
X53893Y-29541D01*
X53893Y-29903D01*
X53821Y-29932D01*
X53733Y-30021D01*
X53685Y-30137D01*
X53684Y-30262D01*
X53732Y-30378D01*
X53757Y-30403D01*
X53751Y-31054D01*
X53751Y-31055D01*
X53751Y-31057D01*
X53751Y-31057D01*
X53751Y-31058D01*
X53761Y-32991D01*
X53407Y-33310D01*
X53100Y-33310D01*
X53100Y-29075D01*
X53025Y-28895D01*
X52887Y-28757D01*
X52707Y-28683D01*
X52512Y-28682D01*
X52332Y-28757D01*
X52194Y-28895D01*
X52120Y-29075D01*
X52119Y-29270D01*
X52194Y-29450D01*
X52332Y-29588D01*
X52512Y-29662D01*
X52707Y-29663D01*
X52887Y-29588D01*
X53025Y-29450D01*
X53099Y-29270D01*
X53100Y-29075D01*
X53100Y-33310D01*
X52100Y-33310D01*
X52100Y-29075D01*
X52025Y-28895D01*
X51887Y-28757D01*
X51707Y-28683D01*
X51512Y-28682D01*
X51332Y-28757D01*
X51194Y-28895D01*
X51120Y-29075D01*
X51119Y-29270D01*
X51194Y-29450D01*
X51332Y-29588D01*
X51512Y-29662D01*
X51707Y-29663D01*
X51887Y-29588D01*
X52025Y-29450D01*
X52099Y-29270D01*
X52100Y-29075D01*
X52100Y-33310D01*
X51100Y-33310D01*
X51100Y-29075D01*
X51025Y-28895D01*
X50887Y-28757D01*
X50707Y-28683D01*
X50512Y-28682D01*
X50332Y-28757D01*
X50194Y-28895D01*
X50120Y-29075D01*
X50119Y-29270D01*
X50194Y-29450D01*
X50332Y-29588D01*
X50512Y-29662D01*
X50707Y-29663D01*
X50887Y-29588D01*
X51025Y-29450D01*
X51099Y-29270D01*
X51100Y-29075D01*
X51100Y-33310D01*
X49760Y-33310D01*
X49760Y-29176D01*
X49662Y-28940D01*
X49483Y-28760D01*
X49247Y-28663D01*
X48993Y-28662D01*
X48757Y-28760D01*
X48577Y-28939D01*
X48480Y-29175D01*
X48479Y-29429D01*
X48577Y-29665D01*
X48756Y-29845D01*
X48992Y-29942D01*
X49246Y-29943D01*
X49482Y-29845D01*
X49662Y-29666D01*
X49759Y-29430D01*
X49760Y-29176D01*
X49760Y-33310D01*
X47300Y-33310D01*
X47208Y-33328D01*
X47161Y-33359D01*
X47130Y-33380D01*
X46730Y-33780D01*
X46687Y-33843D01*
X46687Y-32141D01*
X46687Y-30141D01*
X46674Y-29890D01*
X46604Y-29721D01*
X46521Y-29663D01*
X46436Y-29748D01*
X46436Y-29578D01*
X46378Y-29495D01*
X46141Y-29412D01*
X45890Y-29425D01*
X45721Y-29495D01*
X45663Y-29578D01*
X46050Y-29965D01*
X46436Y-29578D01*
X46436Y-29748D01*
X46134Y-30050D01*
X46521Y-30436D01*
X46604Y-30378D01*
X46687Y-30141D01*
X46687Y-32141D01*
X46674Y-31890D01*
X46604Y-31721D01*
X46521Y-31663D01*
X46436Y-31748D01*
X46436Y-31578D01*
X46436Y-30521D01*
X46050Y-30134D01*
X45965Y-30219D01*
X45965Y-30050D01*
X45578Y-29663D01*
X45495Y-29721D01*
X45412Y-29958D01*
X45425Y-30209D01*
X45495Y-30378D01*
X45578Y-30436D01*
X45965Y-30050D01*
X45965Y-30219D01*
X45663Y-30521D01*
X45721Y-30604D01*
X45958Y-30687D01*
X46209Y-30674D01*
X46378Y-30604D01*
X46436Y-30521D01*
X46436Y-31578D01*
X46378Y-31495D01*
X46141Y-31412D01*
X45890Y-31425D01*
X45721Y-31495D01*
X45682Y-31551D01*
X45682Y-30924D01*
X45586Y-30692D01*
X45408Y-30514D01*
X45176Y-30417D01*
X44924Y-30417D01*
X44692Y-30513D01*
X44687Y-30518D01*
X44687Y-30141D01*
X44674Y-29890D01*
X44604Y-29721D01*
X44521Y-29663D01*
X44436Y-29748D01*
X44436Y-29578D01*
X44378Y-29495D01*
X44141Y-29412D01*
X43890Y-29425D01*
X43721Y-29495D01*
X43663Y-29578D01*
X44050Y-29965D01*
X44436Y-29578D01*
X44436Y-29748D01*
X44134Y-30050D01*
X44521Y-30436D01*
X44604Y-30378D01*
X44687Y-30141D01*
X44687Y-30518D01*
X44514Y-30691D01*
X44436Y-30879D01*
X44436Y-30521D01*
X44050Y-30134D01*
X43965Y-30219D01*
X43965Y-30050D01*
X43578Y-29663D01*
X43495Y-29721D01*
X43412Y-29958D01*
X43425Y-30209D01*
X43495Y-30378D01*
X43578Y-30436D01*
X43965Y-30050D01*
X43965Y-30219D01*
X43663Y-30521D01*
X43721Y-30604D01*
X43958Y-30687D01*
X44209Y-30674D01*
X44378Y-30604D01*
X44436Y-30521D01*
X44436Y-30879D01*
X44417Y-30923D01*
X44417Y-31175D01*
X44513Y-31407D01*
X44691Y-31585D01*
X44923Y-31682D01*
X45175Y-31682D01*
X45407Y-31586D01*
X45585Y-31408D01*
X45682Y-31176D01*
X45682Y-30924D01*
X45682Y-31551D01*
X45663Y-31578D01*
X46050Y-31965D01*
X46436Y-31578D01*
X46436Y-31748D01*
X46134Y-32050D01*
X46521Y-32436D01*
X46604Y-32378D01*
X46687Y-32141D01*
X46687Y-33843D01*
X46678Y-33858D01*
X46660Y-33950D01*
X46660Y-34044D01*
X46633Y-34071D01*
X46585Y-34187D01*
X46584Y-34312D01*
X46632Y-34428D01*
X46721Y-34516D01*
X46837Y-34564D01*
X46962Y-34565D01*
X47078Y-34517D01*
X47166Y-34428D01*
X47214Y-34312D01*
X47215Y-34187D01*
X47167Y-34071D01*
X47142Y-34046D01*
X47399Y-33790D01*
X52925Y-33790D01*
X52821Y-33832D01*
X52733Y-33921D01*
X52685Y-34037D01*
X52684Y-34162D01*
X52732Y-34278D01*
X52764Y-34310D01*
X49299Y-34310D01*
X49115Y-34125D01*
X49115Y-34087D01*
X49067Y-33971D01*
X48978Y-33883D01*
X48862Y-33835D01*
X48737Y-33834D01*
X48621Y-33882D01*
X48533Y-33971D01*
X48485Y-34087D01*
X48484Y-34212D01*
X48532Y-34328D01*
X48621Y-34416D01*
X48737Y-34464D01*
X48775Y-34464D01*
X49030Y-34719D01*
X49030Y-34719D01*
X49052Y-34734D01*
X49051Y-34734D01*
X49017Y-34734D01*
X48982Y-34769D01*
X48982Y-35168D01*
X48989Y-35168D01*
X48989Y-35288D01*
X48982Y-35288D01*
X48982Y-35688D01*
X49017Y-35723D01*
X49051Y-35723D01*
X49107Y-35723D01*
X49115Y-35719D01*
X49115Y-35854D01*
X49091Y-35845D01*
X49035Y-35845D01*
X49000Y-35845D01*
X48965Y-35880D01*
X48965Y-36279D01*
X48973Y-36279D01*
X48973Y-36399D01*
X48965Y-36399D01*
X48965Y-36798D01*
X48984Y-36817D01*
X48862Y-36939D01*
X48862Y-35688D01*
X48862Y-35288D01*
X48862Y-35168D01*
X48862Y-34769D01*
X48827Y-34734D01*
X48792Y-34734D01*
X48736Y-34734D01*
X48685Y-34755D01*
X48645Y-34795D01*
X48624Y-34846D01*
X48624Y-35133D01*
X48659Y-35168D01*
X48862Y-35168D01*
X48862Y-35288D01*
X48659Y-35288D01*
X48624Y-35323D01*
X48624Y-35610D01*
X48645Y-35662D01*
X48685Y-35701D01*
X48736Y-35723D01*
X48792Y-35723D01*
X48827Y-35723D01*
X48862Y-35688D01*
X48862Y-36939D01*
X48845Y-36955D01*
X48845Y-36798D01*
X48845Y-36399D01*
X48845Y-36279D01*
X48845Y-35880D01*
X48810Y-35845D01*
X48776Y-35845D01*
X48720Y-35845D01*
X48669Y-35866D01*
X48629Y-35905D01*
X48608Y-35957D01*
X48608Y-36244D01*
X48643Y-36279D01*
X48845Y-36279D01*
X48845Y-36399D01*
X48643Y-36399D01*
X48608Y-36434D01*
X48608Y-36721D01*
X48629Y-36772D01*
X48669Y-36812D01*
X48720Y-36833D01*
X48776Y-36833D01*
X48810Y-36833D01*
X48845Y-36798D01*
X48845Y-36955D01*
X48828Y-36972D01*
X47841Y-36972D01*
X46844Y-35975D01*
X46787Y-35938D01*
X46787Y-35291D01*
X46774Y-35040D01*
X46704Y-34871D01*
X46621Y-34813D01*
X46536Y-34898D01*
X46536Y-34728D01*
X46478Y-34645D01*
X46436Y-34630D01*
X46436Y-32521D01*
X46050Y-32134D01*
X45965Y-32219D01*
X45965Y-32050D01*
X45578Y-31663D01*
X45495Y-31721D01*
X45412Y-31958D01*
X45425Y-32209D01*
X45495Y-32378D01*
X45578Y-32436D01*
X45965Y-32050D01*
X45965Y-32219D01*
X45663Y-32521D01*
X45721Y-32604D01*
X45958Y-32687D01*
X46209Y-32674D01*
X46378Y-32604D01*
X46436Y-32521D01*
X46436Y-34630D01*
X46241Y-34562D01*
X45990Y-34575D01*
X45821Y-34645D01*
X45763Y-34728D01*
X46150Y-35115D01*
X46536Y-34728D01*
X46536Y-34898D01*
X46234Y-35200D01*
X46621Y-35586D01*
X46704Y-35528D01*
X46787Y-35291D01*
X46787Y-35938D01*
X46741Y-35906D01*
X46620Y-35882D01*
X46536Y-35882D01*
X46536Y-35671D01*
X46150Y-35284D01*
X46065Y-35369D01*
X46065Y-35200D01*
X45678Y-34813D01*
X45595Y-34871D01*
X45512Y-35108D01*
X45525Y-35359D01*
X45595Y-35528D01*
X45678Y-35586D01*
X46065Y-35200D01*
X46065Y-35369D01*
X45763Y-35671D01*
X45821Y-35754D01*
X46058Y-35837D01*
X46309Y-35824D01*
X46478Y-35754D01*
X46536Y-35671D01*
X46536Y-35882D01*
X45702Y-35882D01*
X45686Y-35842D01*
X45508Y-35664D01*
X45276Y-35567D01*
X45024Y-35567D01*
X44792Y-35663D01*
X44787Y-35668D01*
X44787Y-35291D01*
X44774Y-35040D01*
X44704Y-34871D01*
X44687Y-34859D01*
X44687Y-32141D01*
X44674Y-31890D01*
X44604Y-31721D01*
X44521Y-31663D01*
X44436Y-31748D01*
X44436Y-31578D01*
X44378Y-31495D01*
X44141Y-31412D01*
X43890Y-31425D01*
X43721Y-31495D01*
X43663Y-31578D01*
X44050Y-31965D01*
X44436Y-31578D01*
X44436Y-31748D01*
X44134Y-32050D01*
X44521Y-32436D01*
X44604Y-32378D01*
X44687Y-32141D01*
X44687Y-34859D01*
X44621Y-34813D01*
X44536Y-34898D01*
X44536Y-34728D01*
X44478Y-34645D01*
X44436Y-34630D01*
X44436Y-32521D01*
X44050Y-32134D01*
X43965Y-32219D01*
X43965Y-32050D01*
X43578Y-31663D01*
X43495Y-31721D01*
X43412Y-31958D01*
X43425Y-32209D01*
X43495Y-32378D01*
X43578Y-32436D01*
X43965Y-32050D01*
X43965Y-32219D01*
X43663Y-32521D01*
X43721Y-32604D01*
X43958Y-32687D01*
X44209Y-32674D01*
X44378Y-32604D01*
X44436Y-32521D01*
X44436Y-34630D01*
X44241Y-34562D01*
X43990Y-34575D01*
X43821Y-34645D01*
X43763Y-34728D01*
X44150Y-35115D01*
X44536Y-34728D01*
X44536Y-34898D01*
X44234Y-35200D01*
X44621Y-35586D01*
X44704Y-35528D01*
X44787Y-35291D01*
X44787Y-35668D01*
X44614Y-35841D01*
X44536Y-36029D01*
X44536Y-35671D01*
X44150Y-35284D01*
X44065Y-35369D01*
X44065Y-35200D01*
X43678Y-34813D01*
X43595Y-34871D01*
X43512Y-35108D01*
X43525Y-35359D01*
X43595Y-35528D01*
X43678Y-35586D01*
X44065Y-35200D01*
X44065Y-35369D01*
X43763Y-35671D01*
X43821Y-35754D01*
X44058Y-35837D01*
X44309Y-35824D01*
X44478Y-35754D01*
X44536Y-35671D01*
X44536Y-36029D01*
X44517Y-36073D01*
X44517Y-36325D01*
X44613Y-36557D01*
X44791Y-36735D01*
X45023Y-36832D01*
X45275Y-36832D01*
X45507Y-36736D01*
X45685Y-36558D01*
X45702Y-36517D01*
X46488Y-36517D01*
X47485Y-37514D01*
X47485Y-37514D01*
X47588Y-37583D01*
X47710Y-37607D01*
X48870Y-37607D01*
X48960Y-37607D01*
X49081Y-37583D01*
X49081Y-37583D01*
X49184Y-37514D01*
X49564Y-37134D01*
X49564Y-37134D01*
X49633Y-37031D01*
X49657Y-36910D01*
X49657Y-36910D01*
X49657Y-36833D01*
X49677Y-36833D01*
X49712Y-36798D01*
X49712Y-36399D01*
X49704Y-36399D01*
X49704Y-36279D01*
X49712Y-36279D01*
X49712Y-35880D01*
X49677Y-35845D01*
X49642Y-35845D01*
X49595Y-35845D01*
X49595Y-35719D01*
X49602Y-35723D01*
X49658Y-35723D01*
X49693Y-35723D01*
X49728Y-35688D01*
X49728Y-35288D01*
X49720Y-35288D01*
X49720Y-35168D01*
X49728Y-35168D01*
X49728Y-35160D01*
X49848Y-35160D01*
X49848Y-35168D01*
X49856Y-35168D01*
X49856Y-35288D01*
X49848Y-35288D01*
X49848Y-35688D01*
X49883Y-35723D01*
X49917Y-35723D01*
X49973Y-35723D01*
X50004Y-35710D01*
X50035Y-35723D01*
X50091Y-35723D01*
X50406Y-35723D01*
X50437Y-35710D01*
X50468Y-35723D01*
X50524Y-35723D01*
X50559Y-35723D01*
X50594Y-35688D01*
X50594Y-35288D01*
X50586Y-35288D01*
X50586Y-35168D01*
X50594Y-35168D01*
X50594Y-35160D01*
X50714Y-35160D01*
X50714Y-35168D01*
X50722Y-35168D01*
X50722Y-35288D01*
X50714Y-35288D01*
X50714Y-35688D01*
X50749Y-35723D01*
X50784Y-35723D01*
X50839Y-35723D01*
X50870Y-35710D01*
X50901Y-35723D01*
X50957Y-35723D01*
X51272Y-35723D01*
X51324Y-35701D01*
X51363Y-35662D01*
X51384Y-35611D01*
X51384Y-35555D01*
X51384Y-34846D01*
X51363Y-34795D01*
X51358Y-34790D01*
X52312Y-34790D01*
X52307Y-34795D01*
X52286Y-34846D01*
X52285Y-34902D01*
X52285Y-35610D01*
X52307Y-35662D01*
X52346Y-35701D01*
X52398Y-35723D01*
X52453Y-35723D01*
X52768Y-35723D01*
X52800Y-35710D01*
X52831Y-35723D01*
X52886Y-35723D01*
X53201Y-35723D01*
X53233Y-35710D01*
X53264Y-35723D01*
X53319Y-35723D01*
X53634Y-35723D01*
X53666Y-35710D01*
X53697Y-35723D01*
X53752Y-35723D01*
X53787Y-35723D01*
X53822Y-35688D01*
X53822Y-35288D01*
X53814Y-35288D01*
X53814Y-35168D01*
X53822Y-35168D01*
X53822Y-35160D01*
X53942Y-35160D01*
X53942Y-35168D01*
X53950Y-35168D01*
X53950Y-35288D01*
X53942Y-35288D01*
X53942Y-35688D01*
X53977Y-35723D01*
X54012Y-35723D01*
X54068Y-35723D01*
X54099Y-35710D01*
X54130Y-35723D01*
X54185Y-35723D01*
X54500Y-35723D01*
X54532Y-35710D01*
X54563Y-35723D01*
X54619Y-35723D01*
X54934Y-35723D01*
X54965Y-35710D01*
X54996Y-35723D01*
X55052Y-35723D01*
X55367Y-35723D01*
X55398Y-35710D01*
X55429Y-35723D01*
X55485Y-35723D01*
X55800Y-35723D01*
X55851Y-35701D01*
X55891Y-35662D01*
X55912Y-35611D01*
X55912Y-35555D01*
X55912Y-34846D01*
X55891Y-34795D01*
X55851Y-34755D01*
X55800Y-34734D01*
X55744Y-34734D01*
X55429Y-34734D01*
X55398Y-34747D01*
X55367Y-34734D01*
X55311Y-34734D01*
X54996Y-34734D01*
X54965Y-34747D01*
X54934Y-34734D01*
X54878Y-34734D01*
X54563Y-34734D01*
X54532Y-34747D01*
X54501Y-34734D01*
X54445Y-34734D01*
X54197Y-34734D01*
X54219Y-34719D01*
X55169Y-33769D01*
X55169Y-33769D01*
X55221Y-33691D01*
X55239Y-33600D01*
X55240Y-33600D01*
X55240Y-32496D01*
X55293Y-32550D01*
X55409Y-32598D01*
X55534Y-32598D01*
X55650Y-32550D01*
X55739Y-32462D01*
X55787Y-32346D01*
X55787Y-32307D01*
X58455Y-29639D01*
X58512Y-29662D01*
X58707Y-29663D01*
X58887Y-29588D01*
X59025Y-29450D01*
X59099Y-29270D01*
X59100Y-29075D01*
X59100Y-31334D01*
X59017Y-31334D01*
X58865Y-31397D01*
X58748Y-31514D01*
X58685Y-31667D01*
X58684Y-31832D01*
X58747Y-31984D01*
X58864Y-32101D01*
X59017Y-32164D01*
X59182Y-32165D01*
X59334Y-32102D01*
X59451Y-31985D01*
X59514Y-31832D01*
X59515Y-31667D01*
X59515Y-33767D01*
X58521Y-34761D01*
X58521Y-31789D01*
X58504Y-31625D01*
X58474Y-31552D01*
X58413Y-31521D01*
X58328Y-31606D01*
X58328Y-31436D01*
X58297Y-31375D01*
X58139Y-31328D01*
X57975Y-31345D01*
X57902Y-31375D01*
X57871Y-31436D01*
X58100Y-31665D01*
X58328Y-31436D01*
X58328Y-31606D01*
X58184Y-31750D01*
X58413Y-31978D01*
X58474Y-31947D01*
X58521Y-31789D01*
X58521Y-34761D01*
X58328Y-34953D01*
X58328Y-32063D01*
X58100Y-31834D01*
X58015Y-31919D01*
X58015Y-31750D01*
X57786Y-31521D01*
X57725Y-31552D01*
X57678Y-31710D01*
X57695Y-31874D01*
X57725Y-31947D01*
X57786Y-31978D01*
X58015Y-31750D01*
X58015Y-31919D01*
X57871Y-32063D01*
X57902Y-32124D01*
X58060Y-32171D01*
X58224Y-32154D01*
X58297Y-32124D01*
X58328Y-32063D01*
X58328Y-34953D01*
X57074Y-36208D01*
X57022Y-36286D01*
X57004Y-36377D01*
X57004Y-37668D01*
X56977Y-37695D01*
X56929Y-37811D01*
X56929Y-37936D01*
X56976Y-38052D01*
X57065Y-38140D01*
X57077Y-38145D01*
X56584Y-38145D01*
X56595Y-38141D01*
X56684Y-38052D01*
X56732Y-37936D01*
X56732Y-37811D01*
X56684Y-37695D01*
X56595Y-37607D01*
X56480Y-37559D01*
X56354Y-37558D01*
X56239Y-37606D01*
X56150Y-37695D01*
X56102Y-37811D01*
X56102Y-37936D01*
X56150Y-38052D01*
X56238Y-38140D01*
X56250Y-38145D01*
X52667Y-38145D01*
X52667Y-36665D01*
X52667Y-35957D01*
X52646Y-35905D01*
X52607Y-35866D01*
X52555Y-35845D01*
X52500Y-35845D01*
X52185Y-35845D01*
X52153Y-35857D01*
X52122Y-35845D01*
X52067Y-35845D01*
X51752Y-35845D01*
X51720Y-35857D01*
X51689Y-35845D01*
X51634Y-35845D01*
X51319Y-35845D01*
X51287Y-35857D01*
X51256Y-35845D01*
X51201Y-35845D01*
X51166Y-35845D01*
X51131Y-35880D01*
X51131Y-36279D01*
X51139Y-36279D01*
X51139Y-36399D01*
X51131Y-36399D01*
X51131Y-36798D01*
X51166Y-36833D01*
X51201Y-36833D01*
X51256Y-36833D01*
X51287Y-36820D01*
X51318Y-36833D01*
X51374Y-36833D01*
X51689Y-36833D01*
X51720Y-36820D01*
X51751Y-36833D01*
X51807Y-36833D01*
X52122Y-36833D01*
X52153Y-36820D01*
X52185Y-36833D01*
X52240Y-36833D01*
X52555Y-36833D01*
X52607Y-36812D01*
X52646Y-36773D01*
X52667Y-36721D01*
X52667Y-36665D01*
X52667Y-38145D01*
X51011Y-38145D01*
X51011Y-36798D01*
X51011Y-36399D01*
X51003Y-36399D01*
X51003Y-36279D01*
X51011Y-36279D01*
X51011Y-35880D01*
X50976Y-35845D01*
X50941Y-35845D01*
X50885Y-35845D01*
X50854Y-35857D01*
X50823Y-35845D01*
X50767Y-35845D01*
X50452Y-35845D01*
X50421Y-35857D01*
X50390Y-35845D01*
X50334Y-35845D01*
X50019Y-35845D01*
X49988Y-35857D01*
X49957Y-35845D01*
X49901Y-35845D01*
X49867Y-35845D01*
X49832Y-35880D01*
X49832Y-36279D01*
X49839Y-36279D01*
X49839Y-36399D01*
X49832Y-36399D01*
X49832Y-36798D01*
X49867Y-36833D01*
X49901Y-36833D01*
X49957Y-36833D01*
X49988Y-36820D01*
X50019Y-36833D01*
X50075Y-36833D01*
X50390Y-36833D01*
X50421Y-36820D01*
X50452Y-36833D01*
X50508Y-36833D01*
X50823Y-36833D01*
X50854Y-36820D01*
X50885Y-36833D01*
X50941Y-36833D01*
X50976Y-36833D01*
X51011Y-36798D01*
X51011Y-38145D01*
X47913Y-38145D01*
X47821Y-38164D01*
X47743Y-38216D01*
X47219Y-38740D01*
X47181Y-38740D01*
X47065Y-38787D01*
X46977Y-38876D01*
X46929Y-38992D01*
X46929Y-39117D01*
X46976Y-39233D01*
X47065Y-39322D01*
X47181Y-39370D01*
X47306Y-39370D01*
X47422Y-39322D01*
X47510Y-39233D01*
X47559Y-39118D01*
X47559Y-39079D01*
X48012Y-38625D01*
X48633Y-38625D01*
X47298Y-39960D01*
X47260Y-39960D01*
X47144Y-40008D01*
X47055Y-40096D01*
X47007Y-40212D01*
X47007Y-40337D01*
X47055Y-40453D01*
X47144Y-40542D01*
X47259Y-40590D01*
X47385Y-40590D01*
X47501Y-40542D01*
X47589Y-40454D01*
X47637Y-40338D01*
X47637Y-40300D01*
X48918Y-39019D01*
X50395Y-39019D01*
X50341Y-39030D01*
X50263Y-39082D01*
X50035Y-39310D01*
X49983Y-39388D01*
X49965Y-39479D01*
X49965Y-39588D01*
X49957Y-39585D01*
X49901Y-39585D01*
X49586Y-39585D01*
X49555Y-39598D01*
X49524Y-39585D01*
X49468Y-39585D01*
X49153Y-39585D01*
X49122Y-39598D01*
X49091Y-39585D01*
X49035Y-39585D01*
X48720Y-39585D01*
X48669Y-39606D01*
X48629Y-39645D01*
X48608Y-39697D01*
X48608Y-39752D01*
X48608Y-39949D01*
X47940Y-40617D01*
X47888Y-40695D01*
X47870Y-40787D01*
X47870Y-42401D01*
X47888Y-42493D01*
X47940Y-42571D01*
X50617Y-45248D01*
X50695Y-45300D01*
X50787Y-45318D01*
X51959Y-45318D01*
X51986Y-45345D01*
X52102Y-45393D01*
X52227Y-45393D01*
X52343Y-45345D01*
X52432Y-45257D01*
X52480Y-45141D01*
X52480Y-45016D01*
X52432Y-44900D01*
X52344Y-44811D01*
X52228Y-44763D01*
X52102Y-44763D01*
X51987Y-44811D01*
X51959Y-44838D01*
X50886Y-44838D01*
X49295Y-43247D01*
X49295Y-42302D01*
X49295Y-41902D01*
X49295Y-41782D01*
X49295Y-41383D01*
X49260Y-41348D01*
X49225Y-41348D01*
X49169Y-41348D01*
X49138Y-41361D01*
X49107Y-41348D01*
X49051Y-41348D01*
X49017Y-41348D01*
X48982Y-41383D01*
X48982Y-41782D01*
X49092Y-41782D01*
X49184Y-41782D01*
X49295Y-41782D01*
X49295Y-41902D01*
X49184Y-41902D01*
X49092Y-41902D01*
X48982Y-41902D01*
X48982Y-42302D01*
X49017Y-42337D01*
X49051Y-42337D01*
X49107Y-42337D01*
X49138Y-42324D01*
X49169Y-42337D01*
X49225Y-42337D01*
X49260Y-42337D01*
X49295Y-42302D01*
X49295Y-43247D01*
X48862Y-42813D01*
X48862Y-42302D01*
X48862Y-41902D01*
X48862Y-41782D01*
X48862Y-41383D01*
X48827Y-41348D01*
X48792Y-41348D01*
X48736Y-41348D01*
X48685Y-41369D01*
X48645Y-41409D01*
X48624Y-41460D01*
X48624Y-41747D01*
X48659Y-41782D01*
X48862Y-41782D01*
X48862Y-41902D01*
X48659Y-41902D01*
X48624Y-41937D01*
X48624Y-42224D01*
X48645Y-42276D01*
X48685Y-42315D01*
X48736Y-42337D01*
X48792Y-42337D01*
X48827Y-42337D01*
X48862Y-42302D01*
X48862Y-42813D01*
X48350Y-42302D01*
X48350Y-40886D01*
X48680Y-40557D01*
X48720Y-40573D01*
X48776Y-40573D01*
X49091Y-40573D01*
X49110Y-40566D01*
X49110Y-40900D01*
X49128Y-40991D01*
X49180Y-41069D01*
X49258Y-41121D01*
X49350Y-41140D01*
X49750Y-41140D01*
X50010Y-41140D01*
X50010Y-41359D01*
X50004Y-41361D01*
X49973Y-41348D01*
X49917Y-41348D01*
X49602Y-41348D01*
X49571Y-41361D01*
X49540Y-41348D01*
X49484Y-41348D01*
X49450Y-41348D01*
X49415Y-41383D01*
X49415Y-41782D01*
X49422Y-41782D01*
X49422Y-41902D01*
X49415Y-41902D01*
X49415Y-42302D01*
X49450Y-42337D01*
X49484Y-42337D01*
X49540Y-42337D01*
X49571Y-42324D01*
X49602Y-42337D01*
X49658Y-42337D01*
X49973Y-42337D01*
X49981Y-42334D01*
X49981Y-42898D01*
X49999Y-42990D01*
X50051Y-43068D01*
X51641Y-44657D01*
X51641Y-44657D01*
X51719Y-44709D01*
X51811Y-44728D01*
X56396Y-44728D01*
X56860Y-45191D01*
X56860Y-47831D01*
X56822Y-47847D01*
X56684Y-47985D01*
X56610Y-48165D01*
X56609Y-48360D01*
X56684Y-48540D01*
X56822Y-48678D01*
X57002Y-48752D01*
X57197Y-48753D01*
X57377Y-48678D01*
X57515Y-48540D01*
X57589Y-48360D01*
X57590Y-48165D01*
X57515Y-47985D01*
X57377Y-47847D01*
X57340Y-47832D01*
X57340Y-45092D01*
X57321Y-45000D01*
X57269Y-44922D01*
X57269Y-44922D01*
X56737Y-44390D01*
X58200Y-44390D01*
X60430Y-46619D01*
X60430Y-46619D01*
X60508Y-46671D01*
X60600Y-46690D01*
X60750Y-46690D01*
X62362Y-46690D01*
X62388Y-46715D01*
X62503Y-46763D01*
X62629Y-46763D01*
X62745Y-46716D01*
X62833Y-46627D01*
X62881Y-46511D01*
X62881Y-46386D01*
X62834Y-46270D01*
X62745Y-46181D01*
X62629Y-46133D01*
X62591Y-46133D01*
X62728Y-45996D01*
X62728Y-45996D01*
X62780Y-45918D01*
X62799Y-45826D01*
X62799Y-45826D01*
X62799Y-44312D01*
X63288Y-43822D01*
X63967Y-43822D01*
X63994Y-43849D01*
X64110Y-43897D01*
X64235Y-43897D01*
X64351Y-43849D01*
X64440Y-43761D01*
X64488Y-43645D01*
X64488Y-43520D01*
X64440Y-43404D01*
X64351Y-43315D01*
X64236Y-43267D01*
X64110Y-43267D01*
X63995Y-43315D01*
X63967Y-43342D01*
X63188Y-43342D01*
X63097Y-43360D01*
X63019Y-43412D01*
X62389Y-44042D01*
X62365Y-44077D01*
X62365Y-43385D01*
X62365Y-43385D01*
X62347Y-43293D01*
X62316Y-43247D01*
X62295Y-43216D01*
X62295Y-43216D01*
X61744Y-42664D01*
X61666Y-42612D01*
X61574Y-42594D01*
X60835Y-42594D01*
X60808Y-42567D01*
X60692Y-42519D01*
X60567Y-42519D01*
X60451Y-42567D01*
X60363Y-42655D01*
X60314Y-42771D01*
X60314Y-42897D01*
X60362Y-43012D01*
X60451Y-43101D01*
X60566Y-43149D01*
X60692Y-43149D01*
X60808Y-43101D01*
X60835Y-43074D01*
X61475Y-43074D01*
X61885Y-43485D01*
X61885Y-44330D01*
X61885Y-45345D01*
X61859Y-45372D01*
X61811Y-45488D01*
X61810Y-45613D01*
X61858Y-45729D01*
X61873Y-45744D01*
X61565Y-45744D01*
X61480Y-45708D01*
X61354Y-45708D01*
X61239Y-45756D01*
X61150Y-45844D01*
X61102Y-45960D01*
X61102Y-46086D01*
X61150Y-46201D01*
X61158Y-46210D01*
X60750Y-46210D01*
X60699Y-46210D01*
X58469Y-43980D01*
X58391Y-43928D01*
X58300Y-43910D01*
X52956Y-43910D01*
X52956Y-42302D01*
X52956Y-41902D01*
X52948Y-41902D01*
X52948Y-41782D01*
X52956Y-41782D01*
X52956Y-41383D01*
X52921Y-41348D01*
X52886Y-41348D01*
X52831Y-41348D01*
X52800Y-41361D01*
X52768Y-41348D01*
X52713Y-41348D01*
X52398Y-41348D01*
X52346Y-41369D01*
X52307Y-41409D01*
X52286Y-41460D01*
X52285Y-41516D01*
X52285Y-42224D01*
X52307Y-42276D01*
X52346Y-42315D01*
X52398Y-42337D01*
X52453Y-42337D01*
X52768Y-42337D01*
X52800Y-42324D01*
X52831Y-42337D01*
X52886Y-42337D01*
X52921Y-42337D01*
X52956Y-42302D01*
X52956Y-43910D01*
X52426Y-43910D01*
X52344Y-43827D01*
X52228Y-43779D01*
X52102Y-43779D01*
X51987Y-43827D01*
X51976Y-43837D01*
X51144Y-43005D01*
X51144Y-43005D01*
X51144Y-43005D01*
X50890Y-42750D01*
X50890Y-42332D01*
X50901Y-42337D01*
X50957Y-42337D01*
X51272Y-42337D01*
X51324Y-42315D01*
X51363Y-42276D01*
X51384Y-42225D01*
X51384Y-42169D01*
X51384Y-41460D01*
X51363Y-41409D01*
X51324Y-41369D01*
X51272Y-41348D01*
X51217Y-41348D01*
X50902Y-41348D01*
X50870Y-41361D01*
X50839Y-41348D01*
X50784Y-41348D01*
X50490Y-41348D01*
X50490Y-41090D01*
X52728Y-41090D01*
X53100Y-41090D01*
X53160Y-41149D01*
X53160Y-41348D01*
X53146Y-41348D01*
X53111Y-41348D01*
X53076Y-41383D01*
X53076Y-41782D01*
X53084Y-41782D01*
X53084Y-41902D01*
X53076Y-41902D01*
X53076Y-42302D01*
X53111Y-42337D01*
X53146Y-42337D01*
X53201Y-42337D01*
X53233Y-42324D01*
X53264Y-42337D01*
X53319Y-42337D01*
X53634Y-42337D01*
X53666Y-42324D01*
X53697Y-42337D01*
X53752Y-42337D01*
X54067Y-42337D01*
X54075Y-42334D01*
X54075Y-42508D01*
X54094Y-42600D01*
X54146Y-42678D01*
X54357Y-42890D01*
X54357Y-42890D01*
X54389Y-42911D01*
X54435Y-42942D01*
X54527Y-42960D01*
X54527Y-42960D01*
X57992Y-42960D01*
X58083Y-42942D01*
X58161Y-42890D01*
X59972Y-41079D01*
X59972Y-41079D01*
X60024Y-41001D01*
X60043Y-40909D01*
X60043Y-40909D01*
X60043Y-39811D01*
X60070Y-39784D01*
X60078Y-39764D01*
X60087Y-39784D01*
X60114Y-39811D01*
X60114Y-41251D01*
X60087Y-41278D01*
X60039Y-41393D01*
X60039Y-41519D01*
X60087Y-41634D01*
X60175Y-41723D01*
X60291Y-41771D01*
X60416Y-41771D01*
X60532Y-41723D01*
X60621Y-41635D01*
X60669Y-41519D01*
X60669Y-41394D01*
X60621Y-41278D01*
X60594Y-41251D01*
X60594Y-39811D01*
X60621Y-39784D01*
X60669Y-39669D01*
X60669Y-39543D01*
X60621Y-39428D01*
X60532Y-39339D01*
X60417Y-39291D01*
X60291Y-39291D01*
X60176Y-39339D01*
X60087Y-39427D01*
X60078Y-39448D01*
X60070Y-39428D01*
X59981Y-39339D01*
X59866Y-39291D01*
X59814Y-39291D01*
X59776Y-39266D01*
X59685Y-39248D01*
X58997Y-39248D01*
X58997Y-39185D01*
X58975Y-39133D01*
X58936Y-39094D01*
X58885Y-39073D01*
X58829Y-39073D01*
X58479Y-39073D01*
X58427Y-39094D01*
X58388Y-39133D01*
X58367Y-39185D01*
X58367Y-39240D01*
X58367Y-39790D01*
X58388Y-39842D01*
X58427Y-39881D01*
X58479Y-39903D01*
X58534Y-39903D01*
X58884Y-39903D01*
X58936Y-39881D01*
X58975Y-39842D01*
X58997Y-39791D01*
X58997Y-39735D01*
X58997Y-39728D01*
X59512Y-39728D01*
X59535Y-39784D01*
X59563Y-39811D01*
X59563Y-40810D01*
X57892Y-42480D01*
X54626Y-42480D01*
X54555Y-42409D01*
X54555Y-42334D01*
X54563Y-42337D01*
X54619Y-42337D01*
X54934Y-42337D01*
X54965Y-42324D01*
X54996Y-42337D01*
X55052Y-42337D01*
X55367Y-42337D01*
X55398Y-42324D01*
X55429Y-42337D01*
X55485Y-42337D01*
X55800Y-42337D01*
X55851Y-42315D01*
X55891Y-42276D01*
X55912Y-42225D01*
X55912Y-42169D01*
X55912Y-41460D01*
X55891Y-41409D01*
X55851Y-41369D01*
X55800Y-41348D01*
X55744Y-41348D01*
X55429Y-41348D01*
X55398Y-41361D01*
X55367Y-41348D01*
X55311Y-41348D01*
X54996Y-41348D01*
X54988Y-41351D01*
X54988Y-41295D01*
X55020Y-41263D01*
X56750Y-41263D01*
X57113Y-41626D01*
X57113Y-41626D01*
X57144Y-41647D01*
X57191Y-41678D01*
X57283Y-41696D01*
X57283Y-41696D01*
X57983Y-41696D01*
X58010Y-41723D01*
X58126Y-41771D01*
X58251Y-41771D01*
X58367Y-41723D01*
X58455Y-41635D01*
X58503Y-41519D01*
X58503Y-41481D01*
X58851Y-41133D01*
X58851Y-41133D01*
X58903Y-41055D01*
X58916Y-40992D01*
X58936Y-40984D01*
X58975Y-40944D01*
X58997Y-40893D01*
X58997Y-40837D01*
X58997Y-40287D01*
X58975Y-40236D01*
X58936Y-40196D01*
X58885Y-40175D01*
X58829Y-40175D01*
X58479Y-40175D01*
X58427Y-40196D01*
X58388Y-40236D01*
X58367Y-40287D01*
X58367Y-40343D01*
X58367Y-40893D01*
X58380Y-40925D01*
X58164Y-41141D01*
X58126Y-41141D01*
X58010Y-41189D01*
X57983Y-41216D01*
X57382Y-41216D01*
X57020Y-40853D01*
X56942Y-40801D01*
X56850Y-40783D01*
X54921Y-40783D01*
X54829Y-40801D01*
X54751Y-40853D01*
X54579Y-41026D01*
X54527Y-41104D01*
X54508Y-41196D01*
X54508Y-41351D01*
X54501Y-41348D01*
X54445Y-41348D01*
X54130Y-41348D01*
X54099Y-41361D01*
X54068Y-41348D01*
X54012Y-41348D01*
X53697Y-41348D01*
X53666Y-41361D01*
X53640Y-41350D01*
X53640Y-41050D01*
X53621Y-40958D01*
X53569Y-40880D01*
X53569Y-40880D01*
X53369Y-40680D01*
X53291Y-40628D01*
X53200Y-40610D01*
X52728Y-40610D01*
X52667Y-40610D01*
X52667Y-40461D01*
X52667Y-40174D01*
X52632Y-40139D01*
X52430Y-40139D01*
X52430Y-40538D01*
X52465Y-40573D01*
X52500Y-40573D01*
X52555Y-40573D01*
X52607Y-40552D01*
X52646Y-40513D01*
X52667Y-40461D01*
X52667Y-40610D01*
X50490Y-40610D01*
X50490Y-40573D01*
X50508Y-40573D01*
X50823Y-40573D01*
X50854Y-40560D01*
X50885Y-40573D01*
X50941Y-40573D01*
X51256Y-40573D01*
X51287Y-40560D01*
X51318Y-40573D01*
X51374Y-40573D01*
X51689Y-40573D01*
X51720Y-40560D01*
X51751Y-40573D01*
X51807Y-40573D01*
X52122Y-40573D01*
X52153Y-40560D01*
X52185Y-40573D01*
X52240Y-40573D01*
X52275Y-40573D01*
X52310Y-40538D01*
X52310Y-40139D01*
X52302Y-40139D01*
X52302Y-40019D01*
X52310Y-40019D01*
X52310Y-40011D01*
X52430Y-40011D01*
X52430Y-40019D01*
X52632Y-40019D01*
X52667Y-39984D01*
X52667Y-39752D01*
X56814Y-39752D01*
X57617Y-40554D01*
X57617Y-40893D01*
X57638Y-40944D01*
X57677Y-40984D01*
X57729Y-41005D01*
X57784Y-41005D01*
X58134Y-41005D01*
X58186Y-40984D01*
X58225Y-40944D01*
X58247Y-40893D01*
X58247Y-40837D01*
X58247Y-40287D01*
X58225Y-40236D01*
X58186Y-40196D01*
X58135Y-40175D01*
X58079Y-40175D01*
X57916Y-40175D01*
X57193Y-39452D01*
X57341Y-39452D01*
X57546Y-39657D01*
X57546Y-39657D01*
X57617Y-39704D01*
X57617Y-39790D01*
X57638Y-39842D01*
X57677Y-39881D01*
X57729Y-39903D01*
X57784Y-39903D01*
X58134Y-39903D01*
X58186Y-39881D01*
X58225Y-39842D01*
X58247Y-39791D01*
X58247Y-39735D01*
X58247Y-39185D01*
X58225Y-39133D01*
X58186Y-39094D01*
X58135Y-39073D01*
X58079Y-39073D01*
X57729Y-39073D01*
X57677Y-39094D01*
X57670Y-39102D01*
X57610Y-39042D01*
X57575Y-39019D01*
X61081Y-39019D01*
X66019Y-43957D01*
X66019Y-45845D01*
X65765Y-46100D01*
X65765Y-45037D01*
X65717Y-44921D01*
X65628Y-44833D01*
X65512Y-44785D01*
X65387Y-44784D01*
X65271Y-44832D01*
X65244Y-44860D01*
X63455Y-44860D01*
X63428Y-44833D01*
X63312Y-44785D01*
X63187Y-44784D01*
X63071Y-44832D01*
X62983Y-44921D01*
X62935Y-45037D01*
X62934Y-45162D01*
X62982Y-45278D01*
X63071Y-45366D01*
X63187Y-45414D01*
X63312Y-45415D01*
X63428Y-45367D01*
X63455Y-45340D01*
X65244Y-45340D01*
X65271Y-45366D01*
X65387Y-45414D01*
X65512Y-45415D01*
X65628Y-45367D01*
X65716Y-45278D01*
X65764Y-45162D01*
X65765Y-45037D01*
X65765Y-46100D01*
X64920Y-46945D01*
X64868Y-47022D01*
X64850Y-47114D01*
X64850Y-47831D01*
X64812Y-47847D01*
X64674Y-47985D01*
X64600Y-48165D01*
X64599Y-48360D01*
X64674Y-48540D01*
X64812Y-48678D01*
X64992Y-48752D01*
X65187Y-48753D01*
X65367Y-48678D01*
X65505Y-48540D01*
X65579Y-48360D01*
X65580Y-48165D01*
X65505Y-47985D01*
X65367Y-47847D01*
X65330Y-47832D01*
X65330Y-47214D01*
X65850Y-46694D01*
X65850Y-47831D01*
X65812Y-47847D01*
X65674Y-47985D01*
X65600Y-48165D01*
X65599Y-48360D01*
X65674Y-48540D01*
X65812Y-48678D01*
X65992Y-48752D01*
X66187Y-48753D01*
X66367Y-48678D01*
X66505Y-48540D01*
X66579Y-48360D01*
X66580Y-48165D01*
X66505Y-47985D01*
X66367Y-47847D01*
X66330Y-47832D01*
X66330Y-46686D01*
X66744Y-46272D01*
X66744Y-46272D01*
X66796Y-46194D01*
X66814Y-46102D01*
X66814Y-46102D01*
X66814Y-47846D01*
X66812Y-47847D01*
X66674Y-47985D01*
X66600Y-48165D01*
X66599Y-48360D01*
X66674Y-48540D01*
X66812Y-48678D01*
X66992Y-48752D01*
X67187Y-48753D01*
X67367Y-48678D01*
X67505Y-48540D01*
X67579Y-48360D01*
X67580Y-48165D01*
X67580Y-49018D01*
X64580Y-49018D01*
X64580Y-48165D01*
X64505Y-47985D01*
X64367Y-47847D01*
X64187Y-47773D01*
X63992Y-47772D01*
X63812Y-47847D01*
X63674Y-47985D01*
X63600Y-48165D01*
X63599Y-48360D01*
X63674Y-48540D01*
X63812Y-48678D01*
X63992Y-48752D01*
X64187Y-48753D01*
X64367Y-48678D01*
X64505Y-48540D01*
X64579Y-48360D01*
X64580Y-48165D01*
X64580Y-49018D01*
X63580Y-49018D01*
X63580Y-48165D01*
X63505Y-47985D01*
X63367Y-47847D01*
X63187Y-47773D01*
X62992Y-47772D01*
X62812Y-47847D01*
X62674Y-47985D01*
X62600Y-48165D01*
X62599Y-48360D01*
X62674Y-48540D01*
X62812Y-48678D01*
X62992Y-48752D01*
X63187Y-48753D01*
X63367Y-48678D01*
X63505Y-48540D01*
X63579Y-48360D01*
X63580Y-48165D01*
X63580Y-49018D01*
X61590Y-49018D01*
X61590Y-48165D01*
X61515Y-47985D01*
X61377Y-47847D01*
X61197Y-47773D01*
X61002Y-47772D01*
X60822Y-47847D01*
X60684Y-47985D01*
X60610Y-48165D01*
X60609Y-48360D01*
X60684Y-48540D01*
X60822Y-48678D01*
X61002Y-48752D01*
X61197Y-48753D01*
X61377Y-48678D01*
X61515Y-48540D01*
X61589Y-48360D01*
X61590Y-48165D01*
X61590Y-49018D01*
X60596Y-49018D01*
X60596Y-48320D01*
X60580Y-48126D01*
X60536Y-48020D01*
X60468Y-47979D01*
X60383Y-48064D01*
X60383Y-47894D01*
X60342Y-47826D01*
X60157Y-47766D01*
X59963Y-47782D01*
X59857Y-47826D01*
X59816Y-47894D01*
X60100Y-48178D01*
X60383Y-47894D01*
X60383Y-48064D01*
X60184Y-48263D01*
X60468Y-48546D01*
X60536Y-48505D01*
X60596Y-48320D01*
X60596Y-49018D01*
X60383Y-49018D01*
X60383Y-48631D01*
X60100Y-48347D01*
X60015Y-48432D01*
X60015Y-48263D01*
X59731Y-47979D01*
X59663Y-48020D01*
X59603Y-48205D01*
X59619Y-48399D01*
X59663Y-48505D01*
X59731Y-48546D01*
X60015Y-48263D01*
X60015Y-48432D01*
X59816Y-48631D01*
X59857Y-48699D01*
X60042Y-48759D01*
X60236Y-48743D01*
X60342Y-48699D01*
X60383Y-48631D01*
X60383Y-49018D01*
X59596Y-49018D01*
X59596Y-48320D01*
X59580Y-48126D01*
X59536Y-48020D01*
X59468Y-47979D01*
X59383Y-48064D01*
X59383Y-47894D01*
X59342Y-47826D01*
X59157Y-47766D01*
X58963Y-47782D01*
X58857Y-47826D01*
X58816Y-47894D01*
X59100Y-48178D01*
X59383Y-47894D01*
X59383Y-48064D01*
X59184Y-48263D01*
X59468Y-48546D01*
X59536Y-48505D01*
X59596Y-48320D01*
X59596Y-49018D01*
X59383Y-49018D01*
X59383Y-48631D01*
X59100Y-48347D01*
X59015Y-48432D01*
X59015Y-48263D01*
X58731Y-47979D01*
X58663Y-48020D01*
X58603Y-48205D01*
X58619Y-48399D01*
X58663Y-48505D01*
X58731Y-48546D01*
X59015Y-48263D01*
X59015Y-48432D01*
X58816Y-48631D01*
X58857Y-48699D01*
X59042Y-48759D01*
X59236Y-48743D01*
X59342Y-48699D01*
X59383Y-48631D01*
X59383Y-49018D01*
X58590Y-49018D01*
X58590Y-48165D01*
X58515Y-47985D01*
X58377Y-47847D01*
X58197Y-47773D01*
X58002Y-47772D01*
X57822Y-47847D01*
X57684Y-47985D01*
X57610Y-48165D01*
X57609Y-48360D01*
X57684Y-48540D01*
X57822Y-48678D01*
X58002Y-48752D01*
X58197Y-48753D01*
X58377Y-48678D01*
X58515Y-48540D01*
X58589Y-48360D01*
X58590Y-48165D01*
X58590Y-49018D01*
X56590Y-49018D01*
X56590Y-48165D01*
X56515Y-47985D01*
X56377Y-47847D01*
X56197Y-47773D01*
X56002Y-47772D01*
X55822Y-47847D01*
X55684Y-47985D01*
X55610Y-48165D01*
X55609Y-48360D01*
X55684Y-48540D01*
X55822Y-48678D01*
X56002Y-48752D01*
X56197Y-48753D01*
X56377Y-48678D01*
X56515Y-48540D01*
X56589Y-48360D01*
X56590Y-48165D01*
X56590Y-49018D01*
X55590Y-49018D01*
X55590Y-48165D01*
X55515Y-47985D01*
X55377Y-47847D01*
X55197Y-47773D01*
X55002Y-47772D01*
X54822Y-47847D01*
X54684Y-47985D01*
X54610Y-48165D01*
X54609Y-48360D01*
X54684Y-48540D01*
X54822Y-48678D01*
X55002Y-48752D01*
X55197Y-48753D01*
X55377Y-48678D01*
X55515Y-48540D01*
X55589Y-48360D01*
X55590Y-48165D01*
X55590Y-49018D01*
X54590Y-49018D01*
X54590Y-48165D01*
X54515Y-47985D01*
X54377Y-47847D01*
X54197Y-47773D01*
X54002Y-47772D01*
X53822Y-47847D01*
X53684Y-47985D01*
X53610Y-48165D01*
X53609Y-48360D01*
X53684Y-48540D01*
X53822Y-48678D01*
X54002Y-48752D01*
X54197Y-48753D01*
X54377Y-48678D01*
X54515Y-48540D01*
X54589Y-48360D01*
X54590Y-48165D01*
X54590Y-49018D01*
X52917Y-49018D01*
X52917Y-48307D01*
X52900Y-48142D01*
X52870Y-48070D01*
X52809Y-48038D01*
X52724Y-48123D01*
X52724Y-47954D01*
X52693Y-47893D01*
X52535Y-47846D01*
X52371Y-47863D01*
X52298Y-47893D01*
X52267Y-47954D01*
X52496Y-48182D01*
X52724Y-47954D01*
X52724Y-48123D01*
X52580Y-48267D01*
X52809Y-48496D01*
X52870Y-48465D01*
X52917Y-48307D01*
X52917Y-49018D01*
X52724Y-49018D01*
X52724Y-48581D01*
X52496Y-48352D01*
X52411Y-48437D01*
X52411Y-48267D01*
X52182Y-48038D01*
X52121Y-48070D01*
X52074Y-48228D01*
X52091Y-48392D01*
X52121Y-48465D01*
X52182Y-48496D01*
X52411Y-48267D01*
X52411Y-48437D01*
X52267Y-48581D01*
X52298Y-48641D01*
X52456Y-48689D01*
X52620Y-48672D01*
X52693Y-48641D01*
X52724Y-48581D01*
X52724Y-49018D01*
X51911Y-49018D01*
X51911Y-48185D01*
X51848Y-48032D01*
X51731Y-47916D01*
X51578Y-47852D01*
X51413Y-47852D01*
X51261Y-47915D01*
X51144Y-48032D01*
X51081Y-48184D01*
X51080Y-48349D01*
X51144Y-48502D01*
X51260Y-48619D01*
X51413Y-48682D01*
X51578Y-48682D01*
X51730Y-48619D01*
X51847Y-48503D01*
X51910Y-48350D01*
X51911Y-48185D01*
X51911Y-49018D01*
X50911Y-49018D01*
X50911Y-48514D01*
X50911Y-47964D01*
X50889Y-47913D01*
X50850Y-47874D01*
X50799Y-47852D01*
X50743Y-47852D01*
X50193Y-47852D01*
X50141Y-47873D01*
X50102Y-47913D01*
X50081Y-47964D01*
X50081Y-48020D01*
X50081Y-48570D01*
X50102Y-48621D01*
X50141Y-48661D01*
X50193Y-48682D01*
X50248Y-48682D01*
X50798Y-48682D01*
X50850Y-48661D01*
X50889Y-48622D01*
X50911Y-48570D01*
X50911Y-48514D01*
X50911Y-49018D01*
X49260Y-49018D01*
X49260Y-48066D01*
X49162Y-47830D01*
X48983Y-47650D01*
X48747Y-47553D01*
X48493Y-47552D01*
X48257Y-47650D01*
X48077Y-47829D01*
X47980Y-48065D01*
X47979Y-48319D01*
X48077Y-48555D01*
X48256Y-48735D01*
X48492Y-48832D01*
X48746Y-48833D01*
X48982Y-48735D01*
X49162Y-48556D01*
X49259Y-48320D01*
X49260Y-48066D01*
X49260Y-49018D01*
X46837Y-49018D01*
X46837Y-45541D01*
X46837Y-43541D01*
X46824Y-43290D01*
X46787Y-43202D01*
X46787Y-37291D01*
X46774Y-37040D01*
X46704Y-36871D01*
X46621Y-36813D01*
X46536Y-36898D01*
X46536Y-36728D01*
X46478Y-36645D01*
X46241Y-36562D01*
X45990Y-36575D01*
X45821Y-36645D01*
X45763Y-36728D01*
X46150Y-37115D01*
X46536Y-36728D01*
X46536Y-36898D01*
X46234Y-37200D01*
X46621Y-37586D01*
X46704Y-37528D01*
X46787Y-37291D01*
X46787Y-43202D01*
X46754Y-43121D01*
X46671Y-43063D01*
X46586Y-43148D01*
X46586Y-42978D01*
X46536Y-42906D01*
X46536Y-37671D01*
X46150Y-37284D01*
X46065Y-37369D01*
X46065Y-37200D01*
X45678Y-36813D01*
X45595Y-36871D01*
X45512Y-37108D01*
X45525Y-37359D01*
X45595Y-37528D01*
X45678Y-37586D01*
X46065Y-37200D01*
X46065Y-37369D01*
X45763Y-37671D01*
X45821Y-37754D01*
X46058Y-37837D01*
X46309Y-37824D01*
X46478Y-37754D01*
X46536Y-37671D01*
X46536Y-42906D01*
X46528Y-42895D01*
X46291Y-42812D01*
X46040Y-42825D01*
X45871Y-42895D01*
X45813Y-42978D01*
X46200Y-43365D01*
X46586Y-42978D01*
X46586Y-43148D01*
X46284Y-43450D01*
X46671Y-43836D01*
X46754Y-43778D01*
X46837Y-43541D01*
X46837Y-45541D01*
X46824Y-45290D01*
X46754Y-45121D01*
X46671Y-45063D01*
X46586Y-45148D01*
X46586Y-44978D01*
X46586Y-43921D01*
X46200Y-43534D01*
X46115Y-43619D01*
X46115Y-43450D01*
X45728Y-43063D01*
X45645Y-43121D01*
X45562Y-43358D01*
X45575Y-43609D01*
X45645Y-43778D01*
X45728Y-43836D01*
X46115Y-43450D01*
X46115Y-43619D01*
X45813Y-43921D01*
X45871Y-44004D01*
X46108Y-44087D01*
X46359Y-44074D01*
X46528Y-44004D01*
X46586Y-43921D01*
X46586Y-44978D01*
X46528Y-44895D01*
X46291Y-44812D01*
X46040Y-44825D01*
X45871Y-44895D01*
X45832Y-44951D01*
X45832Y-44324D01*
X45736Y-44092D01*
X45558Y-43914D01*
X45326Y-43817D01*
X45074Y-43817D01*
X44842Y-43913D01*
X44837Y-43918D01*
X44837Y-43541D01*
X44824Y-43290D01*
X44787Y-43202D01*
X44787Y-37291D01*
X44774Y-37040D01*
X44704Y-36871D01*
X44621Y-36813D01*
X44536Y-36898D01*
X44536Y-36728D01*
X44478Y-36645D01*
X44241Y-36562D01*
X43990Y-36575D01*
X43821Y-36645D01*
X43763Y-36728D01*
X44150Y-37115D01*
X44536Y-36728D01*
X44536Y-36898D01*
X44234Y-37200D01*
X44621Y-37586D01*
X44704Y-37528D01*
X44787Y-37291D01*
X44787Y-43202D01*
X44754Y-43121D01*
X44671Y-43063D01*
X44586Y-43148D01*
X44586Y-42978D01*
X44536Y-42906D01*
X44536Y-37671D01*
X44150Y-37284D01*
X44065Y-37369D01*
X44065Y-37200D01*
X43678Y-36813D01*
X43595Y-36871D01*
X43512Y-37108D01*
X43525Y-37359D01*
X43595Y-37528D01*
X43678Y-37586D01*
X44065Y-37200D01*
X44065Y-37369D01*
X43763Y-37671D01*
X43821Y-37754D01*
X44058Y-37837D01*
X44309Y-37824D01*
X44478Y-37754D01*
X44536Y-37671D01*
X44536Y-42906D01*
X44528Y-42895D01*
X44291Y-42812D01*
X44040Y-42825D01*
X43871Y-42895D01*
X43813Y-42978D01*
X44200Y-43365D01*
X44586Y-42978D01*
X44586Y-43148D01*
X44284Y-43450D01*
X44671Y-43836D01*
X44754Y-43778D01*
X44837Y-43541D01*
X44837Y-43918D01*
X44664Y-44091D01*
X44586Y-44279D01*
X44586Y-43921D01*
X44200Y-43534D01*
X44115Y-43619D01*
X44115Y-43450D01*
X43728Y-43063D01*
X43645Y-43121D01*
X43562Y-43358D01*
X43575Y-43609D01*
X43645Y-43778D01*
X43728Y-43836D01*
X44115Y-43450D01*
X44115Y-43619D01*
X43813Y-43921D01*
X43871Y-44004D01*
X44108Y-44087D01*
X44359Y-44074D01*
X44528Y-44004D01*
X44586Y-43921D01*
X44586Y-44279D01*
X44567Y-44323D01*
X44567Y-44575D01*
X44663Y-44807D01*
X44841Y-44985D01*
X45073Y-45082D01*
X45325Y-45082D01*
X45557Y-44986D01*
X45735Y-44808D01*
X45832Y-44576D01*
X45832Y-44324D01*
X45832Y-44951D01*
X45813Y-44978D01*
X46200Y-45365D01*
X46586Y-44978D01*
X46586Y-45148D01*
X46284Y-45450D01*
X46671Y-45836D01*
X46754Y-45778D01*
X46837Y-45541D01*
X46837Y-49018D01*
X46586Y-49018D01*
X46586Y-45921D01*
X46200Y-45534D01*
X46115Y-45619D01*
X46115Y-45450D01*
X45728Y-45063D01*
X45645Y-45121D01*
X45562Y-45358D01*
X45575Y-45609D01*
X45645Y-45778D01*
X45728Y-45836D01*
X46115Y-45450D01*
X46115Y-45619D01*
X45813Y-45921D01*
X45871Y-46004D01*
X46108Y-46087D01*
X46359Y-46074D01*
X46528Y-46004D01*
X46586Y-45921D01*
X46586Y-49018D01*
X44837Y-49018D01*
X44837Y-45541D01*
X44824Y-45290D01*
X44754Y-45121D01*
X44671Y-45063D01*
X44586Y-45148D01*
X44586Y-44978D01*
X44528Y-44895D01*
X44291Y-44812D01*
X44040Y-44825D01*
X43871Y-44895D01*
X43813Y-44978D01*
X44200Y-45365D01*
X44586Y-44978D01*
X44586Y-45148D01*
X44284Y-45450D01*
X44671Y-45836D01*
X44754Y-45778D01*
X44837Y-45541D01*
X44837Y-49018D01*
X44586Y-49018D01*
X44586Y-45921D01*
X44200Y-45534D01*
X44115Y-45619D01*
X44115Y-45450D01*
X43728Y-45063D01*
X43645Y-45121D01*
X43562Y-45358D01*
X43575Y-45609D01*
X43645Y-45778D01*
X43728Y-45836D01*
X44115Y-45450D01*
X44115Y-45619D01*
X43813Y-45921D01*
X43871Y-46004D01*
X44108Y-46087D01*
X44359Y-46074D01*
X44528Y-46004D01*
X44586Y-45921D01*
X44586Y-49018D01*
X43325Y-49018D01*
X43325Y-28378D01*
X68590Y-28378D01*
X68938Y-28725D01*
X68938Y-33002D01*
X68954Y-33084D01*
X69000Y-33154D01*
X70055Y-34208D01*
X70055Y-47023D01*
X70055Y-47023D01*
G37*
G54D21*
X70055Y-47023D02*
X69760Y-47318D01*
X69760Y-35086D01*
X69662Y-34850D01*
X69483Y-34670D01*
X69247Y-34573D01*
X68993Y-34572D01*
X68757Y-34670D01*
X68610Y-34817D01*
X68610Y-29085D01*
X68535Y-28905D01*
X68397Y-28767D01*
X68217Y-28693D01*
X68022Y-28692D01*
X67842Y-28767D01*
X67704Y-28905D01*
X67630Y-29085D01*
X67629Y-29280D01*
X67704Y-29460D01*
X67842Y-29598D01*
X68022Y-29672D01*
X68217Y-29673D01*
X68397Y-29598D01*
X68535Y-29460D01*
X68609Y-29280D01*
X68610Y-29085D01*
X68610Y-34817D01*
X68577Y-34849D01*
X68480Y-35085D01*
X68479Y-35339D01*
X68577Y-35575D01*
X68756Y-35755D01*
X68992Y-35852D01*
X69246Y-35853D01*
X69482Y-35755D01*
X69662Y-35576D01*
X69759Y-35340D01*
X69760Y-35086D01*
X69760Y-47318D01*
X69730Y-47348D01*
X69730Y-46106D01*
X69632Y-45870D01*
X69453Y-45690D01*
X69217Y-45593D01*
X68963Y-45592D01*
X68727Y-45690D01*
X68547Y-45869D01*
X68450Y-46105D01*
X68449Y-46359D01*
X68547Y-46595D01*
X68726Y-46775D01*
X68962Y-46872D01*
X69216Y-46873D01*
X69452Y-46775D01*
X69632Y-46596D01*
X69729Y-46360D01*
X69730Y-46106D01*
X69730Y-47348D01*
X68932Y-48145D01*
X68886Y-48215D01*
X68870Y-48298D01*
X68870Y-49018D01*
X68580Y-49018D01*
X68580Y-48165D01*
X68505Y-47985D01*
X68367Y-47847D01*
X68187Y-47773D01*
X67992Y-47772D01*
X67812Y-47847D01*
X67674Y-47985D01*
X67610Y-48141D01*
X67610Y-29085D01*
X67535Y-28905D01*
X67397Y-28767D01*
X67217Y-28693D01*
X67022Y-28692D01*
X66842Y-28767D01*
X66704Y-28905D01*
X66630Y-29085D01*
X66629Y-29280D01*
X66704Y-29460D01*
X66842Y-29598D01*
X67022Y-29672D01*
X67217Y-29673D01*
X67397Y-29598D01*
X67535Y-29460D01*
X67609Y-29280D01*
X67610Y-29085D01*
X67610Y-48141D01*
X67600Y-48165D01*
X67599Y-48360D01*
X67674Y-48540D01*
X67812Y-48678D01*
X67992Y-48752D01*
X68187Y-48753D01*
X68367Y-48678D01*
X68505Y-48540D01*
X68579Y-48360D01*
X68580Y-48165D01*
X68580Y-49018D01*
X67580Y-49018D01*
X67580Y-48165D01*
X67515Y-48008D01*
X67515Y-31997D01*
X67515Y-31447D01*
X67493Y-31395D01*
X67454Y-31356D01*
X67402Y-31335D01*
X67347Y-31334D01*
X66797Y-31334D01*
X66745Y-31356D01*
X66706Y-31395D01*
X66685Y-31447D01*
X66684Y-31502D01*
X66684Y-32052D01*
X66706Y-32104D01*
X66745Y-32143D01*
X66797Y-32164D01*
X66852Y-32165D01*
X67402Y-32165D01*
X67454Y-32143D01*
X67493Y-32104D01*
X67514Y-32052D01*
X67515Y-31997D01*
X67515Y-48008D01*
X67505Y-47985D01*
X67367Y-47847D01*
X67187Y-47773D01*
X66992Y-47772D01*
X66814Y-47846D01*
X66814Y-46102D01*
X66814Y-43700D01*
X66796Y-43608D01*
X66744Y-43531D01*
X66610Y-43396D01*
X66610Y-29085D01*
X66535Y-28905D01*
X66397Y-28767D01*
X66217Y-28693D01*
X66022Y-28692D01*
X65842Y-28767D01*
X65704Y-28905D01*
X65630Y-29085D01*
X65629Y-29280D01*
X65704Y-29460D01*
X65842Y-29598D01*
X66022Y-29672D01*
X66217Y-29673D01*
X66397Y-29598D01*
X66535Y-29460D01*
X66609Y-29280D01*
X66610Y-29085D01*
X66610Y-43396D01*
X66515Y-43301D01*
X66515Y-31667D01*
X66452Y-31515D01*
X66335Y-31398D01*
X66182Y-31335D01*
X66017Y-31334D01*
X65865Y-31397D01*
X65748Y-31514D01*
X65685Y-31667D01*
X65684Y-31832D01*
X65747Y-31984D01*
X65864Y-32101D01*
X66017Y-32164D01*
X66182Y-32165D01*
X66334Y-32102D01*
X66451Y-31985D01*
X66514Y-31832D01*
X66515Y-31667D01*
X66515Y-43301D01*
X65610Y-42396D01*
X65610Y-29085D01*
X65535Y-28905D01*
X65397Y-28767D01*
X65217Y-28693D01*
X65022Y-28692D01*
X64842Y-28767D01*
X64704Y-28905D01*
X64630Y-29085D01*
X64629Y-29280D01*
X64704Y-29460D01*
X64842Y-29598D01*
X65022Y-29672D01*
X65217Y-29673D01*
X65397Y-29598D01*
X65535Y-29460D01*
X65609Y-29280D01*
X65610Y-29085D01*
X65610Y-42396D01*
X65515Y-42301D01*
X65515Y-31667D01*
X65452Y-31515D01*
X65340Y-31403D01*
X65340Y-31400D01*
X65339Y-31399D01*
X65321Y-31308D01*
X65269Y-31230D01*
X65269Y-31230D01*
X64919Y-30880D01*
X64841Y-30828D01*
X64750Y-30810D01*
X64610Y-30810D01*
X64610Y-29085D01*
X64535Y-28905D01*
X64397Y-28767D01*
X64217Y-28693D01*
X64022Y-28692D01*
X63842Y-28767D01*
X63704Y-28905D01*
X63630Y-29085D01*
X63629Y-29280D01*
X63704Y-29460D01*
X63842Y-29598D01*
X64022Y-29672D01*
X64217Y-29673D01*
X64397Y-29598D01*
X64535Y-29460D01*
X64609Y-29280D01*
X64610Y-29085D01*
X64610Y-30810D01*
X63610Y-30810D01*
X63610Y-29085D01*
X63535Y-28905D01*
X63397Y-28767D01*
X63217Y-28693D01*
X63022Y-28692D01*
X62842Y-28767D01*
X62704Y-28905D01*
X62630Y-29085D01*
X62629Y-29280D01*
X62704Y-29460D01*
X62842Y-29598D01*
X63022Y-29672D01*
X63217Y-29673D01*
X63397Y-29598D01*
X63535Y-29460D01*
X63609Y-29280D01*
X63610Y-29085D01*
X63610Y-30810D01*
X63522Y-30810D01*
X63529Y-30795D01*
X63529Y-30739D01*
X63529Y-30189D01*
X63507Y-30137D01*
X63468Y-30098D01*
X63417Y-30077D01*
X63361Y-30077D01*
X62811Y-30077D01*
X62759Y-30098D01*
X62720Y-30137D01*
X62699Y-30189D01*
X62699Y-30244D01*
X62699Y-30794D01*
X62705Y-30810D01*
X62610Y-30810D01*
X62610Y-29085D01*
X62535Y-28905D01*
X62397Y-28767D01*
X62217Y-28693D01*
X62022Y-28692D01*
X61842Y-28767D01*
X61704Y-28905D01*
X61630Y-29085D01*
X61629Y-29280D01*
X61704Y-29460D01*
X61842Y-29598D01*
X62022Y-29672D01*
X62217Y-29673D01*
X62397Y-29598D01*
X62535Y-29460D01*
X62609Y-29280D01*
X62610Y-29085D01*
X62610Y-30810D01*
X62450Y-30810D01*
X62366Y-30826D01*
X62465Y-30727D01*
X62529Y-30575D01*
X62529Y-30409D01*
X62466Y-30257D01*
X62349Y-30140D01*
X62197Y-30077D01*
X62031Y-30077D01*
X61879Y-30140D01*
X61762Y-30256D01*
X61699Y-30409D01*
X61699Y-30574D01*
X61762Y-30726D01*
X61878Y-30843D01*
X62031Y-30907D01*
X62196Y-30907D01*
X62310Y-30859D01*
X62280Y-30880D01*
X61930Y-31230D01*
X61878Y-31308D01*
X61860Y-31400D01*
X61860Y-31403D01*
X61748Y-31514D01*
X61685Y-31667D01*
X61684Y-31832D01*
X61747Y-31984D01*
X61864Y-32101D01*
X62017Y-32164D01*
X62182Y-32165D01*
X62334Y-32102D01*
X62451Y-31985D01*
X62514Y-31832D01*
X62515Y-31667D01*
X62452Y-31515D01*
X62388Y-31451D01*
X62549Y-31290D01*
X63175Y-31290D01*
X64650Y-31290D01*
X64811Y-31451D01*
X64748Y-31514D01*
X64685Y-31667D01*
X64684Y-31832D01*
X64747Y-31984D01*
X64864Y-32101D01*
X65017Y-32164D01*
X65182Y-32165D01*
X65334Y-32102D01*
X65451Y-31985D01*
X65514Y-31832D01*
X65515Y-31667D01*
X65515Y-42301D01*
X64521Y-41307D01*
X64521Y-31789D01*
X64504Y-31625D01*
X64474Y-31552D01*
X64413Y-31521D01*
X64328Y-31606D01*
X64328Y-31436D01*
X64297Y-31375D01*
X64139Y-31328D01*
X63975Y-31345D01*
X63902Y-31375D01*
X63871Y-31436D01*
X64100Y-31665D01*
X64328Y-31436D01*
X64328Y-31606D01*
X64184Y-31750D01*
X64413Y-31978D01*
X64474Y-31947D01*
X64521Y-31789D01*
X64521Y-41307D01*
X64328Y-41115D01*
X64328Y-32063D01*
X64100Y-31834D01*
X64015Y-31919D01*
X64015Y-31750D01*
X63786Y-31521D01*
X63725Y-31552D01*
X63678Y-31710D01*
X63695Y-31874D01*
X63725Y-31947D01*
X63786Y-31978D01*
X64015Y-31750D01*
X64015Y-31919D01*
X63871Y-32063D01*
X63902Y-32124D01*
X64060Y-32171D01*
X64224Y-32154D01*
X64297Y-32124D01*
X64328Y-32063D01*
X64328Y-41115D01*
X63521Y-40307D01*
X63521Y-31789D01*
X63504Y-31625D01*
X63474Y-31552D01*
X63413Y-31521D01*
X63328Y-31606D01*
X63328Y-31436D01*
X63297Y-31375D01*
X63139Y-31328D01*
X62975Y-31345D01*
X62902Y-31375D01*
X62871Y-31436D01*
X63100Y-31665D01*
X63328Y-31436D01*
X63328Y-31606D01*
X63184Y-31750D01*
X63413Y-31978D01*
X63474Y-31947D01*
X63521Y-31789D01*
X63521Y-40307D01*
X63328Y-40115D01*
X63328Y-32063D01*
X63100Y-31834D01*
X63015Y-31919D01*
X63015Y-31750D01*
X62786Y-31521D01*
X62725Y-31552D01*
X62678Y-31710D01*
X62695Y-31874D01*
X62725Y-31947D01*
X62786Y-31978D01*
X63015Y-31750D01*
X63015Y-31919D01*
X62871Y-32063D01*
X62902Y-32124D01*
X63060Y-32171D01*
X63224Y-32154D01*
X63297Y-32124D01*
X63328Y-32063D01*
X63328Y-40115D01*
X61610Y-38396D01*
X61610Y-29085D01*
X61535Y-28905D01*
X61397Y-28767D01*
X61217Y-28693D01*
X61022Y-28692D01*
X60842Y-28767D01*
X60704Y-28905D01*
X60630Y-29085D01*
X60629Y-29280D01*
X60704Y-29460D01*
X60842Y-29598D01*
X61022Y-29672D01*
X61217Y-29673D01*
X61397Y-29598D01*
X61535Y-29460D01*
X61609Y-29280D01*
X61610Y-29085D01*
X61610Y-38396D01*
X61529Y-38315D01*
X61529Y-30409D01*
X61466Y-30257D01*
X61349Y-30140D01*
X61197Y-30077D01*
X61031Y-30077D01*
X60879Y-30140D01*
X60762Y-30256D01*
X60699Y-30409D01*
X60699Y-30574D01*
X60762Y-30726D01*
X60878Y-30843D01*
X61031Y-30907D01*
X61196Y-30907D01*
X61348Y-30844D01*
X61465Y-30727D01*
X61529Y-30575D01*
X61529Y-30409D01*
X61529Y-38315D01*
X61515Y-38301D01*
X61515Y-31667D01*
X61452Y-31515D01*
X61335Y-31398D01*
X61182Y-31335D01*
X61017Y-31334D01*
X60865Y-31397D01*
X60748Y-31514D01*
X60685Y-31667D01*
X60684Y-31832D01*
X60747Y-31984D01*
X60864Y-32101D01*
X61017Y-32164D01*
X61182Y-32165D01*
X61334Y-32102D01*
X61451Y-31985D01*
X61514Y-31832D01*
X61515Y-31667D01*
X61515Y-38301D01*
X61429Y-38216D01*
X61351Y-38164D01*
X61259Y-38145D01*
X60521Y-38145D01*
X60532Y-38141D01*
X60621Y-38052D01*
X60669Y-37936D01*
X60669Y-37811D01*
X60621Y-37695D01*
X60594Y-37668D01*
X60594Y-36780D01*
X60621Y-36753D01*
X60669Y-36637D01*
X60669Y-36512D01*
X60621Y-36396D01*
X60532Y-36307D01*
X60417Y-36259D01*
X60291Y-36259D01*
X60176Y-36307D01*
X60087Y-36396D01*
X60043Y-36502D01*
X60043Y-36347D01*
X60070Y-36320D01*
X60118Y-36204D01*
X60118Y-36079D01*
X60070Y-35963D01*
X59981Y-35874D01*
X59866Y-35826D01*
X59740Y-35826D01*
X59624Y-35874D01*
X59536Y-35963D01*
X59488Y-36078D01*
X59488Y-36204D01*
X59535Y-36319D01*
X59563Y-36347D01*
X59563Y-37707D01*
X59536Y-37734D01*
X59488Y-37850D01*
X59488Y-37975D01*
X59535Y-38091D01*
X59590Y-38145D01*
X57411Y-38145D01*
X57422Y-38141D01*
X57510Y-38052D01*
X57559Y-37936D01*
X57559Y-37811D01*
X57511Y-37695D01*
X57484Y-37668D01*
X57484Y-36477D01*
X60375Y-33586D01*
X60756Y-33586D01*
X60842Y-33622D01*
X60967Y-33622D01*
X61083Y-33574D01*
X61172Y-33485D01*
X61220Y-33370D01*
X61220Y-33244D01*
X61172Y-33128D01*
X61084Y-33040D01*
X60968Y-32992D01*
X60843Y-32992D01*
X60727Y-33039D01*
X60660Y-33106D01*
X60535Y-33106D01*
X60535Y-30531D01*
X60518Y-30367D01*
X60488Y-30294D01*
X60427Y-30263D01*
X60342Y-30348D01*
X60342Y-30178D01*
X60311Y-30117D01*
X60153Y-30070D01*
X60100Y-30076D01*
X60100Y-29075D01*
X60025Y-28895D01*
X59887Y-28757D01*
X59707Y-28683D01*
X59512Y-28682D01*
X59332Y-28757D01*
X59194Y-28895D01*
X59120Y-29075D01*
X59119Y-29270D01*
X59194Y-29450D01*
X59332Y-29588D01*
X59512Y-29662D01*
X59707Y-29663D01*
X59887Y-29588D01*
X60025Y-29450D01*
X60099Y-29270D01*
X60100Y-29075D01*
X60100Y-30076D01*
X59989Y-30087D01*
X59916Y-30117D01*
X59885Y-30178D01*
X60114Y-30407D01*
X60342Y-30178D01*
X60342Y-30348D01*
X60199Y-30492D01*
X60427Y-30720D01*
X60488Y-30689D01*
X60535Y-30531D01*
X60535Y-33106D01*
X60515Y-33106D01*
X60515Y-31667D01*
X60452Y-31515D01*
X60342Y-31405D01*
X60342Y-30805D01*
X60114Y-30576D01*
X60029Y-30661D01*
X60029Y-30492D01*
X59800Y-30263D01*
X59740Y-30294D01*
X59692Y-30452D01*
X59709Y-30616D01*
X59740Y-30689D01*
X59800Y-30720D01*
X60029Y-30492D01*
X60029Y-30661D01*
X59885Y-30805D01*
X59916Y-30866D01*
X60074Y-30913D01*
X60238Y-30896D01*
X60311Y-30866D01*
X60342Y-30805D01*
X60342Y-31405D01*
X60335Y-31398D01*
X60182Y-31335D01*
X60017Y-31334D01*
X59865Y-31397D01*
X59748Y-31514D01*
X59685Y-31667D01*
X59684Y-31832D01*
X59747Y-31984D01*
X59864Y-32101D01*
X60017Y-32164D01*
X60182Y-32165D01*
X60334Y-32102D01*
X60451Y-31985D01*
X60514Y-31832D01*
X60515Y-31667D01*
X60515Y-33106D01*
X60275Y-33106D01*
X60183Y-33124D01*
X60105Y-33176D01*
X59515Y-33767D01*
X59515Y-31667D01*
X59452Y-31515D01*
X59335Y-31398D01*
X59182Y-31335D01*
X59100Y-31334D01*
X59100Y-29075D01*
X59025Y-28895D01*
X58887Y-28757D01*
X58707Y-28683D01*
X58512Y-28682D01*
X58332Y-28757D01*
X58194Y-28895D01*
X58120Y-29075D01*
X58119Y-29270D01*
X58127Y-29288D01*
X58067Y-29349D01*
X58099Y-29270D01*
X58100Y-29075D01*
X58025Y-28895D01*
X57887Y-28757D01*
X57707Y-28683D01*
X57512Y-28682D01*
X57332Y-28757D01*
X57194Y-28895D01*
X57120Y-29075D01*
X57119Y-29270D01*
X57155Y-29355D01*
X55425Y-31084D01*
X55387Y-31084D01*
X55271Y-31132D01*
X55240Y-31164D01*
X55240Y-31099D01*
X56676Y-29663D01*
X56707Y-29663D01*
X56887Y-29588D01*
X57025Y-29450D01*
X57099Y-29270D01*
X57100Y-29075D01*
X57025Y-28895D01*
X56887Y-28757D01*
X56707Y-28683D01*
X56512Y-28682D01*
X56332Y-28757D01*
X56194Y-28895D01*
X56120Y-29075D01*
X56119Y-29270D01*
X56194Y-29450D01*
X56202Y-29458D01*
X56100Y-29560D01*
X56100Y-29075D01*
X56025Y-28895D01*
X55887Y-28757D01*
X55707Y-28683D01*
X55512Y-28682D01*
X55332Y-28757D01*
X55194Y-28895D01*
X55120Y-29075D01*
X55119Y-29270D01*
X55194Y-29450D01*
X55332Y-29588D01*
X55512Y-29662D01*
X55707Y-29663D01*
X55887Y-29588D01*
X56025Y-29450D01*
X56099Y-29270D01*
X56100Y-29075D01*
X56100Y-29560D01*
X54850Y-30810D01*
X54850Y-29604D01*
X54887Y-29588D01*
X55025Y-29450D01*
X55099Y-29270D01*
X55100Y-29075D01*
X55025Y-28895D01*
X54887Y-28757D01*
X54707Y-28683D01*
X54512Y-28682D01*
X54332Y-28757D01*
X54194Y-28895D01*
X54120Y-29075D01*
X54119Y-29270D01*
X54194Y-29450D01*
X54332Y-29588D01*
X54370Y-29603D01*
X54370Y-33390D01*
X53900Y-33860D01*
X53205Y-33860D01*
X53178Y-33833D01*
X53074Y-33790D01*
X53500Y-33790D01*
X53539Y-33782D01*
X53580Y-33776D01*
X53585Y-33772D01*
X53591Y-33771D01*
X53625Y-33749D01*
X53660Y-33728D01*
X54160Y-33278D01*
X54162Y-33275D01*
X54172Y-33268D01*
X54208Y-33213D01*
X54216Y-33203D01*
X54217Y-33201D01*
X54223Y-33190D01*
X54237Y-33121D01*
X54239Y-33112D01*
X54239Y-33110D01*
X54241Y-33098D01*
X54231Y-31057D01*
X54237Y-30407D01*
X54266Y-30378D01*
X54314Y-30262D01*
X54315Y-30137D01*
X54267Y-30021D01*
X54178Y-29933D01*
X54106Y-29903D01*
X54106Y-29230D01*
X54090Y-29036D01*
X54046Y-28930D01*
X53978Y-28889D01*
X53893Y-28974D01*
X53893Y-28804D01*
X53852Y-28736D01*
X53667Y-28676D01*
X53473Y-28692D01*
X53367Y-28736D01*
X53326Y-28804D01*
X53610Y-29088D01*
X53893Y-28804D01*
X53893Y-28974D01*
X53694Y-29173D01*
X53978Y-29456D01*
X54046Y-29415D01*
X54106Y-29230D01*
X54106Y-29903D01*
X54062Y-29885D01*
X53937Y-29884D01*
X53893Y-29903D01*
X53893Y-29541D01*
X53610Y-29257D01*
X53525Y-29342D01*
X53525Y-29173D01*
X53241Y-28889D01*
X53173Y-28930D01*
X53113Y-29115D01*
X53129Y-29309D01*
X53173Y-29415D01*
X53241Y-29456D01*
X53525Y-29173D01*
X53525Y-29342D01*
X53326Y-29541D01*
X53367Y-29609D01*
X53552Y-29669D01*
X53746Y-29653D01*
X53852Y-29609D01*
X53893Y-29541D01*
X53893Y-29903D01*
X53821Y-29932D01*
X53733Y-30021D01*
X53685Y-30137D01*
X53684Y-30262D01*
X53732Y-30378D01*
X53757Y-30403D01*
X53751Y-31054D01*
X53751Y-31055D01*
X53751Y-31057D01*
X53751Y-31057D01*
X53751Y-31058D01*
X53761Y-32991D01*
X53407Y-33310D01*
X53100Y-33310D01*
X53100Y-29075D01*
X53025Y-28895D01*
X52887Y-28757D01*
X52707Y-28683D01*
X52512Y-28682D01*
X52332Y-28757D01*
X52194Y-28895D01*
X52120Y-29075D01*
X52119Y-29270D01*
X52194Y-29450D01*
X52332Y-29588D01*
X52512Y-29662D01*
X52707Y-29663D01*
X52887Y-29588D01*
X53025Y-29450D01*
X53099Y-29270D01*
X53100Y-29075D01*
X53100Y-33310D01*
X52100Y-33310D01*
X52100Y-29075D01*
X52025Y-28895D01*
X51887Y-28757D01*
X51707Y-28683D01*
X51512Y-28682D01*
X51332Y-28757D01*
X51194Y-28895D01*
X51120Y-29075D01*
X51119Y-29270D01*
X51194Y-29450D01*
X51332Y-29588D01*
X51512Y-29662D01*
X51707Y-29663D01*
X51887Y-29588D01*
X52025Y-29450D01*
X52099Y-29270D01*
X52100Y-29075D01*
X52100Y-33310D01*
X51100Y-33310D01*
X51100Y-29075D01*
X51025Y-28895D01*
X50887Y-28757D01*
X50707Y-28683D01*
X50512Y-28682D01*
X50332Y-28757D01*
X50194Y-28895D01*
X50120Y-29075D01*
X50119Y-29270D01*
X50194Y-29450D01*
X50332Y-29588D01*
X50512Y-29662D01*
X50707Y-29663D01*
X50887Y-29588D01*
X51025Y-29450D01*
X51099Y-29270D01*
X51100Y-29075D01*
X51100Y-33310D01*
X49760Y-33310D01*
X49760Y-29176D01*
X49662Y-28940D01*
X49483Y-28760D01*
X49247Y-28663D01*
X48993Y-28662D01*
X48757Y-28760D01*
X48577Y-28939D01*
X48480Y-29175D01*
X48479Y-29429D01*
X48577Y-29665D01*
X48756Y-29845D01*
X48992Y-29942D01*
X49246Y-29943D01*
X49482Y-29845D01*
X49662Y-29666D01*
X49759Y-29430D01*
X49760Y-29176D01*
X49760Y-33310D01*
X47300Y-33310D01*
X47208Y-33328D01*
X47161Y-33359D01*
X47130Y-33380D01*
X46730Y-33780D01*
X46687Y-33843D01*
X46687Y-32141D01*
X46687Y-30141D01*
X46674Y-29890D01*
X46604Y-29721D01*
X46521Y-29663D01*
X46436Y-29748D01*
X46436Y-29578D01*
X46378Y-29495D01*
X46141Y-29412D01*
X45890Y-29425D01*
X45721Y-29495D01*
X45663Y-29578D01*
X46050Y-29965D01*
X46436Y-29578D01*
X46436Y-29748D01*
X46134Y-30050D01*
X46521Y-30436D01*
X46604Y-30378D01*
X46687Y-30141D01*
X46687Y-32141D01*
X46674Y-31890D01*
X46604Y-31721D01*
X46521Y-31663D01*
X46436Y-31748D01*
X46436Y-31578D01*
X46436Y-30521D01*
X46050Y-30134D01*
X45965Y-30219D01*
X45965Y-30050D01*
X45578Y-29663D01*
X45495Y-29721D01*
X45412Y-29958D01*
X45425Y-30209D01*
X45495Y-30378D01*
X45578Y-30436D01*
X45965Y-30050D01*
X45965Y-30219D01*
X45663Y-30521D01*
X45721Y-30604D01*
X45958Y-30687D01*
X46209Y-30674D01*
X46378Y-30604D01*
X46436Y-30521D01*
X46436Y-31578D01*
X46378Y-31495D01*
X46141Y-31412D01*
X45890Y-31425D01*
X45721Y-31495D01*
X45682Y-31551D01*
X45682Y-30924D01*
X45586Y-30692D01*
X45408Y-30514D01*
X45176Y-30417D01*
X44924Y-30417D01*
X44692Y-30513D01*
X44687Y-30518D01*
X44687Y-30141D01*
X44674Y-29890D01*
X44604Y-29721D01*
X44521Y-29663D01*
X44436Y-29748D01*
X44436Y-29578D01*
X44378Y-29495D01*
X44141Y-29412D01*
X43890Y-29425D01*
X43721Y-29495D01*
X43663Y-29578D01*
X44050Y-29965D01*
X44436Y-29578D01*
X44436Y-29748D01*
X44134Y-30050D01*
X44521Y-30436D01*
X44604Y-30378D01*
X44687Y-30141D01*
X44687Y-30518D01*
X44514Y-30691D01*
X44436Y-30879D01*
X44436Y-30521D01*
X44050Y-30134D01*
X43965Y-30219D01*
X43965Y-30050D01*
X43578Y-29663D01*
X43495Y-29721D01*
X43412Y-29958D01*
X43425Y-30209D01*
X43495Y-30378D01*
X43578Y-30436D01*
X43965Y-30050D01*
X43965Y-30219D01*
X43663Y-30521D01*
X43721Y-30604D01*
X43958Y-30687D01*
X44209Y-30674D01*
X44378Y-30604D01*
X44436Y-30521D01*
X44436Y-30879D01*
X44417Y-30923D01*
X44417Y-31175D01*
X44513Y-31407D01*
X44691Y-31585D01*
X44923Y-31682D01*
X45175Y-31682D01*
X45407Y-31586D01*
X45585Y-31408D01*
X45682Y-31176D01*
X45682Y-30924D01*
X45682Y-31551D01*
X45663Y-31578D01*
X46050Y-31965D01*
X46436Y-31578D01*
X46436Y-31748D01*
X46134Y-32050D01*
X46521Y-32436D01*
X46604Y-32378D01*
X46687Y-32141D01*
X46687Y-33843D01*
X46678Y-33858D01*
X46660Y-33950D01*
X46660Y-34044D01*
X46633Y-34071D01*
X46585Y-34187D01*
X46584Y-34312D01*
X46632Y-34428D01*
X46721Y-34516D01*
X46837Y-34564D01*
X46962Y-34565D01*
X47078Y-34517D01*
X47166Y-34428D01*
X47214Y-34312D01*
X47215Y-34187D01*
X47167Y-34071D01*
X47142Y-34046D01*
X47399Y-33790D01*
X52925Y-33790D01*
X52821Y-33832D01*
X52733Y-33921D01*
X52685Y-34037D01*
X52684Y-34162D01*
X52732Y-34278D01*
X52764Y-34310D01*
X49299Y-34310D01*
X49115Y-34125D01*
X49115Y-34087D01*
X49067Y-33971D01*
X48978Y-33883D01*
X48862Y-33835D01*
X48737Y-33834D01*
X48621Y-33882D01*
X48533Y-33971D01*
X48485Y-34087D01*
X48484Y-34212D01*
X48532Y-34328D01*
X48621Y-34416D01*
X48737Y-34464D01*
X48775Y-34464D01*
X49030Y-34719D01*
X49030Y-34719D01*
X49052Y-34734D01*
X49051Y-34734D01*
X49017Y-34734D01*
X48982Y-34769D01*
X48982Y-35168D01*
X48989Y-35168D01*
X48989Y-35288D01*
X48982Y-35288D01*
X48982Y-35688D01*
X49017Y-35723D01*
X49051Y-35723D01*
X49107Y-35723D01*
X49115Y-35719D01*
X49115Y-35854D01*
X49091Y-35845D01*
X49035Y-35845D01*
X49000Y-35845D01*
X48965Y-35880D01*
X48965Y-36279D01*
X48973Y-36279D01*
X48973Y-36399D01*
X48965Y-36399D01*
X48965Y-36798D01*
X48984Y-36817D01*
X48862Y-36939D01*
X48862Y-35688D01*
X48862Y-35288D01*
X48862Y-35168D01*
X48862Y-34769D01*
X48827Y-34734D01*
X48792Y-34734D01*
X48736Y-34734D01*
X48685Y-34755D01*
X48645Y-34795D01*
X48624Y-34846D01*
X48624Y-35133D01*
X48659Y-35168D01*
X48862Y-35168D01*
X48862Y-35288D01*
X48659Y-35288D01*
X48624Y-35323D01*
X48624Y-35610D01*
X48645Y-35662D01*
X48685Y-35701D01*
X48736Y-35723D01*
X48792Y-35723D01*
X48827Y-35723D01*
X48862Y-35688D01*
X48862Y-36939D01*
X48845Y-36955D01*
X48845Y-36798D01*
X48845Y-36399D01*
X48845Y-36279D01*
X48845Y-35880D01*
X48810Y-35845D01*
X48776Y-35845D01*
X48720Y-35845D01*
X48669Y-35866D01*
X48629Y-35905D01*
X48608Y-35957D01*
X48608Y-36244D01*
X48643Y-36279D01*
X48845Y-36279D01*
X48845Y-36399D01*
X48643Y-36399D01*
X48608Y-36434D01*
X48608Y-36721D01*
X48629Y-36772D01*
X48669Y-36812D01*
X48720Y-36833D01*
X48776Y-36833D01*
X48810Y-36833D01*
X48845Y-36798D01*
X48845Y-36955D01*
X48828Y-36972D01*
X47841Y-36972D01*
X46844Y-35975D01*
X46787Y-35938D01*
X46787Y-35291D01*
X46774Y-35040D01*
X46704Y-34871D01*
X46621Y-34813D01*
X46536Y-34898D01*
X46536Y-34728D01*
X46478Y-34645D01*
X46436Y-34630D01*
X46436Y-32521D01*
X46050Y-32134D01*
X45965Y-32219D01*
X45965Y-32050D01*
X45578Y-31663D01*
X45495Y-31721D01*
X45412Y-31958D01*
X45425Y-32209D01*
X45495Y-32378D01*
X45578Y-32436D01*
X45965Y-32050D01*
X45965Y-32219D01*
X45663Y-32521D01*
X45721Y-32604D01*
X45958Y-32687D01*
X46209Y-32674D01*
X46378Y-32604D01*
X46436Y-32521D01*
X46436Y-34630D01*
X46241Y-34562D01*
X45990Y-34575D01*
X45821Y-34645D01*
X45763Y-34728D01*
X46150Y-35115D01*
X46536Y-34728D01*
X46536Y-34898D01*
X46234Y-35200D01*
X46621Y-35586D01*
X46704Y-35528D01*
X46787Y-35291D01*
X46787Y-35938D01*
X46741Y-35906D01*
X46620Y-35882D01*
X46536Y-35882D01*
X46536Y-35671D01*
X46150Y-35284D01*
X46065Y-35369D01*
X46065Y-35200D01*
X45678Y-34813D01*
X45595Y-34871D01*
X45512Y-35108D01*
X45525Y-35359D01*
X45595Y-35528D01*
X45678Y-35586D01*
X46065Y-35200D01*
X46065Y-35369D01*
X45763Y-35671D01*
X45821Y-35754D01*
X46058Y-35837D01*
X46309Y-35824D01*
X46478Y-35754D01*
X46536Y-35671D01*
X46536Y-35882D01*
X45702Y-35882D01*
X45686Y-35842D01*
X45508Y-35664D01*
X45276Y-35567D01*
X45024Y-35567D01*
X44792Y-35663D01*
X44787Y-35668D01*
X44787Y-35291D01*
X44774Y-35040D01*
X44704Y-34871D01*
X44687Y-34859D01*
X44687Y-32141D01*
X44674Y-31890D01*
X44604Y-31721D01*
X44521Y-31663D01*
X44436Y-31748D01*
X44436Y-31578D01*
X44378Y-31495D01*
X44141Y-31412D01*
X43890Y-31425D01*
X43721Y-31495D01*
X43663Y-31578D01*
X44050Y-31965D01*
X44436Y-31578D01*
X44436Y-31748D01*
X44134Y-32050D01*
X44521Y-32436D01*
X44604Y-32378D01*
X44687Y-32141D01*
X44687Y-34859D01*
X44621Y-34813D01*
X44536Y-34898D01*
X44536Y-34728D01*
X44478Y-34645D01*
X44436Y-34630D01*
X44436Y-32521D01*
X44050Y-32134D01*
X43965Y-32219D01*
X43965Y-32050D01*
X43578Y-31663D01*
X43495Y-31721D01*
X43412Y-31958D01*
X43425Y-32209D01*
X43495Y-32378D01*
X43578Y-32436D01*
X43965Y-32050D01*
X43965Y-32219D01*
X43663Y-32521D01*
X43721Y-32604D01*
X43958Y-32687D01*
X44209Y-32674D01*
X44378Y-32604D01*
X44436Y-32521D01*
X44436Y-34630D01*
X44241Y-34562D01*
X43990Y-34575D01*
X43821Y-34645D01*
X43763Y-34728D01*
X44150Y-35115D01*
X44536Y-34728D01*
X44536Y-34898D01*
X44234Y-35200D01*
X44621Y-35586D01*
X44704Y-35528D01*
X44787Y-35291D01*
X44787Y-35668D01*
X44614Y-35841D01*
X44536Y-36029D01*
X44536Y-35671D01*
X44150Y-35284D01*
X44065Y-35369D01*
X44065Y-35200D01*
X43678Y-34813D01*
X43595Y-34871D01*
X43512Y-35108D01*
X43525Y-35359D01*
X43595Y-35528D01*
X43678Y-35586D01*
X44065Y-35200D01*
X44065Y-35369D01*
X43763Y-35671D01*
X43821Y-35754D01*
X44058Y-35837D01*
X44309Y-35824D01*
X44478Y-35754D01*
X44536Y-35671D01*
X44536Y-36029D01*
X44517Y-36073D01*
X44517Y-36325D01*
X44613Y-36557D01*
X44791Y-36735D01*
X45023Y-36832D01*
X45275Y-36832D01*
X45507Y-36736D01*
X45685Y-36558D01*
X45702Y-36517D01*
X46488Y-36517D01*
X47485Y-37514D01*
X47485Y-37514D01*
X47588Y-37583D01*
X47710Y-37607D01*
X48870Y-37607D01*
X48960Y-37607D01*
X49081Y-37583D01*
X49081Y-37583D01*
X49184Y-37514D01*
X49564Y-37134D01*
X49564Y-37134D01*
X49633Y-37031D01*
X49657Y-36910D01*
X49657Y-36910D01*
X49657Y-36833D01*
X49677Y-36833D01*
X49712Y-36798D01*
X49712Y-36399D01*
X49704Y-36399D01*
X49704Y-36279D01*
X49712Y-36279D01*
X49712Y-35880D01*
X49677Y-35845D01*
X49642Y-35845D01*
X49595Y-35845D01*
X49595Y-35719D01*
X49602Y-35723D01*
X49658Y-35723D01*
X49693Y-35723D01*
X49728Y-35688D01*
X49728Y-35288D01*
X49720Y-35288D01*
X49720Y-35168D01*
X49728Y-35168D01*
X49728Y-35160D01*
X49848Y-35160D01*
X49848Y-35168D01*
X49856Y-35168D01*
X49856Y-35288D01*
X49848Y-35288D01*
X49848Y-35688D01*
X49883Y-35723D01*
X49917Y-35723D01*
X49973Y-35723D01*
X50004Y-35710D01*
X50035Y-35723D01*
X50091Y-35723D01*
X50406Y-35723D01*
X50437Y-35710D01*
X50468Y-35723D01*
X50524Y-35723D01*
X50559Y-35723D01*
X50594Y-35688D01*
X50594Y-35288D01*
X50586Y-35288D01*
X50586Y-35168D01*
X50594Y-35168D01*
X50594Y-35160D01*
X50714Y-35160D01*
X50714Y-35168D01*
X50722Y-35168D01*
X50722Y-35288D01*
X50714Y-35288D01*
X50714Y-35688D01*
X50749Y-35723D01*
X50784Y-35723D01*
X50839Y-35723D01*
X50870Y-35710D01*
X50901Y-35723D01*
X50957Y-35723D01*
X51272Y-35723D01*
X51324Y-35701D01*
X51363Y-35662D01*
X51384Y-35611D01*
X51384Y-35555D01*
X51384Y-34846D01*
X51363Y-34795D01*
X51358Y-34790D01*
X52312Y-34790D01*
X52307Y-34795D01*
X52286Y-34846D01*
X52285Y-34902D01*
X52285Y-35610D01*
X52307Y-35662D01*
X52346Y-35701D01*
X52398Y-35723D01*
X52453Y-35723D01*
X52768Y-35723D01*
X52800Y-35710D01*
X52831Y-35723D01*
X52886Y-35723D01*
X53201Y-35723D01*
X53233Y-35710D01*
X53264Y-35723D01*
X53319Y-35723D01*
X53634Y-35723D01*
X53666Y-35710D01*
X53697Y-35723D01*
X53752Y-35723D01*
X53787Y-35723D01*
X53822Y-35688D01*
X53822Y-35288D01*
X53814Y-35288D01*
X53814Y-35168D01*
X53822Y-35168D01*
X53822Y-35160D01*
X53942Y-35160D01*
X53942Y-35168D01*
X53950Y-35168D01*
X53950Y-35288D01*
X53942Y-35288D01*
X53942Y-35688D01*
X53977Y-35723D01*
X54012Y-35723D01*
X54068Y-35723D01*
X54099Y-35710D01*
X54130Y-35723D01*
X54185Y-35723D01*
X54500Y-35723D01*
X54532Y-35710D01*
X54563Y-35723D01*
X54619Y-35723D01*
X54934Y-35723D01*
X54965Y-35710D01*
X54996Y-35723D01*
X55052Y-35723D01*
X55367Y-35723D01*
X55398Y-35710D01*
X55429Y-35723D01*
X55485Y-35723D01*
X55800Y-35723D01*
X55851Y-35701D01*
X55891Y-35662D01*
X55912Y-35611D01*
X55912Y-35555D01*
X55912Y-34846D01*
X55891Y-34795D01*
X55851Y-34755D01*
X55800Y-34734D01*
X55744Y-34734D01*
X55429Y-34734D01*
X55398Y-34747D01*
X55367Y-34734D01*
X55311Y-34734D01*
X54996Y-34734D01*
X54965Y-34747D01*
X54934Y-34734D01*
X54878Y-34734D01*
X54563Y-34734D01*
X54532Y-34747D01*
X54501Y-34734D01*
X54445Y-34734D01*
X54197Y-34734D01*
X54219Y-34719D01*
X55169Y-33769D01*
X55169Y-33769D01*
X55221Y-33691D01*
X55239Y-33600D01*
X55240Y-33600D01*
X55240Y-32496D01*
X55293Y-32550D01*
X55409Y-32598D01*
X55534Y-32598D01*
X55650Y-32550D01*
X55739Y-32462D01*
X55787Y-32346D01*
X55787Y-32307D01*
X58455Y-29639D01*
X58512Y-29662D01*
X58707Y-29663D01*
X58887Y-29588D01*
X59025Y-29450D01*
X59099Y-29270D01*
X59100Y-29075D01*
X59100Y-31334D01*
X59017Y-31334D01*
X58865Y-31397D01*
X58748Y-31514D01*
X58685Y-31667D01*
X58684Y-31832D01*
X58747Y-31984D01*
X58864Y-32101D01*
X59017Y-32164D01*
X59182Y-32165D01*
X59334Y-32102D01*
X59451Y-31985D01*
X59514Y-31832D01*
X59515Y-31667D01*
X59515Y-33767D01*
X58521Y-34761D01*
X58521Y-31789D01*
X58504Y-31625D01*
X58474Y-31552D01*
X58413Y-31521D01*
X58328Y-31606D01*
X58328Y-31436D01*
X58297Y-31375D01*
X58139Y-31328D01*
X57975Y-31345D01*
X57902Y-31375D01*
X57871Y-31436D01*
X58100Y-31665D01*
X58328Y-31436D01*
X58328Y-31606D01*
X58184Y-31750D01*
X58413Y-31978D01*
X58474Y-31947D01*
X58521Y-31789D01*
X58521Y-34761D01*
X58328Y-34953D01*
X58328Y-32063D01*
X58100Y-31834D01*
X58015Y-31919D01*
X58015Y-31750D01*
X57786Y-31521D01*
X57725Y-31552D01*
X57678Y-31710D01*
X57695Y-31874D01*
X57725Y-31947D01*
X57786Y-31978D01*
X58015Y-31750D01*
X58015Y-31919D01*
X57871Y-32063D01*
X57902Y-32124D01*
X58060Y-32171D01*
X58224Y-32154D01*
X58297Y-32124D01*
X58328Y-32063D01*
X58328Y-34953D01*
X57074Y-36208D01*
X57022Y-36286D01*
X57004Y-36377D01*
X57004Y-37668D01*
X56977Y-37695D01*
X56929Y-37811D01*
X56929Y-37936D01*
X56976Y-38052D01*
X57065Y-38140D01*
X57077Y-38145D01*
X56584Y-38145D01*
X56595Y-38141D01*
X56684Y-38052D01*
X56732Y-37936D01*
X56732Y-37811D01*
X56684Y-37695D01*
X56595Y-37607D01*
X56480Y-37559D01*
X56354Y-37558D01*
X56239Y-37606D01*
X56150Y-37695D01*
X56102Y-37811D01*
X56102Y-37936D01*
X56150Y-38052D01*
X56238Y-38140D01*
X56250Y-38145D01*
X52667Y-38145D01*
X52667Y-36665D01*
X52667Y-35957D01*
X52646Y-35905D01*
X52607Y-35866D01*
X52555Y-35845D01*
X52500Y-35845D01*
X52185Y-35845D01*
X52153Y-35857D01*
X52122Y-35845D01*
X52067Y-35845D01*
X51752Y-35845D01*
X51720Y-35857D01*
X51689Y-35845D01*
X51634Y-35845D01*
X51319Y-35845D01*
X51287Y-35857D01*
X51256Y-35845D01*
X51201Y-35845D01*
X51166Y-35845D01*
X51131Y-35880D01*
X51131Y-36279D01*
X51139Y-36279D01*
X51139Y-36399D01*
X51131Y-36399D01*
X51131Y-36798D01*
X51166Y-36833D01*
X51201Y-36833D01*
X51256Y-36833D01*
X51287Y-36820D01*
X51318Y-36833D01*
X51374Y-36833D01*
X51689Y-36833D01*
X51720Y-36820D01*
X51751Y-36833D01*
X51807Y-36833D01*
X52122Y-36833D01*
X52153Y-36820D01*
X52185Y-36833D01*
X52240Y-36833D01*
X52555Y-36833D01*
X52607Y-36812D01*
X52646Y-36773D01*
X52667Y-36721D01*
X52667Y-36665D01*
X52667Y-38145D01*
X51011Y-38145D01*
X51011Y-36798D01*
X51011Y-36399D01*
X51003Y-36399D01*
X51003Y-36279D01*
X51011Y-36279D01*
X51011Y-35880D01*
X50976Y-35845D01*
X50941Y-35845D01*
X50885Y-35845D01*
X50854Y-35857D01*
X50823Y-35845D01*
X50767Y-35845D01*
X50452Y-35845D01*
X50421Y-35857D01*
X50390Y-35845D01*
X50334Y-35845D01*
X50019Y-35845D01*
X49988Y-35857D01*
X49957Y-35845D01*
X49901Y-35845D01*
X49867Y-35845D01*
X49832Y-35880D01*
X49832Y-36279D01*
X49839Y-36279D01*
X49839Y-36399D01*
X49832Y-36399D01*
X49832Y-36798D01*
X49867Y-36833D01*
X49901Y-36833D01*
X49957Y-36833D01*
X49988Y-36820D01*
X50019Y-36833D01*
X50075Y-36833D01*
X50390Y-36833D01*
X50421Y-36820D01*
X50452Y-36833D01*
X50508Y-36833D01*
X50823Y-36833D01*
X50854Y-36820D01*
X50885Y-36833D01*
X50941Y-36833D01*
X50976Y-36833D01*
X51011Y-36798D01*
X51011Y-38145D01*
X47913Y-38145D01*
X47821Y-38164D01*
X47743Y-38216D01*
X47219Y-38740D01*
X47181Y-38740D01*
X47065Y-38787D01*
X46977Y-38876D01*
X46929Y-38992D01*
X46929Y-39117D01*
X46976Y-39233D01*
X47065Y-39322D01*
X47181Y-39370D01*
X47306Y-39370D01*
X47422Y-39322D01*
X47510Y-39233D01*
X47559Y-39118D01*
X47559Y-39079D01*
X48012Y-38625D01*
X48633Y-38625D01*
X47298Y-39960D01*
X47260Y-39960D01*
X47144Y-40008D01*
X47055Y-40096D01*
X47007Y-40212D01*
X47007Y-40337D01*
X47055Y-40453D01*
X47144Y-40542D01*
X47259Y-40590D01*
X47385Y-40590D01*
X47501Y-40542D01*
X47589Y-40454D01*
X47637Y-40338D01*
X47637Y-40300D01*
X48918Y-39019D01*
X50395Y-39019D01*
X50341Y-39030D01*
X50263Y-39082D01*
X50035Y-39310D01*
X49983Y-39388D01*
X49965Y-39479D01*
X49965Y-39588D01*
X49957Y-39585D01*
X49901Y-39585D01*
X49586Y-39585D01*
X49555Y-39598D01*
X49524Y-39585D01*
X49468Y-39585D01*
X49153Y-39585D01*
X49122Y-39598D01*
X49091Y-39585D01*
X49035Y-39585D01*
X48720Y-39585D01*
X48669Y-39606D01*
X48629Y-39645D01*
X48608Y-39697D01*
X48608Y-39752D01*
X48608Y-39949D01*
X47940Y-40617D01*
X47888Y-40695D01*
X47870Y-40787D01*
X47870Y-42401D01*
X47888Y-42493D01*
X47940Y-42571D01*
X50617Y-45248D01*
X50695Y-45300D01*
X50787Y-45318D01*
X51959Y-45318D01*
X51986Y-45345D01*
X52102Y-45393D01*
X52227Y-45393D01*
X52343Y-45345D01*
X52432Y-45257D01*
X52480Y-45141D01*
X52480Y-45016D01*
X52432Y-44900D01*
X52344Y-44811D01*
X52228Y-44763D01*
X52102Y-44763D01*
X51987Y-44811D01*
X51959Y-44838D01*
X50886Y-44838D01*
X49295Y-43247D01*
X49295Y-42302D01*
X49295Y-41902D01*
X49295Y-41782D01*
X49295Y-41383D01*
X49260Y-41348D01*
X49225Y-41348D01*
X49169Y-41348D01*
X49138Y-41361D01*
X49107Y-41348D01*
X49051Y-41348D01*
X49017Y-41348D01*
X48982Y-41383D01*
X48982Y-41782D01*
X49092Y-41782D01*
X49184Y-41782D01*
X49295Y-41782D01*
X49295Y-41902D01*
X49184Y-41902D01*
X49092Y-41902D01*
X48982Y-41902D01*
X48982Y-42302D01*
X49017Y-42337D01*
X49051Y-42337D01*
X49107Y-42337D01*
X49138Y-42324D01*
X49169Y-42337D01*
X49225Y-42337D01*
X49260Y-42337D01*
X49295Y-42302D01*
X49295Y-43247D01*
X48862Y-42813D01*
X48862Y-42302D01*
X48862Y-41902D01*
X48862Y-41782D01*
X48862Y-41383D01*
X48827Y-41348D01*
X48792Y-41348D01*
X48736Y-41348D01*
X48685Y-41369D01*
X48645Y-41409D01*
X48624Y-41460D01*
X48624Y-41747D01*
X48659Y-41782D01*
X48862Y-41782D01*
X48862Y-41902D01*
X48659Y-41902D01*
X48624Y-41937D01*
X48624Y-42224D01*
X48645Y-42276D01*
X48685Y-42315D01*
X48736Y-42337D01*
X48792Y-42337D01*
X48827Y-42337D01*
X48862Y-42302D01*
X48862Y-42813D01*
X48350Y-42302D01*
X48350Y-40886D01*
X48680Y-40557D01*
X48720Y-40573D01*
X48776Y-40573D01*
X49091Y-40573D01*
X49110Y-40566D01*
X49110Y-40900D01*
X49128Y-40991D01*
X49180Y-41069D01*
X49258Y-41121D01*
X49350Y-41140D01*
X49750Y-41140D01*
X50010Y-41140D01*
X50010Y-41359D01*
X50004Y-41361D01*
X49973Y-41348D01*
X49917Y-41348D01*
X49602Y-41348D01*
X49571Y-41361D01*
X49540Y-41348D01*
X49484Y-41348D01*
X49450Y-41348D01*
X49415Y-41383D01*
X49415Y-41782D01*
X49422Y-41782D01*
X49422Y-41902D01*
X49415Y-41902D01*
X49415Y-42302D01*
X49450Y-42337D01*
X49484Y-42337D01*
X49540Y-42337D01*
X49571Y-42324D01*
X49602Y-42337D01*
X49658Y-42337D01*
X49973Y-42337D01*
X49981Y-42334D01*
X49981Y-42898D01*
X49999Y-42990D01*
X50051Y-43068D01*
X51641Y-44657D01*
X51641Y-44657D01*
X51719Y-44709D01*
X51811Y-44728D01*
X56396Y-44728D01*
X56860Y-45191D01*
X56860Y-47831D01*
X56822Y-47847D01*
X56684Y-47985D01*
X56610Y-48165D01*
X56609Y-48360D01*
X56684Y-48540D01*
X56822Y-48678D01*
X57002Y-48752D01*
X57197Y-48753D01*
X57377Y-48678D01*
X57515Y-48540D01*
X57589Y-48360D01*
X57590Y-48165D01*
X57515Y-47985D01*
X57377Y-47847D01*
X57340Y-47832D01*
X57340Y-45092D01*
X57321Y-45000D01*
X57269Y-44922D01*
X57269Y-44922D01*
X56737Y-44390D01*
X58200Y-44390D01*
X60430Y-46619D01*
X60430Y-46619D01*
X60508Y-46671D01*
X60600Y-46690D01*
X60750Y-46690D01*
X62362Y-46690D01*
X62388Y-46715D01*
X62503Y-46763D01*
X62629Y-46763D01*
X62745Y-46716D01*
X62833Y-46627D01*
X62881Y-46511D01*
X62881Y-46386D01*
X62834Y-46270D01*
X62745Y-46181D01*
X62629Y-46133D01*
X62591Y-46133D01*
X62728Y-45996D01*
X62728Y-45996D01*
X62780Y-45918D01*
X62799Y-45826D01*
X62799Y-45826D01*
X62799Y-44312D01*
X63288Y-43822D01*
X63967Y-43822D01*
X63994Y-43849D01*
X64110Y-43897D01*
X64235Y-43897D01*
X64351Y-43849D01*
X64440Y-43761D01*
X64488Y-43645D01*
X64488Y-43520D01*
X64440Y-43404D01*
X64351Y-43315D01*
X64236Y-43267D01*
X64110Y-43267D01*
X63995Y-43315D01*
X63967Y-43342D01*
X63188Y-43342D01*
X63097Y-43360D01*
X63019Y-43412D01*
X62389Y-44042D01*
X62365Y-44077D01*
X62365Y-43385D01*
X62365Y-43385D01*
X62347Y-43293D01*
X62316Y-43247D01*
X62295Y-43216D01*
X62295Y-43216D01*
X61744Y-42664D01*
X61666Y-42612D01*
X61574Y-42594D01*
X60835Y-42594D01*
X60808Y-42567D01*
X60692Y-42519D01*
X60567Y-42519D01*
X60451Y-42567D01*
X60363Y-42655D01*
X60314Y-42771D01*
X60314Y-42897D01*
X60362Y-43012D01*
X60451Y-43101D01*
X60566Y-43149D01*
X60692Y-43149D01*
X60808Y-43101D01*
X60835Y-43074D01*
X61475Y-43074D01*
X61885Y-43485D01*
X61885Y-44330D01*
X61885Y-45345D01*
X61859Y-45372D01*
X61811Y-45488D01*
X61810Y-45613D01*
X61858Y-45729D01*
X61873Y-45744D01*
X61565Y-45744D01*
X61480Y-45708D01*
X61354Y-45708D01*
X61239Y-45756D01*
X61150Y-45844D01*
X61102Y-45960D01*
X61102Y-46086D01*
X61150Y-46201D01*
X61158Y-46210D01*
X60750Y-46210D01*
X60699Y-46210D01*
X58469Y-43980D01*
X58391Y-43928D01*
X58300Y-43910D01*
X52956Y-43910D01*
X52956Y-42302D01*
X52956Y-41902D01*
X52948Y-41902D01*
X52948Y-41782D01*
X52956Y-41782D01*
X52956Y-41383D01*
X52921Y-41348D01*
X52886Y-41348D01*
X52831Y-41348D01*
X52800Y-41361D01*
X52768Y-41348D01*
X52713Y-41348D01*
X52398Y-41348D01*
X52346Y-41369D01*
X52307Y-41409D01*
X52286Y-41460D01*
X52285Y-41516D01*
X52285Y-42224D01*
X52307Y-42276D01*
X52346Y-42315D01*
X52398Y-42337D01*
X52453Y-42337D01*
X52768Y-42337D01*
X52800Y-42324D01*
X52831Y-42337D01*
X52886Y-42337D01*
X52921Y-42337D01*
X52956Y-42302D01*
X52956Y-43910D01*
X52426Y-43910D01*
X52344Y-43827D01*
X52228Y-43779D01*
X52102Y-43779D01*
X51987Y-43827D01*
X51976Y-43837D01*
X51144Y-43005D01*
X51144Y-43005D01*
X51144Y-43005D01*
X50890Y-42750D01*
X50890Y-42332D01*
X50901Y-42337D01*
X50957Y-42337D01*
X51272Y-42337D01*
X51324Y-42315D01*
X51363Y-42276D01*
X51384Y-42225D01*
X51384Y-42169D01*
X51384Y-41460D01*
X51363Y-41409D01*
X51324Y-41369D01*
X51272Y-41348D01*
X51217Y-41348D01*
X50902Y-41348D01*
X50870Y-41361D01*
X50839Y-41348D01*
X50784Y-41348D01*
X50490Y-41348D01*
X50490Y-41090D01*
X52728Y-41090D01*
X53100Y-41090D01*
X53160Y-41149D01*
X53160Y-41348D01*
X53146Y-41348D01*
X53111Y-41348D01*
X53076Y-41383D01*
X53076Y-41782D01*
X53084Y-41782D01*
X53084Y-41902D01*
X53076Y-41902D01*
X53076Y-42302D01*
X53111Y-42337D01*
X53146Y-42337D01*
X53201Y-42337D01*
X53233Y-42324D01*
X53264Y-42337D01*
X53319Y-42337D01*
X53634Y-42337D01*
X53666Y-42324D01*
X53697Y-42337D01*
X53752Y-42337D01*
X54067Y-42337D01*
X54075Y-42334D01*
X54075Y-42508D01*
X54094Y-42600D01*
X54146Y-42678D01*
X54357Y-42890D01*
X54357Y-42890D01*
X54389Y-42911D01*
X54435Y-42942D01*
X54527Y-42960D01*
X54527Y-42960D01*
X57992Y-42960D01*
X58083Y-42942D01*
X58161Y-42890D01*
X59972Y-41079D01*
X59972Y-41079D01*
X60024Y-41001D01*
X60043Y-40909D01*
X60043Y-40909D01*
X60043Y-39811D01*
X60070Y-39784D01*
X60078Y-39764D01*
X60087Y-39784D01*
X60114Y-39811D01*
X60114Y-41251D01*
X60087Y-41278D01*
X60039Y-41393D01*
X60039Y-41519D01*
X60087Y-41634D01*
X60175Y-41723D01*
X60291Y-41771D01*
X60416Y-41771D01*
X60532Y-41723D01*
X60621Y-41635D01*
X60669Y-41519D01*
X60669Y-41394D01*
X60621Y-41278D01*
X60594Y-41251D01*
X60594Y-39811D01*
X60621Y-39784D01*
X60669Y-39669D01*
X60669Y-39543D01*
X60621Y-39428D01*
X60532Y-39339D01*
X60417Y-39291D01*
X60291Y-39291D01*
X60176Y-39339D01*
X60087Y-39427D01*
X60078Y-39448D01*
X60070Y-39428D01*
X59981Y-39339D01*
X59866Y-39291D01*
X59814Y-39291D01*
X59776Y-39266D01*
X59685Y-39248D01*
X58997Y-39248D01*
X58997Y-39185D01*
X58975Y-39133D01*
X58936Y-39094D01*
X58885Y-39073D01*
X58829Y-39073D01*
X58479Y-39073D01*
X58427Y-39094D01*
X58388Y-39133D01*
X58367Y-39185D01*
X58367Y-39240D01*
X58367Y-39790D01*
X58388Y-39842D01*
X58427Y-39881D01*
X58479Y-39903D01*
X58534Y-39903D01*
X58884Y-39903D01*
X58936Y-39881D01*
X58975Y-39842D01*
X58997Y-39791D01*
X58997Y-39735D01*
X58997Y-39728D01*
X59512Y-39728D01*
X59535Y-39784D01*
X59563Y-39811D01*
X59563Y-40810D01*
X57892Y-42480D01*
X54626Y-42480D01*
X54555Y-42409D01*
X54555Y-42334D01*
X54563Y-42337D01*
X54619Y-42337D01*
X54934Y-42337D01*
X54965Y-42324D01*
X54996Y-42337D01*
X55052Y-42337D01*
X55367Y-42337D01*
X55398Y-42324D01*
X55429Y-42337D01*
X55485Y-42337D01*
X55800Y-42337D01*
X55851Y-42315D01*
X55891Y-42276D01*
X55912Y-42225D01*
X55912Y-42169D01*
X55912Y-41460D01*
X55891Y-41409D01*
X55851Y-41369D01*
X55800Y-41348D01*
X55744Y-41348D01*
X55429Y-41348D01*
X55398Y-41361D01*
X55367Y-41348D01*
X55311Y-41348D01*
X54996Y-41348D01*
X54988Y-41351D01*
X54988Y-41295D01*
X55020Y-41263D01*
X56750Y-41263D01*
X57113Y-41626D01*
X57113Y-41626D01*
X57144Y-41647D01*
X57191Y-41678D01*
X57283Y-41696D01*
X57283Y-41696D01*
X57983Y-41696D01*
X58010Y-41723D01*
X58126Y-41771D01*
X58251Y-41771D01*
X58367Y-41723D01*
X58455Y-41635D01*
X58503Y-41519D01*
X58503Y-41481D01*
X58851Y-41133D01*
X58851Y-41133D01*
X58903Y-41055D01*
X58916Y-40992D01*
X58936Y-40984D01*
X58975Y-40944D01*
X58997Y-40893D01*
X58997Y-40837D01*
X58997Y-40287D01*
X58975Y-40236D01*
X58936Y-40196D01*
X58885Y-40175D01*
X58829Y-40175D01*
X58479Y-40175D01*
X58427Y-40196D01*
X58388Y-40236D01*
X58367Y-40287D01*
X58367Y-40343D01*
X58367Y-40893D01*
X58380Y-40925D01*
X58164Y-41141D01*
X58126Y-41141D01*
X58010Y-41189D01*
X57983Y-41216D01*
X57382Y-41216D01*
X57020Y-40853D01*
X56942Y-40801D01*
X56850Y-40783D01*
X54921Y-40783D01*
X54829Y-40801D01*
X54751Y-40853D01*
X54579Y-41026D01*
X54527Y-41104D01*
X54508Y-41196D01*
X54508Y-41351D01*
X54501Y-41348D01*
X54445Y-41348D01*
X54130Y-41348D01*
X54099Y-41361D01*
X54068Y-41348D01*
X54012Y-41348D01*
X53697Y-41348D01*
X53666Y-41361D01*
X53640Y-41350D01*
X53640Y-41050D01*
X53621Y-40958D01*
X53569Y-40880D01*
X53569Y-40880D01*
X53369Y-40680D01*
X53291Y-40628D01*
X53200Y-40610D01*
X52728Y-40610D01*
X52667Y-40610D01*
X52667Y-40461D01*
X52667Y-40174D01*
X52632Y-40139D01*
X52430Y-40139D01*
X52430Y-40538D01*
X52465Y-40573D01*
X52500Y-40573D01*
X52555Y-40573D01*
X52607Y-40552D01*
X52646Y-40513D01*
X52667Y-40461D01*
X52667Y-40610D01*
X50490Y-40610D01*
X50490Y-40573D01*
X50508Y-40573D01*
X50823Y-40573D01*
X50854Y-40560D01*
X50885Y-40573D01*
X50941Y-40573D01*
X51256Y-40573D01*
X51287Y-40560D01*
X51318Y-40573D01*
X51374Y-40573D01*
X51689Y-40573D01*
X51720Y-40560D01*
X51751Y-40573D01*
X51807Y-40573D01*
X52122Y-40573D01*
X52153Y-40560D01*
X52185Y-40573D01*
X52240Y-40573D01*
X52275Y-40573D01*
X52310Y-40538D01*
X52310Y-40139D01*
X52302Y-40139D01*
X52302Y-40019D01*
X52310Y-40019D01*
X52310Y-40011D01*
X52430Y-40011D01*
X52430Y-40019D01*
X52632Y-40019D01*
X52667Y-39984D01*
X52667Y-39752D01*
X56814Y-39752D01*
X57617Y-40554D01*
X57617Y-40893D01*
X57638Y-40944D01*
X57677Y-40984D01*
X57729Y-41005D01*
X57784Y-41005D01*
X58134Y-41005D01*
X58186Y-40984D01*
X58225Y-40944D01*
X58247Y-40893D01*
X58247Y-40837D01*
X58247Y-40287D01*
X58225Y-40236D01*
X58186Y-40196D01*
X58135Y-40175D01*
X58079Y-40175D01*
X57916Y-40175D01*
X57193Y-39452D01*
X57341Y-39452D01*
X57546Y-39657D01*
X57546Y-39657D01*
X57617Y-39704D01*
X57617Y-39790D01*
X57638Y-39842D01*
X57677Y-39881D01*
X57729Y-39903D01*
X57784Y-39903D01*
X58134Y-39903D01*
X58186Y-39881D01*
X58225Y-39842D01*
X58247Y-39791D01*
X58247Y-39735D01*
X58247Y-39185D01*
X58225Y-39133D01*
X58186Y-39094D01*
X58135Y-39073D01*
X58079Y-39073D01*
X57729Y-39073D01*
X57677Y-39094D01*
X57670Y-39102D01*
X57610Y-39042D01*
X57575Y-39019D01*
X61081Y-39019D01*
X66019Y-43957D01*
X66019Y-45845D01*
X65765Y-46100D01*
X65765Y-45037D01*
X65717Y-44921D01*
X65628Y-44833D01*
X65512Y-44785D01*
X65387Y-44784D01*
X65271Y-44832D01*
X65244Y-44860D01*
X63455Y-44860D01*
X63428Y-44833D01*
X63312Y-44785D01*
X63187Y-44784D01*
X63071Y-44832D01*
X62983Y-44921D01*
X62935Y-45037D01*
X62934Y-45162D01*
X62982Y-45278D01*
X63071Y-45366D01*
X63187Y-45414D01*
X63312Y-45415D01*
X63428Y-45367D01*
X63455Y-45340D01*
X65244Y-45340D01*
X65271Y-45366D01*
X65387Y-45414D01*
X65512Y-45415D01*
X65628Y-45367D01*
X65716Y-45278D01*
X65764Y-45162D01*
X65765Y-45037D01*
X65765Y-46100D01*
X64920Y-46945D01*
X64868Y-47022D01*
X64850Y-47114D01*
X64850Y-47831D01*
X64812Y-47847D01*
X64674Y-47985D01*
X64600Y-48165D01*
X64599Y-48360D01*
X64674Y-48540D01*
X64812Y-48678D01*
X64992Y-48752D01*
X65187Y-48753D01*
X65367Y-48678D01*
X65505Y-48540D01*
X65579Y-48360D01*
X65580Y-48165D01*
X65505Y-47985D01*
X65367Y-47847D01*
X65330Y-47832D01*
X65330Y-47214D01*
X65850Y-46694D01*
X65850Y-47831D01*
X65812Y-47847D01*
X65674Y-47985D01*
X65600Y-48165D01*
X65599Y-48360D01*
X65674Y-48540D01*
X65812Y-48678D01*
X65992Y-48752D01*
X66187Y-48753D01*
X66367Y-48678D01*
X66505Y-48540D01*
X66579Y-48360D01*
X66580Y-48165D01*
X66505Y-47985D01*
X66367Y-47847D01*
X66330Y-47832D01*
X66330Y-46686D01*
X66744Y-46272D01*
X66744Y-46272D01*
X66796Y-46194D01*
X66814Y-46102D01*
X66814Y-46102D01*
X66814Y-47846D01*
X66812Y-47847D01*
X66674Y-47985D01*
X66600Y-48165D01*
X66599Y-48360D01*
X66674Y-48540D01*
X66812Y-48678D01*
X66992Y-48752D01*
X67187Y-48753D01*
X67367Y-48678D01*
X67505Y-48540D01*
X67579Y-48360D01*
X67580Y-48165D01*
X67580Y-49018D01*
X64580Y-49018D01*
X64580Y-48165D01*
X64505Y-47985D01*
X64367Y-47847D01*
X64187Y-47773D01*
X63992Y-47772D01*
X63812Y-47847D01*
X63674Y-47985D01*
X63600Y-48165D01*
X63599Y-48360D01*
X63674Y-48540D01*
X63812Y-48678D01*
X63992Y-48752D01*
X64187Y-48753D01*
X64367Y-48678D01*
X64505Y-48540D01*
X64579Y-48360D01*
X64580Y-48165D01*
X64580Y-49018D01*
X63580Y-49018D01*
X63580Y-48165D01*
X63505Y-47985D01*
X63367Y-47847D01*
X63187Y-47773D01*
X62992Y-47772D01*
X62812Y-47847D01*
X62674Y-47985D01*
X62600Y-48165D01*
X62599Y-48360D01*
X62674Y-48540D01*
X62812Y-48678D01*
X62992Y-48752D01*
X63187Y-48753D01*
X63367Y-48678D01*
X63505Y-48540D01*
X63579Y-48360D01*
X63580Y-48165D01*
X63580Y-49018D01*
X61590Y-49018D01*
X61590Y-48165D01*
X61515Y-47985D01*
X61377Y-47847D01*
X61197Y-47773D01*
X61002Y-47772D01*
X60822Y-47847D01*
X60684Y-47985D01*
X60610Y-48165D01*
X60609Y-48360D01*
X60684Y-48540D01*
X60822Y-48678D01*
X61002Y-48752D01*
X61197Y-48753D01*
X61377Y-48678D01*
X61515Y-48540D01*
X61589Y-48360D01*
X61590Y-48165D01*
X61590Y-49018D01*
X60596Y-49018D01*
X60596Y-48320D01*
X60580Y-48126D01*
X60536Y-48020D01*
X60468Y-47979D01*
X60383Y-48064D01*
X60383Y-47894D01*
X60342Y-47826D01*
X60157Y-47766D01*
X59963Y-47782D01*
X59857Y-47826D01*
X59816Y-47894D01*
X60100Y-48178D01*
X60383Y-47894D01*
X60383Y-48064D01*
X60184Y-48263D01*
X60468Y-48546D01*
X60536Y-48505D01*
X60596Y-48320D01*
X60596Y-49018D01*
X60383Y-49018D01*
X60383Y-48631D01*
X60100Y-48347D01*
X60015Y-48432D01*
X60015Y-48263D01*
X59731Y-47979D01*
X59663Y-48020D01*
X59603Y-48205D01*
X59619Y-48399D01*
X59663Y-48505D01*
X59731Y-48546D01*
X60015Y-48263D01*
X60015Y-48432D01*
X59816Y-48631D01*
X59857Y-48699D01*
X60042Y-48759D01*
X60236Y-48743D01*
X60342Y-48699D01*
X60383Y-48631D01*
X60383Y-49018D01*
X59596Y-49018D01*
X59596Y-48320D01*
X59580Y-48126D01*
X59536Y-48020D01*
X59468Y-47979D01*
X59383Y-48064D01*
X59383Y-47894D01*
X59342Y-47826D01*
X59157Y-47766D01*
X58963Y-47782D01*
X58857Y-47826D01*
X58816Y-47894D01*
X59100Y-48178D01*
X59383Y-47894D01*
X59383Y-48064D01*
X59184Y-48263D01*
X59468Y-48546D01*
X59536Y-48505D01*
X59596Y-48320D01*
X59596Y-49018D01*
X59383Y-49018D01*
X59383Y-48631D01*
X59100Y-48347D01*
X59015Y-48432D01*
X59015Y-48263D01*
X58731Y-47979D01*
X58663Y-48020D01*
X58603Y-48205D01*
X58619Y-48399D01*
X58663Y-48505D01*
X58731Y-48546D01*
X59015Y-48263D01*
X59015Y-48432D01*
X58816Y-48631D01*
X58857Y-48699D01*
X59042Y-48759D01*
X59236Y-48743D01*
X59342Y-48699D01*
X59383Y-48631D01*
X59383Y-49018D01*
X58590Y-49018D01*
X58590Y-48165D01*
X58515Y-47985D01*
X58377Y-47847D01*
X58197Y-47773D01*
X58002Y-47772D01*
X57822Y-47847D01*
X57684Y-47985D01*
X57610Y-48165D01*
X57609Y-48360D01*
X57684Y-48540D01*
X57822Y-48678D01*
X58002Y-48752D01*
X58197Y-48753D01*
X58377Y-48678D01*
X58515Y-48540D01*
X58589Y-48360D01*
X58590Y-48165D01*
X58590Y-49018D01*
X56590Y-49018D01*
X56590Y-48165D01*
X56515Y-47985D01*
X56377Y-47847D01*
X56197Y-47773D01*
X56002Y-47772D01*
X55822Y-47847D01*
X55684Y-47985D01*
X55610Y-48165D01*
X55609Y-48360D01*
X55684Y-48540D01*
X55822Y-48678D01*
X56002Y-48752D01*
X56197Y-48753D01*
X56377Y-48678D01*
X56515Y-48540D01*
X56589Y-48360D01*
X56590Y-48165D01*
X56590Y-49018D01*
X55590Y-49018D01*
X55590Y-48165D01*
X55515Y-47985D01*
X55377Y-47847D01*
X55197Y-47773D01*
X55002Y-47772D01*
X54822Y-47847D01*
X54684Y-47985D01*
X54610Y-48165D01*
X54609Y-48360D01*
X54684Y-48540D01*
X54822Y-48678D01*
X55002Y-48752D01*
X55197Y-48753D01*
X55377Y-48678D01*
X55515Y-48540D01*
X55589Y-48360D01*
X55590Y-48165D01*
X55590Y-49018D01*
X54590Y-49018D01*
X54590Y-48165D01*
X54515Y-47985D01*
X54377Y-47847D01*
X54197Y-47773D01*
X54002Y-47772D01*
X53822Y-47847D01*
X53684Y-47985D01*
X53610Y-48165D01*
X53609Y-48360D01*
X53684Y-48540D01*
X53822Y-48678D01*
X54002Y-48752D01*
X54197Y-48753D01*
X54377Y-48678D01*
X54515Y-48540D01*
X54589Y-48360D01*
X54590Y-48165D01*
X54590Y-49018D01*
X52917Y-49018D01*
X52917Y-48307D01*
X52900Y-48142D01*
X52870Y-48070D01*
X52809Y-48038D01*
X52724Y-48123D01*
X52724Y-47954D01*
X52693Y-47893D01*
X52535Y-47846D01*
X52371Y-47863D01*
X52298Y-47893D01*
X52267Y-47954D01*
X52496Y-48182D01*
X52724Y-47954D01*
X52724Y-48123D01*
X52580Y-48267D01*
X52809Y-48496D01*
X52870Y-48465D01*
X52917Y-48307D01*
X52917Y-49018D01*
X52724Y-49018D01*
X52724Y-48581D01*
X52496Y-48352D01*
X52411Y-48437D01*
X52411Y-48267D01*
X52182Y-48038D01*
X52121Y-48070D01*
X52074Y-48228D01*
X52091Y-48392D01*
X52121Y-48465D01*
X52182Y-48496D01*
X52411Y-48267D01*
X52411Y-48437D01*
X52267Y-48581D01*
X52298Y-48641D01*
X52456Y-48689D01*
X52620Y-48672D01*
X52693Y-48641D01*
X52724Y-48581D01*
X52724Y-49018D01*
X51911Y-49018D01*
X51911Y-48185D01*
X51848Y-48032D01*
X51731Y-47916D01*
X51578Y-47852D01*
X51413Y-47852D01*
X51261Y-47915D01*
X51144Y-48032D01*
X51081Y-48184D01*
X51080Y-48349D01*
X51144Y-48502D01*
X51260Y-48619D01*
X51413Y-48682D01*
X51578Y-48682D01*
X51730Y-48619D01*
X51847Y-48503D01*
X51910Y-48350D01*
X51911Y-48185D01*
X51911Y-49018D01*
X50911Y-49018D01*
X50911Y-48514D01*
X50911Y-47964D01*
X50889Y-47913D01*
X50850Y-47874D01*
X50799Y-47852D01*
X50743Y-47852D01*
X50193Y-47852D01*
X50141Y-47873D01*
X50102Y-47913D01*
X50081Y-47964D01*
X50081Y-48020D01*
X50081Y-48570D01*
X50102Y-48621D01*
X50141Y-48661D01*
X50193Y-48682D01*
X50248Y-48682D01*
X50798Y-48682D01*
X50850Y-48661D01*
X50889Y-48622D01*
X50911Y-48570D01*
X50911Y-48514D01*
X50911Y-49018D01*
X49260Y-49018D01*
X49260Y-48066D01*
X49162Y-47830D01*
X48983Y-47650D01*
X48747Y-47553D01*
X48493Y-47552D01*
X48257Y-47650D01*
X48077Y-47829D01*
X47980Y-48065D01*
X47979Y-48319D01*
X48077Y-48555D01*
X48256Y-48735D01*
X48492Y-48832D01*
X48746Y-48833D01*
X48982Y-48735D01*
X49162Y-48556D01*
X49259Y-48320D01*
X49260Y-48066D01*
X49260Y-49018D01*
X46837Y-49018D01*
X46837Y-45541D01*
X46837Y-43541D01*
X46824Y-43290D01*
X46787Y-43202D01*
X46787Y-37291D01*
X46774Y-37040D01*
X46704Y-36871D01*
X46621Y-36813D01*
X46536Y-36898D01*
X46536Y-36728D01*
X46478Y-36645D01*
X46241Y-36562D01*
X45990Y-36575D01*
X45821Y-36645D01*
X45763Y-36728D01*
X46150Y-37115D01*
X46536Y-36728D01*
X46536Y-36898D01*
X46234Y-37200D01*
X46621Y-37586D01*
X46704Y-37528D01*
X46787Y-37291D01*
X46787Y-43202D01*
X46754Y-43121D01*
X46671Y-43063D01*
X46586Y-43148D01*
X46586Y-42978D01*
X46536Y-42906D01*
X46536Y-37671D01*
X46150Y-37284D01*
X46065Y-37369D01*
X46065Y-37200D01*
X45678Y-36813D01*
X45595Y-36871D01*
X45512Y-37108D01*
X45525Y-37359D01*
X45595Y-37528D01*
X45678Y-37586D01*
X46065Y-37200D01*
X46065Y-37369D01*
X45763Y-37671D01*
X45821Y-37754D01*
X46058Y-37837D01*
X46309Y-37824D01*
X46478Y-37754D01*
X46536Y-37671D01*
X46536Y-42906D01*
X46528Y-42895D01*
X46291Y-42812D01*
X46040Y-42825D01*
X45871Y-42895D01*
X45813Y-42978D01*
X46200Y-43365D01*
X46586Y-42978D01*
X46586Y-43148D01*
X46284Y-43450D01*
X46671Y-43836D01*
X46754Y-43778D01*
X46837Y-43541D01*
X46837Y-45541D01*
X46824Y-45290D01*
X46754Y-45121D01*
X46671Y-45063D01*
X46586Y-45148D01*
X46586Y-44978D01*
X46586Y-43921D01*
X46200Y-43534D01*
X46115Y-43619D01*
X46115Y-43450D01*
X45728Y-43063D01*
X45645Y-43121D01*
X45562Y-43358D01*
X45575Y-43609D01*
X45645Y-43778D01*
X45728Y-43836D01*
X46115Y-43450D01*
X46115Y-43619D01*
X45813Y-43921D01*
X45871Y-44004D01*
X46108Y-44087D01*
X46359Y-44074D01*
X46528Y-44004D01*
X46586Y-43921D01*
X46586Y-44978D01*
X46528Y-44895D01*
X46291Y-44812D01*
X46040Y-44825D01*
X45871Y-44895D01*
X45832Y-44951D01*
X45832Y-44324D01*
X45736Y-44092D01*
X45558Y-43914D01*
X45326Y-43817D01*
X45074Y-43817D01*
X44842Y-43913D01*
X44837Y-43918D01*
X44837Y-43541D01*
X44824Y-43290D01*
X44787Y-43202D01*
X44787Y-37291D01*
X44774Y-37040D01*
X44704Y-36871D01*
X44621Y-36813D01*
X44536Y-36898D01*
X44536Y-36728D01*
X44478Y-36645D01*
X44241Y-36562D01*
X43990Y-36575D01*
X43821Y-36645D01*
X43763Y-36728D01*
X44150Y-37115D01*
X44536Y-36728D01*
X44536Y-36898D01*
X44234Y-37200D01*
X44621Y-37586D01*
X44704Y-37528D01*
X44787Y-37291D01*
X44787Y-43202D01*
X44754Y-43121D01*
X44671Y-43063D01*
X44586Y-43148D01*
X44586Y-42978D01*
X44536Y-42906D01*
X44536Y-37671D01*
X44150Y-37284D01*
X44065Y-37369D01*
X44065Y-37200D01*
X43678Y-36813D01*
X43595Y-36871D01*
X43512Y-37108D01*
X43525Y-37359D01*
X43595Y-37528D01*
X43678Y-37586D01*
X44065Y-37200D01*
X44065Y-37369D01*
X43763Y-37671D01*
X43821Y-37754D01*
X44058Y-37837D01*
X44309Y-37824D01*
X44478Y-37754D01*
X44536Y-37671D01*
X44536Y-42906D01*
X44528Y-42895D01*
X44291Y-42812D01*
X44040Y-42825D01*
X43871Y-42895D01*
X43813Y-42978D01*
X44200Y-43365D01*
X44586Y-42978D01*
X44586Y-43148D01*
X44284Y-43450D01*
X44671Y-43836D01*
X44754Y-43778D01*
X44837Y-43541D01*
X44837Y-43918D01*
X44664Y-44091D01*
X44586Y-44279D01*
X44586Y-43921D01*
X44200Y-43534D01*
X44115Y-43619D01*
X44115Y-43450D01*
X43728Y-43063D01*
X43645Y-43121D01*
X43562Y-43358D01*
X43575Y-43609D01*
X43645Y-43778D01*
X43728Y-43836D01*
X44115Y-43450D01*
X44115Y-43619D01*
X43813Y-43921D01*
X43871Y-44004D01*
X44108Y-44087D01*
X44359Y-44074D01*
X44528Y-44004D01*
X44586Y-43921D01*
X44586Y-44279D01*
X44567Y-44323D01*
X44567Y-44575D01*
X44663Y-44807D01*
X44841Y-44985D01*
X45073Y-45082D01*
X45325Y-45082D01*
X45557Y-44986D01*
X45735Y-44808D01*
X45832Y-44576D01*
X45832Y-44324D01*
X45832Y-44951D01*
X45813Y-44978D01*
X46200Y-45365D01*
X46586Y-44978D01*
X46586Y-45148D01*
X46284Y-45450D01*
X46671Y-45836D01*
X46754Y-45778D01*
X46837Y-45541D01*
X46837Y-49018D01*
X46586Y-49018D01*
X46586Y-45921D01*
X46200Y-45534D01*
X46115Y-45619D01*
X46115Y-45450D01*
X45728Y-45063D01*
X45645Y-45121D01*
X45562Y-45358D01*
X45575Y-45609D01*
X45645Y-45778D01*
X45728Y-45836D01*
X46115Y-45450D01*
X46115Y-45619D01*
X45813Y-45921D01*
X45871Y-46004D01*
X46108Y-46087D01*
X46359Y-46074D01*
X46528Y-46004D01*
X46586Y-45921D01*
X46586Y-49018D01*
X44837Y-49018D01*
X44837Y-45541D01*
X44824Y-45290D01*
X44754Y-45121D01*
X44671Y-45063D01*
X44586Y-45148D01*
X44586Y-44978D01*
X44528Y-44895D01*
X44291Y-44812D01*
X44040Y-44825D01*
X43871Y-44895D01*
X43813Y-44978D01*
X44200Y-45365D01*
X44586Y-44978D01*
X44586Y-45148D01*
X44284Y-45450D01*
X44671Y-45836D01*
X44754Y-45778D01*
X44837Y-45541D01*
X44837Y-49018D01*
X44586Y-49018D01*
X44586Y-45921D01*
X44200Y-45534D01*
X44115Y-45619D01*
X44115Y-45450D01*
X43728Y-45063D01*
X43645Y-45121D01*
X43562Y-45358D01*
X43575Y-45609D01*
X43645Y-45778D01*
X43728Y-45836D01*
X44115Y-45450D01*
X44115Y-45619D01*
X43813Y-45921D01*
X43871Y-46004D01*
X44108Y-46087D01*
X44359Y-46074D01*
X44528Y-46004D01*
X44586Y-45921D01*
X44586Y-49018D01*
X43325Y-49018D01*
X43325Y-28378D01*
X68590Y-28378D01*
X68938Y-28725D01*
X68938Y-33002D01*
X68954Y-33084D01*
X69000Y-33154D01*
X70055Y-34208D01*
X70055Y-47023D01*
M02*
